<svg width="425" height="166" viewBox="0 0 425 166" fill="none" xmlns="http://www.w3.org/2000/svg">
<mask id="mask0_89_104" style="mask-type:luminance" maskUnits="userSpaceOnUse" x="377" y="0" width="50" height="50">
<path d="M426.494 10.1685L388.544 0L377.958 39.5104L415.907 49.6789L426.494 10.1685Z" fill="white"/>
</mask>
<g mask="url(#mask0_89_104)">
<path d="M412.003 31.1694C411.999 31.4762 412.073 31.7796 412.221 32.0515C412.833 33.5741 413.322 35.1417 413.686 36.7408C413.835 37.438 413.92 38.1466 413.942 38.8589C413.953 39.4895 413.826 40.1149 413.567 40.6898C413.308 41.2651 412.927 41.7768 412.444 42.1874C412.105 42.5029 411.68 42.7117 411.219 42.7881C409.585 43.1282 408.355 42.7986 407.25 41.0658C406.897 40.497 406.661 39.8602 406.358 39.2586C406.332 39.2051 406.216 39.1809 406.142 39.1674C406.064 39.1534 406.068 39.2138 406.059 39.2505C406.011 39.3648 405.979 39.4846 405.963 39.6073C405.823 40.7758 405.475 41.9093 404.94 42.9574C404.59 43.7712 404.022 44.4738 403.297 44.9887C402.928 45.2681 402.505 45.4675 402.053 45.5733C401.597 45.6783 401.13 45.6896 400.672 45.6031C400.336 45.5547 400.015 45.4231 399.744 45.2216C399.472 45.0198 399.252 44.7529 399.111 44.4469C398.836 43.8784 398.669 43.2637 398.62 42.6348C398.563 41.6706 398.516 40.709 398.468 39.7474C398.458 39.6213 398.444 39.4966 398.423 39.3728C398.431 39.3421 398.371 39.3128 398.346 39.2797C398.334 39.2625 398.318 39.2482 398.3 39.2387C398.282 39.2292 398.26 39.2239 398.239 39.2245C398.219 39.2248 398.197 39.2298 398.177 39.2395C398.161 39.2503 398.144 39.2643 398.132 39.2816C397.697 39.7912 397.27 40.3096 396.831 40.8111C395.959 41.8375 394.831 42.6203 393.561 43.0849C393.098 43.2331 392.607 43.2814 392.123 43.2267C391.639 43.1723 391.17 43.015 390.752 42.7671C390.478 42.5973 390.247 42.3746 390.063 42.111C389.883 41.8482 389.759 41.5518 389.697 41.2391C389.367 40.1914 389.338 39.0743 389.609 38.0127C389.833 37.3391 390.107 36.6831 390.436 36.0529C390.56 35.7899 390.718 35.5422 390.868 35.2859C390.926 35.1829 391.032 35.0663 390.957 34.9537C390.915 34.907 390.859 34.8763 390.797 34.8669C390.739 34.8586 390.674 34.8708 390.622 34.9034C390.114 35.1141 389.582 35.2549 389.035 35.3219C388.622 35.4219 388.189 35.4061 387.783 35.2764C387.368 35.1682 386.956 35.0336 386.558 34.8757C385.864 34.5936 385.3 34.0671 384.975 33.3978C384.649 32.7285 384.586 31.9645 384.794 31.2528C384.851 31.0524 384.966 30.8734 385.13 30.7433C385.376 30.522 385.65 30.334 385.944 30.1838C386.94 29.7323 387.943 29.2894 388.957 28.8824C389.383 28.7346 389.822 28.6145 390.264 28.5208C390.279 28.3906 390.256 28.2585 390.2 28.1397C390.144 28.021 390.056 27.9202 389.946 27.849C389.488 27.4712 389.103 27.0103 388.818 26.4925C388.273 25.6414 387.74 24.7867 387.251 23.9044C386.35 22.2925 385.459 20.6498 384.565 19.0265C384.27 18.4681 384.068 17.8692 383.963 17.2506C383.941 17.1683 383.937 17.083 383.949 16.9993C383.961 16.9156 383.989 16.835 384.036 16.7634C384.079 16.6909 384.136 16.628 384.207 16.579C384.275 16.5291 384.352 16.4935 384.435 16.4743C384.68 16.408 384.928 16.3683 385.178 16.3572C386.326 16.2875 387.472 16.5647 388.46 17.1509C388.68 17.2801 388.906 17.3978 389.139 17.504C389.186 17.5167 389.28 17.4694 389.344 17.4337C389.358 17.4197 389.369 17.4022 389.374 17.3826C389.38 17.3631 389.378 17.3422 389.373 17.323C389.213 16.8452 389.058 16.3621 388.881 15.873C388.618 15.1438 388.299 14.4782 388.033 13.7744C387.505 12.4438 387.141 11.0565 386.947 9.6415C386.907 9.22451 386.9 8.8065 386.924 8.38959C386.984 7.79878 387.275 7.2561 387.738 6.88124C387.896 6.74542 388.087 6.65162 388.292 6.60804C388.742 6.48601 389.213 6.45949 389.676 6.53003C390.138 6.60058 390.582 6.76679 390.976 7.01731C391.714 7.43565 392.347 8.01034 392.833 8.70112C393.052 9.01018 393.291 9.30503 393.532 9.59374C393.563 9.61956 393.602 9.63914 393.64 9.64931C393.681 9.66032 393.721 9.66192 393.763 9.65559C393.798 9.64071 393.834 9.6198 393.862 9.5921C393.889 9.56441 393.912 9.53145 393.925 9.49462C393.982 9.38173 394.015 9.25833 394.022 9.13188C394.023 8.04128 394.224 6.96056 394.616 5.94316C394.818 5.33848 394.945 4.71347 395.11 4.09861C395.253 3.6801 395.502 3.30612 395.84 3.0185C396.178 2.73089 396.589 2.5394 397.026 2.46365C397.19 2.4203 397.363 2.42061 397.527 2.46468C397.692 2.50874 397.845 2.5957 397.965 2.71532C398.263 2.94289 398.511 3.23419 398.686 3.56744C399.435 5.34984 400.212 7.11972 400.889 8.92906C401.118 9.69365 401.286 10.4744 401.389 11.264C401.405 11.3429 401.436 11.4198 401.474 11.491C401.505 11.5131 401.543 11.5233 401.578 11.519C401.616 11.5292 401.667 11.5427 401.688 11.4891C401.771 11.3444 401.848 11.1956 401.913 11.0419C402.56 9.4009 403.44 7.86131 404.531 6.47137C404.943 5.93375 405.478 5.50306 406.097 5.21724C406.499 5.02171 406.95 4.94445 407.394 4.99352C407.842 5.04343 408.266 5.21814 408.615 5.49658C408.843 5.68519 409.028 5.91781 409.158 6.17945C409.291 6.44194 409.363 6.72716 409.38 7.01947C409.56 8.52318 409.474 10.0458 409.124 11.5177C409.055 11.7759 408.823 12.0961 409.168 12.3006C409.403 12.4229 409.648 12.2051 409.852 12.0622C410.554 11.5326 411.314 11.0842 412.119 10.7254C412.733 10.4456 413.406 10.3104 414.083 10.329C414.46 10.3378 414.84 10.3475 415.216 10.3887C415.324 10.39 415.43 10.412 415.527 10.4533C415.624 10.4946 415.717 10.5558 415.791 10.6315C415.866 10.7072 415.923 10.7965 415.965 10.8953C416.003 10.9932 416.025 11.0991 416.024 11.205C416.095 11.7496 416.031 12.3026 415.836 12.8154C415.475 13.9375 414.825 14.9459 413.953 15.7443C413.609 15.9809 413.303 16.2734 413.057 16.6111C413.135 16.6718 413.196 16.7606 413.258 16.7574C413.593 16.7622 413.929 16.7446 414.262 16.7036C415.096 16.5652 415.939 16.4936 416.784 16.4895C417.291 16.4955 417.795 16.5621 418.287 16.6879L420.007 17.1489C420.496 17.2856 420.952 17.5295 421.338 17.8613C421.502 17.9936 421.636 18.1641 421.721 18.3563C421.808 18.5493 421.846 18.7595 421.834 18.9696C421.833 19.3013 421.763 19.6281 421.634 19.9329C421.501 20.2369 421.312 20.5125 421.071 20.7421C420.401 21.3822 419.63 21.908 418.787 22.2981C417.905 22.7029 416.982 23.0103 416.033 23.2143C415.743 23.2728 415.455 23.3475 415.173 23.4386C415.074 23.4649 415.044 23.6807 415.128 23.7562C415.251 23.8673 415.38 23.9679 415.519 24.0584C416.042 24.3437 416.58 24.5999 417.083 24.8994C418.91 26.013 420.228 27.7843 420.765 29.8401C420.824 30.04 420.86 30.2465 420.872 30.455C420.912 30.7488 420.869 31.0464 420.755 31.3192C420.642 31.592 420.456 31.829 420.216 32.0058C419.541 32.549 418.728 32.9016 417.867 33.0288C417.006 33.156 416.122 33.0518 415.314 32.7287C414.355 32.3846 413.451 31.9003 412.638 31.2933C412.45 31.1705 412.222 31.1258 412.003 31.1694ZM402.106 13.2815C402 13.8529 401.915 14.4363 401.789 15.0088C401.746 15.194 401.632 15.3549 401.474 15.4623C401.317 15.5697 401.125 15.6154 400.935 15.5905C400.591 15.5314 400.198 15.1162 400.287 14.7579C400.414 13.8411 400.442 12.9136 400.361 11.9901C400.426 11.2397 400.385 10.4833 400.241 9.74371C399.658 7.89746 398.974 6.08603 398.187 4.31677C398.043 3.91634 397.78 3.57124 397.428 3.32919C397.326 3.25236 397.203 3.20659 397.076 3.19847C396.95 3.19035 396.823 3.21965 396.715 3.28312C396.453 3.42579 396.227 3.62212 396.049 3.85817C395.87 4.09422 395.747 4.36574 395.68 4.65332C395.515 5.26818 395.35 5.88302 395.186 6.49787C394.657 8.62384 394.674 10.8499 395.241 12.9708C395.429 13.7858 395.681 14.5913 395.866 15.4054C396.055 16.2203 396.169 16.8834 396.283 17.6324C396.272 17.7133 396.247 17.7922 396.204 17.8624C396.162 17.9327 396.105 17.9935 396.038 18.0412C395.966 18.0835 395.885 18.1056 395.801 18.1039C395.717 18.1023 395.635 18.0778 395.562 18.0324C395.487 17.9978 395.42 17.9432 395.371 17.8744C395.321 17.8056 395.289 17.7246 395.281 17.6407C395.05 16.6168 394.789 15.6045 394.608 14.574C394.302 12.6147 393.489 10.766 392.246 9.20939C391.77 8.61792 391.208 8.09855 390.581 7.66931C390.193 7.40699 389.743 7.25435 389.275 7.22732C389.075 7.20546 388.873 7.2257 388.683 7.28689C388.491 7.34726 388.315 7.44712 388.164 7.57938C388.017 7.71246 387.895 7.87434 387.813 8.05586C387.73 8.23739 387.688 8.43433 387.688 8.63412C387.691 9.21935 387.741 9.80361 387.837 10.3808C388.038 11.5423 388.375 12.6766 388.843 13.7608C389.307 14.9263 389.792 16.0887 390.299 17.248C390.487 17.6712 390.714 18.0762 390.978 18.458C391.428 19.119 391.916 19.7506 392.387 20.3974C392.491 20.5273 392.577 20.6727 392.638 20.8271C392.663 20.9079 392.667 20.9946 392.645 21.0763C392.623 21.1579 392.577 21.2311 392.514 21.2882C392.457 21.3498 392.384 21.3948 392.303 21.4184C392.222 21.442 392.137 21.4434 392.054 21.4221C391.851 21.3575 391.668 21.2449 391.522 21.0949C391.256 20.7702 391.013 20.4253 390.801 20.0649C390.448 19.4873 389.974 18.9898 389.413 18.6055C389.141 18.4073 388.846 18.2426 388.583 18.0338C387.821 17.489 386.927 17.1541 385.996 17.0638C385.743 17.0339 385.49 17.0395 385.239 17.0786C385.172 17.0783 385.106 17.0942 385.047 17.1246C384.985 17.1541 384.936 17.1986 384.895 17.2518C384.856 17.3059 384.833 17.3687 384.822 17.4343C384.811 17.4998 384.817 17.567 384.837 17.6299C384.91 17.9146 385.009 18.1907 385.135 18.4543C385.986 20.0465 386.852 21.636 387.717 23.2254C387.999 23.7425 388.292 24.2559 388.641 24.7513C388.85 25.0578 389.158 25.2986 389.222 25.7045C390.035 26.8975 390.822 28.1101 392.464 28.2537C392.507 28.2586 392.548 28.2696 392.588 28.2867C392.668 28.3164 392.738 28.3701 392.784 28.439C392.833 28.5088 392.859 28.5913 392.856 28.6751C392.861 28.759 392.839 28.842 392.79 28.9109C392.744 28.9806 392.676 29.0328 392.594 29.0595C392.442 29.1224 392.276 29.1479 392.11 29.134C391.058 28.9737 389.985 29.1213 389.02 29.5582C388.63 29.7239 388.218 29.8442 387.839 30.0194C387.209 30.2586 386.612 30.577 386.063 30.967C385.845 31.1348 385.68 31.3586 385.585 31.6141C385.489 31.8696 385.463 32.1458 385.516 32.4151C385.571 32.8298 385.737 33.2213 386.002 33.5481C386.267 33.8749 386.617 34.1235 387.013 34.2661C387.543 34.4898 388.116 34.5895 388.69 34.5584C389.262 34.5262 389.82 34.3645 390.316 34.0835C391.107 33.6747 391.815 33.1307 392.411 32.4767C392.733 32.1478 393.064 31.8214 393.406 31.5177C393.534 31.4105 393.681 31.3274 393.839 31.2711C393.943 31.2471 394.05 31.2557 394.15 31.2981C394.247 31.3396 394.33 31.4115 394.383 31.5027C394.413 31.5806 394.418 31.666 394.396 31.7466C394.374 31.8273 394.328 31.8991 394.263 31.9516C393.89 32.3458 393.48 32.7105 393.144 33.1411C392.62 33.7958 392.135 34.4799 391.69 35.1898C391.124 36.0244 390.68 36.935 390.373 37.8945C389.975 39.1007 390.053 40.4142 390.602 41.5673C390.71 41.7949 390.871 41.9928 391.074 42.1451C391.277 42.2972 391.515 42.398 391.765 42.4389C392.117 42.517 392.477 42.5248 392.829 42.463C393.185 42.4023 393.521 42.272 393.823 42.0812C395.537 41.088 396.926 39.6327 397.836 37.8843C398.268 37.117 398.636 36.3129 399.039 35.5312C399.11 35.3814 399.204 35.2441 399.321 35.1255C399.386 35.0709 399.463 35.0348 399.548 35.0225C399.633 35.0102 399.718 35.0214 399.797 35.0555C399.88 35.0757 399.954 35.1273 399.999 35.1983C400.045 35.2693 400.062 35.3555 400.047 35.4387C400.017 35.6887 399.952 35.9329 399.852 36.1642C399.462 37.0009 399.237 37.9044 399.186 38.8262C399.095 40.293 399.185 41.7667 399.455 43.2144C399.509 43.5051 399.6 43.7865 399.728 44.0521C399.807 44.225 399.922 44.38 400.064 44.5066C400.207 44.6331 400.374 44.7292 400.558 44.7886C400.814 44.8817 401.092 44.9225 401.364 44.906C401.639 44.89 401.906 44.8178 402.152 44.6951C403.077 44.2533 403.799 43.4825 404.175 42.5351C404.872 41.0463 405.211 39.4154 405.157 37.7702C405.168 36.9334 405.114 36.0956 405.005 35.2647C404.905 34.7898 405.071 34.5246 405.381 34.456C405.694 34.3883 405.928 34.6026 406.005 35.0847C406.085 35.4086 406.135 35.7398 406.151 36.0726C406.175 36.578 406.282 37.075 406.475 37.5435C406.797 38.4535 407.194 39.3377 407.558 40.2323C407.774 40.6909 408.073 41.1064 408.443 41.4579C408.761 41.8001 409.174 42.0454 409.63 42.1648C410.109 42.2473 410.602 42.2045 411.056 42.0393C411.514 41.8753 411.918 41.5952 412.23 41.2273C412.835 40.4606 413.131 39.496 413.053 38.5218C413.012 38.2339 413.013 37.9377 412.975 37.6507C412.63 35.5352 411.981 33.4775 411.053 31.5408C410.63 30.5762 410.099 29.6622 409.468 28.8163C409.369 28.6804 409.278 28.5394 409.195 28.3938C409.123 28.2691 409.17 27.9918 409.313 27.9511C409.423 27.8951 409.549 27.8798 409.67 27.9084C410.09 28.1132 410.465 28.395 410.78 28.7394C411.186 29.1581 411.583 29.6136 412.01 30.0049C413.141 31.0841 414.502 31.8992 415.988 32.3887C416.223 32.4852 416.473 32.5388 416.725 32.5467C417.617 32.5828 418.498 32.3445 419.243 31.864C419.983 31.3175 420.148 30.9663 419.969 30.0813C419.744 29.2239 419.353 28.4199 418.813 27.7155C417.707 26.1009 416.054 24.9307 414.158 24.4187C413.303 24.1808 412.436 23.9993 411.558 23.8738C411.344 23.8402 411.138 23.7851 410.935 23.7068C410.812 23.6738 410.74 23.3975 410.787 23.2718C410.804 23.2111 410.841 23.1586 410.892 23.1212C410.943 23.0837 411.006 23.0639 411.07 23.0642C411.995 23.0286 412.924 23.014 413.858 22.9809C414.279 22.9674 414.697 22.9253 415.109 22.8547C416.147 22.6619 417.16 22.359 418.134 21.9518C419.034 21.5788 419.841 21.0176 420.503 20.3066C420.663 20.1657 420.788 19.9895 420.865 19.7913C420.945 19.594 420.972 19.3798 420.951 19.1682C420.929 18.9566 420.855 18.7523 420.74 18.5737C420.622 18.3942 420.466 18.2452 420.281 18.1382C420.111 18.014 419.923 17.917 419.724 17.8507C419.155 17.6981 418.586 17.5062 418.004 17.3897C417.679 17.3112 417.344 17.2701 417.006 17.2673C416.458 17.2522 415.906 17.2493 415.359 17.2806C414.938 17.2938 414.52 17.3495 414.111 17.4471C412.569 17.8642 410.963 18.0865 409.533 18.8566C409.495 18.8741 409.454 18.8875 409.411 18.8963C409.33 18.9203 409.243 18.9166 409.163 18.8857C409.083 18.8547 409.014 18.7979 408.972 18.7259C408.853 18.5491 408.867 18.2432 409.022 18.1594C409.177 18.0756 409.47 17.9302 409.698 17.8264C411.391 17.0598 412.883 15.9176 414.06 14.4877C414.623 13.7507 414.979 12.877 415.09 11.9566C415.106 11.8736 415.102 11.7878 415.083 11.7061C415.061 11.6236 415.024 11.5469 414.971 11.4802C414.917 11.4135 414.851 11.3587 414.776 11.32C414.702 11.2812 414.617 11.258 414.533 11.2536C413.479 11.0652 412.395 11.2758 411.494 11.843C410.112 12.6355 408.862 13.6339 407.786 14.8034C407.502 15.1162 407.204 15.4054 406.883 15.6949C406.758 15.8055 406.62 15.9031 406.479 15.9886C406.377 16.0257 406.27 16.0317 406.166 16.0037C406.065 15.9766 405.972 15.9172 405.906 15.8352C405.853 15.7691 405.824 15.6859 405.823 15.5999C405.826 15.5147 405.861 15.4337 405.919 15.3707C406.103 15.15 406.318 14.9438 406.524 14.7422C407.07 14.21 407.485 13.5622 407.744 12.8481C407.818 12.6098 407.907 12.3765 408.006 12.1473C408.513 10.9519 408.722 9.652 408.615 8.35653C408.555 7.77224 408.438 7.19402 408.274 6.63087C408.246 6.50654 408.19 6.38985 408.111 6.29097C408.032 6.19208 407.928 6.11218 407.814 6.0594C407.537 5.90255 407.22 5.821 406.9 5.82458C406.584 5.82901 406.269 5.9164 405.998 6.08034C405.492 6.38937 405.07 6.81371 404.762 7.31743C403.518 9.12686 402.617 11.1479 402.106 13.2815Z" fill="#9D98A9"/>
<path d="M406.212 26.7378C405.931 28.4551 404.714 29.3284 402.992 29.6709C402.744 29.7235 402.494 29.7471 402.241 29.74C400.838 29.7403 399.466 29.3315 398.296 28.5641C397.944 28.3338 397.649 28.0298 397.43 27.673C396.853 26.7387 396.491 25.6866 396.379 24.5975C396.291 23.8889 396.369 23.1702 396.606 22.4978C396.844 21.8253 397.234 21.2168 397.75 20.7208C398.359 20.0824 399.091 19.5735 399.907 19.2256C400.719 18.8768 401.597 18.6966 402.486 18.6948C402.822 18.6946 403.158 18.7275 403.49 18.7925C403.991 18.8968 404.434 19.1904 404.722 19.6102C405.62 20.8871 406.223 22.3424 406.494 23.8744C406.626 24.8381 406.532 25.8198 406.212 26.7378ZM400.536 28.7295C401.428 29.0068 402.377 29.0329 403.281 28.8061C403.696 28.7133 404.084 28.5289 404.413 28.2653C404.744 28.0025 405.01 27.6683 405.193 27.2886C405.551 26.4827 405.697 25.5983 405.614 24.7192C405.528 23.7999 404.998 22.9925 404.998 22.0567C404.62 21.4083 404.25 20.7492 403.865 20.0991C403.775 19.9574 403.651 19.8368 403.509 19.7474C403.364 19.6572 403.203 19.6003 403.032 19.5792C402.324 19.4395 401.587 19.4928 400.909 19.7352C399.94 20.0366 399.069 20.5817 398.377 21.3171C397.897 21.818 397.547 22.4278 397.358 23.0938C397.17 23.7598 397.151 24.4627 397.298 25.1402C397.421 25.6297 397.577 26.1115 397.762 26.5826C397.932 27.0371 398.202 27.4477 398.552 27.7837C398.903 28.1197 399.327 28.3726 399.791 28.5233C400.034 28.6041 400.283 28.6731 400.536 28.7295Z" fill="#9D98A9"/>
</g>
<mask id="mask1_89_104" style="mask-type:luminance" maskUnits="userSpaceOnUse" x="351" y="35" width="60" height="62">
<path d="M410.847 48.3232L364.043 35.782L351 84.4588L397.804 97L410.847 48.3232Z" fill="white"/>
</mask>
<g mask="url(#mask1_89_104)">
<path d="M392.984 74.1934C392.981 74.572 393.071 74.9453 393.252 75.2802C394.007 77.156 394.611 79.088 395.06 81.0579C395.243 81.917 395.351 82.7909 395.377 83.6679C395.393 84.4454 395.234 85.2152 394.915 85.9239C394.596 86.6326 394.126 87.2627 393.533 87.7691C393.113 88.1571 392.587 88.4142 392.019 88.5084C390.006 88.9269 388.488 88.5201 387.125 86.3847C386.689 85.6836 386.397 84.8991 386.023 84.1576C385.99 84.0918 385.852 84.0629 385.758 84.0459C385.664 84.0289 385.668 84.1028 385.656 84.1484C385.598 84.2893 385.558 84.4369 385.538 84.5877C385.363 86.0269 384.938 87.4239 384.277 88.715C383.845 89.7174 383.146 90.5829 382.25 91.2167C381.796 91.561 381.272 91.806 380.715 91.9366C380.158 92.0671 379.579 92.0795 379.014 91.9733C378.6 91.9134 378.206 91.7516 377.869 91.5025C377.533 91.2535 377.265 90.9255 377.088 90.5479C376.747 89.847 376.543 89.0901 376.48 88.3146C376.414 87.1281 376.353 85.9423 376.294 84.7575C376.284 84.6029 376.265 84.4485 376.238 84.296C376.248 84.258 376.173 84.2217 376.143 84.1812C376.129 84.16 376.109 84.1427 376.086 84.1305C376.065 84.1195 376.036 84.1125 376.012 84.1132C375.985 84.1134 375.96 84.1198 375.936 84.1321C375.916 84.1449 375.894 84.1622 375.881 84.1842C375.344 84.8116 374.82 85.4504 374.275 86.0676C373.201 87.3317 371.81 88.296 370.244 88.8681C369.673 89.0509 369.067 89.1098 368.472 89.0428C367.873 88.9748 367.298 88.782 366.78 88.4759C366.443 88.2663 366.157 87.9919 365.932 87.6677C365.707 87.3432 365.554 86.9777 365.478 86.5927C365.071 85.3014 365.033 83.9253 365.37 82.6178C365.643 81.7872 365.982 80.9791 366.386 80.203C366.538 79.8783 366.735 79.5737 366.918 79.2575C366.992 79.1311 367.122 78.9874 367.027 78.8485C366.978 78.7913 366.91 78.7538 366.835 78.7425C366.76 78.7316 366.682 78.7471 366.617 78.7869C365.991 79.0462 365.332 79.219 364.659 79.3016C364.148 79.4243 363.614 79.4049 363.115 79.245C362.601 79.1112 362.097 78.9461 361.606 78.7517C360.75 78.4038 360.053 77.7546 359.651 76.9295C359.251 76.1056 359.171 75.1638 359.43 74.2875C359.496 74.0397 359.64 73.8194 359.842 73.6595C360.146 73.3868 360.483 73.1548 360.847 72.9706C362.074 72.4142 363.312 71.869 364.561 71.3677C365.088 71.186 365.626 71.0374 366.172 70.9225C366.191 70.7624 366.167 70.6003 366.094 70.4532C366.025 70.3069 365.916 70.1828 365.78 70.095C365.213 69.6288 364.742 69.0616 364.391 68.4235C363.719 67.3749 363.056 66.3205 362.453 65.2333C361.344 63.2475 360.246 61.2237 359.141 59.2231C358.78 58.5354 358.53 57.7974 358.399 57.0348C358.372 56.9334 358.366 56.8282 358.38 56.7249C358.398 56.6225 358.431 56.5228 358.486 56.434C358.54 56.3449 358.611 56.2675 358.699 56.2072C358.783 56.1458 358.879 56.1022 358.981 56.0785C359.281 55.9963 359.589 55.948 359.897 55.9345C361.313 55.8491 362.723 56.1903 363.943 56.9129C364.216 57.0726 364.495 57.218 364.779 57.3479C364.842 57.3648 364.956 57.3063 365.033 57.2617C365.051 57.2445 365.063 57.2225 365.07 57.1985C365.076 57.1745 365.076 57.1491 365.069 57.1255C364.874 56.5373 364.681 55.9415 364.466 55.3402C364.138 54.4402 363.744 53.6202 363.417 52.753C362.765 51.1134 362.315 49.4039 362.074 47.66C362.028 47.1474 362.017 46.6315 362.046 46.118C362.119 45.3899 362.481 44.7222 363.052 44.2604C363.246 44.0928 363.481 43.9771 363.732 43.9233C364.288 43.7733 364.869 43.7407 365.439 43.8277C366.012 43.9155 366.557 44.1199 367.044 44.4288C367.953 44.9442 368.736 45.6533 369.335 46.5042C369.603 46.8845 369.899 47.248 370.196 47.6036C370.235 47.636 370.283 47.66 370.33 47.6727C370.381 47.6863 370.431 47.6885 370.481 47.6799C370.526 47.6625 370.568 47.6356 370.6 47.6014C370.637 47.5677 370.664 47.5271 370.68 47.4814C370.751 47.3426 370.792 47.1906 370.8 47.0345C370.8 45.6911 371.049 44.3595 371.534 43.1069C371.784 42.3622 371.94 41.5919 372.142 40.8345C372.315 40.318 372.624 39.8579 373.041 39.5035C373.458 39.1494 373.962 38.9131 374.506 38.8209C374.706 38.767 374.92 38.7675 375.122 38.8218C375.328 38.8769 375.513 38.983 375.66 39.1302C376.032 39.4117 376.336 39.7703 376.551 40.181C377.474 42.3767 378.432 44.5576 379.272 46.7878C379.552 47.7294 379.758 48.6913 379.887 49.6646C379.909 49.7622 379.944 49.8564 379.992 49.9444C380.029 49.9709 380.076 49.9836 380.122 49.9791C380.169 49.9919 380.229 50.008 380.257 49.9422C380.359 49.7639 380.452 49.5802 380.533 49.3913C381.329 47.3693 382.417 45.4732 383.757 43.7598C384.267 43.0981 384.931 42.5686 385.69 42.2154C386.188 41.9755 386.742 41.8798 387.292 41.941C387.842 42.002 388.364 42.217 388.797 42.5608C389.077 42.7933 389.305 43.0798 389.466 43.4024C389.63 43.7259 389.722 44.0782 389.741 44.4376C389.963 46.2903 389.857 48.1661 389.429 49.9803C389.344 50.2986 389.055 50.6922 389.482 50.9446C389.771 51.095 390.07 50.8259 390.324 50.6503C391.19 49.9986 392.128 49.4466 393.12 49.0049C393.877 48.6602 394.705 48.493 395.539 48.5164C396.004 48.5271 396.478 48.5407 396.939 48.5911C397.071 48.5922 397.203 48.6197 397.322 48.6701C397.443 48.7214 397.556 48.7965 397.646 48.8895C397.739 48.983 397.812 49.0934 397.86 49.2146C397.912 49.3366 397.935 49.4657 397.934 49.5965C398.022 50.2675 397.945 50.949 397.704 51.5808C397.259 52.9633 396.459 54.2056 395.385 55.1893C394.958 55.48 394.583 55.8411 394.279 56.2568C394.374 56.3311 394.45 56.4405 394.525 56.4364C394.941 56.4433 395.353 56.421 395.767 56.3712C396.792 56.2004 397.832 56.1127 398.874 56.1079C399.499 56.1155 400.121 56.1975 400.727 56.3527L402.849 56.9213C403.454 57.0906 404.015 57.3905 404.491 57.7997C404.695 57.9631 404.859 58.1727 404.965 58.4101C405.071 58.6475 405.117 58.9061 405.102 59.1649C405.101 59.5736 405.016 59.9768 404.855 60.3516C404.693 60.7267 404.46 61.066 404.164 61.3491C403.339 62.138 402.386 62.7848 401.346 63.2652C400.26 63.7639 399.121 64.1422 397.949 64.3928C397.591 64.4649 397.237 64.5571 396.892 64.6699C396.768 64.7018 396.728 64.9667 396.835 65.0604C396.984 65.1968 397.147 65.3221 397.318 65.4334C397.962 65.7847 398.624 66.1001 399.246 66.4699C401.499 67.8421 403.127 70.0255 403.787 72.558C403.86 72.8045 403.907 73.0596 403.92 73.3161C403.969 73.6778 403.918 74.0449 403.777 74.3808C403.636 74.7164 403.406 75.008 403.113 75.227C402.28 75.8954 401.279 76.3298 400.216 76.4863C399.151 76.6419 398.064 76.5138 397.065 76.1152C395.884 75.6913 394.77 75.0943 393.764 74.3456C393.533 74.1944 393.253 74.1396 392.984 74.1934ZM380.77 52.1501C380.639 52.8538 380.538 53.5737 380.383 54.2788C380.325 54.506 380.191 54.7056 379.996 54.8377C379.801 54.9702 379.563 55.0258 379.327 54.9945C378.906 54.9223 378.419 54.4105 378.527 53.9686C378.687 52.84 378.719 51.6967 378.621 50.5591C378.702 49.635 378.65 48.7027 378.468 47.7903C377.752 45.5163 376.906 43.2838 375.934 41.1036C375.761 40.6113 375.432 40.1846 374.999 39.8869C374.872 39.7915 374.721 39.7355 374.568 39.7262C374.411 39.7161 374.253 39.7515 374.12 39.8298C373.798 40.0058 373.52 40.2476 373.3 40.5382C373.079 40.8291 372.925 41.1633 372.847 41.5187C372.644 42.276 372.441 43.0336 372.238 43.791C371.581 46.4087 371.605 49.1522 372.308 51.7662C372.537 52.7694 372.848 53.7619 373.08 54.766C373.31 55.7693 373.453 56.5872 373.592 57.5094C373.579 57.6092 373.547 57.7058 373.496 57.7929C373.443 57.8792 373.375 57.9546 373.291 58.0132C373.203 58.0653 373.101 58.0919 372.996 58.0896C372.892 58.0874 372.791 58.0574 372.705 58.0023C372.608 57.9584 372.527 57.8915 372.466 57.8064C372.404 57.7214 372.369 57.623 372.356 57.519C372.071 56.2571 371.75 55.0103 371.525 53.7404C371.148 51.3263 370.142 49.0474 368.608 47.1296C368.024 46.4012 367.331 45.7612 366.558 45.2322C366.082 44.9094 365.522 44.7202 364.948 44.6873C364.701 44.6604 364.45 44.6848 364.217 44.76C363.98 44.8345 363.764 44.9578 363.578 45.1207C363.395 45.2845 363.246 45.4842 363.146 45.7079C363.042 45.9311 362.99 46.1738 362.989 46.4194C362.992 47.1405 363.054 47.8603 363.175 48.572C363.422 50.0031 363.837 51.4007 364.415 52.7364C364.989 54.1729 365.585 55.6047 366.209 57.0329C366.442 57.5547 366.725 58.0543 367.05 58.5248C367.604 59.3391 368.206 60.1172 368.789 60.915C368.919 61.0755 369.023 61.254 369.098 61.4443C369.129 61.5435 369.134 61.6505 369.107 61.7511C369.08 61.8519 369.022 61.9417 368.946 62.0123C368.874 62.0881 368.785 62.1438 368.686 62.1727C368.586 62.202 368.478 62.2027 368.376 62.1765C368.13 62.0979 367.902 61.9588 367.721 61.7738C367.392 61.373 367.095 60.9487 366.831 60.504C366.395 59.7922 365.813 59.18 365.123 58.7068C364.786 58.4619 364.42 58.2585 364.096 58.0012C363.157 57.3299 362.054 56.9169 360.904 56.805C360.596 56.769 360.279 56.7743 359.971 56.8229C359.89 56.8231 359.807 56.8418 359.735 56.8797C359.661 56.9167 359.599 56.9712 359.551 57.0375C359.503 57.1039 359.469 57.1798 359.457 57.2611C359.445 57.3423 359.454 57.4252 359.477 57.5022C359.566 57.853 359.689 58.1931 359.845 58.5187C360.896 60.4805 361.964 62.4392 363.029 64.3972C363.377 65.0344 363.74 65.6672 364.169 66.2776C364.427 66.6554 364.809 66.9524 364.888 67.4527C365.887 68.9221 366.86 70.4168 368.887 70.5943C368.939 70.6003 368.993 70.6147 369.041 70.6359C369.137 70.6716 369.224 70.738 369.283 70.8235C369.341 70.9086 369.372 71.0103 369.371 71.1138C369.377 71.2174 369.347 71.3189 369.29 71.4047C369.23 71.4895 369.145 71.5535 369.047 71.5874C368.857 71.6642 368.652 71.6957 368.45 71.6791C367.154 71.4815 365.831 71.6633 364.64 72.2005C364.158 72.4044 363.65 72.5527 363.182 72.7681C362.405 73.0626 361.67 73.455 360.992 73.935C360.726 74.1423 360.524 74.4183 360.402 74.732C360.284 75.0469 360.254 75.3877 360.317 75.7188C360.384 76.2296 360.593 76.7132 360.919 77.1156C361.245 77.5181 361.678 77.8248 362.167 78.0007C362.818 78.276 363.528 78.3999 364.233 78.3606C364.938 78.3216 365.626 78.1219 366.24 77.7767C367.212 77.2726 368.087 76.6027 368.821 75.7974C369.218 75.3921 369.63 74.9911 370.049 74.6162C370.207 74.4842 370.387 74.3814 370.582 74.3123C370.711 74.2831 370.844 74.2942 370.966 74.3458C371.084 74.3966 371.186 74.4851 371.254 74.5982C371.289 74.6937 371.295 74.7989 371.269 74.8982C371.242 74.9977 371.184 75.086 371.106 75.151C370.647 75.6368 370.14 76.0858 369.727 76.6163C369.084 77.4237 368.485 78.2664 367.935 79.1403C367.236 80.1681 366.688 81.2897 366.311 82.4721C365.818 83.9577 365.919 85.5771 366.593 86.9969C366.728 87.278 366.927 87.522 367.178 87.7096C367.426 87.8964 367.718 88.0208 368.027 88.0712C368.462 88.1678 368.907 88.1776 369.344 88.1026C369.778 88.0264 370.193 87.8665 370.568 87.6318C372.679 86.4083 374.393 84.6157 375.513 82.4616C376.047 81.5167 376.499 80.5256 376.998 79.5632C377.084 79.3785 377.201 79.2095 377.345 79.0635C377.424 78.9959 377.521 78.9516 377.626 78.9369C377.729 78.9214 377.837 78.9357 377.934 78.978C378.036 79.0026 378.124 79.0655 378.182 79.1535C378.24 79.2415 378.259 79.3469 378.241 79.45C378.203 79.7575 378.122 80.0584 378.002 80.3439C377.519 81.3738 377.241 82.4871 377.181 83.6231C377.069 85.4307 377.179 87.246 377.512 89.0295C377.578 89.3876 377.692 89.7348 377.852 90.0625C377.947 90.2751 378.089 90.4659 378.264 90.6219C378.44 90.778 378.648 90.8966 378.873 90.9693C379.191 91.085 379.53 91.1346 379.868 91.1146C380.209 91.0954 380.537 91.0067 380.839 90.8548C381.978 90.3103 382.87 89.3611 383.332 88.1938C384.192 86.36 384.609 84.3505 384.545 82.3244C384.554 81.2925 384.491 80.2611 384.355 79.2372C384.231 78.6516 384.434 78.3245 384.819 78.241C385.201 78.1564 385.493 78.4215 385.588 79.0151C385.687 79.4148 385.748 79.8223 385.77 80.233C385.796 80.855 385.934 81.4687 386.169 82.0451C386.567 83.1666 387.055 84.2551 387.508 85.359C387.773 85.9241 388.141 86.4356 388.595 86.8681C388.99 87.2902 389.499 87.5928 390.059 87.7396C390.652 87.8419 391.26 87.7889 391.822 87.5866C392.382 87.3832 392.881 87.0386 393.267 86.5857C394.015 85.6416 394.377 84.4528 394.282 83.2527C394.231 82.898 394.231 82.5327 394.186 82.1796C393.759 79.5729 392.961 77.0379 391.811 74.6504C391.289 73.4617 390.635 72.3358 389.857 71.2932C389.735 71.1262 389.622 70.9523 389.518 70.7723C389.43 70.619 389.488 70.2771 389.664 70.227C389.801 70.1584 389.956 70.1391 390.105 70.1745C390.624 70.4273 391.087 70.7746 391.472 71.1981C391.974 71.7145 392.464 72.2761 392.992 72.7588C394.388 74.0889 396.065 75.093 397.899 75.6974C398.189 75.8161 398.494 75.8814 398.806 75.8917C399.906 75.9363 400.992 75.6428 401.913 75.0514C402.825 74.3785 403.029 73.946 402.806 72.8551C402.53 71.7989 402.046 70.8082 401.378 69.9392C400.016 67.9502 397.979 66.5083 395.64 65.8768C394.586 65.5837 393.514 65.3588 392.431 65.2036C392.17 65.1633 391.911 65.0938 391.665 64.9985C391.513 64.9579 391.422 64.6169 391.48 64.4618C391.503 64.3881 391.548 64.3228 391.611 64.277C391.674 64.2309 391.749 64.2058 391.827 64.2057C392.974 64.1637 394.117 64.1456 395.27 64.1053C395.787 64.0882 396.302 64.0366 396.813 63.9506C398.094 63.7134 399.343 63.3404 400.541 62.8387C401.651 62.3791 402.649 61.6886 403.464 60.8126C403.659 60.6387 403.813 60.4213 403.908 60.1776C404.004 59.9336 404.041 59.6707 404.013 59.4094C403.988 59.1489 403.899 58.8982 403.755 58.6773C403.61 58.4564 403.416 58.2724 403.187 58.1402C402.977 57.9871 402.748 57.8681 402.502 57.7864C401.797 57.5974 401.097 57.3612 400.38 57.2178C399.979 57.1208 399.565 57.07 399.149 57.0666C398.473 57.0477 397.793 57.0442 397.118 57.0826C396.599 57.0983 396.082 57.1669 395.579 57.2871C393.675 57.8002 391.7 58.0745 389.935 59.0223C389.885 59.0432 389.833 59.0594 389.783 59.071C389.68 59.0997 389.573 59.095 389.475 59.0572C389.376 59.019 389.293 58.9496 389.239 58.8603C389.094 58.6429 389.11 58.2655 389.304 58.1632C389.494 58.06 389.854 57.8804 390.136 57.7529C392.223 56.8086 394.064 55.402 395.512 53.6402C396.209 52.7328 396.647 51.6562 396.785 50.5223C396.802 50.4199 396.8 50.3146 396.776 50.214C396.749 50.1123 396.703 50.0176 396.637 49.9356C396.571 49.8532 396.49 49.7862 396.398 49.7382C396.303 49.6895 396.202 49.6621 396.095 49.6555C394.798 49.4242 393.461 49.6828 392.348 50.3811C390.643 51.3565 389.103 52.587 387.778 54.0278C387.428 54.4129 387.061 54.7693 386.664 55.1257C386.509 55.2616 386.341 55.3823 386.164 55.4869C386.043 55.5338 385.909 55.5406 385.782 55.5067C385.656 55.4728 385.543 55.3999 385.459 55.298C385.392 55.2165 385.355 55.1135 385.36 55.009C385.361 54.9032 385.401 54.8029 385.473 54.7253C385.702 54.4538 385.966 54.1999 386.223 53.9521C386.893 53.2957 387.405 52.4982 387.726 51.6186C387.818 51.3255 387.926 51.0373 388.049 50.7552C388.67 49.2818 388.93 47.6808 388.798 46.0848C388.723 45.3648 388.582 44.6531 388.375 43.958C388.341 43.805 388.275 43.6621 388.175 43.5396C388.076 43.4171 387.953 43.3201 387.808 43.2538C387.467 43.0604 387.076 42.9603 386.685 42.9652C386.291 42.9697 385.906 43.0779 385.571 43.2797C384.947 43.6604 384.424 44.1822 384.044 44.8027C382.511 47.0321 381.4 49.5215 380.77 52.1501Z" fill="#9D98A9"/>
<path d="M385.838 68.731C385.495 70.8472 383.99 71.9218 381.867 72.3435C381.565 72.4089 381.253 72.4369 380.943 72.4285C379.214 72.429 377.522 71.9249 376.081 70.9797C375.645 70.6952 375.281 70.3203 375.013 69.8814C374.298 68.729 373.852 67.433 373.713 66.0909C373.605 65.2179 373.7 64.3324 373.993 63.504C374.286 62.6757 374.768 61.9264 375.403 61.315C376.153 60.5286 377.056 59.9018 378.059 59.473C379.065 59.0447 380.145 58.8218 381.241 58.8199C381.657 58.8205 382.073 58.8615 382.479 58.9408C383.099 59.0699 383.643 59.431 383.999 59.9486C385.109 61.5226 385.856 63.3165 386.187 65.2033C386.35 66.391 386.233 67.5999 385.838 68.731ZM378.84 71.1829C379.941 71.5255 381.112 71.558 382.227 71.2789C382.739 71.1647 383.217 70.9374 383.623 70.6131C384.031 70.2893 384.359 69.8776 384.582 69.4091C385.028 68.4173 385.205 67.3273 385.102 66.2438C384.995 65.1112 384.343 64.1166 384.34 62.963C383.873 62.164 383.419 61.3524 382.943 60.5505C382.83 60.376 382.68 60.228 382.503 60.1172C382.326 60.0068 382.125 59.9356 381.918 59.9106C381.042 59.7377 380.136 59.8036 379.297 60.1015C378.103 60.4726 377.028 61.1441 376.176 62.0498C375.583 62.6669 375.151 63.4178 374.921 64.2389C374.691 65.0598 374.663 65.9246 374.846 66.7596C374.999 67.3631 375.193 67.9572 375.42 68.5375C375.629 69.0974 375.962 69.6031 376.396 70.018C376.828 70.4317 377.351 70.7437 377.921 70.9288C378.223 71.029 378.53 71.1137 378.84 71.1829Z" fill="#9D98A9"/>
</g>
<path d="M237.157 99.5746C237.339 97.503 237.661 95.4447 238.122 93.4138C238.498 91.6158 238.755 89.7968 238.891 87.968C238.982 86.0666 238.882 84.1611 238.593 82.2783C238.309 81.0601 237.925 79.8656 237.442 78.7071C237.378 78.5492 237.277 78.4077 237.148 78.293C237.018 78.1788 236.863 78.0939 236.695 78.0461C236.527 77.9977 236.349 77.9874 236.176 78.0152C236.003 78.0435 235.838 78.1088 235.696 78.2076C234.813 78.6505 234.029 79.255 233.387 79.9881C232.192 81.3204 231.138 82.7634 230.238 84.2964C229.45 85.7435 228.62 87.1094 227.938 88.6151C226.435 92.2254 225.324 95.9767 224.624 99.8082C224.124 101.82 223.81 103.839 223.384 105.85C222.83 108.289 222.104 110.689 221.209 113.032C220.414 115.333 219.744 117.672 219.203 120.04C218.406 123.404 217.489 126.737 216.626 130.087C216.398 131.015 216.194 131.946 216.016 132.88C215.985 133.043 215.999 133.212 216.056 133.368C216.113 133.525 216.212 133.664 216.343 133.772C216.474 133.88 216.631 133.953 216.8 133.984C216.969 134.014 217.144 134.002 217.306 133.947C218.386 133.586 219.406 133.071 220.33 132.422C222.014 131.182 223.764 129.991 225.421 128.713C228.46 126.379 231.448 124.004 234.432 121.618C235.43 120.821 236.388 119.979 237.308 119.102C239.814 116.747 242.404 114.458 244.747 111.957C247.753 108.748 250.759 105.504 252.691 101.522L254.391 97.914C254.537 97.576 254.658 97.2273 254.75 96.8718C255.6 93.9627 254.223 91.838 251.56 90.5952C250.937 90.3282 250.287 90.1188 249.623 89.9706C248.919 89.7978 248.182 89.7993 247.48 89.9758C246.776 90.1522 246.131 90.4974 245.604 90.9795C243.234 92.9328 241.058 95.0965 239.107 97.4423C238.577 98.0457 238.018 98.6353 237.157 99.5746ZM231.442 121.843C231.676 121.225 232.081 120.681 232.612 120.268C233.989 118.904 235.275 117.457 236.462 115.937C237.226 114.83 237.685 113.553 237.795 112.227C237.842 111.933 237.775 111.633 237.606 111.384C237.437 111.136 237.18 110.956 236.882 110.88C236.636 110.781 236.372 110.731 236.106 110.733C235.84 110.735 235.577 110.79 235.332 110.893C234.141 111.372 233.022 112.006 232.009 112.779C230.826 113.673 230.426 113.583 230.227 112.008C229.974 110.4 229.302 108.882 228.271 107.597C227.901 107.033 227.342 106.608 226.687 106.392C226.108 106.245 225.686 106.635 225.198 106.811C224.711 106.987 224.506 106.689 224.624 106.201C224.956 104.777 225.314 103.357 225.606 101.924C226.007 99.6384 226.755 97.3662 227.215 95.0733C228.276 90.3951 230.363 85.9905 233.335 82.1564C233.951 81.3143 234.684 80.5591 235.513 79.9114C236.281 79.3224 236.735 79.4294 237.039 80.2725C237.372 81.2484 237.587 82.2582 237.681 83.282C238.015 86.3526 237.838 89.4552 237.159 92.4728C236.663 94.7667 236.049 97.0405 235.502 99.3277C235.277 100.266 235.084 101.194 234.907 102.128C234.83 102.413 234.82 102.711 234.878 103C234.981 103.271 235.175 103.502 235.431 103.653C235.567 103.721 235.725 103.739 235.874 103.704C236.024 103.67 236.155 103.584 236.243 103.462C236.793 102.746 237.307 102.029 237.827 101.299C240.238 97.9979 243.042 94.9807 246.181 92.3098C246.789 91.7526 247.55 91.3751 248.373 91.2218C249.196 91.0685 250.047 91.1456 250.826 91.4445C251.043 91.5165 251.254 91.6035 251.458 91.7048C252.213 92.0577 252.839 92.6267 253.248 93.334C253.658 94.0414 253.834 94.8531 253.751 95.6598C253.595 96.6058 253.304 97.5267 252.888 98.396C251.186 102.089 248.909 105.509 246.135 108.536C244.395 110.504 242.522 112.303 240.62 114.089C238.009 116.562 235.41 119.032 232.615 121.295C232.278 121.55 232.002 121.974 231.442 121.843ZM225.248 120.311C225.225 120.248 225.191 120.153 225.18 120.121C225.918 118.774 226.657 117.427 227.4 116.089C227.446 116.04 227.504 116.003 227.569 115.981C227.634 115.959 227.703 115.954 227.771 115.965C227.861 116.063 227.907 116.192 227.9 116.323C227.891 118.099 226.585 119.129 225.46 120.287C225.432 120.379 225.325 120.321 225.248 120.311ZM226.829 109.369C226.772 109.212 226.7 109.011 226.632 108.822C226.59 108.685 226.584 108.541 226.616 108.402C226.676 108.285 226.766 108.186 226.879 108.113C226.879 108.113 227.029 108.121 227.087 108.149C227.216 108.207 227.332 108.288 227.43 108.388C227.57 108.55 227.692 108.727 227.792 108.916C228.016 109.301 227.893 109.638 227.503 109.745C227.362 109.781 227.212 109.761 227.086 109.691C226.96 109.62 226.868 109.505 226.829 109.369Z" fill="#9D98A9"/>
<path d="M201.707 104.641C200.856 103.562 200.08 102.429 199.383 101.25C198.751 100.221 198.051 99.2315 197.288 98.2879C196.471 97.3287 195.559 96.448 194.565 95.6589C193.876 95.1882 193.148 94.7725 192.389 94.4159C192.286 94.3662 192.174 94.3405 192.058 94.3395C191.944 94.3389 191.831 94.363 191.727 94.4112C191.624 94.4588 191.533 94.529 191.462 94.6154C191.39 94.7023 191.34 94.8039 191.316 94.9117C191.088 95.4992 190.982 96.1234 191.003 96.7501C191.026 97.8999 191.169 99.0445 191.427 100.167C191.7 101.201 191.916 102.213 192.268 103.231C193.175 105.615 194.336 107.901 195.732 110.052C196.401 111.238 197.164 112.348 197.868 113.502C198.705 114.917 199.44 116.387 200.068 117.9C200.725 119.35 201.46 120.766 202.27 122.141C203.408 124.107 204.473 126.108 205.573 128.095C205.883 128.642 206.205 129.178 206.543 129.706C206.602 129.798 206.685 129.874 206.783 129.925C206.882 129.977 206.993 130.002 207.106 130C207.217 129.997 207.327 129.966 207.423 129.909C207.519 129.853 207.598 129.773 207.652 129.677C208.012 129.046 208.274 128.366 208.428 127.66C208.683 126.349 208.992 125.032 209.216 123.713C209.634 121.298 210.007 118.885 210.373 116.468C210.497 115.66 210.58 114.848 210.629 114.034C210.777 111.835 210.996 109.631 211 107.43C211.004 104.606 210.992 101.764 210.125 99.0194L209.315 96.5532C209.233 96.3276 209.133 96.1082 209.017 95.8966C208.111 94.129 206.48 93.6818 204.625 94.2054C204.201 94.34 203.792 94.5128 203.402 94.7222C202.983 94.9353 202.626 95.2479 202.365 95.6307C202.104 96.0129 201.947 96.4527 201.91 96.9088C201.645 98.8566 201.57 100.824 201.686 102.785C201.703 103.301 201.699 103.822 201.707 104.641ZM209.025 117.841C208.858 117.443 208.808 117.008 208.879 116.584C208.929 115.342 208.897 114.097 208.784 112.859C208.653 112 208.297 111.188 207.75 110.499C207.639 110.337 207.47 110.22 207.276 110.171C207.082 110.122 206.875 110.144 206.696 110.233C206.532 110.288 206.381 110.376 206.253 110.489C206.125 110.603 206.022 110.741 205.95 110.894C205.589 111.63 205.334 112.409 205.193 113.212C205.024 114.145 204.789 114.27 203.978 113.592C203.128 112.92 202.113 112.469 201.031 112.282C200.596 112.165 200.132 112.196 199.717 112.368C199.369 112.541 199.341 112.909 199.184 113.2C199.027 113.491 198.793 113.434 198.629 113.148C198.145 112.318 197.675 111.479 197.167 110.662C196.326 109.385 195.66 107.969 194.844 106.664C193.238 103.95 192.255 100.935 191.96 97.8214C191.877 97.1538 191.89 96.4784 191.999 95.8139C192.104 95.2044 192.373 95.0641 192.903 95.3442C193.507 95.6762 194.069 96.0741 194.578 96.5302C196.131 97.8764 197.452 99.4535 198.49 101.202C199.289 102.522 200.021 103.883 200.792 105.221C201.108 105.771 201.435 106.302 201.772 106.829C201.864 107 201.994 107.148 202.153 107.263C202.326 107.352 202.525 107.381 202.717 107.346C202.815 107.322 202.899 107.264 202.956 107.184C203.013 107.104 203.037 107.006 203.025 106.911C202.967 106.331 202.892 105.767 202.813 105.194C202.487 102.576 202.48 99.9294 202.792 97.3093C202.835 96.7826 203.033 96.2783 203.363 95.8558C203.693 95.4338 204.141 95.1118 204.654 94.9269C204.792 94.8704 204.933 94.8233 205.078 94.7861C205.605 94.6379 206.166 94.6489 206.685 94.818C207.204 94.9872 207.657 95.3065 207.983 95.7322C208.336 96.2564 208.612 96.825 208.804 97.4224C209.652 99.9294 210.097 102.548 210.123 105.187C210.17 106.875 210.078 108.538 209.964 110.207C209.818 112.508 209.676 114.802 209.346 117.08C209.298 117.346 209.356 117.667 209.025 117.841ZM205.326 119.717C205.286 119.696 205.227 119.664 205.206 119.654C204.955 118.69 204.702 117.725 204.457 116.763C204.457 116.72 204.468 116.677 204.49 116.639C204.511 116.601 204.542 116.569 204.58 116.546C204.669 116.556 204.75 116.598 204.805 116.665C205.605 117.529 205.439 118.58 205.418 119.616C205.446 119.672 205.368 119.689 205.326 119.717ZM201.135 113.75C201.036 113.698 200.91 113.631 200.791 113.568C200.709 113.52 200.641 113.452 200.592 113.372C200.569 113.29 200.568 113.203 200.589 113.12C200.589 113.12 200.666 113.061 200.707 113.05C200.796 113.024 200.889 113.014 200.982 113.02C201.123 113.04 201.263 113.075 201.396 113.124C201.68 113.215 201.773 113.431 201.632 113.648C201.58 113.724 201.498 113.778 201.405 113.797C201.312 113.816 201.215 113.8 201.135 113.75Z" fill="#9D98A9"/>
<mask id="mask2_89_104" style="mask-type:luminance" maskUnits="userSpaceOnUse" x="6" y="69" width="86" height="85">
<path d="M91.7755 107.462L41.9341 69.1023L6.08016 115.641L55.9215 154L91.7755 107.462Z" fill="white"/>
</mask>
<g mask="url(#mask2_89_104)">
<path d="M44.8188 102.328C45.2747 102.697 45.6837 103.031 46.1008 103.359C46.3989 103.581 46.6746 103.831 46.9233 104.107C46.9822 104.173 47.0473 104.233 47.118 104.286C47.5997 104.676 48.0336 105.12 48.4109 105.61C48.4781 105.693 48.5498 105.771 48.6254 105.846C48.6524 105.869 48.687 105.881 48.7222 105.88C48.7577 105.88 48.7916 105.866 48.8172 105.842C49.0459 105.574 49.2785 105.306 49.5022 105.034C49.7864 104.695 50.1092 104.391 50.4645 104.126C50.9704 103.743 51.4616 103.341 51.9676 102.958C52.1637 102.81 52.3847 102.695 52.593 102.56C52.9759 102.307 53.3615 102.042 53.7392 101.797C54.1961 101.495 54.6985 101.267 55.2275 101.124C55.57 101.031 55.9279 101.01 56.2789 101.061C56.4658 101.075 56.6438 101.147 56.7885 101.266C56.9333 101.385 57.0372 101.546 57.0869 101.727C57.1442 101.894 57.1754 102.069 57.1794 102.245C57.1889 102.758 57.1445 103.27 57.0461 103.773C56.856 104.652 56.5691 105.507 56.1914 106.324C56.0766 106.581 55.9427 106.831 55.7911 107.069C55.6134 107.353 55.4519 107.647 55.3081 107.95C55.0577 108.438 54.7699 108.904 54.4472 109.346C54.3613 109.458 54.2682 109.579 54.1879 109.683C54.0797 109.848 54.0859 109.911 54.2231 110.05C54.7673 110.63 55.3433 111.18 55.9486 111.696C56.2414 111.921 56.4776 112.21 56.7435 112.471C57.0738 112.791 57.385 113.127 57.6946 113.465C58.0301 113.852 58.342 114.259 58.6286 114.683C58.7963 114.912 58.9427 115.154 59.1102 115.379C59.7007 116.176 60.1511 117.068 60.4422 118.016C60.5258 118.288 60.5699 118.571 60.5725 118.855C60.5834 118.979 60.5525 119.103 60.4847 119.208C60.4169 119.313 60.3162 119.391 60.1985 119.432C59.9902 119.529 59.7662 119.587 59.5372 119.604C58.9536 119.639 58.3677 119.622 57.787 119.55C57.211 119.469 56.6431 119.336 56.0904 119.154C55.8213 119.061 55.5542 118.967 55.2841 118.885C54.7472 118.707 54.2271 118.482 53.7293 118.213C53.398 118.043 53.0634 117.882 52.7325 117.715L52.5861 117.651C52.467 117.604 52.3601 117.665 52.3673 117.786C52.3693 117.98 52.3811 118.174 52.4035 118.368C52.5032 119.103 52.5427 119.846 52.5213 120.588C52.5285 121.527 52.4278 122.464 52.2206 123.38C52.0725 123.961 51.9551 124.551 51.8031 125.132C51.7057 125.508 51.5856 125.877 51.4435 126.238C51.3461 126.504 51.2053 126.751 51.0267 126.971C50.7754 127.259 50.4342 127.454 50.0582 127.525C49.6821 127.596 49.2933 127.538 48.9541 127.361C48.4823 127.115 48.0704 126.769 47.7477 126.347C47.6326 126.191 47.5391 126.019 47.47 125.838C47.1095 124.936 46.7943 124.016 46.5259 123.082C46.4275 122.729 46.3472 122.353 46.2801 121.998C46.0482 120.892 45.8103 119.788 45.5945 118.676C45.5303 118.274 45.4392 117.877 45.3224 117.487C45.2767 117.359 45.2254 117.334 45.0806 117.378C44.9425 117.411 44.8086 117.457 44.6806 117.518C44.1052 117.833 43.4702 118.013 42.8879 118.308C42.7929 118.356 42.6922 118.392 42.5882 118.414C41.9661 118.534 41.3417 118.648 40.717 118.762C40.6643 118.772 40.611 118.776 40.5577 118.777C40.0287 118.786 39.4997 118.764 38.9733 118.711C38.5349 118.654 38.1069 118.535 37.7024 118.357C37.0696 118.088 36.4253 117.844 35.7872 117.582C35.5754 117.496 35.3679 117.396 35.1617 117.289C35.084 117.249 35.0179 117.189 34.9698 117.115C34.8041 116.863 34.7097 116.571 34.6965 116.269C34.6799 116.054 34.7435 115.839 34.8752 115.668C34.9181 115.612 34.961 115.556 35.0039 115.501C35.2346 115.232 35.4059 114.918 35.5067 114.579C35.5933 114.291 35.7283 114.02 35.906 113.777C35.9535 113.725 35.9965 113.669 36.0347 113.61C36.2681 113.174 36.5937 112.794 36.9889 112.496C38.0467 111.611 39.223 110.878 40.484 110.318C40.9045 110.134 41.3226 109.947 41.7381 109.757C42.1928 109.561 42.6205 109.309 43.0116 109.007C43.5015 108.611 43.4646 108.553 43.0551 108.153C42.9629 108.071 42.8652 107.996 42.7623 107.928C42.0418 107.383 41.4078 106.732 40.8824 105.997C40.687 105.726 40.5117 105.442 40.3577 105.146C40.1028 104.68 39.8498 104.215 39.6247 103.739C39.4132 103.311 39.276 102.851 39.2194 102.377C39.1948 102.13 39.2073 101.88 39.2569 101.637C39.3007 101.401 39.4033 101.18 39.556 100.995C39.7083 100.81 39.9054 100.666 40.1284 100.578C40.3719 100.479 40.6321 100.428 40.8949 100.428C41.7694 100.407 42.6234 100.695 43.3061 101.242C43.8334 101.614 44.3519 101.984 44.8188 102.328Z" fill="#5C5470" fill-opacity="0.6"/>
<path d="M39.6145 90.6304C40.6446 91.4639 41.5763 92.2291 42.5198 92.9735C43.1985 93.474 43.8252 94.0409 44.3914 94.6653C44.521 94.8136 44.6654 94.9481 44.822 95.0671C45.9169 95.948 46.9032 96.9555 47.7608 98.0682C47.9128 98.2553 48.0777 98.4302 48.2445 98.6029C48.3063 98.6545 48.3853 98.6814 48.4659 98.6788C48.5465 98.6762 48.6231 98.644 48.6813 98.5881C49.2021 97.9798 49.7272 97.3747 50.2338 96.7556C50.8806 95.9884 51.6142 95.2992 52.4199 94.7008C53.5664 93.8275 54.683 92.9163 55.8341 92.0463C56.2776 91.7112 56.779 91.4541 57.2468 91.145C58.1193 90.5741 58.9842 89.9944 59.8491 89.4144C60.886 88.7278 62.026 88.2116 63.2261 87.8844C64.0035 87.673 64.8164 87.6253 65.6135 87.744C66.0376 87.7746 66.4416 87.9361 66.7699 88.206C67.0983 88.476 67.3345 88.841 67.4463 89.251C67.573 89.6301 67.6421 90.026 67.6516 90.4255C67.673 91.5872 67.5713 92.748 67.3483 93.8883C66.9259 95.8905 66.284 97.8397 65.4346 99.7011C65.1721 100.285 64.8674 100.848 64.5236 101.388C64.1229 102.034 63.7577 102.703 63.4297 103.389C62.8599 104.493 62.2072 105.553 61.4766 106.558C61.2933 106.82 61.0851 107.066 60.916 107.339C60.6702 107.715 60.6824 107.858 61.0051 108.184C62.2378 109.5 63.5436 110.746 64.9168 111.915C65.5675 112.449 66.1225 113.083 66.7196 113.672C67.4651 114.405 68.1671 115.156 68.8804 115.93C69.6413 116.81 70.3493 117.734 71.0007 118.697C71.377 119.212 71.7123 119.762 72.0929 120.277C73.4319 122.084 74.4537 124.105 75.1143 126.254C75.3051 126.868 75.4071 127.505 75.4173 128.147C75.4423 128.429 75.3726 128.711 75.2196 128.948C75.0669 129.186 74.8393 129.366 74.5725 129.46C74.0987 129.679 73.5888 129.811 73.068 129.847C71.7425 129.927 70.4125 129.884 69.0949 129.721C67.7848 129.534 66.4936 129.233 65.2362 128.821C64.6279 128.612 64.0239 128.402 63.41 128.214C62.1914 127.807 61.0107 127.295 59.881 126.684C59.1306 126.299 58.3723 125.934 57.6172 125.559C57.51 125.506 57.4027 125.453 57.2902 125.408C57.2379 125.377 57.1784 125.362 57.1178 125.363C57.0573 125.363 56.9984 125.38 56.9468 125.412C56.8954 125.444 56.8537 125.489 56.826 125.543C56.7981 125.596 56.7852 125.657 56.7892 125.717C56.7954 126.159 56.8257 126.601 56.88 127.04C57.1024 128.71 57.1892 130.394 57.1392 132.078C57.1497 134.203 56.9145 136.321 56.4382 138.392C56.1046 139.713 55.8358 141.052 55.491 142.368C55.2712 143.222 54.9965 144.06 54.6685 144.877C54.4524 145.482 54.1339 146.044 53.7273 146.541C53.2746 147.084 52.6772 147.486 52.0041 147.703C51.331 147.919 50.6102 147.94 49.9256 147.763C49.6104 147.695 49.3054 147.584 49.0199 147.435C47.9464 146.879 47.0088 146.093 46.2745 145.134C46.0146 144.778 45.8034 144.39 45.6475 143.978C44.8289 141.931 44.1147 139.844 43.5077 137.725C43.2748 136.918 43.1205 136.086 42.9485 135.262C42.4208 132.753 41.8868 130.242 41.3897 127.727C41.2473 126.816 41.0417 125.917 40.7735 125.035C40.6706 124.741 40.5521 124.683 40.2248 124.786C39.9169 124.862 39.6172 124.968 39.3296 125.103C38.032 125.827 36.5853 126.225 35.2619 126.896C35.048 127.008 34.8195 127.09 34.5829 127.138C33.17 127.411 31.7531 127.67 30.335 127.935C30.2158 127.953 30.0953 127.962 29.9747 127.961C28.7766 127.987 27.5781 127.938 26.3859 127.816C25.3914 127.691 24.4201 127.423 23.5023 127.02C22.0664 126.41 20.604 125.854 19.1579 125.262C18.6743 125.063 18.2057 124.836 17.7437 124.595C17.5665 124.504 17.4152 124.37 17.3041 124.205C16.928 123.631 16.7149 122.967 16.6878 122.282C16.652 121.796 16.7934 121.314 17.0858 120.924C17.1841 120.797 17.2824 120.669 17.379 120.544C17.9008 119.937 18.287 119.226 18.5118 118.458C18.7098 117.803 19.0182 117.187 19.4239 116.636C19.5254 116.511 19.6165 116.379 19.6962 116.239C20.194 115.199 21.0058 114.419 21.8678 113.704C24.2678 111.694 26.9376 110.03 29.7993 108.759C30.7508 108.341 31.7003 107.917 32.6476 107.488C33.6783 107.042 34.6491 106.469 35.5377 105.783C36.6481 104.889 36.5636 104.754 35.6385 103.846C35.4293 103.657 35.2056 103.485 34.9695 103.331C33.2811 102.131 31.9542 100.578 30.7133 98.9465C30.267 98.3316 29.8681 97.6835 29.5202 97.0081C28.9446 95.9588 28.3702 94.903 27.8548 93.8189C27.3741 92.8482 27.0646 91.8023 26.9399 90.7267C26.8815 90.1677 26.9109 89.6028 27.0269 89.0527C27.1234 88.5171 27.3553 88.015 27.7007 87.5944C28.0462 87.1739 28.4936 86.8487 29.0004 86.6497C29.5566 86.4176 30.1529 86.2966 30.7556 86.2926C32.7398 86.2446 34.6774 86.899 36.2259 88.1409C37.3685 89.0017 38.5418 89.8419 39.6145 90.6304ZM39.0036 91.2693L39.0306 91.2344C38.013 90.4515 37.0134 89.6452 35.978 88.8853C34.4916 87.8078 32.8934 87.0436 30.9856 87.0798C30.3435 87.0798 29.7095 87.2235 29.13 87.4997C28.8181 87.6401 28.5435 87.8519 28.3284 88.1179C28.1132 88.3836 27.9636 88.6963 27.8915 89.0307C27.7067 89.8123 27.6956 90.6251 27.8589 91.412C28.0514 92.3951 28.3696 93.3494 28.8058 94.2513C29.7649 96.2817 30.9589 98.1932 32.3631 99.9464C33.0553 100.827 33.8667 101.607 34.774 102.264C35.4432 102.709 36.0588 103.23 36.6087 103.816C36.7958 104.082 37.0779 104.266 37.3967 104.331C37.4779 104.332 37.5561 104.361 37.6184 104.413C37.6808 104.465 37.7234 104.537 37.7391 104.616C37.8051 104.887 37.9413 105.136 38.1341 105.338C38.1684 105.388 38.1916 105.444 38.2018 105.503C38.2121 105.563 38.2093 105.624 38.1936 105.682C38.178 105.74 38.1498 105.795 38.1111 105.841C38.0723 105.887 38.024 105.925 37.9694 105.95C37.6861 106.102 37.3981 106.25 37.1064 106.369C35.4346 107.046 33.8292 107.875 32.3106 108.848C31.8425 109.153 31.365 109.451 30.8715 109.721C29.4106 110.556 28.0303 111.525 26.7483 112.614C25.3284 113.78 23.9078 114.956 22.5907 116.253C21.4237 117.402 20.2893 118.577 19.2109 119.813C18.2473 120.92 18.2941 122.627 19.4858 123.832C19.9385 124.292 20.4879 124.645 21.0941 124.867C22.1406 125.27 23.2541 125.471 24.3754 125.459C25.6574 125.433 26.9364 125.319 28.2161 125.243C28.8568 125.204 29.4969 125.176 30.1428 125.144C31.1432 125.09 32.1479 125.102 33.1381 124.969C35.0011 124.717 36.8538 124.387 38.7121 124.084C39.051 124.038 39.3747 123.915 39.6589 123.725C39.9432 123.535 40.18 123.283 40.3521 122.988C40.5485 122.666 40.8156 122.679 41.0114 122.978C41.1552 123.168 41.268 123.38 41.346 123.605C41.542 124.34 41.724 125.079 41.876 125.828C42.1954 127.397 42.4866 128.974 42.7981 130.548C42.9508 131.335 43.1113 132.116 43.2761 132.901C43.4761 133.794 43.6946 134.702 43.8581 135.604C43.9838 136.314 44.1614 137.015 44.3904 137.699C44.745 138.763 45.0875 139.83 45.4178 140.9C45.7501 142.051 46.1853 143.171 46.7186 144.245C47.3726 145.458 48.4537 146.386 49.7522 146.849C49.9743 146.943 50.2108 147 50.4513 147.017C51.5975 147.072 52.5966 146.798 53.2325 145.728C53.776 144.836 54.2017 143.878 54.4998 142.877C54.9804 141.225 55.3838 139.554 55.7387 137.868C56.4691 134.289 56.5648 130.609 56.0217 126.996C55.9243 126.281 55.8888 125.559 55.9157 124.838C55.9105 124.757 55.924 124.677 55.9552 124.602C55.9868 124.528 56.0351 124.463 56.097 124.411C56.1585 124.359 56.2316 124.322 56.3102 124.303C56.3885 124.285 56.4704 124.285 56.5487 124.304C56.7872 124.331 57.0198 124.396 57.2382 124.495C58.2808 125.006 59.3082 125.545 60.3514 126.059C61.0232 126.419 61.7154 126.739 62.4244 127.019C64.2739 127.674 66.1238 128.332 68.0688 128.694C69.691 128.971 71.3395 129.061 72.9822 128.964C73.2661 128.96 73.548 128.917 73.8204 128.837C74.0977 128.768 74.3386 128.596 74.4932 128.356C74.6481 128.115 74.7054 127.825 74.6531 127.544C74.6225 127.225 74.5656 126.908 74.484 126.597C74.0339 124.972 73.3417 123.424 72.4308 122.004C71.7133 120.894 70.9457 119.815 70.171 118.746C68.9958 117.121 67.7802 115.523 66.2459 114.206C66.0902 114.086 65.981 113.906 65.8382 113.774C64.8918 112.909 64.0591 111.924 62.981 111.205C62.6418 110.988 62.3405 110.717 62.0885 110.404C61.544 109.708 60.8903 109.105 60.1524 108.618C59.556 108.196 59.474 107.759 59.9238 107.2C61.0995 105.675 62.1362 104.048 63.0211 102.339C63.4205 101.6 63.8933 100.899 64.2545 100.142C64.7352 99.1296 65.1796 98.0965 65.5672 97.0456C66.1952 95.4413 66.5926 93.7561 66.7482 92.0403C66.8022 91.4399 66.8206 90.8369 66.8035 90.2345C66.7453 89.0034 66.157 88.5135 65.1036 88.4829C64.4605 88.4671 63.8186 88.546 63.1988 88.717C62.1526 88.9998 61.1607 89.4545 60.2639 90.0625C59.0667 90.8671 57.9413 91.7756 56.6336 92.4066C56.4931 92.4849 56.3615 92.5783 56.2414 92.6851C55.1354 93.5489 54.0214 94.3996 52.9305 95.2825C51.9498 96.046 51.0563 96.9154 50.2667 97.8752C49.6653 98.5746 49.0274 99.2424 48.356 99.8754C48.3237 99.9135 48.2829 99.9438 48.2369 99.9628C48.1908 99.9822 48.1408 99.9901 48.0912 99.9859C48.0415 99.9816 47.9934 99.9655 47.951 99.9388C47.9089 99.9119 47.8737 99.8757 47.8487 99.8323C47.4585 99.1309 46.9854 98.4792 46.4396 97.8906C45.4376 96.8568 44.3835 95.8717 43.3439 94.8721C42.8827 94.4285 42.4323 93.9708 41.9332 93.572C40.9732 92.7667 39.9757 92.0249 38.9908 91.2666L39.0036 91.2693ZM24.4527 126.646C24.6704 126.827 24.9366 126.939 25.2179 126.969C27.121 127.265 29.0215 127.479 30.931 127.022C32.4282 126.947 33.8068 126.364 35.2344 125.995C35.2729 125.982 35.3058 125.956 35.3274 125.922C35.3467 125.893 35.3541 125.857 35.3479 125.823C35.3378 125.793 35.309 125.749 35.2815 125.746C35.1647 125.726 35.0459 125.719 34.9276 125.725C31.5417 126.047 28.1567 126.391 24.7562 126.521C24.6665 126.522 24.5889 126.584 24.445 126.651L24.4527 126.646ZM20.0604 117.222C20.2611 117.158 20.3555 117.161 20.4018 117.115C22.3093 115.119 24.5498 113.498 26.5653 111.627C26.585 111.601 26.5827 111.551 26.5947 111.483C26.4784 111.504 26.3495 111.494 26.2708 111.548C24.8667 112.53 23.3448 113.362 22.1224 114.584C21.3007 115.353 20.6005 116.242 20.0458 117.221L20.0604 117.222ZM18.1124 123.189C18.0131 123.02 17.9194 122.863 17.8223 122.711C17.806 122.699 17.7468 122.694 17.7197 122.71C17.6925 122.726 17.6803 122.761 17.687 122.796C17.6827 122.888 17.7083 122.98 17.7602 123.057C17.812 123.134 17.8872 123.193 17.9748 123.224C17.9841 123.231 18.0189 123.21 18.0978 123.189L18.1124 123.189Z" fill="#5C5470" fill-opacity="0.6"/>
</g>
<mask id="mask3_89_104" style="mask-type:luminance" maskUnits="userSpaceOnUse" x="67" y="78" width="51" height="51">
<path d="M117.934 101.453L88.7174 78.9666L67.6997 106.247L96.9168 128.734L117.934 101.453Z" fill="white"/>
</mask>
<g mask="url(#mask3_89_104)">
<path d="M90.4085 98.4437C90.6756 98.6604 90.9155 98.8557 91.1599 99.0481C91.3346 99.178 91.4961 99.325 91.6422 99.4864C91.6764 99.5252 91.7149 99.5604 91.7564 99.5916C92.0386 99.8198 92.2929 100.08 92.514 100.368C92.5535 100.416 92.5956 100.462 92.64 100.506C92.6555 100.519 92.6759 100.526 92.6966 100.526C92.7173 100.526 92.7371 100.518 92.7522 100.503C92.8861 100.347 93.0226 100.189 93.1539 100.03C93.3204 99.8313 93.5095 99.6528 93.7178 99.4979C94.0145 99.2733 94.3024 99.0376 94.5991 98.8133C94.7139 98.7262 94.8435 98.6591 94.9656 98.5795C95.1903 98.4316 95.4163 98.2764 95.6377 98.1323C95.9055 97.9551 96.2 97.8219 96.5099 97.7378C96.7109 97.6835 96.9204 97.671 97.1264 97.7009C97.2359 97.7092 97.3402 97.7512 97.4251 97.8209C97.51 97.891 97.5708 97.9854 97.5998 98.0912C97.6333 98.1892 97.6518 98.2918 97.6544 98.3954C97.66 98.6956 97.6337 98.9958 97.5761 99.2908C97.4646 99.806 97.2965 100.307 97.075 100.786C97.0076 100.937 96.9293 101.083 96.8402 101.223C96.7362 101.39 96.6415 101.562 96.5572 101.739C96.4105 102.025 96.2417 102.299 96.0526 102.558C96.0022 102.623 95.9476 102.694 95.9006 102.755C95.8371 102.852 95.8407 102.889 95.9213 102.971C96.2401 103.311 96.578 103.633 96.9326 103.935C97.1043 104.067 97.2428 104.237 97.3988 104.389C97.5922 104.577 97.7748 104.774 97.9561 104.972C98.1528 105.199 98.3357 105.437 98.5038 105.686C98.6022 105.82 98.6881 105.962 98.7861 106.094C99.1322 106.561 99.3964 107.084 99.5668 107.64C99.6158 107.8 99.6418 107.965 99.6434 108.132C99.6497 108.205 99.6316 108.278 99.5918 108.339C99.552 108.4 99.4931 108.446 99.424 108.47C99.302 108.527 99.1707 108.561 99.0365 108.571C98.6943 108.592 98.3509 108.581 98.0104 108.539C97.6728 108.492 97.3399 108.414 97.0158 108.307C96.8582 108.253 96.7013 108.197 96.5431 108.149C96.2286 108.045 95.9236 107.913 95.6318 107.755C95.4374 107.656 95.2413 107.561 95.0472 107.464L94.9617 107.426C94.8919 107.398 94.8291 107.435 94.8333 107.505C94.8343 107.619 94.8416 107.733 94.8547 107.846C94.913 108.278 94.936 108.713 94.9238 109.148C94.9278 109.698 94.8689 110.248 94.7472 110.785C94.6606 111.125 94.5915 111.471 94.5024 111.812C94.4455 112.032 94.3751 112.248 94.2918 112.46C94.2346 112.616 94.1524 112.761 94.0474 112.889C93.9 113.058 93.7 113.173 93.4796 113.214C93.2592 113.256 93.0312 113.222 92.8325 113.118C92.5558 112.974 92.3143 112.771 92.1251 112.524C92.0577 112.432 92.0031 112.332 91.9626 112.225C91.7511 111.696 91.5665 111.157 91.4089 110.61C91.3514 110.403 91.3043 110.182 91.2649 109.974C91.129 109.326 90.9895 108.679 90.8632 108.027C90.8253 107.791 90.772 107.559 90.7036 107.33C90.6766 107.255 90.6467 107.241 90.5618 107.266C90.4809 107.285 90.4023 107.313 90.3272 107.348C89.99 107.533 89.6176 107.638 89.2765 107.811C89.2209 107.839 89.1617 107.86 89.1008 107.873C88.7363 107.944 88.3701 108.011 88.004 108.078C87.973 108.083 87.9418 108.086 87.9105 108.086C87.6003 108.092 87.2904 108.079 86.9818 108.047C86.7249 108.014 86.4738 107.945 86.2366 107.84C85.8659 107.682 85.4882 107.539 85.1138 107.386C84.9898 107.336 84.8681 107.277 84.7473 107.214C84.7016 107.19 84.6631 107.155 84.6348 107.112C84.5378 106.964 84.4825 106.793 84.4746 106.616C84.4647 106.49 84.5022 106.364 84.5792 106.263C84.6046 106.231 84.6296 106.198 84.6549 106.165C84.7901 106.008 84.8904 105.824 84.9497 105.625C85.0003 105.456 85.0796 105.298 85.1836 105.155C85.2115 105.125 85.2365 105.092 85.2589 105.057C85.3958 104.802 85.5869 104.579 85.8185 104.405C86.4386 103.885 87.1282 103.456 87.8674 103.127C88.1138 103.02 88.3589 102.91 88.6024 102.798C88.8689 102.684 89.1195 102.536 89.3488 102.359C89.636 102.127 89.6143 102.093 89.3745 101.858C89.3206 101.81 89.263 101.766 89.2028 101.726C88.7804 101.407 88.4089 101.025 88.101 100.594C87.9862 100.436 87.8835 100.269 87.7934 100.095C87.6437 99.8221 87.4957 99.5499 87.3637 99.2707C87.2394 99.0201 87.1591 98.7502 87.1259 98.4723C87.1114 98.3277 87.1187 98.1813 87.1479 98.0386C87.1736 97.9002 87.2338 97.771 87.3233 97.6621C87.4124 97.5536 87.5279 97.4694 87.6588 97.4178C87.8016 97.3596 87.9539 97.33 88.1082 97.33C88.6208 97.3172 89.1215 97.4862 89.5216 97.8068C89.8308 98.0251 90.1345 98.2418 90.4085 98.4437Z" fill="#5C5470" fill-opacity="0.6"/>
<path d="M87.3575 91.5862C87.9615 92.0751 88.5076 92.5233 89.0606 92.96C89.4584 93.2533 89.8258 93.5854 90.1578 93.9517C90.2338 94.0385 90.3183 94.1174 90.4101 94.1871C91.052 94.7037 91.6303 95.2939 92.133 95.9463C92.2222 96.0561 92.3189 96.1587 92.4166 96.26C92.4528 96.2902 92.4992 96.306 92.5462 96.3044C92.5936 96.3027 92.6387 96.284 92.6725 96.2511C92.9778 95.8947 93.2858 95.5399 93.5828 95.1769C93.9618 94.7274 94.3918 94.3233 94.8642 93.9724C95.5364 93.4604 96.1907 92.9264 96.8658 92.4165C97.1257 92.2198 97.4195 92.0692 97.6938 91.8877C98.2051 91.5533 98.7124 91.2133 99.2193 90.8733C99.827 90.4712 100.495 90.1683 101.199 89.9766C101.654 89.8527 102.131 89.8247 102.598 89.8944C102.847 89.9122 103.084 90.0069 103.276 90.165C103.469 90.3235 103.607 90.5373 103.673 90.7776C103.747 90.9999 103.788 91.2321 103.793 91.4662C103.806 92.1472 103.746 92.8278 103.615 93.4963C103.368 94.6698 102.991 95.8125 102.493 96.9038C102.339 97.2458 102.161 97.5762 101.959 97.8926C101.725 98.2714 101.51 98.663 101.318 99.0655C100.984 99.7129 100.601 100.334 100.173 100.923C100.066 101.076 99.9438 101.221 99.8444 101.381C99.7007 101.602 99.7079 101.685 99.8967 101.876C100.62 102.648 101.385 103.378 102.19 104.063C102.571 104.376 102.897 104.748 103.247 105.094C103.684 105.523 104.095 105.963 104.513 106.417C104.959 106.933 105.375 107.474 105.756 108.039C105.977 108.341 106.173 108.664 106.396 108.965C107.181 110.024 107.781 111.209 108.168 112.469C108.28 112.829 108.339 113.203 108.345 113.579C108.36 113.744 108.319 113.909 108.23 114.048C108.14 114.188 108.007 114.293 107.85 114.349C107.572 114.477 107.274 114.554 106.968 114.575C106.191 114.622 105.411 114.597 104.639 114.501C103.871 114.392 103.114 114.215 102.377 113.974C102.021 113.851 101.666 113.728 101.306 113.618C100.592 113.379 99.9 113.08 99.2381 112.721C98.7979 112.496 98.3535 112.281 97.911 112.062C97.8481 112.031 97.7853 112 97.7192 111.973C97.6886 111.955 97.6537 111.946 97.6182 111.947C97.5826 111.947 97.5481 111.957 97.5178 111.975C97.4879 111.994 97.4632 112.02 97.4471 112.052C97.4307 112.084 97.4231 112.119 97.4254 112.154C97.4293 112.413 97.4471 112.672 97.4787 112.93C97.6093 113.909 97.66 114.896 97.6307 115.883C97.6369 117.129 97.4987 118.371 97.2198 119.584C97.024 120.359 96.8664 121.144 96.6644 121.915C96.5358 122.415 96.3746 122.907 96.1822 123.386C96.0555 123.74 95.869 124.07 95.6304 124.361C95.3653 124.679 95.0149 124.916 94.6205 125.042C94.226 125.169 93.8033 125.181 93.4019 125.077C93.217 125.038 93.0384 124.973 92.8709 124.885C92.2419 124.56 91.6922 124.099 91.2615 123.536C91.1092 123.328 90.9855 123.1 90.8941 122.859C90.4144 121.659 89.9956 120.436 89.6396 119.194C89.5034 118.72 89.413 118.232 89.312 117.749C89.0027 116.279 88.6895 114.807 88.3984 113.332C88.3148 112.798 88.1941 112.271 88.0371 111.754C87.9766 111.582 87.9072 111.548 87.7154 111.608C87.5348 111.653 87.3591 111.715 87.1907 111.794C86.4301 112.218 85.5819 112.452 84.8062 112.845C84.6808 112.911 84.5466 112.959 84.4081 112.987C83.5797 113.147 82.7494 113.299 81.918 113.454C81.848 113.465 81.7776 113.47 81.7068 113.47C81.0044 113.485 80.3017 113.456 79.603 113.385C79.02 113.311 78.4505 113.154 77.9126 112.918C77.0708 112.56 76.2134 112.234 75.366 111.887C75.0824 111.771 74.8077 111.638 74.5369 111.496C74.433 111.443 74.3441 111.365 74.2793 111.268C74.0586 110.932 73.9339 110.542 73.9178 110.14C73.897 109.856 73.9796 109.573 74.151 109.345C74.2089 109.27 74.2665 109.195 74.3231 109.122C74.629 108.766 74.8554 108.349 74.987 107.899C75.1031 107.515 75.284 107.154 75.5219 106.831C75.5814 106.758 75.6347 106.68 75.6815 106.598C75.9733 105.989 76.449 105.531 76.9543 105.112C78.3614 103.934 79.9264 102.958 81.6039 102.214C82.1618 101.968 82.7181 101.72 83.2734 101.468C83.8778 101.207 84.4469 100.871 84.9677 100.469C85.6188 99.9447 85.5691 99.8655 85.0269 99.3334C84.9042 99.2226 84.773 99.1217 84.6348 99.0316C83.6449 98.3282 82.8672 97.4178 82.1398 96.4612C81.8782 96.1008 81.6443 95.7207 81.4403 95.3248C81.1028 94.7099 80.7663 94.0911 80.4639 93.4555C80.1823 92.8867 80.0007 92.2734 79.9277 91.6427C79.8935 91.3149 79.9106 90.9838 79.9787 90.6616C80.0353 90.3475 80.1711 90.0532 80.3738 89.8066C80.5761 89.56 80.8386 89.3693 81.1357 89.2529C81.4617 89.1168 81.8111 89.0458 82.1644 89.0435C83.3277 89.0152 84.4634 89.3989 85.3711 90.1269C86.0409 90.6316 86.7288 91.1242 87.3575 91.5862ZM86.9995 91.9607L87.0153 91.9403C86.4189 91.4813 85.833 91.0088 85.226 90.5632C84.3545 89.9316 83.4175 89.4837 82.2993 89.5048C81.923 89.5051 81.5512 89.589 81.2117 89.7511C81.0288 89.8336 80.8676 89.9576 80.7416 90.1134C80.6156 90.2693 80.5277 90.4524 80.4856 90.6484C80.3771 91.1068 80.3708 91.5832 80.4666 92.0446C80.5794 92.6206 80.7659 93.1803 81.0215 93.709C81.5838 94.8993 82.2835 96.0196 83.107 97.0475C83.5126 97.5634 83.9883 98.0208 84.52 98.4058C84.9125 98.6669 85.2733 98.9724 85.5954 99.316C85.7053 99.4719 85.8708 99.5797 86.0576 99.6172C86.105 99.6182 86.1511 99.6353 86.1876 99.6655C86.2241 99.6961 86.2491 99.7382 86.2583 99.7849C86.2968 99.9437 86.3768 100.09 86.4899 100.208C86.51 100.237 86.5235 100.27 86.5294 100.305C86.5357 100.34 86.534 100.376 86.5248 100.41C86.5156 100.444 86.4991 100.476 86.4764 100.503C86.4537 100.53 86.4251 100.552 86.3932 100.567C86.2271 100.656 86.0583 100.743 85.8872 100.812C84.9075 101.209 83.9663 101.695 83.0761 102.265C82.8017 102.444 82.5217 102.619 82.2325 102.777C81.3762 103.267 80.5669 103.835 79.8155 104.473C78.9832 105.156 78.1502 105.846 77.378 106.606C76.6941 107.28 76.0292 107.969 75.3969 108.694C74.832 109.342 74.8597 110.343 75.5581 111.05C75.8236 111.319 76.1457 111.526 76.501 111.656C77.1142 111.892 77.7669 112.01 78.4245 112.003C79.1759 111.988 79.9257 111.921 80.6758 111.876C81.0515 111.854 81.4265 111.837 81.8052 111.818C82.3918 111.786 82.9807 111.794 83.561 111.716C84.6532 111.568 85.7392 111.375 86.8288 111.197C87.0272 111.17 87.217 111.098 87.3835 110.987C87.5503 110.875 87.6891 110.728 87.7901 110.554C87.9052 110.366 88.0618 110.373 88.1763 110.548C88.2605 110.66 88.327 110.784 88.3727 110.916C88.4875 111.347 88.5941 111.78 88.6833 112.219C88.8705 113.139 89.0412 114.063 89.2238 114.986C89.3133 115.447 89.4074 115.905 89.5041 116.365C89.6212 116.889 89.7495 117.421 89.8453 117.95C89.9189 118.366 90.0229 118.777 90.1571 119.178C90.365 119.802 90.5657 120.427 90.7595 121.054C90.9543 121.729 91.2095 122.386 91.5221 123.015C91.9053 123.726 92.539 124.271 93.3002 124.542C93.4305 124.597 93.569 124.631 93.7102 124.641C94.3823 124.672 94.9679 124.512 95.3406 123.885C95.6591 123.362 95.9088 122.8 96.0835 122.213C96.3654 121.245 96.6016 120.266 96.8099 119.277C97.2379 117.179 97.2938 115.022 96.9753 112.904C96.9184 112.485 96.8977 112.062 96.9135 111.639C96.9102 111.592 96.9181 111.544 96.9365 111.501C96.9549 111.458 96.9836 111.419 97.0197 111.389C97.0556 111.358 97.0987 111.337 97.1444 111.326C97.1905 111.315 97.2385 111.315 97.2846 111.326C97.4244 111.342 97.5606 111.38 97.6886 111.438C98.2998 111.737 98.9022 112.053 99.5138 112.355C99.9076 112.566 100.313 112.754 100.729 112.918C101.813 113.301 102.897 113.687 104.038 113.899C104.988 114.061 105.955 114.115 106.918 114.058C107.084 114.055 107.25 114.03 107.409 113.983C107.572 113.943 107.713 113.842 107.804 113.701C107.894 113.56 107.928 113.39 107.897 113.226C107.879 113.038 107.846 112.852 107.798 112.67C107.534 111.718 107.129 110.81 106.595 109.978C106.174 109.327 105.724 108.695 105.27 108.068C104.581 107.115 103.869 106.179 102.969 105.406C102.878 105.336 102.814 105.23 102.73 105.153C102.175 104.646 101.687 104.069 101.055 103.647C100.856 103.52 100.68 103.361 100.532 103.178C100.213 102.77 99.8296 102.416 99.397 102.131C99.0473 101.883 98.9992 101.628 99.2631 101.299C99.952 100.406 100.56 99.4521 101.079 98.4499C101.313 98.0165 101.59 97.6062 101.802 97.1623C102.083 96.5687 102.344 95.9631 102.571 95.3469C102.939 94.4064 103.172 93.4187 103.264 92.4128C103.295 92.061 103.306 91.7075 103.296 91.3544C103.262 90.6326 102.917 90.3452 102.299 90.3275C101.923 90.3179 101.546 90.3643 101.183 90.4646C100.57 90.6307 99.9882 90.897 99.4625 91.2534C98.7604 91.7253 98.1008 92.2576 97.3343 92.6276C97.252 92.6733 97.1747 92.7282 97.1043 92.7906C96.4562 93.2974 95.8032 93.7958 95.1636 94.3134C94.5885 94.7609 94.0648 95.2706 93.6019 95.8332C93.2493 96.2432 92.8755 96.6348 92.4817 97.0057C92.463 97.0281 92.4393 97.0459 92.4123 97.057C92.385 97.0682 92.3557 97.0728 92.3268 97.0705C92.2975 97.0679 92.2692 97.0587 92.2445 97.0429C92.2199 97.0271 92.1991 97.0057 92.1843 96.9808C91.9557 96.5694 91.6787 96.1873 91.3586 95.8424C90.7713 95.2364 90.1532 94.659 89.5439 94.073C89.2735 93.8129 89.0093 93.5446 88.7168 93.3105C88.1543 92.8387 87.5693 92.4036 86.992 91.9594L86.9995 91.9607ZM78.4696 112.699C78.5973 112.805 78.7535 112.87 78.9183 112.888C80.0339 113.062 81.1479 113.187 82.2674 112.919C83.1448 112.875 83.9531 112.533 84.7901 112.317C84.8124 112.31 84.8318 112.295 84.8444 112.274C84.8559 112.258 84.8601 112.237 84.8565 112.216C84.8506 112.199 84.8338 112.173 84.8177 112.171C84.7489 112.16 84.6795 112.155 84.6101 112.159C82.6253 112.348 80.6409 112.55 78.6476 112.626C78.595 112.626 78.5496 112.663 78.4653 112.702L78.4696 112.699ZM75.895 107.174C76.0124 107.137 76.068 107.139 76.095 107.112C77.2132 105.942 78.5265 104.992 79.7082 103.894C79.7198 103.879 79.7184 103.85 79.7253 103.81C79.6572 103.823 79.5816 103.817 79.5355 103.848C78.7124 104.424 77.8202 104.912 77.1037 105.628C76.622 106.079 76.2115 106.6 75.8864 107.174L75.895 107.174ZM74.7531 110.673C74.6948 110.574 74.6399 110.482 74.583 110.392C74.5734 110.385 74.5386 110.382 74.5228 110.391C74.507 110.401 74.4998 110.421 74.5037 110.442C74.5011 110.496 74.5162 110.55 74.5465 110.595C74.5767 110.64 74.6208 110.675 74.6725 110.693C74.6777 110.697 74.6981 110.685 74.7445 110.672L74.7531 110.673Z" fill="#5C5470" fill-opacity="0.6"/>
</g>
<mask id="mask4_89_104" style="mask-type:luminance" maskUnits="userSpaceOnUse" x="346" y="96" width="79" height="59">
<path d="M346 96H424.704V154.423H346V96Z" fill="white"/>
</mask>
<g mask="url(#mask4_89_104)">
<path d="M370.224 154.044C370.903 153.946 371.588 153.869 372.266 153.749C372.776 153.649 373.257 153.446 373.675 153.155C374.093 152.864 374.437 152.492 374.685 152.064C374.776 151.926 374.835 151.771 374.856 151.61C374.877 151.449 374.86 151.285 374.806 151.131C374.622 150.554 374.318 150.017 373.909 149.551C373.727 149.327 373.54 149.116 373.381 148.849C373.341 148.79 373.325 148.72 373.337 148.651C373.351 148.582 373.39 148.52 373.449 148.477C374.203 147.986 374.956 147.473 375.793 147.024C378.128 145.718 380.513 144.487 382.942 143.331C385.283 142.225 387.546 140.988 389.724 139.625C391.699 138.396 393.741 137.252 395.753 136.058C396.754 135.462 397.703 134.788 398.766 134.233C401.919 132.478 404.849 130.396 407.498 128.027C407.645 127.903 407.799 127.786 407.958 127.676C410.748 125.603 413.357 123.328 415.764 120.874C416.268 120.363 416.806 119.882 417.377 119.435C419.243 117.911 420.98 116.256 422.576 114.486C423.035 114.008 423.495 113.524 423.932 113.026C425.098 111.769 426.18 110.447 427.171 109.066C427.477 108.644 427.816 108.245 428.188 107.873C429.469 106.511 430.239 104.833 431.347 103.359C431.677 102.844 431.946 102.298 432.152 101.73C432.319 101.344 432.453 100.944 432.605 100.558C432.92 99.8276 433.135 99.0634 433.245 98.2831C433.32 97.6444 433.47 97.0125 433.607 96.3808C433.75 95.5094 433.668 94.6188 433.366 93.7832C433.301 93.6085 433.201 93.4466 433.072 93.3059C432.866 93.1044 432.675 92.891 432.499 92.6672C432.17 92.2016 431.722 91.8189 431.196 91.5532C430.672 91.2875 430.083 91.1468 429.485 91.1437C428.756 91.041 428.012 91.0648 427.292 91.2139C427.028 91.2531 426.776 91.3426 426.55 91.4766C426.325 91.6106 426.131 91.7865 425.981 91.9932C425.713 92.381 425.421 92.7537 425.107 93.1093C424.488 93.7828 424.133 94.6315 424.098 95.5172C424.082 95.9319 423.958 96.3367 423.736 96.6967C422.878 98.2572 421.929 99.7733 420.896 101.239C419.938 102.587 418.853 103.85 417.835 105.163C416.357 106.908 414.743 108.551 413.006 110.077C412.698 110.372 412.359 110.653 412.057 110.955C409.311 113.564 406.28 115.9 403.015 117.925C401.84 118.684 400.582 119.33 399.362 120.032L392.136 124.166C388.707 126.118 385.195 127.929 381.588 129.551C379.266 130.599 376.922 131.596 374.558 132.541C372.941 133.233 371.271 133.81 369.562 134.268C369.419 134.303 369.268 134.325 369.125 134.353C369.076 134.357 369.027 134.35 368.983 134.334C368.938 134.318 368.898 134.292 368.866 134.258C368.833 134.225 368.81 134.185 368.798 134.142C368.784 134.098 368.782 134.053 368.793 134.009C369.071 133.173 369.335 132.331 369.644 131.503C369.861 130.984 369.983 130.436 370.006 129.881C370.006 129.052 369.954 128.217 369.931 127.389C369.864 126.508 369.494 125.671 368.875 125.002C368.671 124.703 368.349 124.491 367.978 124.411C367.608 124.331 367.218 124.389 366.895 124.574C365.369 125.267 363.997 126.219 362.848 127.382C360.49 129.691 358.206 132.071 356.067 134.584C354.759 136.092 353.56 137.677 352.473 139.33C352.066 139.969 351.622 140.58 351.162 141.183C350.48 142.149 349.907 143.177 349.451 144.251C349.089 145.064 348.891 145.933 348.87 146.813C348.837 147.584 349.042 148.348 349.459 149.013C349.877 149.679 350.492 150.219 351.23 150.569C352.244 151.154 353.357 151.574 354.521 151.812C355.105 151.927 355.677 152.084 356.233 152.282C357.495 152.709 358.823 152.935 360.165 152.949C361.405 152.992 362.635 153.144 363.843 153.405C363.993 153.405 364.13 153.497 364.273 153.511C366.262 153.686 368.235 153.862 370.224 154.044ZM369.471 152.956C367.903 152.851 366.458 152.766 365.033 152.654C364.636 152.643 364.243 152.582 363.866 152.472C362.82 152.174 361.733 152.025 360.641 152.029C359.2 152.032 357.771 151.794 356.421 151.327C356.149 151.212 355.864 151.127 355.57 151.075C354.35 150.86 353.175 150.466 352.088 149.909C351.331 149.605 350.713 149.062 350.342 148.375C349.972 147.688 349.872 146.902 350.061 146.153C350.288 144.874 350.769 143.646 351.478 142.531C352.571 140.776 353.738 139.056 355.02 137.406C356.435 135.567 357.973 133.819 359.54 132.071C361.205 130.239 363.002 128.515 364.92 126.911C365.6 126.304 366.402 125.827 367.278 125.507C367.487 125.428 367.718 125.416 367.935 125.475C368.15 125.533 368.339 125.659 368.47 125.83C368.929 126.383 369.172 127.068 369.155 127.768C369.155 128.47 369.109 129.172 369.094 129.874C369.088 130.429 368.964 130.977 368.732 131.488C368.265 132.513 367.844 133.545 367.407 134.577C367.332 134.747 367.276 134.923 367.241 135.104C367.236 135.184 367.248 135.264 367.278 135.339C367.309 135.414 367.354 135.482 367.416 135.539C367.477 135.596 367.548 135.641 367.629 135.67C367.709 135.699 367.795 135.712 367.881 135.707C367.982 135.7 368.08 135.681 368.174 135.651C369.585 135.216 371.016 134.823 372.402 134.325C373.909 133.777 375.416 133.11 376.922 132.556C378.814 131.854 380.623 130.99 382.439 130.155C384.396 129.256 386.31 128.287 388.233 127.347C389.325 126.799 390.386 126.209 391.449 125.613C392.956 124.777 394.396 123.907 395.864 123.057L401.313 119.933C405.614 117.492 409.561 114.548 413.058 111.172C414.053 110.203 415.102 109.284 416.126 108.364C416.337 108.167 416.556 107.978 416.752 107.767C419.286 105.102 421.539 102.215 423.479 99.1467C424.549 97.4337 425.514 95.6365 426.538 93.9166C426.699 93.6316 426.89 93.3613 427.105 93.1093C427.304 92.8688 427.564 92.6786 427.863 92.556C428.162 92.4334 428.489 92.3824 428.814 92.4073C429.165 92.4102 429.503 92.527 429.772 92.7373C429.884 92.8608 430.034 92.9505 430.202 92.9955C430.37 93.0403 430.546 93.0385 430.714 92.99C430.877 92.9363 431.057 92.937 431.219 92.9921C431.383 93.047 431.52 93.153 431.609 93.2919C432.03 93.7304 432.329 94.2593 432.478 94.8313C432.626 95.4034 432.621 96.0007 432.462 96.5704C432.346 97.0638 432.261 97.563 432.205 98.0655C432.002 99.8487 431.119 101.414 430.382 103.029C430.331 103.107 430.277 103.182 430.216 103.253C429.915 103.682 429.613 104.103 429.326 104.531C428.837 105.275 428.4 106.061 427.819 106.77C426.9 107.971 425.951 109.157 424.941 110.281C423.63 111.776 422.252 113.229 420.903 114.703C420.511 115.124 420.15 115.56 419.72 115.946C418.5 117.027 417.339 118.157 416.088 119.21C414.431 120.614 412.849 122.067 411.304 123.57C410.243 124.604 409.105 125.565 407.899 126.448C407.528 126.681 407.186 126.951 406.881 127.255C406.245 127.903 405.549 128.497 404.801 129.031C402.865 130.616 400.785 132.042 398.586 133.293C397.742 133.763 396.904 134.275 396.083 134.781C395.006 135.441 393.95 136.136 392.874 136.782C391.329 137.708 389.785 138.621 388.224 139.527C387.216 140.109 386.213 140.713 385.159 141.218C382.996 142.25 380.848 143.324 378.731 144.412C376.742 145.451 374.776 146.518 372.794 147.579C372.495 147.739 372.208 147.917 371.936 148.112C371.868 148.164 371.813 148.229 371.775 148.301C371.736 148.374 371.714 148.454 371.71 148.535C371.707 148.616 371.719 148.697 371.75 148.773C371.782 148.848 371.829 148.918 371.89 148.976C372.063 149.137 372.275 149.263 372.455 149.411C372.736 149.595 372.99 149.815 373.208 150.064C373.961 151.173 373.804 151.952 372.537 152.563C372.175 152.715 371.792 152.819 371.399 152.872C370.772 153.019 370.118 153.047 369.478 152.956H369.471Z" fill="#5C5470" fill-opacity="0.6"/>
</g>
<mask id="mask5_89_104" style="mask-type:luminance" maskUnits="userSpaceOnUse" x="27" y="28" width="42" height="41">
<path d="M68.2598 46.0749L44.7746 28L27.8802 49.9289L51.3654 68.0037L68.2598 46.0749Z" fill="white"/>
</mask>
<g mask="url(#mask5_89_104)">
<path d="M46.1339 43.656C46.3487 43.83 46.5415 43.9871 46.7379 44.1417C46.8784 44.2461 47.0083 44.3641 47.1255 44.4941C47.1531 44.5252 47.184 44.5535 47.2172 44.5786C47.4442 44.762 47.6486 44.9713 47.8265 45.2025C47.8581 45.2413 47.892 45.2783 47.9275 45.3134C47.9404 45.3243 47.9565 45.3301 47.9733 45.3297C47.9897 45.3294 48.0058 45.3229 48.018 45.3115C48.1256 45.1854 48.2351 45.059 48.3407 44.9311C48.4746 44.7713 48.6266 44.6277 48.7941 44.5033C49.0326 44.3227 49.2639 44.1333 49.5024 43.9528C49.5948 43.8828 49.6991 43.8289 49.7971 43.765C49.9774 43.6462 50.1594 43.5213 50.337 43.4057C50.5525 43.2632 50.7894 43.1561 51.0384 43.0884C51.1999 43.0448 51.3684 43.0347 51.5339 43.0587C51.622 43.0654 51.7059 43.0992 51.774 43.1554C51.8421 43.2115 51.8911 43.2874 51.9145 43.3725C51.9415 43.4513 51.9563 43.5337 51.9582 43.6169C51.9629 43.8584 51.9418 44.0996 51.8954 44.3367C51.8056 44.7509 51.6707 45.1539 51.4924 45.5385C51.4385 45.6601 51.3753 45.7775 51.3039 45.8898C51.2203 46.0237 51.1443 46.1624 51.0762 46.3051C50.9585 46.5346 50.8229 46.7546 50.6706 46.963C50.6301 47.0155 50.5864 47.0723 50.5486 47.1215C50.4976 47.199 50.5005 47.2291 50.565 47.2946C50.8216 47.5679 51.093 47.8269 51.3783 48.0701C51.5161 48.1763 51.6276 48.3125 51.7526 48.435C51.9082 48.5861 52.055 48.7443 52.2007 48.9036C52.359 49.0858 52.506 49.2775 52.6409 49.4774C52.7202 49.5853 52.7889 49.6994 52.8679 49.8053C53.1462 50.1809 53.3584 50.6011 53.4956 51.0479C53.5351 51.1761 53.5558 51.3094 53.5571 51.4435C53.5621 51.502 53.5476 51.5605 53.5157 51.6097C53.4838 51.659 53.4361 51.6961 53.3808 51.7154C53.2827 51.761 53.1771 51.7884 53.0692 51.7961C52.7942 51.813 52.5182 51.8046 52.2445 51.771C51.9731 51.7326 51.7056 51.6701 51.445 51.5842C51.3184 51.5406 51.1924 51.4959 51.0651 51.4573C50.8121 51.3735 50.567 51.2676 50.3324 51.1408C50.1765 51.0606 50.0186 50.9846 49.8626 50.9064L49.7939 50.8759C49.7376 50.8537 49.6873 50.8828 49.6909 50.9395C49.6915 51.0312 49.6971 51.1228 49.7077 51.2139C49.7547 51.5605 49.7731 51.9103 49.7633 52.2599C49.7669 52.7024 49.7192 53.1439 49.6215 53.5755C49.5517 53.8493 49.4965 54.1272 49.4247 54.4012C49.379 54.5782 49.3224 54.7522 49.2553 54.9222C49.2096 55.0473 49.1431 55.1641 49.0589 55.2676C48.9405 55.4034 48.7799 55.4955 48.6026 55.5287C48.4256 55.5619 48.242 55.5346 48.0825 55.4511C47.8601 55.3357 47.666 55.1726 47.514 54.9737C47.4597 54.8999 47.4156 54.8192 47.3831 54.7337C47.2133 54.3085 47.0646 53.875 46.9383 53.435C46.8919 53.2687 46.8541 53.0915 46.8225 52.9244C46.7132 52.4031 46.6011 51.8831 46.4994 51.3589C46.4691 51.1696 46.4264 50.9824 46.3711 50.7987C46.3494 50.7385 46.3254 50.7269 46.2573 50.7475C46.1921 50.7627 46.129 50.7848 46.0688 50.8133C45.7977 50.9616 45.4983 51.0467 45.2239 51.1855C45.1792 51.2082 45.1318 51.225 45.0828 51.2354C44.7897 51.292 44.4952 51.3459 44.2011 51.3998C44.1761 51.404 44.1511 51.4062 44.1261 51.4065C43.8767 51.4109 43.6274 51.4005 43.3793 51.3753C43.173 51.3488 42.9714 51.2927 42.7806 51.2088C42.4825 51.0821 42.1788 50.9669 41.8782 50.8435C41.7785 50.8032 41.6804 50.7559 41.5834 50.7055C41.5469 50.6863 41.5156 50.6582 41.4929 50.6237C41.4149 50.5048 41.3705 50.367 41.3643 50.225C41.3564 50.1233 41.3863 50.0224 41.4485 49.9414C41.4686 49.9152 41.489 49.889 41.509 49.8627C41.6176 49.7363 41.6985 49.5883 41.7459 49.4284C41.7867 49.2928 41.8505 49.165 41.9341 49.0507C41.9565 49.0262 41.9768 48.9999 41.9946 48.972C42.1048 48.7665 42.2581 48.5874 42.4443 48.4472C42.9428 48.03 43.4971 47.6845 44.0912 47.4208C44.2896 47.3341 44.4863 47.2459 44.6821 47.1562C44.8963 47.0642 45.0979 46.9455 45.2822 46.8028C45.5131 46.6164 45.4957 46.5892 45.3029 46.4006C45.2595 46.3619 45.2134 46.3265 45.1647 46.2944C44.8252 46.0376 44.5268 45.7308 44.2791 45.3846C44.187 45.2571 44.1044 45.1231 44.0317 44.9835C43.9116 44.7639 43.7925 44.545 43.6866 44.3205C43.5866 44.1191 43.5221 43.9021 43.4954 43.6789C43.4836 43.5625 43.4895 43.4449 43.5132 43.3302C43.5336 43.219 43.5823 43.115 43.654 43.0277C43.7257 42.9404 43.8185 42.8728 43.9238 42.8311C44.0383 42.7845 44.161 42.7606 44.285 42.7607C44.6969 42.7504 45.0996 42.8862 45.421 43.144C45.6694 43.3195 45.9138 43.4936 46.1339 43.656Z" fill="#5C5470" fill-opacity="0.6"/>
<path d="M43.6813 38.1438C44.1669 38.5366 44.6058 38.8971 45.0506 39.248C45.3703 39.4837 45.6658 39.7508 45.9322 40.0451C45.9934 40.1148 46.0615 40.1783 46.1352 40.2344C46.6511 40.6495 47.1159 41.1242 47.5203 41.6485C47.5916 41.7367 47.6693 41.8191 47.7479 41.9005C47.7772 41.9248 47.8144 41.9375 47.8522 41.9363C47.8904 41.935 47.9266 41.9198 47.9539 41.8935C48.1993 41.6068 48.4467 41.3218 48.6855 41.03C48.9902 40.6686 49.3359 40.3437 49.7156 40.0618C50.2558 39.6503 50.7818 39.2209 51.3243 38.8111C51.5332 38.6531 51.7694 38.5319 51.9898 38.3862C52.4011 38.1174 52.8087 37.8441 53.216 37.5708C53.7048 37.2474 54.2417 37.004 54.8073 36.8499C55.1738 36.7503 55.5567 36.7278 55.9324 36.7838C56.1321 36.7982 56.3222 36.8743 56.4772 37.0015C56.6318 37.1287 56.7433 37.3007 56.796 37.4938C56.8555 37.6724 56.8881 37.859 56.8927 38.0472C56.9029 38.5947 56.8549 39.1416 56.7496 39.679C56.5506 40.6223 56.2482 41.5409 55.8479 42.418C55.7242 42.6929 55.5807 42.9585 55.4185 43.2128C55.2297 43.5174 55.058 43.8322 54.9033 44.1556C54.6349 44.676 54.3273 45.1751 53.9828 45.6489C53.8966 45.7723 53.7986 45.8883 53.7187 46.0168C53.6029 46.1942 53.6088 46.2614 53.7608 46.4149C54.3414 47.0352 54.957 47.6223 55.6041 48.1732C55.9107 48.4248 56.1722 48.7236 56.4535 49.0011C56.8049 49.3464 57.1355 49.7002 57.4717 50.0651C57.8303 50.4796 58.1639 50.9149 58.4708 51.3688C58.6482 51.6116 58.8061 51.8707 58.9854 52.1132C59.6164 52.9646 60.0977 53.9171 60.4089 54.9298C60.499 55.2189 60.5471 55.5191 60.5517 55.8217C60.5635 55.9545 60.5306 56.087 60.4586 56.1991C60.3865 56.3109 60.2793 56.3958 60.1536 56.4402C59.9306 56.5437 59.6904 56.6056 59.4446 56.6227C58.8202 56.6605 58.1935 56.6404 57.5727 56.5631C56.9555 56.4753 56.3469 56.3336 55.7544 56.1393C55.4679 56.0406 55.1833 55.9417 54.8938 55.8532C54.3197 55.6615 53.7634 55.4205 53.2311 55.1325C52.8774 54.9509 52.5202 54.7787 52.1645 54.6023C52.1139 54.5774 52.0632 54.5525 52.0102 54.5308C51.9856 54.5165 51.9576 54.5092 51.929 54.5095C51.9007 54.5099 51.8727 54.5181 51.8487 54.533C51.8244 54.548 51.8046 54.5692 51.7915 54.5945C51.7783 54.6198 51.7724 54.6481 51.7744 54.6765C51.7773 54.8849 51.7915 55.093 51.8171 55.2998C51.9217 56.0867 51.9629 56.8808 51.9392 57.6739C51.9441 58.6751 51.8332 59.6734 51.6089 60.649C51.4516 61.2718 51.325 61.9021 51.1625 62.5226C51.0588 62.9247 50.9295 63.3197 50.7749 63.705C50.6732 63.9898 50.5232 64.2548 50.3314 64.4889C50.1183 64.7444 49.8366 64.9345 49.5195 65.0364C49.2024 65.1383 48.8628 65.1479 48.5401 65.0644C48.3914 65.0325 48.248 64.9805 48.1134 64.9101C47.6074 64.6481 47.1659 64.2778 46.8198 63.8257C46.6971 63.6583 46.5978 63.4752 46.5241 63.2812C46.1385 62.3168 45.802 61.3336 45.5161 60.335C45.4062 59.9545 45.3335 59.5623 45.2526 59.1743C45.0039 57.9918 44.7522 56.8088 44.5179 55.6237C44.4508 55.1946 44.3538 54.7707 44.2278 54.3551C44.1791 54.2167 44.1235 54.1894 43.9692 54.238C43.8241 54.2738 43.6826 54.3237 43.5474 54.3871C42.9359 54.7282 42.2542 54.9159 41.6304 55.2321C41.5298 55.2847 41.4222 55.3232 41.3107 55.3462C40.6448 55.4748 39.9773 55.5967 39.3091 55.7217C39.2529 55.7302 39.196 55.7342 39.1394 55.7339C38.5747 55.746 38.01 55.7233 37.4482 55.6655C36.9796 55.6069 36.5219 55.4803 36.0895 55.2903C35.4129 55.0032 34.7238 54.741 34.0424 54.4622C33.8145 54.3686 33.5937 54.2614 33.376 54.1479C33.2925 54.1052 33.2212 54.0419 33.1689 53.9641C32.9916 53.6939 32.8913 53.3806 32.8785 53.0578C32.8616 52.829 32.9282 52.6018 33.066 52.4183C33.1123 52.3582 33.1587 52.298 33.2042 52.239C33.45 51.9532 33.632 51.6182 33.738 51.2564C33.8312 50.9477 33.9766 50.6573 34.1677 50.3975C34.2155 50.3389 34.2585 50.2764 34.296 50.2106C34.5306 49.7206 34.9131 49.3531 35.3193 49.016C36.4502 48.069 37.7082 47.2849 39.0565 46.6862C39.5049 46.489 39.9523 46.2893 40.3987 46.0871C40.8843 45.877 41.3419 45.6071 41.7604 45.2837C42.2838 44.8625 42.244 44.7988 41.8081 44.371C41.7094 44.282 41.6041 44.2009 41.4929 44.1284C40.6971 43.5631 40.072 42.8311 39.4874 42.0624C39.2769 41.7726 39.089 41.4672 38.9252 41.1489C38.6539 40.6545 38.3832 40.1571 38.1404 39.6462C37.9139 39.1889 37.768 38.696 37.7093 38.1892C37.6818 37.9257 37.6956 37.6596 37.7503 37.4004C37.7957 37.148 37.905 36.9115 38.0678 36.7133C38.2305 36.5151 38.4414 36.3618 38.6802 36.2681C38.9423 36.1588 39.2233 36.1016 39.5072 36.0999C40.4421 36.0772 41.3551 36.3856 42.0848 36.9707C42.6233 37.3764 43.176 37.7723 43.6813 38.1438ZM43.3938 38.4449L43.4063 38.4285C42.927 38.0595 42.4559 37.6795 41.968 37.3215C41.2676 36.8138 40.5145 36.4537 39.6157 36.4707C39.3131 36.4708 39.0144 36.5384 38.7412 36.6687C38.5942 36.7348 38.4648 36.8346 38.3635 36.9599C38.2621 37.0852 38.1916 37.2325 38.1576 37.39C38.0706 37.7583 38.0653 38.1414 38.1423 38.5121C38.233 38.9753 38.3829 39.425 38.5884 39.85C39.0403 40.8068 39.6029 41.7074 40.2648 42.5335C40.5908 42.9484 40.9731 43.3159 41.4008 43.6255C41.716 43.8354 42.0061 44.0808 42.2651 44.357C42.3532 44.4823 42.4861 44.569 42.6365 44.5993C42.6746 44.5999 42.7115 44.6136 42.7411 44.6381C42.7704 44.6626 42.7904 44.6964 42.798 44.7339C42.8289 44.8616 42.8931 44.9789 42.9839 45.074C43 45.0974 43.0112 45.124 43.0158 45.1521C43.0207 45.1801 43.0194 45.2088 43.0122 45.2363C43.0046 45.2637 42.9915 45.2892 42.973 45.3111C42.9549 45.3329 42.9322 45.3505 42.9062 45.3626C42.773 45.434 42.6371 45.5038 42.4996 45.5599C41.712 45.8787 40.9554 46.2697 40.2398 46.7278C40.0194 46.8715 39.7944 47.0119 39.5618 47.1395C38.8735 47.5329 38.2231 47.9891 37.619 48.5025C36.9499 49.0518 36.2806 49.606 35.6599 50.217C35.11 50.7587 34.5755 51.3123 34.0673 51.8949C33.6133 52.4163 33.6354 53.2206 34.1969 53.7886C34.4102 54.0052 34.6691 54.1718 34.9547 54.276C35.4478 54.466 35.9725 54.5607 36.5009 54.5551C37.105 54.5427 37.7076 54.4892 38.3106 54.4534C38.6125 54.435 38.914 54.4215 39.2183 54.4067C39.6898 54.381 40.1632 54.3866 40.63 54.3242C41.5077 54.2055 42.3809 54.0501 43.2563 53.9071C43.4158 53.8853 43.5685 53.8275 43.7024 53.738C43.8363 53.6485 43.9481 53.5297 44.0291 53.3906C44.1215 53.2389 44.2475 53.2452 44.3396 53.3858C44.4074 53.4755 44.4607 53.5752 44.4975 53.6813C44.5897 54.0276 44.6755 54.3758 44.7472 54.7287C44.8976 55.4682 45.0348 56.2113 45.1818 56.9531C45.2536 57.3237 45.3292 57.692 45.4069 58.0616C45.5013 58.4824 45.6042 58.9102 45.6812 59.3354C45.7401 59.6701 45.824 59.9999 45.9319 60.3225C46.099 60.8239 46.2602 61.3264 46.4159 61.8308C46.5725 62.3733 46.7777 62.9007 47.0291 63.4068C47.3373 63.9786 47.8466 64.4156 48.4585 64.6339C48.5631 64.6787 48.6743 64.7053 48.7878 64.7135C49.328 64.7388 49.7988 64.6099 50.0982 64.1055C50.3545 63.6853 50.5551 63.2338 50.6956 62.7623C50.922 61.984 51.1118 61.1965 51.2792 60.4024C51.6234 58.7159 51.6684 56.982 51.4125 55.2794C51.3667 54.9425 51.35 54.6021 51.3628 54.2623C51.3602 54.2244 51.3664 54.1865 51.3812 54.1515C51.396 54.1165 51.4191 54.0855 51.448 54.061C51.477 54.0366 51.5115 54.0193 51.5484 54.0106C51.5855 54.0019 51.624 54.0021 51.6609 54.0111C51.7734 54.0238 51.8829 54.0541 51.9859 54.1009C52.4771 54.3414 52.9613 54.5956 53.4528 54.838C53.7693 55.0075 54.0957 55.1584 54.4296 55.2903C55.3011 55.5984 56.1726 55.9088 57.0891 56.0794C57.8537 56.2097 58.6304 56.2524 59.4045 56.2067C59.5381 56.2044 59.671 56.1843 59.7993 56.1465C59.9302 56.1143 60.0434 56.0331 60.1164 55.92C60.1891 55.8069 60.2161 55.6701 60.1918 55.5376C60.1773 55.387 60.1506 55.2377 60.1118 55.0914C59.9 54.3256 59.5739 53.596 59.1446 52.9272C58.8064 52.4041 58.4449 51.8958 58.0797 51.3919C57.526 50.626 56.9532 49.8734 56.2301 49.2525C56.1568 49.1961 56.1054 49.1112 56.0383 49.0491C55.5922 48.6413 55.1998 48.1773 54.6918 47.8386C54.5319 47.7364 54.3901 47.6088 54.2714 47.461C54.0147 47.133 53.7065 46.8488 53.3591 46.6195C53.0781 46.4207 53.0393 46.215 53.2512 45.9514C53.8052 45.2329 54.2937 44.4664 54.7109 43.6608C54.8987 43.3126 55.1218 42.9826 55.2919 42.6259C55.5182 42.1486 55.7278 41.6619 55.9104 41.1667C56.2061 40.4107 56.3936 39.6167 56.467 38.8081C56.4923 38.5253 56.5012 38.2412 56.493 37.9573C56.4657 37.3772 56.1884 37.1463 55.6919 37.1319C55.3889 37.1244 55.0866 37.1616 54.7944 37.2423C54.3013 37.3755 53.8341 37.5897 53.4114 37.8762C52.8475 38.2554 52.3172 38.6834 51.701 38.9808C51.6349 39.0176 51.5727 39.0616 51.5161 39.112C50.995 39.5191 50.4699 39.9198 49.9561 40.3358C49.4938 40.6956 49.0731 41.1053 48.701 41.5575C48.4174 41.8872 48.1167 42.2018 47.8006 42.5C47.7854 42.5181 47.766 42.5322 47.7443 42.5413C47.7226 42.5504 47.6992 42.554 47.6759 42.5521C47.6522 42.5501 47.6295 42.5425 47.6097 42.5299C47.59 42.5173 47.5732 42.5001 47.5614 42.4798C47.3778 42.1493 47.1548 41.8421 46.8975 41.5648C46.4254 41.0778 45.9286 40.6136 45.4388 40.1425C45.2216 39.9335 45.0094 39.7179 44.7739 39.5298C44.3219 39.1504 43.8517 38.8009 43.3875 38.4437L43.3938 38.4449ZM36.5373 55.1144C36.6399 55.1995 36.7653 55.2525 36.8979 55.2663C37.7946 55.406 38.6901 55.5066 39.5897 55.2916C40.2954 55.2564 40.9448 54.9812 41.6176 54.8075C41.6357 54.8015 41.6512 54.7894 41.6614 54.7732C41.6706 54.7595 41.6742 54.7429 41.6712 54.7267C41.6663 54.7126 41.6528 54.6916 41.6397 54.6904C41.5847 54.6808 41.5288 54.6775 41.4732 54.6805C39.8776 54.8321 38.2826 54.9944 36.6803 55.0555C36.638 55.0558 36.6015 55.0854 36.5337 55.1167L36.5373 55.1144ZM34.4677 50.6736C34.5622 50.6437 34.6067 50.6448 34.6285 50.6233C35.5273 49.683 36.5831 48.9192 37.5328 48.0373C37.542 48.0252 37.541 48.0017 37.5466 47.9695C37.4918 47.9796 37.431 47.9746 37.394 48.0001C36.7324 48.4628 36.0153 48.855 35.4393 49.4306C35.0521 49.7931 34.7222 50.2121 34.4607 50.6736L34.4677 50.6736ZM33.5497 53.4856C33.5029 53.406 33.4588 53.332 33.413 53.2602C33.4054 53.2543 33.3775 53.252 33.3647 53.2595C33.3519 53.2671 33.3462 53.2836 33.3493 53.3C33.3473 53.3437 33.3594 53.3869 33.3838 53.4232C33.4082 53.4596 33.4437 53.4872 33.4849 53.5019C33.4893 53.5052 33.5057 53.4952 33.5428 53.4855L33.5497 53.4856Z" fill="#5C5470" fill-opacity="0.6"/>
</g>
</svg>
