<svg width="502" height="308" viewBox="0 0 502 308" fill="none" xmlns="http://www.w3.org/2000/svg">
<g clip-path="url(#clip0_82_83)">
<path d="M51.9241 58.558C52.5348 59.0531 53.0833 59.5002 53.6421 59.9404C54.0419 60.2375 54.4113 60.5734 54.7448 60.9432C54.8237 61.0319 54.9111 61.1125 55.0059 61.1839C55.6513 61.7056 56.2329 62.3016 56.7387 62.9594C56.8288 63.0698 56.9248 63.1752 57.0264 63.2751C57.0624 63.306 57.1085 63.3226 57.1559 63.3216C57.2034 63.3207 57.2488 63.3022 57.2834 63.2698C57.5897 62.9107 57.9014 62.551 58.2014 62.1871C58.5822 61.7321 59.0151 61.3234 59.4912 60.9694C60.1696 60.4557 60.8277 59.9165 61.506 59.4028C61.7686 59.2035 62.0653 59.0502 62.3441 58.8684C62.8576 58.5301 63.3744 58.1745 63.8807 57.8456C64.4931 57.4401 65.1666 57.1353 65.8755 56.9427C66.3345 56.8186 66.8141 56.7898 67.2848 56.858C67.5353 56.8771 67.7739 56.9732 67.9678 57.1331C68.1616 57.2931 68.3013 57.509 68.3677 57.7513C68.4443 57.9755 68.4862 58.21 68.4918 58.4468C68.5046 59.134 68.4447 59.8207 68.3132 60.4953C68.058 61.6741 67.6737 62.8212 67.1673 63.9158C67.0134 64.2618 66.8341 64.5959 66.6307 64.9154C66.3925 65.2966 66.1763 65.6913 65.9834 66.0974C65.648 66.7507 65.2621 67.3767 64.8293 67.9698C64.7142 68.1192 64.5896 68.281 64.4818 68.4211C64.3368 68.6416 64.3452 68.7273 64.5291 68.9136C65.2586 69.6916 66.0308 70.4285 66.8421 71.1209C67.2344 71.423 67.551 71.8106 67.9074 72.1594C68.35 72.5894 68.7672 73.0396 69.1821 73.4928C69.632 74.0115 70.0501 74.557 70.4341 75.1262C70.659 75.4332 70.8554 75.7579 71.0795 76.0594C71.8712 77.1283 72.475 78.3242 72.8651 79.5957C72.9772 79.9606 73.036 80.3399 73.0398 80.7216C73.0543 80.888 73.0128 81.0545 72.922 81.1947C72.8311 81.3348 72.6961 81.4406 72.5382 81.4953C72.2593 81.6253 71.959 81.7032 71.652 81.7251C70.8696 81.7732 70.0844 81.7494 69.3063 81.6538C68.534 81.5445 67.773 81.3666 67.0322 81.1222C66.6715 80.9981 66.3131 80.8709 65.9514 80.7609C65.2317 80.5224 64.5343 80.221 63.8675 79.8601C63.4231 79.6319 62.9747 79.4156 62.5311 79.1929L62.3349 79.1063C62.1754 79.043 62.0321 79.1259 62.0419 79.2872C62.0442 79.5481 62.0604 79.8088 62.0903 80.068C62.2238 81.0545 62.2766 82.0501 62.2483 83.045C62.258 84.3045 62.1227 85.5609 61.845 86.7894C61.6467 87.5687 61.4891 88.3595 61.2853 89.1394C61.155 89.6431 60.994 90.1382 60.8033 90.6222C60.673 90.9786 60.4843 91.3107 60.2449 91.605C59.908 91.9916 59.4507 92.2534 58.9467 92.3482C58.4426 92.443 57.9212 92.3653 57.4666 92.1277C56.8343 91.799 56.2821 91.3349 55.8496 90.7686C55.6954 90.5587 55.5703 90.329 55.4777 90.0856C54.9942 88.8755 54.5718 87.6419 54.212 86.3895C54.0803 85.9163 53.9726 85.412 53.8827 84.9363C53.5718 83.4526 53.253 81.9728 52.9635 80.4809C52.8774 79.942 52.7557 79.4093 52.599 78.8865C52.5375 78.7152 52.4687 78.6821 52.2747 78.7409C52.0899 78.7841 51.9102 78.8468 51.7387 78.928C50.9672 79.3502 50.1163 79.5922 49.3357 79.9875C49.2085 80.052 49.0735 80.0997 48.9339 80.1292C48.1005 80.2905 47.2632 80.4439 46.4259 80.5972C46.3554 80.6092 46.2841 80.6156 46.2126 80.6165C45.5036 80.6289 44.7944 80.5992 44.0887 80.5276C43.5012 80.452 42.9276 80.2924 42.3853 80.0537C41.5371 79.6931 40.6736 79.3652 39.8182 79.0139C39.5343 78.8994 39.2562 78.7646 38.9798 78.6211C38.8757 78.5667 38.7871 78.4865 38.7226 78.3884C38.5005 78.05 38.374 77.6579 38.3563 77.2537C38.334 76.9643 38.4193 76.677 38.5958 76.4467C38.6533 76.372 38.7108 76.2973 38.7683 76.2226C39.0775 75.8627 39.3071 75.4416 39.4422 74.9867C39.5583 74.6006 39.7393 74.237 39.9774 73.9117C40.0411 73.8419 40.0988 73.767 40.1499 73.6876C40.4629 73.1028 40.8993 72.5931 41.429 72.1939C42.8468 71.0067 44.4236 70.0234 46.1138 69.2727C46.6775 69.026 47.2378 68.775 47.7947 68.5198C48.4039 68.2579 48.9774 67.92 49.5016 67.5141C50.1581 66.9836 50.1088 66.906 49.5598 66.3692C49.4364 66.2593 49.3053 66.1584 49.1675 66.0671C48.2016 65.3361 47.3521 64.463 46.6479 63.4776C46.3858 63.1149 46.1507 62.7334 45.9445 62.3362C45.6026 61.711 45.2637 61.0882 44.962 60.4494C44.6783 59.876 44.4947 59.2584 44.4189 58.6233C44.3855 58.2918 44.4023 57.9572 44.4689 57.6308C44.5275 57.3145 44.6654 57.0182 44.8697 56.7698C45.074 56.5214 45.338 56.3289 45.6371 56.2103C45.9633 56.0778 46.3122 56.0098 46.6643 56.0099C47.8365 55.9807 48.9815 56.3672 49.8965 57.1008C50.6031 57.6003 51.298 58.0957 51.9241 58.558Z" fill="#5C5470" fill-opacity="0.6"/>
<path d="M44.9481 42.8701C46.3291 43.9881 47.5777 45.014 48.8424 46.0126C49.7519 46.6837 50.5923 47.4437 51.351 48.2814C51.5249 48.4799 51.7183 48.6603 51.9283 48.8201C53.3956 50.0014 54.7179 51.3524 55.8674 52.8448C56.071 53.0957 56.2921 53.3304 56.5155 53.5619C56.5986 53.6311 56.7042 53.6673 56.8122 53.6636C56.9203 53.66 57.0231 53.6167 57.1012 53.542C57.799 52.726 58.503 51.9148 59.1821 51.0844C60.0491 50.0559 61.0324 49.1312 62.1123 48.329C63.6491 47.1577 65.1457 45.9357 66.6887 44.7692C67.2829 44.3196 67.9552 43.9747 68.582 43.5601C69.7514 42.795 70.9108 42.0172 72.0702 41.2394C73.46 40.3189 74.988 39.6263 76.5965 39.1875C77.6386 38.9042 78.7282 38.8402 79.7965 38.9996C80.3648 39.0406 80.9063 39.2571 81.3464 39.619C81.7865 39.981 82.1034 40.4706 82.2533 41.0202C82.4229 41.5286 82.5156 42.0595 82.5284 42.5953C82.5572 44.1534 82.4209 45.7101 82.1218 47.2394C81.5556 49.9242 80.6953 52.5384 79.5566 55.0346C79.2047 55.8172 78.7966 56.5732 78.3355 57.2967C77.7985 58.1638 77.3091 59.0596 76.8695 59.98C76.1059 61.4609 75.2307 62.8817 74.2517 64.23C74.006 64.5812 73.7269 64.9115 73.4999 65.2771C73.1707 65.782 73.1871 65.9731 73.6195 66.4101C75.2717 68.1755 77.0222 69.8462 78.8628 71.4143C79.7349 72.1304 80.4788 72.9808 81.2792 73.7707C82.2784 74.7533 83.2192 75.7602 84.1753 76.7988C85.1953 77.9783 86.1443 79.2172 87.0174 80.5091C87.522 81.2001 87.971 81.9374 88.4811 82.6277C90.2761 85.0508 91.6457 87.7616 92.531 90.6439C92.7867 91.4664 92.9235 92.3213 92.9372 93.1824C92.9705 93.56 92.8773 93.9378 92.6723 94.2564C92.4674 94.5751 92.1622 94.8165 91.8049 94.9428C91.1699 95.237 90.4865 95.413 89.7882 95.4619C88.0117 95.569 86.229 95.5122 84.4628 95.2923C82.7069 95.0425 80.9763 94.6388 79.291 94.0859C78.4756 93.805 77.6657 93.5234 76.8428 93.2715C75.2097 92.7264 73.6271 92.0402 72.1129 91.2206C71.1071 90.7039 70.0908 90.2138 69.0785 89.7119C68.9348 89.6409 68.7911 89.5699 68.6402 89.5082C68.57 89.4676 68.4902 89.4467 68.4092 89.4478C68.3282 89.4489 68.249 89.472 68.1801 89.5146C68.1112 89.5571 68.0551 89.6176 68.0178 89.6895C67.9806 89.7615 67.9636 89.8422 67.9686 89.923C67.9772 90.5162 68.0178 91.1085 68.0904 91.6973C68.3886 93.9365 68.5049 96.1961 68.4379 98.4538C68.4519 101.303 68.1365 104.144 67.4982 106.921C67.051 108.693 66.6908 110.488 66.2288 112.254C65.9341 113.398 65.5657 114.522 65.1261 115.618C64.8364 116.429 64.4097 117.183 63.8645 117.849C63.2579 118.577 62.4569 119.117 61.5548 119.407C60.6527 119.697 59.6865 119.725 58.769 119.487C58.3463 119.396 57.9378 119.249 57.5547 119.048C56.116 118.303 54.8595 117.249 53.875 115.962C53.5265 115.485 53.2438 114.964 53.0345 114.412C51.9373 111.668 50.9801 108.869 50.1664 106.027C49.8545 104.944 49.6475 103.828 49.4168 102.724C48.7097 99.3586 47.9939 95.9917 47.3277 92.6185C47.137 91.3973 46.861 90.1909 46.5018 89.0082C46.3636 88.6143 46.2051 88.5368 45.7664 88.6749C45.3535 88.7768 44.9516 88.9189 44.5666 89.0994C42.8272 90.07 40.888 90.6043 39.1141 91.5038C38.8275 91.6543 38.5211 91.7638 38.204 91.8291C36.3102 92.1951 34.4111 92.5421 32.5104 92.8978C32.3505 92.9218 32.1891 92.9334 32.0274 92.9324C30.4215 92.9668 28.815 92.9019 27.2171 92.738C25.884 92.5707 24.5821 92.211 23.352 91.6703C21.4273 90.8525 19.4672 90.1065 17.5288 89.3129C16.8806 89.0468 16.2526 88.7416 15.6334 88.4185C15.3958 88.297 15.193 88.1169 15.0442 87.8954C14.5399 87.1263 14.2543 86.2347 14.218 85.316C14.17 84.6648 14.3595 84.0183 14.7514 83.4961C14.8832 83.3249 15.015 83.1537 15.1444 82.9857C15.8438 82.1723 16.3615 81.2189 16.6629 80.1892C16.9282 79.3107 17.3417 78.4841 17.8854 77.7449C18.0215 77.5779 18.1435 77.4 18.2504 77.2129C18.9176 75.8182 20.0057 74.7723 21.1611 73.813C24.3781 71.1178 27.9565 68.886 31.7923 67.1823C33.0677 66.621 34.3403 66.0527 35.6101 65.4772C36.9915 64.8791 38.2928 64.1109 39.4838 63.1906C40.9722 61.9919 40.8589 61.8105 39.619 60.593C39.3385 60.3398 39.0387 60.109 38.7222 59.9025C36.4592 58.2938 34.6807 56.2104 33.0174 54.0225C32.4192 53.1978 31.8845 52.3288 31.4182 51.4229C30.6467 50.0158 29.8768 48.6001 29.186 47.1461C28.5416 45.8447 28.1267 44.4418 27.9596 42.9995C27.8814 42.2496 27.9207 41.4921 28.0763 40.7545C28.2055 40.0362 28.5164 39.363 28.9794 38.7989C29.4424 38.2348 30.0421 37.7986 30.7215 37.5318C31.467 37.2207 32.2661 37.0581 33.0741 37.0532C35.7336 36.9885 38.3308 37.8664 40.4063 39.5315C41.9378 40.686 43.5105 41.8127 44.9481 42.8701ZM44.1295 43.727L44.1655 43.6803C42.8017 42.6301 41.4618 41.5489 40.074 40.5298C38.0817 39.0849 35.9395 38.06 33.3824 38.1085C32.5216 38.1087 31.6719 38.3012 30.8952 38.6719C30.477 38.8602 30.109 39.1441 29.8206 39.5006C29.5323 39.8572 29.3317 40.2765 29.2351 40.7248C28.9874 41.7732 28.9725 42.8633 29.1915 43.9183C29.4494 45.2367 29.8759 46.5164 30.4605 47.7261C31.7462 50.4492 33.3465 53.0125 35.2287 55.3634C36.1565 56.5443 37.2441 57.5903 38.4602 58.4714C39.3572 59.0686 40.1823 59.7672 40.9193 60.5533C41.1702 60.9099 41.5483 61.1567 41.9756 61.2428C42.0844 61.2445 42.1893 61.2835 42.2728 61.3532C42.3563 61.423 42.4134 61.5192 42.4345 61.6259C42.523 61.9893 42.7056 62.3232 42.964 62.5937C43.01 62.6603 43.041 62.7362 43.0548 62.8159C43.0685 62.8957 43.0648 62.9775 43.0438 63.0556C43.0228 63.1338 42.985 63.2064 42.9331 63.2685C42.8812 63.3306 42.8164 63.3806 42.7432 63.4151C42.3634 63.6184 41.9775 63.8169 41.5865 63.9769C39.3457 64.8841 37.1938 65.9968 35.1583 67.3006C34.5308 67.7097 33.8909 68.1092 33.2294 68.4723C31.2713 69.5919 29.4212 70.8905 27.7028 72.3514C25.7997 73.9148 23.8955 75.4922 22.1301 77.231C20.5659 78.7728 19.0453 80.3482 17.5999 82.0063C16.3083 83.4903 16.3711 85.7793 17.9684 87.3959C18.5751 88.0125 19.3115 88.4864 20.1241 88.7832C21.5268 89.324 23.0193 89.5935 24.5222 89.5773C26.2406 89.5422 27.9549 89.39 29.6702 89.2881C30.529 89.2356 31.3869 89.1972 32.2527 89.155C33.5935 89.082 34.9403 89.0979 36.2675 88.9203C38.7645 88.5825 41.2479 88.1402 43.7387 87.7332C44.1928 87.6713 44.6268 87.5067 45.0077 87.252C45.3886 86.9973 45.7064 86.6592 45.937 86.2633C46.2001 85.8314 46.5583 85.8494 46.8205 86.2496C47.0131 86.5048 47.1645 86.7886 47.269 87.0907C47.5319 88.0763 47.7757 89.0671 47.9794 90.0716C48.4075 92.176 48.7978 94.2908 49.2156 96.402C49.4202 97.4568 49.6351 98.5047 49.8562 99.5573C50.1242 100.755 50.4172 101.972 50.6363 103.182C50.8045 104.135 51.0429 105.074 51.3496 105.992C51.8249 107.418 52.2839 108.849 52.7266 110.284C53.1721 111.829 53.7557 113.33 54.4706 114.77C55.3471 116.397 56.7959 117.641 58.5366 118.263C58.8343 118.389 59.151 118.466 59.4737 118.488C61.01 118.561 62.349 118.194 63.2014 116.759C63.9297 115.563 64.5007 114.278 64.9 112.936C65.5445 110.721 66.0847 108.479 66.5607 106.219C67.5397 101.419 67.6679 96.4842 66.9398 91.6392C66.8092 90.68 66.7618 89.7114 66.7981 88.7441C66.7906 88.6363 66.8087 88.5282 66.8509 88.4287C66.893 88.3292 66.958 88.241 67.0407 88.1714C67.1233 88.1017 67.2212 88.0525 67.3264 88.0278C67.4316 88.0031 67.5412 88.0035 67.6463 88.0291C67.9658 88.0652 68.2777 88.1515 68.5705 88.2847C69.9679 88.9691 71.3452 89.6926 72.7434 90.3825C73.644 90.8647 74.5718 91.2944 75.522 91.6695C78.0008 92.5471 80.4803 93.4303 83.0873 93.9159C85.2619 94.2865 87.4714 94.4079 89.6732 94.2779C90.0538 94.2719 90.4317 94.2144 90.7968 94.107C91.1687 94.0147 91.4912 93.7839 91.6986 93.4619C91.906 93.1399 91.9827 92.7508 91.9131 92.374C91.8717 91.9451 91.7958 91.5202 91.686 91.1036C91.083 88.9242 90.1553 86.8479 88.9341 84.9445C87.9726 83.4555 86.9437 82.009 85.9053 80.5749C84.33 78.3951 82.7007 76.2532 80.644 74.4861C80.4354 74.3255 80.289 74.0839 80.0979 73.907C78.829 72.7465 77.7129 71.4261 76.2679 70.4621C75.8135 70.1711 75.4095 69.8081 75.0717 69.3873C74.342 68.4539 73.4656 67.6451 72.4766 66.9925C71.6773 66.4266 71.5675 65.8413 72.1702 65.0909C73.7459 63.0462 75.1354 60.8645 76.322 58.5718C76.8569 57.5809 77.491 56.6415 77.9751 55.6262C78.6191 54.2682 79.2147 52.8827 79.7344 51.4735C80.576 49.322 81.1089 47.062 81.3172 44.7609C81.3898 43.9559 81.4145 43.1473 81.3913 42.3393C81.3136 40.6882 80.5248 40.0313 79.1131 39.9902C78.2511 39.9689 77.3908 40.0748 76.5598 40.3044C75.1575 40.6836 73.8281 41.2933 72.6261 42.1086C71.0212 43.1878 69.513 44.4058 67.7601 45.2522C67.5718 45.3571 67.3955 45.4823 67.2345 45.6257C65.752 46.7843 64.2589 47.9247 62.7966 49.1087C61.482 50.1327 60.2846 51.2987 59.2264 52.5858C58.4199 53.524 57.5649 54.4194 56.6649 55.2682C56.622 55.3196 56.5674 55.3599 56.5056 55.3856C56.4438 55.4114 56.3768 55.4219 56.3101 55.4163C56.2433 55.4107 56.179 55.389 56.1224 55.3532C56.0658 55.3174 56.0187 55.2685 55.985 55.2106C55.4622 54.2701 54.8282 53.3958 54.0966 52.6065C52.7535 51.2203 51.3404 49.8992 49.9472 48.5587C49.329 47.9637 48.7252 47.35 48.056 46.8149C46.7695 45.7351 45.4325 44.7403 44.1123 43.7236L44.1295 43.727ZM24.6259 91.169C24.9176 91.4113 25.2745 91.5619 25.6516 91.6019C28.2023 91.9996 30.7497 92.2856 33.3091 91.6737C35.3159 91.5732 37.1638 90.7902 39.0773 90.2956C39.129 90.2788 39.1731 90.2443 39.2019 90.1982C39.2279 90.1593 39.2378 90.1119 39.2295 90.0658C39.2158 90.0255 39.1773 89.9661 39.1404 89.9625C38.9838 89.9352 38.8247 89.9257 38.666 89.9344C34.1277 90.3658 29.5906 90.8279 25.0327 91.0014C24.9124 91.003 24.8084 91.0865 24.6156 91.1759L24.6259 91.169ZM18.7386 78.5307C19.0076 78.4454 19.1341 78.4486 19.1962 78.3873C21.7529 75.7112 24.756 73.5374 27.4576 71.0274C27.4839 70.9931 27.4808 70.9263 27.4969 70.8346C27.3409 70.8632 27.1682 70.8492 27.0628 70.9217C25.1808 72.2386 23.1409 73.3546 21.5024 74.9929C20.401 76.0245 19.4625 77.2172 18.7189 78.5304L18.7386 78.5307ZM16.1275 86.5336C15.9944 86.3071 15.8689 86.0965 15.7386 85.8921C15.7168 85.8753 15.6375 85.8688 15.6011 85.8903C15.5647 85.9118 15.5484 85.9588 15.5572 86.0052C15.5515 86.1297 15.5859 86.2527 15.6554 86.3562C15.7248 86.4596 15.8257 86.5381 15.943 86.5799C15.9555 86.5895 16.0022 86.5611 16.1079 86.5333L16.1275 86.5336Z" fill="#5C5470" fill-opacity="0.6"/>
</g>
<g clip-path="url(#clip1_82_83)">
<path d="M121.995 251.038C122.489 251.438 122.933 251.8 123.385 252.156C123.708 252.396 124.007 252.668 124.277 252.967C124.34 253.038 124.411 253.104 124.488 253.161C125.01 253.583 125.48 254.065 125.889 254.597C125.962 254.687 126.04 254.772 126.122 254.853C126.151 254.878 126.188 254.891 126.227 254.89C126.265 254.89 126.302 254.875 126.33 254.848C126.577 254.558 126.829 254.267 127.072 253.973C127.38 253.605 127.73 253.274 128.115 252.988C128.664 252.572 129.196 252.136 129.745 251.721C129.957 251.56 130.197 251.436 130.423 251.289C130.838 251.015 131.256 250.728 131.665 250.461C132.161 250.134 132.705 249.887 133.279 249.731C133.65 249.631 134.038 249.608 134.419 249.663C134.621 249.678 134.814 249.756 134.971 249.885C135.128 250.015 135.241 250.189 135.294 250.385C135.356 250.566 135.39 250.756 135.395 250.948C135.405 251.504 135.357 252.059 135.25 252.604C135.044 253.558 134.733 254.486 134.324 255.371C134.199 255.651 134.054 255.921 133.89 256.179C133.697 256.488 133.522 256.807 133.366 257.135C133.095 257.664 132.783 258.17 132.433 258.65C132.34 258.771 132.239 258.901 132.152 259.015C132.034 259.193 132.041 259.262 132.19 259.413C132.78 260.042 133.404 260.638 134.061 261.198C134.378 261.443 134.634 261.756 134.922 262.038C135.28 262.386 135.618 262.75 135.953 263.117C136.317 263.536 136.655 263.977 136.966 264.438C137.148 264.686 137.306 264.949 137.488 265.192C138.128 266.057 138.616 267.024 138.932 268.052C139.023 268.348 139.07 268.654 139.073 268.963C139.085 269.098 139.051 269.232 138.978 269.346C138.904 269.459 138.795 269.545 138.667 269.589C138.442 269.694 138.199 269.757 137.951 269.775C137.318 269.814 136.683 269.794 136.054 269.717C135.429 269.629 134.813 269.485 134.214 269.287C133.923 269.187 133.633 269.084 133.34 268.995C132.758 268.802 132.194 268.558 131.655 268.266C131.295 268.082 130.933 267.907 130.574 267.727L130.415 267.657C130.286 267.605 130.17 267.673 130.178 267.803C130.18 268.014 130.193 268.225 130.217 268.435C130.325 269.232 130.368 270.038 130.345 270.842C130.353 271.861 130.244 272.877 130.019 273.871C129.859 274.501 129.731 275.14 129.566 275.771C129.461 276.179 129.331 276.579 129.176 276.971C129.071 277.259 128.918 277.527 128.725 277.765C128.452 278.078 128.083 278.29 127.675 278.366C127.267 278.443 126.846 278.38 126.478 278.188C125.966 277.922 125.52 277.547 125.17 277.089C125.045 276.919 124.944 276.733 124.869 276.537C124.478 275.558 124.137 274.56 123.846 273.547C123.739 273.164 123.652 272.757 123.579 272.372C123.328 271.172 123.07 269.975 122.836 268.768C122.766 268.333 122.668 267.902 122.541 267.479C122.491 267.34 122.436 267.314 122.279 267.361C122.129 267.396 121.984 267.447 121.845 267.513C121.221 267.854 120.533 268.05 119.902 268.369C119.799 268.422 119.69 268.46 119.577 268.484C118.903 268.614 118.225 268.738 117.548 268.863C117.491 268.872 117.434 268.877 117.376 268.878C116.802 268.888 116.229 268.864 115.658 268.806C115.183 268.745 114.719 268.616 114.28 268.423C113.594 268.131 112.896 267.866 112.204 267.582C111.975 267.489 111.75 267.38 111.526 267.264C111.442 267.22 111.37 267.155 111.318 267.076C111.138 266.802 111.036 266.485 111.022 266.158C111.004 265.924 111.073 265.692 111.216 265.506C111.262 265.445 111.309 265.385 111.355 265.324C111.605 265.033 111.791 264.693 111.9 264.325C111.994 264.013 112.14 263.719 112.333 263.455C112.384 263.399 112.431 263.338 112.472 263.274C112.726 262.801 113.079 262.389 113.507 262.066C114.654 261.106 115.929 260.311 117.296 259.704C117.752 259.504 118.205 259.301 118.655 259.095C119.148 258.883 119.612 258.609 120.036 258.281C120.567 257.852 120.527 257.789 120.083 257.355C119.983 257.266 119.877 257.185 119.766 257.111C118.985 256.52 118.297 255.814 117.728 255.017C117.516 254.723 117.326 254.415 117.159 254.093C116.882 253.588 116.608 253.084 116.364 252.567C116.135 252.104 115.986 251.604 115.925 251.09C115.898 250.822 115.912 250.552 115.966 250.288C116.013 250.032 116.124 249.792 116.29 249.591C116.455 249.39 116.668 249.235 116.91 249.139C117.174 249.032 117.456 248.977 117.741 248.977C118.689 248.953 119.615 249.266 120.355 249.859C120.927 250.263 121.489 250.664 121.995 251.038Z" fill="#5C5470" fill-opacity="0.6"/>
<path d="M116.353 238.35C117.47 239.254 118.48 240.083 119.503 240.891C120.238 241.434 120.918 242.049 121.532 242.726C121.672 242.887 121.829 243.033 121.999 243.162C123.185 244.117 124.255 245.21 125.184 246.417C125.349 246.62 125.528 246.81 125.709 246.997C125.776 247.053 125.861 247.082 125.949 247.079C126.036 247.076 126.119 247.041 126.182 246.981C126.747 246.321 127.316 245.665 127.865 244.993C128.567 244.161 129.362 243.413 130.235 242.765C131.478 241.817 132.689 240.829 133.936 239.885C134.417 239.522 134.961 239.243 135.468 238.908C136.414 238.289 137.351 237.66 138.289 237.031C139.413 236.286 140.649 235.726 141.95 235.371C142.792 235.142 143.674 235.09 144.538 235.219C144.997 235.252 145.435 235.427 145.791 235.72C146.147 236.013 146.404 236.409 146.525 236.853C146.662 237.265 146.737 237.694 146.747 238.127C146.771 239.387 146.66 240.646 146.418 241.883C145.961 244.055 145.265 246.169 144.344 248.188C144.059 248.821 143.729 249.432 143.356 250.018C142.922 250.719 142.526 251.443 142.171 252.188C141.553 253.385 140.845 254.535 140.053 255.625C139.855 255.909 139.629 256.176 139.445 256.472C139.179 256.88 139.192 257.035 139.542 257.388C140.878 258.816 142.294 260.167 143.783 261.435C144.488 262.015 145.09 262.702 145.737 263.341C146.545 264.136 147.306 264.95 148.079 265.79C148.904 266.744 149.672 267.746 150.378 268.791C150.786 269.35 151.149 269.946 151.562 270.505C153.014 272.464 154.121 274.657 154.837 276.988C155.044 277.653 155.155 278.345 155.166 279.041C155.193 279.346 155.117 279.652 154.952 279.91C154.786 280.168 154.539 280.363 154.25 280.465C153.736 280.703 153.184 280.845 152.619 280.885C151.182 280.971 149.74 280.925 148.312 280.748C146.892 280.546 145.492 280.219 144.129 279.772C143.469 279.545 142.814 279.317 142.149 279.113C140.828 278.672 139.548 278.117 138.323 277.454C137.51 277.037 136.688 276.64 135.869 276.234C135.753 276.177 135.637 276.119 135.515 276.07C135.458 276.037 135.394 276.02 135.328 276.021C135.262 276.022 135.198 276.04 135.143 276.075C135.087 276.109 135.042 276.158 135.011 276.216C134.981 276.274 134.968 276.34 134.972 276.405C134.979 276.885 135.011 277.364 135.07 277.84C135.311 279.651 135.405 281.479 135.351 283.305C135.362 285.609 135.107 287.907 134.591 290.152C134.229 291.586 133.938 293.037 133.564 294.466C133.326 295.391 133.028 296.3 132.673 297.187C132.438 297.842 132.093 298.453 131.652 298.991C131.162 299.58 130.514 300.017 129.784 300.251C129.055 300.486 128.273 300.508 127.531 300.316C127.189 300.242 126.859 300.123 126.549 299.961C125.385 299.358 124.369 298.506 123.573 297.465C123.291 297.079 123.063 296.658 122.893 296.212C122.006 293.992 121.232 291.728 120.574 289.43C120.321 288.554 120.154 287.651 119.967 286.758C119.395 284.036 118.816 281.313 118.278 278.585C118.123 277.597 117.9 276.622 117.61 275.665C117.498 275.347 117.37 275.284 117.015 275.396C116.681 275.478 116.356 275.593 116.045 275.739C114.638 276.524 113.069 276.956 111.635 277.684C111.403 277.805 111.155 277.894 110.899 277.947C109.367 278.243 107.831 278.523 106.294 278.811C106.164 278.83 106.034 278.84 105.903 278.839C104.604 278.867 103.305 278.814 102.013 278.682C100.934 278.546 99.8815 278.255 98.8866 277.818C97.33 277.157 95.7446 276.553 94.1769 275.912C93.6527 275.696 93.1447 275.45 92.6439 275.188C92.4518 275.09 92.2878 274.944 92.1674 274.765C91.7596 274.143 91.5286 273.422 91.4992 272.679C91.4604 272.152 91.6137 271.629 91.9307 271.207C92.0372 271.069 92.1438 270.93 92.2485 270.794C92.8142 270.136 93.2328 269.365 93.4766 268.533C93.6912 267.822 94.0256 267.153 94.4654 266.556C94.5754 266.42 94.6741 266.277 94.7605 266.125C95.3002 264.997 96.1802 264.151 97.1146 263.376C99.7165 261.196 102.611 259.391 105.713 258.013C106.744 257.559 107.774 257.099 108.801 256.634C109.918 256.15 110.97 255.529 111.934 254.784C113.137 253.815 113.046 253.668 112.043 252.683C111.816 252.479 111.574 252.292 111.318 252.125C109.487 250.824 108.049 249.139 106.704 247.369C106.22 246.702 105.788 246 105.41 245.267C104.786 244.129 104.164 242.984 103.605 241.808C103.084 240.755 102.748 239.621 102.613 238.454C102.55 237.848 102.582 237.235 102.708 236.639C102.812 236.058 103.063 235.513 103.438 235.057C103.812 234.601 104.297 234.248 104.847 234.032C105.45 233.78 106.096 233.649 106.75 233.645C108.901 233.593 111.001 234.303 112.68 235.649C113.918 236.583 115.19 237.494 116.353 238.35ZM115.691 239.043L115.72 239.005C114.617 238.155 113.533 237.281 112.411 236.457C110.8 235.288 109.067 234.459 106.999 234.498C106.303 234.499 105.616 234.654 104.987 234.954C104.649 235.106 104.352 235.336 104.118 235.624C103.885 235.913 103.723 236.252 103.645 236.614C103.444 237.462 103.432 238.344 103.609 239.197C103.818 240.264 104.163 241.299 104.636 242.277C105.676 244.479 106.97 246.552 108.492 248.454C109.243 249.409 110.122 250.255 111.106 250.968C111.831 251.451 112.499 252.016 113.095 252.651C113.298 252.94 113.603 253.139 113.949 253.209C114.037 253.21 114.122 253.242 114.189 253.298C114.257 253.355 114.303 253.433 114.32 253.519C114.392 253.813 114.539 254.083 114.748 254.302C114.786 254.355 114.811 254.417 114.822 254.481C114.833 254.546 114.83 254.612 114.813 254.675C114.796 254.738 114.765 254.797 114.723 254.847C114.681 254.898 114.629 254.938 114.57 254.966C114.263 255.13 113.951 255.291 113.634 255.42C111.822 256.154 110.082 257.054 108.435 258.108C107.928 258.439 107.41 258.762 106.875 259.056C105.292 259.962 103.795 261.012 102.405 262.193C100.866 263.458 99.3262 264.734 97.8983 266.14C96.6333 267.387 95.4034 268.661 94.2344 270.002C93.1898 271.202 93.2406 273.054 94.5324 274.361C95.0232 274.86 95.6188 275.243 96.2759 275.483C97.4104 275.921 98.6175 276.138 99.8331 276.125C101.223 276.097 102.609 275.974 103.997 275.891C104.691 275.849 105.385 275.818 106.085 275.784C107.17 275.725 108.259 275.738 109.332 275.594C111.352 275.321 113.36 274.963 115.375 274.634C115.742 274.584 116.093 274.451 116.401 274.245C116.709 274.039 116.966 273.765 117.153 273.445C117.366 273.096 117.655 273.11 117.867 273.434C118.023 273.64 118.146 273.87 118.23 274.114C118.443 274.911 118.64 275.713 118.805 276.525C119.151 278.227 119.467 279.938 119.805 281.645C119.97 282.498 120.144 283.346 120.323 284.197C120.539 285.166 120.776 286.15 120.954 287.129C121.09 287.899 121.282 288.659 121.531 289.401C121.915 290.555 122.286 291.712 122.644 292.873C123.004 294.122 123.477 295.336 124.055 296.501C124.764 297.816 125.935 298.823 127.343 299.325C127.584 299.428 127.84 299.49 128.101 299.508C129.344 299.567 130.427 299.27 131.116 298.109C131.705 297.142 132.167 296.103 132.49 295.017C133.011 293.226 133.448 291.413 133.833 289.585C134.625 285.703 134.728 281.712 134.14 277.793C134.034 277.017 133.996 276.234 134.025 275.452C134.019 275.364 134.034 275.277 134.068 275.196C134.102 275.116 134.154 275.045 134.221 274.988C134.288 274.932 134.367 274.892 134.452 274.872C134.537 274.852 134.626 274.853 134.711 274.873C134.969 274.902 135.222 274.972 135.458 275.08C136.589 275.633 137.703 276.219 138.833 276.777C139.562 277.167 140.312 277.514 141.081 277.818C143.085 278.527 145.091 279.242 147.199 279.634C148.958 279.934 150.745 280.032 152.526 279.927C152.834 279.922 153.139 279.876 153.435 279.789C153.735 279.714 153.996 279.528 154.164 279.267C154.332 279.007 154.394 278.692 154.337 278.387C154.304 278.04 154.243 277.697 154.154 277.36C153.666 275.597 152.916 273.918 151.928 272.378C151.15 271.174 150.318 270.004 149.478 268.844C148.204 267.081 146.887 265.349 145.223 263.92C145.054 263.79 144.936 263.595 144.782 263.452C143.755 262.513 142.853 261.445 141.684 260.665C141.316 260.43 140.99 260.136 140.717 259.796C140.126 259.041 139.417 258.387 138.618 257.859C137.971 257.402 137.882 256.928 138.37 256.321C139.644 254.668 140.768 252.903 141.728 251.049C142.16 250.247 142.673 249.488 143.065 248.666C143.586 247.568 144.067 246.448 144.488 245.308C145.168 243.568 145.599 241.74 145.768 239.879C145.826 239.228 145.846 238.574 145.828 237.92C145.765 236.585 145.127 236.054 143.985 236.02C143.288 236.003 142.592 236.089 141.92 236.274C140.786 236.581 139.711 237.074 138.738 237.734C137.441 238.607 136.221 239.592 134.803 240.276C134.651 240.361 134.508 240.462 134.378 240.578C133.179 241.515 131.971 242.438 130.789 243.395C129.725 244.223 128.757 245.166 127.901 246.207C127.249 246.966 126.557 247.69 125.829 248.377C125.795 248.418 125.751 248.451 125.701 248.472C125.651 248.493 125.596 248.501 125.542 248.497C125.488 248.492 125.436 248.475 125.391 248.446C125.345 248.417 125.307 248.377 125.28 248.33C124.857 247.57 124.344 246.863 123.752 246.224C122.666 245.103 121.523 244.035 120.396 242.95C119.896 242.469 119.408 241.973 118.867 241.54C117.826 240.667 116.745 239.862 115.677 239.04L115.691 239.043ZM99.9169 277.413C100.153 277.609 100.441 277.731 100.746 277.763C102.809 278.084 104.87 278.316 106.94 277.821C108.563 277.74 110.057 277.106 111.605 276.706C111.647 276.693 111.682 276.665 111.706 276.628C111.727 276.596 111.735 276.558 111.728 276.52C111.717 276.488 111.686 276.44 111.656 276.437C111.529 276.415 111.401 276.407 111.272 276.414C107.602 276.763 103.932 277.137 100.246 277.277C100.149 277.278 100.065 277.346 99.9086 277.418L99.9169 277.413ZM95.1554 267.191C95.373 267.122 95.4753 267.125 95.5255 267.075C97.5933 264.911 100.022 263.153 102.207 261.123C102.228 261.095 102.226 261.041 102.239 260.967C102.113 260.99 101.973 260.978 101.888 261.037C100.366 262.102 98.7159 263.005 97.3907 264.33C96.4999 265.164 95.7409 266.129 95.1395 267.191L95.1554 267.191ZM93.0436 273.664C92.9359 273.481 92.8344 273.31 92.7291 273.145C92.7114 273.131 92.6473 273.126 92.6178 273.143C92.5884 273.161 92.5752 273.199 92.5824 273.236C92.5777 273.337 92.6056 273.437 92.6617 273.52C92.7179 273.604 92.7995 273.667 92.8944 273.701C92.9045 273.709 92.9423 273.686 93.0277 273.664L93.0436 273.664Z" fill="#5C5470" fill-opacity="0.6"/>
</g>
<g clip-path="url(#clip2_82_83)">
<path d="M438.335 179.911C438.95 180.41 439.503 180.86 440.067 181.304C440.469 181.603 440.842 181.942 441.178 182.315C441.257 182.404 441.346 182.485 441.441 182.557C442.092 183.083 442.678 183.684 443.188 184.347C443.278 184.458 443.375 184.564 443.478 184.665C443.514 184.696 443.56 184.713 443.608 184.712C443.656 184.711 443.702 184.692 443.737 184.66C444.045 184.298 444.36 183.935 444.662 183.568C445.046 183.11 445.482 182.698 445.962 182.341C446.646 181.823 447.309 181.28 447.993 180.762C448.257 180.561 448.556 180.407 448.837 180.223C449.355 179.882 449.876 179.524 450.386 179.193C451.003 178.784 451.682 178.477 452.397 178.282C452.859 178.157 453.343 178.128 453.817 178.197C454.07 178.216 454.31 178.313 454.506 178.474C454.701 178.636 454.842 178.853 454.909 179.098C454.986 179.323 455.028 179.56 455.034 179.798C455.047 180.491 454.986 181.183 454.854 181.863C454.596 183.051 454.209 184.208 453.699 185.311C453.544 185.66 453.363 185.996 453.158 186.318C452.918 186.703 452.7 187.1 452.505 187.51C452.167 188.168 451.778 188.799 451.342 189.397C451.226 189.547 451.101 189.711 450.992 189.852C450.846 190.074 450.854 190.16 451.04 190.348C451.775 191.132 452.553 191.875 453.371 192.573C453.766 192.877 454.085 193.268 454.445 193.62C454.891 194.053 455.311 194.507 455.729 194.964C456.183 195.486 456.604 196.036 456.991 196.61C457.218 196.919 457.416 197.247 457.642 197.55C458.44 198.628 459.048 199.833 459.442 201.115C459.555 201.483 459.614 201.865 459.618 202.25C459.632 202.417 459.591 202.585 459.499 202.726C459.407 202.868 459.271 202.974 459.112 203.029C458.831 203.16 458.528 203.239 458.219 203.261C457.43 203.31 456.639 203.285 455.855 203.189C455.076 203.079 454.309 202.9 453.563 202.653C453.199 202.528 452.838 202.4 452.473 202.289C451.748 202.049 451.045 201.745 450.373 201.381C449.925 201.151 449.473 200.933 449.026 200.709L448.828 200.621C448.667 200.558 448.523 200.641 448.533 200.804C448.535 201.067 448.551 201.33 448.582 201.591C448.716 202.585 448.769 203.589 448.741 204.591C448.751 205.861 448.614 207.127 448.334 208.365C448.134 209.151 447.976 209.948 447.77 210.734C447.639 211.242 447.477 211.741 447.284 212.229C447.153 212.588 446.963 212.922 446.722 213.219C446.382 213.609 445.921 213.873 445.413 213.968C444.905 214.064 444.38 213.985 443.921 213.746C443.284 213.415 442.727 212.947 442.291 212.376C442.136 212.165 442.01 211.933 441.917 211.688C441.429 210.468 441.004 209.225 440.641 207.962C440.508 207.485 440.4 206.977 440.309 206.498C439.996 205.002 439.674 203.511 439.383 202.007C439.296 201.464 439.173 200.927 439.015 200.4C438.953 200.227 438.884 200.194 438.688 200.253C438.502 200.297 438.321 200.36 438.148 200.442C437.37 200.867 436.513 201.111 435.726 201.51C435.598 201.575 435.462 201.623 435.321 201.653C434.481 201.815 433.637 201.97 432.793 202.124C432.722 202.136 432.65 202.143 432.578 202.144C431.864 202.156 431.149 202.126 430.438 202.054C429.845 201.978 429.267 201.817 428.721 201.576C427.866 201.213 426.995 200.882 426.133 200.528C425.847 200.413 425.567 200.277 425.288 200.132C425.183 200.078 425.094 199.997 425.029 199.898C424.805 199.557 424.678 199.162 424.66 198.754C424.637 198.463 424.723 198.173 424.901 197.941C424.959 197.866 425.017 197.79 425.075 197.715C425.387 197.352 425.618 196.928 425.754 196.469C425.871 196.08 426.054 195.714 426.294 195.386C426.358 195.315 426.416 195.24 426.468 195.16C426.783 194.57 427.223 194.057 427.757 193.654C429.186 192.458 430.775 191.467 432.479 190.71C433.047 190.461 433.612 190.208 434.173 189.951C434.787 189.687 435.365 189.347 435.893 188.938C436.555 188.403 436.505 188.325 435.952 187.784C435.828 187.673 435.695 187.571 435.556 187.479C434.583 186.742 433.727 185.862 433.017 184.869C432.753 184.504 432.516 184.119 432.308 183.719C431.963 183.089 431.622 182.461 431.318 181.817C431.032 181.239 430.847 180.617 430.77 179.976C430.737 179.642 430.754 179.305 430.821 178.976C430.88 178.657 431.019 178.359 431.225 178.108C431.431 177.858 431.697 177.664 431.998 177.544C432.327 177.411 432.679 177.342 433.034 177.342C434.215 177.313 435.369 177.702 436.291 178.442C437.003 178.945 437.704 179.445 438.335 179.911Z" fill="#5C5470" fill-opacity="0.6"/>
<path d="M431.304 164.099C432.696 165.225 433.954 166.259 435.229 167.266C436.146 167.942 436.993 168.708 437.757 169.553C437.933 169.753 438.127 169.935 438.339 170.096C439.818 171.286 441.151 172.648 442.309 174.152C442.515 174.405 442.737 174.642 442.963 174.875C443.046 174.945 443.153 174.981 443.262 174.977C443.371 174.974 443.474 174.93 443.553 174.855C444.256 174.032 444.966 173.215 445.65 172.378C446.524 171.341 447.515 170.409 448.604 169.601C450.153 168.42 451.661 167.188 453.216 166.013C453.815 165.559 454.493 165.212 455.125 164.794C456.303 164.023 457.472 163.239 458.64 162.455C460.041 161.527 461.581 160.829 463.202 160.387C464.253 160.101 465.351 160.037 466.428 160.197C467.001 160.239 467.546 160.457 467.99 160.822C468.434 161.187 468.753 161.68 468.904 162.234C469.075 162.746 469.168 163.282 469.181 163.822C469.21 165.392 469.073 166.961 468.772 168.502C468.201 171.208 467.334 173.843 466.186 176.359C465.831 177.148 465.42 177.91 464.955 178.639C464.414 179.513 463.921 180.416 463.478 181.344C462.708 182.836 461.826 184.268 460.839 185.627C460.592 185.981 460.31 186.314 460.081 186.683C459.75 187.192 459.766 187.384 460.202 187.825C461.867 189.604 463.632 191.288 465.487 192.869C466.366 193.59 467.116 194.447 467.922 195.244C468.929 196.234 469.878 197.249 470.841 198.296C471.869 199.485 472.826 200.733 473.706 202.035C474.214 202.732 474.667 203.475 475.181 204.171C476.99 206.613 478.371 209.345 479.263 212.25C479.521 213.079 479.659 213.941 479.673 214.809C479.706 215.189 479.612 215.57 479.406 215.891C479.199 216.213 478.891 216.456 478.531 216.583C477.891 216.88 477.202 217.057 476.499 217.107C474.708 217.214 472.911 217.157 471.131 216.936C469.361 216.684 467.617 216.277 465.918 215.72C465.096 215.436 464.28 215.153 463.451 214.899C461.805 214.349 460.21 213.658 458.683 212.832C457.67 212.311 456.645 211.817 455.625 211.311C455.48 211.239 455.335 211.168 455.183 211.106C455.113 211.065 455.032 211.044 454.95 211.045C454.869 211.046 454.789 211.069 454.719 211.112C454.65 211.155 454.594 211.216 454.556 211.288C454.518 211.361 454.501 211.442 454.506 211.524C454.515 212.122 454.556 212.719 454.629 213.312C454.93 215.569 455.047 217.846 454.979 220.122C454.993 222.994 454.676 225.858 454.032 228.656C453.581 230.442 453.218 232.251 452.753 234.031C452.456 235.184 452.084 236.317 451.641 237.422C451.349 238.239 450.919 239 450.37 239.671C449.758 240.404 448.951 240.949 448.042 241.241C447.133 241.534 446.159 241.562 445.234 241.322C444.808 241.23 444.396 241.081 444.01 240.879C442.56 240.128 441.294 239.066 440.301 237.769C439.95 237.289 439.665 236.763 439.454 236.207C438.348 233.44 437.383 230.62 436.563 227.756C436.249 226.664 436.04 225.539 435.808 224.426C435.095 221.034 434.374 217.64 433.702 214.241C433.51 213.01 433.232 211.794 432.87 210.602C432.73 210.205 432.571 210.127 432.128 210.266C431.712 210.368 431.307 210.512 430.919 210.694C429.166 211.672 427.212 212.21 425.424 213.117C425.135 213.269 424.826 213.379 424.506 213.445C422.597 213.814 420.683 214.164 418.768 214.522C418.606 214.546 418.444 214.558 418.281 214.557C416.662 214.592 415.043 214.526 413.432 214.361C412.089 214.192 410.777 213.83 409.537 213.285C407.597 212.461 405.621 211.709 403.667 210.909C403.014 210.641 402.381 210.333 401.757 210.007C401.518 209.885 401.313 209.703 401.163 209.48C400.655 208.705 400.367 207.806 400.33 206.88C400.282 206.224 400.473 205.572 400.868 205.046C401.001 204.873 401.134 204.701 401.264 204.532C401.969 203.712 402.491 202.751 402.795 201.713C403.062 200.827 403.479 199.994 404.027 199.249C404.164 199.081 404.287 198.902 404.395 198.713C405.067 197.307 406.164 196.253 407.328 195.286C410.571 192.57 414.178 190.32 418.044 188.603C419.329 188.037 420.612 187.465 421.892 186.884C423.284 186.282 424.596 185.507 425.796 184.58C427.296 183.372 427.182 183.189 425.932 181.962C425.65 181.707 425.348 181.474 425.029 181.266C422.748 179.644 420.955 177.544 419.279 175.339C418.676 174.508 418.137 173.632 417.667 172.719C416.889 171.301 416.113 169.874 415.417 168.408C414.767 167.097 414.349 165.683 414.181 164.229C414.102 163.473 414.142 162.71 414.298 161.966C414.429 161.242 414.742 160.564 415.209 159.995C415.675 159.427 416.28 158.987 416.965 158.718C417.716 158.404 418.521 158.241 419.336 158.236C422.016 158.17 424.634 159.055 426.726 160.733C428.27 161.897 429.855 163.033 431.304 164.099ZM430.479 164.962L430.515 164.915C429.14 163.857 427.79 162.767 426.391 161.74C424.383 160.283 422.224 159.25 419.647 159.299C418.779 159.3 417.922 159.493 417.14 159.867C416.718 160.057 416.347 160.343 416.057 160.702C415.766 161.062 415.564 161.484 415.466 161.936C415.217 162.993 415.202 164.092 415.422 165.155C415.682 166.484 416.112 167.774 416.702 168.993C417.997 171.738 419.61 174.321 421.507 176.691C422.443 177.881 423.539 178.935 424.764 179.823C425.669 180.425 426.5 181.129 427.243 181.922C427.496 182.281 427.877 182.53 428.308 182.617C428.417 182.618 428.523 182.658 428.607 182.728C428.691 182.798 428.749 182.895 428.77 183.003C428.859 183.369 429.043 183.706 429.304 183.978C429.35 184.045 429.381 184.122 429.395 184.202C429.409 184.283 429.405 184.365 429.384 184.444C429.363 184.523 429.325 184.596 429.273 184.658C429.22 184.721 429.155 184.771 429.081 184.806C428.699 185.011 428.31 185.211 427.915 185.372C425.657 186.287 423.488 187.408 421.436 188.722C420.804 189.135 420.159 189.537 419.492 189.903C417.519 191.032 415.654 192.341 413.922 193.813C412.004 195.389 410.085 196.979 408.305 198.731C406.729 200.285 405.196 201.873 403.739 203.544C402.437 205.04 402.501 207.347 404.11 208.977C404.722 209.598 405.464 210.076 406.283 210.375C407.697 210.92 409.201 211.192 410.716 211.175C412.448 211.14 414.176 210.987 415.905 210.884C416.771 210.831 417.635 210.792 418.508 210.75C419.859 210.676 421.217 210.692 422.554 210.513C425.071 210.173 427.574 209.727 430.085 209.317C430.542 209.254 430.98 209.088 431.364 208.832C431.748 208.575 432.068 208.234 432.3 207.835C432.566 207.4 432.927 207.418 433.191 207.821C433.385 208.078 433.538 208.365 433.643 208.669C433.908 209.662 434.154 210.661 434.359 211.674C434.79 213.795 435.184 215.926 435.605 218.054C435.811 219.117 436.028 220.173 436.251 221.234C436.521 222.442 436.816 223.668 437.037 224.888C437.206 225.848 437.447 226.795 437.756 227.72C438.235 229.158 438.698 230.6 439.144 232.046C439.593 233.603 440.181 235.116 440.902 236.567C441.785 238.207 443.245 239.461 445 240.088C445.3 240.215 445.619 240.292 445.944 240.315C447.493 240.388 448.842 240.019 449.701 238.572C450.436 237.366 451.011 236.071 451.413 234.719C452.063 232.486 452.608 230.227 453.087 227.948C454.074 223.111 454.203 218.137 453.469 213.253C453.338 212.287 453.29 211.31 453.327 210.336C453.319 210.227 453.337 210.118 453.38 210.018C453.422 209.917 453.488 209.828 453.571 209.758C453.654 209.688 453.753 209.638 453.859 209.614C453.965 209.589 454.076 209.589 454.182 209.615C454.504 209.651 454.818 209.738 455.113 209.872C456.521 210.562 457.91 211.292 459.319 211.987C460.227 212.473 461.162 212.906 462.12 213.284C464.618 214.169 467.117 215.059 469.745 215.548C471.936 215.922 474.164 216.044 476.383 215.913C476.766 215.907 477.147 215.849 477.515 215.741C477.89 215.648 478.215 215.415 478.424 215.091C478.633 214.766 478.711 214.374 478.64 213.994C478.599 213.562 478.522 213.134 478.411 212.714C477.804 210.517 476.869 208.424 475.638 206.506C474.669 205.005 473.632 203.547 472.585 202.102C470.997 199.905 469.355 197.746 467.282 195.965C467.072 195.803 466.924 195.559 466.732 195.381C465.453 194.211 464.328 192.88 462.871 191.909C462.413 191.616 462.006 191.25 461.666 190.826C460.93 189.885 460.047 189.07 459.05 188.412C458.244 187.841 458.134 187.252 458.741 186.495C460.329 184.434 461.73 182.235 462.926 179.925C463.465 178.926 464.104 177.979 464.592 176.956C465.241 175.587 465.841 174.19 466.365 172.77C467.213 170.601 467.751 168.324 467.961 166.004C468.034 165.193 468.059 164.378 468.035 163.564C467.957 161.899 467.162 161.237 465.739 161.196C464.87 161.174 464.003 161.281 463.166 161.513C461.752 161.895 460.412 162.509 459.201 163.331C457.583 164.419 456.063 165.646 454.296 166.499C454.106 166.605 453.929 166.731 453.766 166.876C452.272 168.044 450.767 169.193 449.293 170.387C447.968 171.419 446.762 172.594 445.695 173.891C444.882 174.837 444.02 175.739 443.113 176.595C443.07 176.647 443.015 176.687 442.953 176.713C442.89 176.739 442.823 176.75 442.756 176.744C442.688 176.738 442.623 176.716 442.566 176.68C442.509 176.644 442.462 176.595 442.428 176.537C441.901 175.589 441.262 174.708 440.525 173.912C439.171 172.515 437.747 171.183 436.342 169.832C435.719 169.232 435.111 168.614 434.436 168.075C433.14 166.986 431.792 165.983 430.461 164.959L430.479 164.962ZM410.821 212.78C411.115 213.024 411.474 213.176 411.854 213.216C414.425 213.617 416.993 213.905 419.573 213.288C421.595 213.187 423.458 212.398 425.386 211.899C425.439 211.882 425.483 211.848 425.512 211.801C425.538 211.762 425.548 211.714 425.54 211.668C425.526 211.627 425.487 211.567 425.45 211.564C425.292 211.536 425.132 211.527 424.972 211.535C420.398 211.97 415.825 212.436 411.231 212.611C411.109 212.612 411.005 212.696 410.81 212.787L410.821 212.78ZM404.887 200.041C405.158 199.955 405.285 199.959 405.348 199.897C407.925 197.199 410.952 195.009 413.675 192.479C413.701 192.444 413.698 192.377 413.714 192.284C413.557 192.313 413.383 192.299 413.277 192.372C411.38 193.699 409.324 194.824 407.673 196.475C406.562 197.515 405.616 198.717 404.867 200.041L404.887 200.041ZM402.255 208.108C402.121 207.879 401.994 207.667 401.863 207.461C401.841 207.444 401.761 207.437 401.724 207.459C401.688 207.481 401.671 207.528 401.68 207.575C401.675 207.7 401.709 207.824 401.779 207.929C401.849 208.033 401.951 208.112 402.069 208.154C402.082 208.164 402.129 208.135 402.235 208.107L402.255 208.108Z" fill="#5C5470" fill-opacity="0.6"/>
</g>
<g clip-path="url(#clip3_82_83)">
<path d="M393.244 46.7109C393.016 46.515 392.861 46.2468 392.805 45.9508C392.56 45.1243 392.335 44.2947 392.117 43.4698C391.467 41.1304 390.62 38.8504 389.584 36.6544C389.126 35.65 388.667 34.6348 388.259 33.6011C386.989 30.506 385.381 27.5604 383.466 24.8174C381.385 21.707 379.006 18.8071 376.362 16.1589C374.992 14.8086 373.719 13.3674 372.249 12.1248C370.671 10.7825 369.117 9.40944 367.559 8.05327C367.409 7.9172 367.246 7.79551 367.073 7.68978C365.501 6.76397 364.07 5.63659 362.502 4.70463C360.762 3.68226 358.947 2.78604 357.235 1.72674C357.06 1.62242 356.878 1.53128 356.69 1.45404C356.552 1.39246 356.397 1.37668 356.248 1.40897C356.1 1.44126 355.966 1.51994 355.865 1.63363C355.669 1.86399 355.488 2.10657 355.322 2.35992C354.897 3.10887 354.341 3.77512 353.679 4.32674C353.525 4.45733 353.38 4.59936 353.247 4.75162C352.719 5.31652 352.816 5.72518 353.541 5.98838C356.856 7.22946 359.967 8.96 362.77 11.1224C363.78 11.877 364.795 12.6362 365.782 13.4215C366.604 14.0934 367.364 14.8345 368.12 15.5818C369.447 16.8999 370.758 18.2258 372.047 19.5824C372.92 20.4939 373.725 21.4701 374.554 22.4156C375.082 22.9926 375.582 23.5297 376.092 24.093C378.607 26.9318 380.878 29.9775 382.881 33.1977C383.426 34.0468 384.032 34.8543 384.537 35.731C385.604 37.4876 386.507 39.372 387.412 41.2287C388.183 42.7644 388.784 44.3741 389.45 45.9469C389.649 46.4123 389.796 46.8962 389.969 47.3708C389.985 47.4045 389.995 47.4411 389.997 47.4785C390 47.5159 389.995 47.5534 389.982 47.5889C389.97 47.6243 389.951 47.657 389.926 47.685C389.901 47.7131 389.871 47.7359 389.837 47.7522C389.751 47.7922 389.653 47.8005 389.561 47.7757C389.423 47.7154 389.289 47.6447 389.162 47.5642C387.796 46.6965 386.456 45.7811 385.054 44.9733C383.039 43.8156 380.929 42.8293 378.748 42.0248C378.559 41.9603 378.361 41.9223 378.161 41.912C378.034 41.9105 377.91 41.9472 377.805 42.0173C377.7 42.0873 377.618 42.1875 377.57 42.3048C377.539 42.4021 377.536 42.5058 377.56 42.6049C377.584 42.7039 377.634 42.7946 377.706 42.8671C378.206 43.3658 378.721 43.8461 379.225 44.3386C379.546 44.6547 379.872 44.9754 380.168 45.3115C382.243 47.669 384.323 50.0202 386.491 52.2546C386.845 52.6152 387.242 52.9312 387.621 53.3102C389.688 55.3833 391.665 57.5519 393.524 59.8143C394.626 61.1343 395.523 62.6133 396.183 64.2011C396.217 64.2963 396.257 64.3896 396.3 64.4807C396.389 64.6344 396.535 64.747 396.706 64.7942C396.877 64.8413 397.06 64.8193 397.215 64.7328C397.395 64.6392 397.549 64.5023 397.663 64.3344C397.777 64.1665 397.847 63.973 397.867 63.7712C398.062 62.4199 398.307 61.0778 398.457 59.722C398.681 57.6637 398.855 55.5962 399.034 53.5333C399.25 51.1139 399.417 48.696 399.637 46.3088C399.767 44.7445 400.047 43.1964 400.474 41.6859C400.931 40.1866 401.249 38.6483 401.424 37.0905C401.476 36.5725 401.307 36.1685 400.98 36.0676C400.808 36.0203 400.625 36.029 400.459 36.0926C400.292 36.1562 400.15 36.2712 400.054 36.4211C399.719 36.8096 399.411 37.2209 399.133 37.6521C398.317 38.8706 397.582 40.1414 396.932 41.4564C396.746 41.8718 396.518 42.2671 396.252 42.6363C395.319 43.8327 394.466 45.0894 393.699 46.3982C393.651 46.4806 393.585 46.5514 393.507 46.6055C393.428 46.6596 393.339 46.6956 393.244 46.7109ZM366.783 8.79682C368.515 10.0188 370.143 11.3832 371.649 12.8758C373.339 14.4654 374.974 16.1288 376.595 17.8107C377.701 18.9267 378.742 20.1053 379.713 21.3407C381.061 23.106 382.373 24.8929 383.631 26.726C384.637 28.1803 385.521 29.7143 386.276 31.3127C387.707 34.3781 389.117 37.4467 390.249 40.6432C391.025 42.826 391.645 45.0643 392.291 47.2934C392.344 47.486 392.377 47.6838 392.387 47.8834C392.355 48.0045 392.292 48.1151 392.203 48.204C392.115 48.2929 392.005 48.357 391.884 48.3899C391.808 48.3886 391.735 48.3634 391.674 48.318C391.613 48.2726 391.568 48.2092 391.545 48.1368C391.436 47.911 391.353 47.676 391.252 47.438C390.411 45.3798 389.675 43.2846 388.674 41.2989C387.674 39.3133 386.761 37.2875 385.597 35.3912C383.817 32.508 381.883 29.7232 379.802 27.0487C377.995 24.617 376.029 22.3076 373.917 20.1358C373.366 19.5895 372.884 19.0277 372.37 18.4706C370.372 16.2454 368.211 14.1718 365.906 12.2671C365.037 11.5692 364.127 10.9374 363.241 10.2749C361.2 8.70334 359.012 7.3316 356.709 6.17855C356.169 5.89969 355.621 5.64386 355.086 5.35885C355.017 5.32772 354.957 5.28073 354.91 5.2217C354.863 5.16268 354.83 5.09333 354.815 5.01936C354.8 4.9454 354.803 4.86892 354.824 4.79626C354.844 4.72359 354.881 4.65681 354.933 4.60139C355.222 4.31896 355.492 4.01766 355.741 3.69947C356.353 2.88084 356.911 2.90455 357.732 3.26903C358.554 3.63352 359.432 4.16543 360.28 4.5975C362.564 5.80732 364.74 7.21231 366.783 8.79682ZM380.884 44.2253C381.291 44.1865 381.697 44.3022 382.023 44.5494C384.373 45.7198 386.606 47.1125 388.691 48.7084C389.364 49.1495 390.01 49.632 390.623 50.1532C390.712 50.2669 390.832 50.3532 390.968 50.4021C391.104 50.4511 391.25 50.4608 391.392 50.4301C391.533 50.3994 391.662 50.3295 391.766 50.2285C391.869 50.1275 391.942 49.9994 391.975 49.859C392.127 49.2332 392.427 49.036 393.033 49.1626C393.178 49.2031 393.332 49.1886 393.467 49.122C393.709 48.9771 394.059 48.8936 394.019 48.4986C394.01 48.1439 394.134 47.7986 394.368 47.5314C394.706 47.085 395.013 46.6151 395.285 46.1251C395.599 45.4897 395.971 44.8846 396.396 44.3175C396.979 43.555 397.48 42.7336 397.892 41.8668C398.251 41.1428 398.658 40.4439 399.111 39.7746C399.313 39.3797 399.598 39.0332 399.947 38.7589C400.014 38.8095 400.076 38.8555 400.059 38.8909C399.993 39.3922 399.9 39.8895 399.78 40.3806C399.119 42.8151 398.692 45.3072 398.506 47.823C398.301 50.5483 398.001 53.2599 397.773 55.9775C397.635 57.7373 397.408 59.489 397.093 61.2257C397.02 61.516 396.923 61.7999 396.804 62.0746C396.73 62.173 396.504 62.2441 396.415 62.1582C396.289 62.0716 396.177 61.9655 396.084 61.8436C395.314 60.5999 394.434 59.428 393.454 58.3421C392.22 56.784 390.879 55.3138 389.441 53.9421C386.556 51.1147 383.837 48.1215 381.3 44.9778C381.084 44.7782 380.938 44.5143 380.884 44.2253Z" fill="#5C5470" fill-opacity="0.6"/>
</g>
<defs>
<clipPath id="clip0_82_83">
<rect width="84.3164" height="78.7693" fill="white" transform="translate(48.0575 14) rotate(37.5971)"/>
</clipPath>
<clipPath id="clip1_82_83">
<rect width="68.1934" height="63.707" fill="white" transform="translate(118.868 215) rotate(37.5971)"/>
</clipPath>
<clipPath id="clip2_82_83">
<rect width="84.9836" height="79.3926" fill="white" transform="translate(434.438 135) rotate(37.5971)"/>
</clipPath>
<clipPath id="clip3_82_83">
<rect width="28.0567" height="71.2445" fill="white" transform="matrix(0.598728 -0.800953 -0.800953 -0.598728 397.063 65.1281)"/>
</clipPath>
</defs>
</svg>
