<svg width="37" height="36" viewBox="0 0 37 36" fill="none" xmlns="http://www.w3.org/2000/svg">
<path fill-rule="evenodd" clip-rule="evenodd" d="M0.738797 30.6515C0.753177 33.4236 3.05191 35.657 5.87562 35.6424L31.4296 35.5098C34.2533 35.4951 36.5288 33.238 36.5144 30.4659L36.3842 5.37928C36.3699 2.6072 34.0711 0.373811 31.2474 0.38846L5.69342 0.521027C2.86971 0.535676 0.594272 2.7928 0.608653 5.56488L0.738797 30.6515Z" fill="#5C5470"/>
<path fill-rule="evenodd" clip-rule="evenodd" d="M14.1059 22.4226C11.6336 22.4354 9.61738 20.4765 9.60478 18.0493C9.59219 15.6222 11.588 13.6425 14.0603 13.6297C16.5327 13.6169 18.5489 15.5758 18.5615 18.0029C18.5741 20.43 16.5783 22.4097 14.1059 22.4226Z" fill="#E0DEDE"/>
<path fill-rule="evenodd" clip-rule="evenodd" d="M9.66318 26.8422C9.67577 29.2693 11.6856 31.222 14.1579 31.2091L23.1146 31.1627C25.5869 31.1498 27.5763 29.1764 27.5637 26.7493C27.5512 24.3222 25.5414 22.3695 23.069 22.3823L14.1124 22.4288C11.64 22.4416 9.65059 24.415 9.66318 26.8422Z" fill="#E0DEDE"/>
<path fill-rule="evenodd" clip-rule="evenodd" d="M18.5907 22.3993L23.069 22.376C24.2573 22.3699 25.392 21.8999 26.2246 21.0739C27.0573 20.248 27.5242 19.1292 27.5182 17.9627C27.5121 16.7961 27.0336 15.6822 26.1924 14.865C25.3513 14.0478 24.2117 13.5895 23.0234 13.5957L18.5451 13.6189L18.5907 22.3993Z" fill="#E0DEDE"/>
<path fill-rule="evenodd" clip-rule="evenodd" d="M18.6362 31.1859L23.1146 31.1627C24.3028 31.1565 25.4376 30.6865 26.2702 29.8606C27.1028 29.0346 27.5698 27.9158 27.5637 26.7493C27.5577 25.5828 27.0792 24.4689 26.238 23.6516C25.3968 22.8344 24.2573 22.3762 23.069 22.3823L18.5907 22.4056L18.6362 31.1859Z" fill="#E0DEDE"/>
<path fill-rule="evenodd" clip-rule="evenodd" d="M18.5388 13.6315L23.0171 13.6083C24.2054 13.6021 25.3401 13.1321 26.1728 12.3062C27.0054 11.4803 27.4723 10.3614 27.4663 9.19492C27.4602 8.02839 26.9817 6.91448 26.1405 6.09724C25.2994 5.27999 24.1598 4.82179 22.9716 4.82795C21.7833 4.83411 20.6486 5.30412 19.8159 6.13005C18.9833 6.95598 18.5163 8.07479 18.5224 9.24132L18.5452 13.6315L18.5388 13.6315Z" fill="#E0DEDE"/>
</svg>
