<svg width="30" height="30" viewBox="0 0 30 30" fill="none" xmlns="http://www.w3.org/2000/svg">
<path fill-rule="evenodd" clip-rule="evenodd" d="M5.34464 0.423584H24.655C27.5827 0.423584 29.9498 2.79063 29.9498 5.71831V24.2814C29.9498 27.2091 27.5827 29.5762 24.655 29.5762H5.34464C2.41696 29.5762 0.0499115 27.2091 0.0499115 24.2814V5.71831C0.0499115 2.79063 2.41696 0.423584 5.34464 0.423584Z" fill="#5C5470"/>
<path fill-rule="evenodd" clip-rule="evenodd" d="M14.5389 17.9151H9.90451L8.95783 20.8427C8.93299 20.9549 8.83329 21.0297 8.72116 21.0173H6.37895C6.24199 21.0173 6.20438 20.9424 6.24199 20.7931L10.2537 9.24416C10.2909 9.11961 10.3285 8.9823 10.3782 8.83292C10.4279 8.57141 10.4531 8.29713 10.4531 8.0232C10.4406 7.96075 10.4907 7.89865 10.5528 7.88623C10.5652 7.88623 10.5776 7.88623 10.5904 7.88623H13.7796C13.8793 7.88623 13.929 7.92349 13.9417 7.98594L18.4888 20.8179C18.5264 20.9549 18.4888 21.0173 18.3643 21.0173H15.7606C15.6733 21.0297 15.586 20.9676 15.5611 20.8803L14.5396 17.9154L14.5389 17.9151ZM10.6269 15.3862H13.7913C13.7164 15.1244 13.6167 14.8132 13.5049 14.4892C13.3928 14.1528 13.2807 13.7916 13.1686 13.4176C13.044 13.0316 12.9319 12.6576 12.8074 12.2715C12.6828 11.8851 12.5707 11.5239 12.471 11.1627C12.3713 10.8139 12.284 10.49 12.197 10.1908H12.1722C12.0601 10.7266 11.9231 11.2624 11.7485 11.7982C11.5616 12.3961 11.3749 13.0192 11.1755 13.6419C11.0009 14.2774 10.8143 14.8628 10.6273 15.3862H10.6269ZM21.2043 10.0166C20.7931 10.029 20.3946 9.86723 20.0955 9.58053C19.8088 9.269 19.6594 8.8581 19.6718 8.43444C19.6594 8.01078 19.8212 7.6123 20.1203 7.32561C20.4195 7.03891 20.8179 6.88953 21.2292 6.88953C21.7149 6.88953 22.0889 7.03891 22.3628 7.32561C22.6368 7.62472 22.7865 8.0232 22.7741 8.43444C22.7865 8.8581 22.6371 9.269 22.338 9.58053C22.0513 9.87965 21.6276 10.0415 21.204 10.0166H21.2043ZM19.8091 20.8303V11.2372C19.8091 11.1127 19.8588 11.0627 19.9713 11.0627H22.4381C22.5502 11.0627 22.5999 11.1251 22.5999 11.2372V20.8303C22.5999 20.9673 22.5502 21.0297 22.4381 21.0297H19.9961C19.8716 21.0297 19.8091 20.9549 19.8091 20.8303Z" fill="#E0DEDE"/>
</svg>
