<svg width="38" height="38" viewBox="0 0 38 38" fill="none" xmlns="http://www.w3.org/2000/svg">
<path d="M17.0769 35.2405L17.0909 35.2373L17.1048 35.2333C18.4393 34.8447 19.6396 34.025 20.2771 32.7366C20.727 31.9036 20.8938 30.9985 20.9528 30.0752C20.9943 29.4264 20.9832 28.7353 20.972 28.0423C20.9675 27.7614 20.963 27.4802 20.9619 27.2013C20.9741 25.0273 20.97 22.8471 20.966 20.6697C20.965 20.1736 20.9641 19.6777 20.9634 19.182C20.9615 17.9252 19.9426 16.9057 18.6849 16.9057C17.4272 16.9057 16.4084 17.9252 16.4065 19.182C16.4051 20.1357 16.4029 21.0841 16.4006 22.031C16.397 23.5542 16.3933 25.0735 16.3933 26.6046C16.3933 27.015 16.3976 27.4099 16.4017 27.7855C16.4076 28.3255 16.413 28.8256 16.4047 29.2743C16.3976 29.6496 16.381 29.9665 16.3492 30.2166C16.3154 30.4822 16.271 30.6127 16.2446 30.6583L16.2351 30.6747L16.2268 30.6919C16.0567 31.0449 15.7588 31.2097 15.3936 31.2671C15.0275 31.3247 14.6372 31.2626 14.386 31.1824C13.9152 30.944 13.6624 30.6147 13.3152 30.0318C13.1993 29.8322 13.0128 29.6661 12.7609 29.6092C12.5125 29.553 12.2774 29.6203 12.0921 29.7336C11.8521 29.8805 11.6123 30.0275 11.3726 30.1744C10.7441 30.5599 10.2894 31.1751 10.1293 31.8449C9.96611 32.5274 10.1115 33.2756 10.699 33.8378C10.9806 34.1072 11.2894 34.3487 11.6246 34.5542L11.6286 34.5566C13.1131 35.4478 15.0698 35.7013 17.0769 35.2405ZM23.3283 33.4054L23.3371 33.4154L23.3465 33.4249C24.8562 34.9572 27.4317 35.6417 29.7564 35.4184C32.068 35.1963 34.33 34.0478 35.0442 31.6904C35.0475 31.6823 35.0505 31.6742 35.0534 31.6659L35.0538 31.6646C35.121 31.4697 35.4744 30.4139 35.1891 28.8145C35.0343 27.8543 34.6382 26.9618 33.8259 26.1338C33.0254 25.3178 31.84 24.5838 30.1372 23.8919C29.9118 23.7887 29.6816 23.6908 29.4611 23.597C29.4223 23.5806 29.3839 23.5642 29.3458 23.548C29.084 23.4364 28.8383 23.3298 28.6116 23.2182C28.1468 22.9893 27.8271 22.7691 27.6488 22.5222C27.5906 22.4417 27.5463 22.3255 27.5119 22.1577C27.4538 21.8741 27.4635 21.725 27.5053 21.5742L27.5072 21.5674L27.5089 21.5605C27.5859 21.2488 27.8071 21.0293 28.137 20.906C28.4749 20.7798 28.898 20.7704 29.2771 20.8837C29.3741 20.9166 29.4706 20.958 29.5651 21.0084C30.0225 21.2521 30.5907 21.4524 31.1652 21.5217C31.7344 21.5903 32.3656 21.5361 32.8913 21.2001C33.8711 20.5738 34.0105 19.3139 33.2033 18.4856C32.0976 17.2543 30.5998 16.6561 28.349 16.7019L28.322 16.7024L28.2951 16.7059L27.1756 16.8504L27.1461 16.8542L27.1172 16.8615C25.9786 17.149 24.8503 17.754 24.1618 18.6146C23.1566 19.7619 22.8142 21.3135 23.006 22.7574C23.1977 24.1996 23.9306 25.5967 25.1589 26.427C26.1168 27.1433 27.2638 27.6282 28.2422 28.0419C28.425 28.1192 28.602 28.194 28.7707 28.2673C29.3255 28.5086 29.7851 28.73 30.1272 28.9707C30.4622 29.2065 30.6301 29.4232 30.6911 29.6375C30.7686 30.013 30.7307 30.2844 30.6448 30.4816C30.5579 30.681 30.4029 30.8483 30.1736 30.9821C29.7011 31.2578 28.9594 31.3602 28.1514 31.2651C27.5367 31.1346 27.0906 30.9104 26.7018 30.5759C25.9042 29.8898 24.687 29.4257 23.5959 30.0549C23.0875 30.3481 22.715 30.823 22.5722 31.3568C22.4267 31.9009 22.5237 32.505 22.9544 32.9878C23.0028 33.042 23.0505 33.0951 23.0991 33.1492C23.1717 33.2299 23.2464 33.3129 23.3283 33.4054ZM0.5 4C0.5 2.067 2.067 0.5 4 0.5H34C35.933 0.5 37.5 2.067 37.5 4V34C37.5 35.933 35.933 37.5 34 37.5H4C2.067 37.5 0.5 35.933 0.5 34V4Z" fill="#5C5470" stroke="#5C5470"/>
</svg>
