<svg width="39" height="37" viewBox="0 0 39 37" fill="none" xmlns="http://www.w3.org/2000/svg">
<g clip-path="url(#clip0_26_44)">
<path d="M25.6823 0H13.2023C6.30976 0 0.722275 5.52182 0.722275 12.3333V24.6667C0.722275 31.4782 6.30976 37 13.2023 37H25.6823C32.5748 37 38.1623 31.4782 38.1623 24.6667V12.3333C38.1623 5.52182 32.5748 0 25.6823 0Z" fill="url(#paint0_linear_26_44)"/>
<path fill-rule="evenodd" clip-rule="evenodd" d="M13.4414 6.25347C13.2072 6.13772 12.9315 6.13772 12.6972 6.25347L8.26306 8.44448C8.2525 8.44966 8.24201 8.45506 8.23164 8.46069C8.14757 8.50627 8.07347 8.5651 8.01143 8.63375C7.97897 8.66971 7.94981 8.70834 7.92426 8.74919C7.84453 8.87671 7.8 9.02574 7.8 9.18146V25.0777C7.8 25.3747 7.96213 25.6487 8.2241 25.7944L17.0859 30.7205C17.1268 30.7441 17.1695 30.7641 17.2135 30.7804C17.2572 30.7968 17.302 30.8093 17.3474 30.8179C17.5346 30.8541 17.7353 30.8273 17.9146 30.7276L26.7891 25.7944C27.0512 25.6487 27.2133 25.3747 27.2133 25.0777V20.1044L31.1906 18.1391C31.4725 17.9999 31.6505 17.7151 31.6505 17.4037V11.9222C31.6505 11.6733 31.5368 11.4415 31.3474 11.2874C31.3078 11.2551 31.2649 11.2263 31.2189 11.2014C31.2086 11.1958 31.1981 11.1904 31.1875 11.1852L26.7534 8.9942C26.5191 8.87845 26.2434 8.87845 26.0093 8.9942L21.5751 11.1852C21.5645 11.1904 21.5541 11.1958 21.5436 11.2014C21.4498 11.2522 21.3686 11.3195 21.3026 11.3985C21.2511 11.4601 21.2088 11.5287 21.1775 11.6023C21.1497 11.6672 21.1304 11.7359 21.1202 11.8069C21.1148 11.8447 21.112 11.8833 21.112 11.9222V16.9229L18.3386 18.4644V9.18146C18.3386 8.97656 18.2628 8.78917 18.1373 8.64521C18.1049 8.60789 18.069 8.57335 18.0299 8.54207C17.9787 8.5012 17.9227 8.46621 17.8626 8.43809L13.4414 6.25347ZM21.9668 18.3343L24.6073 19.639L17.4837 23.5989L14.8432 22.2942L21.9668 18.3343ZM25.5492 18.2658L22.776 16.8956V13.2526L25.5492 14.6229V18.2658ZM27.2133 18.2658L29.9866 16.8956V13.2526L27.2133 14.6229V18.2658ZM16.6747 19.3895V10.5118L13.9013 11.8822V20.931L16.6747 19.3895ZM15.5599 24.4869L16.3842 24.8942C16.5724 24.9949 16.6747 25.0627 16.6747 25.0948V28.6052L9.46399 24.5968V10.5118L12.2373 11.8822V22.3366C12.2373 22.3562 12.238 22.3757 12.2394 22.395C12.26 22.6835 12.433 22.9418 12.6972 23.0724C12.6972 23.0724 13.9424 23.7198 15.0366 24.2384C15.2247 24.3275 15.3997 24.4104 15.5599 24.4869ZM18.3386 25.0104L25.5492 21.0021V24.5968L18.3386 28.6052V25.0104ZM13.0693 10.4548L10.4924 9.18146L13.0693 7.90815L15.6462 9.18146L13.0693 10.4548ZM28.9581 11.9222L26.3813 10.6489L23.8044 11.9222L26.3813 13.1955L28.9581 11.9222Z" fill="white"/>
</g>
<defs>
<linearGradient id="paint0_linear_26_44" x1="0.722275" y1="18.5" x2="38.1623" y2="18.5" gradientUnits="userSpaceOnUse">
<stop stop-color="#5C5470"/>
</linearGradient>
<clipPath id="clip0_26_44">
<rect width="39" height="37" fill="white"/>
</clipPath>
</defs>
</svg>
