<svg width="30" height="30" viewBox="0 0 30 30" fill="none" xmlns="http://www.w3.org/2000/svg">
<path d="M5.85938 1.90625H24.1406C26.5828 1.90625 28.5625 3.88599 28.5625 6.32812V23.6719C28.5625 26.114 26.5828 28.0938 24.1406 28.0938H5.85938C3.41724 28.0938 1.4375 26.114 1.4375 23.6719V6.32812C1.4375 3.88599 3.41724 1.90625 5.85938 1.90625Z" fill="#5C5470" stroke="#E0DEDE"/>
<path d="M21.2516 18.9688C21.2548 18.7752 21.218 18.5829 21.1434 18.4041C21.0687 18.2253 20.9579 18.0639 20.8178 17.93C20.5509 17.6691 20.0976 17.4404 19.546 17.2249L19.5459 17.2248C18.5694 16.8437 17.9635 16.4587 17.6506 16.0991L17.6508 16.099L17.6415 16.089C17.3123 15.7308 17.133 15.2599 17.1406 14.7734L17.1406 14.7734L17.1406 14.7659C17.1408 14.4551 17.2076 14.1478 17.3365 13.8649C17.4653 13.5821 17.6533 13.33 17.8878 13.1259L17.8878 13.126L17.8953 13.1192C18.3604 12.6974 19.061 12.4508 20.0719 12.4508C20.9308 12.4508 21.566 12.5555 22.0094 12.7335V13.5558C21.4281 13.29 20.7947 13.1486 20.1504 13.1442V13.1441H20.1469C19.6675 13.1441 19.2154 13.2312 18.8807 13.4917C18.728 13.6026 18.6028 13.7471 18.5146 13.9141C18.4243 14.0851 18.3755 14.2749 18.372 14.4683L18.3719 14.4683L18.3719 14.4758C18.3713 14.658 18.4088 14.8383 18.482 15.0052C18.554 15.1696 18.6592 15.3174 18.7908 15.4394C19.0456 15.6852 19.4985 15.9132 20.0533 16.1374L20.0533 16.1374L20.0586 16.1395C21.0171 16.5142 21.6448 16.8871 21.9974 17.2377L22.007 17.2473L22.0144 17.2547L22.0221 17.2618C22.4207 17.6283 22.7031 18.0571 22.7031 18.5156C22.7031 19.1179 22.5081 19.5497 22.3197 19.8293C22.2888 19.8751 22.2581 19.9169 22.2283 19.9547L21.9158 20.2607C21.8757 20.3 21.8297 20.3393 21.7699 20.3898C21.239 20.8202 20.4912 21.0625 19.4719 21.0625C18.5048 21.0625 17.7426 20.8968 17.1594 20.5952V19.7415C17.8423 20.1108 18.6089 20.3097 19.3934 20.3152V20.3152H19.3969C19.8764 20.3152 20.3208 20.2323 20.6682 20.003C20.8439 19.8954 20.9897 19.745 21.0917 19.5658C21.1953 19.3838 21.2504 19.1782 21.2516 18.9688ZM21.2516 18.9688C21.2515 18.9703 21.2515 18.9718 21.2515 18.9733L20.7516 18.9633L21.2516 18.9643C21.2516 18.9658 21.2516 18.9673 21.2516 18.9688ZM7.29688 21.0625V9.02936C7.51812 9.02147 7.74581 9.01181 7.98284 9.00176C8.69787 8.97143 9.49792 8.9375 10.4625 8.9375C12.1352 8.9375 13.2435 9.28921 13.913 9.93243L13.9129 9.93246L13.9178 9.93698C14.2582 10.2555 14.5277 10.6421 14.7088 11.0717C14.8899 11.5013 14.9785 11.9642 14.9689 12.4303L14.9688 12.4303V12.4406C14.9688 13.7205 14.526 14.6014 13.6857 15.1785C12.7876 15.7952 11.635 16.1211 10.1951 16.1219V16.1218L10.1864 16.122L9.13174 16.1407L8.64063 16.1494V16.6406V21.0625H7.29688ZM8.64063 14.8828V15.4029L9.16033 15.3824L9.16034 15.3824L9.16035 15.3824H9.16036L9.16056 15.3824L9.16153 15.3824L9.16576 15.3822L9.18301 15.3816L9.25054 15.3792C9.3094 15.3773 9.39475 15.3747 9.49987 15.3721C9.71031 15.3669 9.99898 15.3617 10.3125 15.3617C11.2219 15.3617 12.0109 15.1615 12.6369 14.7159C13.3267 14.2248 13.6241 13.4413 13.625 12.4973V12.4969C13.625 11.6492 13.3578 10.9298 12.7702 10.4147C12.1904 9.90627 11.3947 9.69208 10.4616 9.69531H10.457C10.2486 9.69531 10.0293 9.69531 9.81168 9.7052C9.61773 9.71402 9.45884 9.71406 9.32813 9.71406C9.32211 9.71406 9.31523 9.71404 9.30783 9.71402C9.28437 9.71396 9.25561 9.71388 9.2319 9.71434C9.20294 9.71489 9.14648 9.71639 9.08613 9.72791C9.04015 9.73669 8.88608 9.76879 8.76541 9.91002C8.65305 10.0415 8.63298 10.1866 8.64063 10.2943V14.8828ZM21.97 20.2218L21.9712 20.2209C21.97 20.2218 21.9696 20.2221 21.97 20.2218ZM22.0089 12.6012C22.0088 12.6005 22.0088 12.6001 22.0088 12.6001L22.0089 12.6012Z" fill="#5C5470" stroke="#E0DEDE"/>
</svg>
