<svg width="41" height="40" viewBox="0 0 41 40" fill="none" xmlns="http://www.w3.org/2000/svg">
<path fill-rule="evenodd" clip-rule="evenodd" d="M0.175139 33.9686C0.191267 37.0773 2.7692 39.582 5.93589 39.5656L34.5937 39.4169C37.7604 39.4005 40.3122 36.8692 40.2961 33.7604L40.1501 5.62673C40.134 2.51796 37.556 0.0132948 34.3894 0.0297228L5.73156 0.178392C2.56487 0.19482 0.013061 2.72609 0.0291885 5.83487L0.175139 33.9686Z" fill="#5C5470"/>
<path d="M37.8943 8.44652C37.7528 8.20141 37.4895 8.05043 37.2045 8.05081L29.2659 8.04629L29.2546 8.04311L22.891 8.00154H22.8863C22.6054 8.00115 22.3454 8.1482 22.2027 8.38801L20.4967 11.2349L18.7956 8.4265C18.6537 8.19025 18.3973 8.04484 18.1198 8.04311L11.7561 8H11.7499C11.6948 8.00847 11.6408 8.023 11.5888 8.04311H3.79536C3.35627 8.04302 3.00019 8.39571 3 8.83087C3 8.9707 3.03748 9.10802 3.10866 9.22869L19.8132 37.6088C20.0342 37.9847 20.5208 38.1118 20.9001 37.8927C21.0188 37.8242 21.1175 37.7264 21.1867 37.6088L37.8912 9.23639C38.0351 8.99273 38.0363 8.69133 37.8943 8.44652ZM17.6615 9.6167L19.8179 13.1781C19.9613 13.416 20.2204 13.5616 20.4999 13.5615C20.7802 13.5608 21.0408 13.4139 21.1835 13.175L23.3369 9.58129L27.8377 9.61054L23.0564 17.3645L20.5012 21.5075L13.1715 9.58591L17.6615 9.6167ZM20.4999 35.6472L5.17964 9.61978H11.304L19.821 23.4326C19.8825 23.5224 19.9623 23.5985 20.0552 23.6558C20.0764 23.6706 20.0884 23.6964 20.1109 23.7089C20.4839 23.9164 20.9558 23.7944 21.179 23.4326L29.6959 9.62296L35.8203 9.62613L20.4999 35.6472Z" fill="#F1F1F1"/>
</svg>
