<svg width="37" height="37" viewBox="0 0 37 37" fill="none" xmlns="http://www.w3.org/2000/svg">
<g clip-path="url(#clip0_26_47)">
<path fill-rule="evenodd" clip-rule="evenodd" d="M4.67933e-06 18.5C4.67933e-06 25.8222 4.255 32.1507 10.4263 35.1485L1.6018 10.9705C0.543984 13.3397 -0.0018438 15.9054 4.67933e-06 18.5ZM30.989 17.5665C30.989 15.2795 30.1666 13.697 29.4636 12.4652C28.5255 10.9389 27.6459 9.64931 27.6459 8.12537C27.6459 6.42414 28.9348 4.84162 30.7524 4.84162C30.8349 4.84162 30.9127 4.85164 30.9921 4.85704C27.5852 1.7276 23.126 -0.00616851 18.5 1.64913e-05C12.0358 1.64913e-05 6.3509 3.31614 3.04248 8.33812C3.43933 8.35147 3.83635 8.35867 4.23342 8.3597C6.16821 8.3597 9.16367 8.12537 9.16367 8.12537C10.1604 8.06602 10.2783 9.53214 9.28161 9.64931C9.28161 9.64931 8.27953 9.76725 7.1649 9.8266L13.9012 29.8644L17.9504 17.7222L15.069 9.82583C14.4202 9.7856 13.7727 9.72648 13.1273 9.64854C12.1306 9.58995 12.2478 8.06602 13.2452 8.12537C13.2452 8.12537 16.3 8.3597 18.1184 8.3597C20.0532 8.3597 23.0487 8.12537 23.0487 8.12537C24.0462 8.06602 24.1633 9.53214 23.1666 9.64931C23.1666 9.64931 22.163 9.76725 21.0492 9.8266L27.7346 29.7118L29.5815 23.5467C30.3793 20.9867 30.989 19.1491 30.989 17.5665ZM34.7338 9.62387C34.8132 10.2136 34.8586 10.8449 34.8586 11.5263C34.8586 13.4025 34.5071 15.513 33.4511 18.1531L27.8009 34.4902C33.3 31.2835 37 25.3242 37 18.5C37 15.2833 36.1775 12.2593 34.7338 9.62387ZM18.8238 20.1188L13.2722 36.2477C14.9303 36.7356 16.6832 37.0016 18.4985 37.0016C20.6529 37.0016 22.7195 36.6292 24.642 35.9532C24.5915 35.8721 24.5477 35.7871 24.511 35.6989L18.8238 20.1188Z" fill="#5C5470"/>
</g>
<defs>
<clipPath id="clip0_26_47">
<rect width="37" height="37" fill="white"/>
</clipPath>
</defs>
</svg>
