<svg width="75" height="66" viewBox="0 0 75 66" fill="none" xmlns="http://www.w3.org/2000/svg">
<g clip-path="url(#clip0_5_45)">
<path d="M54.0177 47.2054C53.789 47.0095 53.634 46.7414 53.5785 46.4454C53.3328 45.6189 53.1086 44.7893 52.8906 43.9643C52.2406 41.625 51.3933 39.345 50.3577 37.149C49.8996 36.1445 49.44 35.1294 49.0326 34.0956C47.7621 31.0006 46.1545 28.0549 44.2388 25.312C42.1582 22.2016 39.779 19.3017 37.1351 16.6534C35.7651 15.3031 34.4918 13.862 33.022 12.6194C31.4445 11.2771 29.89 9.90399 28.3325 8.54782C28.1821 8.41176 28.0193 8.29006 27.8463 8.18434C26.274 7.25853 24.8429 6.13114 23.2753 5.19918C21.5354 4.17681 19.7204 3.28059 18.0081 2.22129C17.8336 2.11698 17.6516 2.02583 17.4636 1.94859C17.3248 1.88701 17.1701 1.87123 17.0217 1.90353C16.8734 1.93582 16.7392 2.01449 16.6385 2.12818C16.4424 2.35854 16.261 2.60112 16.0956 2.85447C15.6705 3.60342 15.114 4.26968 14.4527 4.82129C14.298 4.95189 14.1534 5.09391 14.02 5.24618C13.4922 5.81107 13.5896 6.21973 14.3139 6.48293C17.6295 7.72401 20.7406 9.45455 23.5437 11.617C24.5531 12.3716 25.5687 13.1307 26.5551 13.9161C27.3769 14.5879 28.1374 15.3291 28.8932 16.0764C30.2201 17.3945 31.5317 18.7203 32.8202 20.0769C33.6931 20.9885 34.4985 21.9647 35.3269 22.9101C35.855 23.4872 36.3553 24.0243 36.8649 24.5875C39.3797 27.4264 41.6508 30.4721 43.6542 33.6923C44.1996 34.5413 44.8049 35.3488 45.3104 36.2256C46.3768 37.9822 47.2804 39.8665 48.1856 41.7232C48.9565 43.259 49.5569 44.8687 50.2234 46.4415C50.4224 46.9068 50.5691 47.3907 50.742 47.8654C50.7585 47.899 50.7683 47.9356 50.7706 47.9731C50.7729 48.0105 50.7678 48.048 50.7556 48.0834C50.7434 48.1189 50.7242 48.1516 50.6993 48.1796C50.6744 48.2076 50.6442 48.2304 50.6104 48.2467C50.5238 48.2867 50.426 48.295 50.3338 48.2702C50.1959 48.2099 50.0627 48.1392 49.9354 48.0588C48.5693 47.191 47.2291 46.2756 45.8277 45.4679C43.812 44.3101 41.7025 43.3238 39.5216 42.5193C39.332 42.4548 39.1343 42.4169 38.9343 42.4065C38.8077 42.405 38.6836 42.4417 38.5782 42.5118C38.4728 42.5819 38.3909 42.6821 38.3432 42.7994C38.3127 42.8966 38.3092 43.0004 38.3332 43.0994C38.3572 43.1985 38.4077 43.2892 38.4794 43.3617C38.9797 43.8604 39.4937 44.3406 39.9986 44.8332C40.3188 45.1493 40.6452 45.47 40.9408 45.8061C43.0163 48.1635 45.0965 50.5148 47.264 52.7491C47.6181 53.1097 48.0151 53.4257 48.3938 53.8047C50.4612 55.8779 52.4381 58.0464 54.2967 60.3089C55.3992 61.6289 56.2959 63.1078 56.9565 64.6957C56.9907 64.7908 57.0298 64.8841 57.0737 64.9752C57.1626 65.1289 57.3083 65.2415 57.4795 65.2887C57.6507 65.3359 57.8335 65.3139 57.9886 65.2274C58.1685 65.1337 58.3222 64.9968 58.436 64.829C58.5498 64.6611 58.62 64.4675 58.6403 64.2657C58.8348 62.9145 59.0801 61.5723 59.2301 60.2165C59.4543 58.1582 59.6278 56.0907 59.8074 54.0279C60.0234 51.6084 60.1901 49.1906 60.4107 46.8034C60.5401 45.2391 60.8202 43.6909 61.2472 42.1805C61.7046 40.6812 62.0227 39.1428 62.1974 37.5851C62.2488 37.067 62.0806 36.6631 61.7531 36.5622C61.5812 36.5148 61.3987 36.5236 61.2321 36.5872C61.0655 36.6507 60.9235 36.7658 60.8269 36.9156C60.492 37.3041 60.1845 37.7155 59.9067 38.1466C59.0904 39.3651 58.3552 40.636 57.7057 41.951C57.5195 42.3664 57.2915 42.7617 57.0252 43.1308C56.0924 44.3273 55.2395 45.584 54.4722 46.8927C54.4242 46.9752 54.3586 47.046 54.28 47.1001C54.2014 47.1541 54.1119 47.1901 54.0177 47.2054ZM27.556 9.29137C29.2887 10.5134 30.9164 11.8778 32.4223 13.3704C34.1123 14.9599 35.7472 16.6234 37.3683 18.3053C38.4743 19.4212 39.5154 20.5998 40.4862 21.8353C41.8338 23.6006 43.1461 25.3875 44.4047 27.2206C45.4098 28.6748 46.2943 30.2088 47.0494 31.8072C48.4805 34.8727 49.8902 37.9412 51.0218 41.1378C51.7984 43.3205 52.4182 45.5588 53.0642 47.7879C53.1176 47.9805 53.1499 48.1784 53.1604 48.3779C53.1283 48.4991 53.0649 48.6096 52.9765 48.6985C52.8882 48.7874 52.7781 48.8515 52.6571 48.8844C52.5813 48.8831 52.5077 48.858 52.447 48.8126C52.3862 48.7671 52.3413 48.7037 52.3186 48.6313C52.2091 48.4056 52.1257 48.1706 52.0255 47.9325C51.1846 45.8744 50.4481 43.7791 49.4475 41.7935C48.4469 39.8078 47.5338 37.782 46.3704 35.8858C44.5903 33.0026 42.6558 30.2177 40.5752 27.5433C38.7683 25.1116 36.8022 22.8022 34.69 20.6303C34.139 20.084 33.657 19.5223 33.1428 18.9652C31.1451 16.7399 28.9847 14.6663 26.6793 12.7616C25.8098 12.0637 24.9005 11.4319 24.0142 10.7694C21.973 9.19789 19.7855 7.82616 17.4819 6.6731C16.942 6.39424 16.3944 6.13842 15.8591 5.8534C15.7903 5.82227 15.73 5.77528 15.683 5.71626C15.6359 5.65723 15.6036 5.58788 15.5886 5.51391C15.5736 5.43995 15.5764 5.36348 15.5968 5.29081C15.6172 5.21814 15.6545 5.15136 15.7057 5.09594C15.9949 4.81352 16.265 4.51221 16.5143 4.19402C17.1262 3.3754 17.6841 3.3991 18.5054 3.76358C19.3267 4.12807 20.2052 4.65998 21.0527 5.09205C23.3374 6.30187 25.5133 7.70687 27.556 9.29137ZM41.6568 44.7199C42.0638 44.6811 42.4705 44.7968 42.7962 45.0439C45.1464 46.2143 47.3791 47.607 49.4639 49.203C50.1374 49.6441 50.7829 50.1266 51.3966 50.6477C51.4857 50.7614 51.605 50.8477 51.7409 50.8967C51.8768 50.9457 52.0237 50.9554 52.1648 50.9247C52.306 50.894 52.4356 50.8241 52.5389 50.7231C52.6421 50.6221 52.7148 50.494 52.7486 50.3536C52.8998 49.7278 53.2007 49.5306 53.8064 49.6572C53.9509 49.6977 54.1053 49.6832 54.2398 49.6165C54.4824 49.4717 54.8327 49.3881 54.7921 48.9932C54.7829 48.6384 54.9074 48.2931 55.141 48.0259C55.4796 47.5795 55.786 47.1096 56.0578 46.6197C56.3719 45.9843 56.744 45.3791 57.1692 44.812C57.7521 44.0496 58.2535 43.2282 58.6654 42.3613C59.0242 41.6374 59.4313 40.9384 59.8839 40.2692C60.086 39.8742 60.3712 39.5277 60.7199 39.2535C60.7876 39.3041 60.8492 39.3501 60.8323 39.3854C60.7665 39.8867 60.6734 40.384 60.5535 40.8752C59.8925 43.3097 59.4656 45.8018 59.2789 48.3175C59.0742 51.0428 58.7742 53.7544 58.5464 56.4721C58.4087 58.2319 58.1816 59.9835 57.8662 61.7203C57.793 62.0106 57.6963 62.2945 57.5771 62.5691C57.5035 62.6676 57.2776 62.7386 57.1884 62.6527C57.062 62.5662 56.9503 62.46 56.8574 62.3382C56.0874 61.0944 55.207 59.9225 54.2268 58.8366C52.9932 57.2785 51.6525 55.8083 50.2145 54.4366C47.3288 51.6093 44.6103 48.6161 42.073 45.4723C41.857 45.2728 41.7111 45.0089 41.6568 44.7199Z" fill="#5C5470" fill-opacity="0.6"/>
</g>
<defs>
<clipPath id="clip0_5_45">
<rect width="28.0567" height="71.2445" fill="white" transform="matrix(0.598728 -0.800953 -0.800953 -0.598728 57.8366 65.6227)"/>
</clipPath>
</defs>
</svg>
