<?xml version="1.0" encoding="utf-8"?>
<!-- Generator: Adobe Illustrator 26.5.0, SVG Export Plug-In . SVG Version: 6.00 Build 0)  -->
<svg version="1.1" id="Layer_1" xmlns="http://www.w3.org/2000/svg" xmlns:xlink="http://www.w3.org/1999/xlink" x="0px" y="0px"
	 viewBox="0 0 1903 773.3" style="enable-background:new 0 0 1903 773.3;" xml:space="preserve">
<style type="text/css">
	.st0{fill:none;stroke:#FFFFFF;stroke-width:1.2325;stroke-miterlimit:10;}
	.st1{fill:#41489E;}
</style>
<g>
	<rect x="-118.6" y="225.8" class="st0" width="530.4" height="530.4"/>
	<line class="st0" x1="-70.4" y1="225.8" x2="-70.4" y2="756.2"/>
	<line class="st0" x1="-22.2" y1="225.8" x2="-22.2" y2="756.2"/>
	<line class="st0" x1="26" y1="225.8" x2="26" y2="756.2"/>
	<line class="st0" x1="74.2" y1="225.8" x2="74.2" y2="756.2"/>
	<line class="st0" x1="122.4" y1="225.8" x2="122.4" y2="756.2"/>
	<line class="st0" x1="170.7" y1="225.8" x2="170.7" y2="756.2"/>
	<line class="st0" x1="218.9" y1="225.8" x2="218.9" y2="756.2"/>
	<line class="st0" x1="267.1" y1="225.8" x2="267.1" y2="756.2"/>
	<line class="st0" x1="315.3" y1="225.8" x2="315.3" y2="756.2"/>
	<line class="st0" x1="363.5" y1="225.8" x2="363.5" y2="756.2"/>
	<line class="st0" x1="411.8" y1="708" x2="-118.6" y2="708"/>
	<line class="st0" x1="411.8" y1="659.8" x2="-118.6" y2="659.8"/>
	<line class="st0" x1="411.8" y1="611.5" x2="-118.6" y2="611.5"/>
	<line class="st0" x1="411.8" y1="563.3" x2="-118.6" y2="563.3"/>
	<line class="st0" x1="411.8" y1="515.1" x2="-118.6" y2="515.1"/>
	<line class="st0" x1="411.8" y1="466.9" x2="-118.6" y2="466.9"/>
	<line class="st0" x1="411.8" y1="418.7" x2="-118.6" y2="418.7"/>
	<line class="st0" x1="411.8" y1="370.5" x2="-118.6" y2="370.5"/>
	<line class="st0" x1="411.8" y1="322.2" x2="-118.6" y2="322.2"/>
	<line class="st0" x1="411.8" y1="274" x2="-118.6" y2="274"/>
</g>
<g>
	<g>
		<path class="st1" d="M1837.6,309.5c-45.9,81.5-149.5,110.4-230.9,64.5c-81.5-45.9-110.4-149.5-64.5-230.9s149.5-110.4,230.9-64.5
			S1883.5,228.1,1837.6,309.5z M1578,163.3c-34.7,61.7-12.8,140.1,48.8,174.9c61.7,34.7,140.1,12.8,174.9-48.8
			c34.7-61.7,12.8-140.1-48.8-174.9C1691.2,79.7,1612.8,101.6,1578,163.3z"/>
	</g>
	
		<image style="overflow:visible;enable-background:new    ;" width="408" height="409" xlink:href="1AE3EE6C.png"  transform="matrix(0.4085 -0.725 0.725 0.4085 1458.2654 290.3919)">
	</image>
</g>
</svg>
