<?xml version="1.0" encoding="utf-8"?>
<!-- Generator: Adobe Illustrator 25.2.0, SVG Export Plug-In . SVG Version: 6.00 Build 0)  -->
<svg version="1.1" id="Layer_1" xmlns="http://www.w3.org/2000/svg" xmlns:xlink="http://www.w3.org/1999/xlink" x="0px" y="0px"
	 viewBox="0 0 401.2 391.6" style="enable-background:new 0 0 401.2 391.6;" xml:space="preserve">
<style type="text/css">
	.st0{fill:#E2E991;}
	.st1{fill:none;stroke:#FFFFFF;stroke-width:4;stroke-miterlimit:10;}
</style>
<g>
	<path class="st0" d="M371,23.4c-2.6-2-5.5-3.6-8.5-4.9c-1.2-0.5-2.5-1-3.7-1.4c-3.8-1.2-7.9-1.8-12.1-1.8H58.7h0
		c-1.4,0-2.8,0.1-4.2,0.2c-0.7,0.1-1.4,0.2-2,0.3c-3.4,0.5-6.6,1.5-9.7,2.8c-0.6,0.3-1.2,0.5-1.8,0.8C27.4,25.9,17.9,40,17.9,56.1
		V344c0,22.5,18.4,40.9,40.9,40.9h287.9c22.5,0,40.9-18.4,40.9-40.9V56.1C387.5,42.8,381,30.9,371,23.4z"/>
	
		<image style="overflow:visible;opacity:0.2;" width="933" height="934" xlink:href="905DF23D.png"  transform="matrix(0.3962 0 0 0.3962 17.8133 14.917)">
	</image>
</g>
<path class="st1" d="M355.5,12.1c-2.6-2-5.5-3.6-8.5-4.9c-1.2-0.5-2.5-1-3.7-1.4c-3.8-1.2-7.9-1.8-12.1-1.8H44.7h0
	c-1.4,0-2.8,0.1-4.1,0.2c-0.7,0.1-1.4,0.2-2,0.3C35.2,5,32,5.9,29,7.2c-0.6,0.3-1.2,0.5-1.8,0.8C13.5,14.6,4.1,28.6,4.1,44.7v286.4
	c0,22.4,18.3,40.6,40.6,40.6h286.4c22.4,0,40.6-18.3,40.6-40.6V44.7C371.8,31.4,365.4,19.5,355.5,12.1z"/>
</svg>
