<svg width="1881" height="714" viewBox="0 0 1881 714" fill="none" xmlns="http://www.w3.org/2000/svg">
<path d="M907.972 392.471C908.314 388.444 908.919 384.443 909.784 380.495C910.491 377 910.974 373.464 911.229 369.909C911.4 366.213 911.213 362.509 910.669 358.849C910.137 356.481 909.414 354.159 908.507 351.907C908.386 351.6 908.197 351.325 907.954 351.102C907.711 350.88 907.42 350.715 907.104 350.622C906.788 350.528 906.454 350.508 906.129 350.562C905.803 350.617 905.494 350.744 905.226 350.936C903.568 351.797 902.094 352.972 900.888 354.397C898.643 356.987 896.661 359.792 894.971 362.772C893.489 365.585 891.93 368.24 890.648 371.167C887.824 378.185 885.737 385.477 884.421 392.925C883.482 396.835 882.893 400.761 882.091 404.669C881.051 409.411 879.686 414.076 878.004 418.631C876.51 423.103 875.252 427.65 874.235 432.253C872.738 438.792 871.014 445.271 869.394 451.784C868.964 453.587 868.582 455.397 868.247 457.213C868.189 457.53 868.215 457.858 868.322 458.162C868.43 458.466 868.616 458.737 868.861 458.947C869.107 459.157 869.403 459.299 869.72 459.358C870.038 459.418 870.366 459.393 870.671 459.287C872.701 458.585 874.617 457.585 876.354 456.322C879.517 453.912 882.805 451.597 885.919 449.112C891.63 444.575 897.244 439.958 902.851 435.32C904.727 433.771 906.526 432.135 908.256 430.43C912.964 425.852 917.831 421.403 922.234 416.541C927.882 410.303 933.53 403.997 937.161 396.257L940.354 389.243C940.63 388.586 940.856 387.908 941.029 387.217C942.626 381.562 940.039 377.432 935.036 375.016C933.864 374.497 932.644 374.09 931.395 373.802C930.073 373.466 928.688 373.469 927.368 373.812C926.047 374.155 924.835 374.826 923.844 375.763C919.39 379.56 915.302 383.766 911.635 388.326C910.64 389.499 909.59 390.645 907.972 392.471ZM897.232 435.759C897.673 434.557 898.433 433.499 899.432 432.697C902.019 430.045 904.435 427.233 906.666 424.277C908.102 422.125 908.964 419.643 909.171 417.066C909.259 416.495 909.132 415.912 908.815 415.428C908.498 414.945 908.014 414.596 907.455 414.448C906.993 414.255 906.497 414.157 905.997 414.162C905.496 414.166 905.002 414.272 904.543 414.473C902.304 415.403 900.202 416.637 898.299 418.139C896.075 419.877 895.324 419.702 894.949 416.64C894.475 413.515 893.211 410.564 891.275 408.065C890.579 406.969 889.529 406.143 888.299 405.724C887.211 405.437 886.417 406.195 885.501 406.537C884.585 406.879 884.2 406.301 884.421 405.351C885.045 402.584 885.718 399.824 886.266 397.038C887.02 392.595 888.426 388.178 889.29 383.721C891.283 374.627 895.205 366.065 900.79 358.612C901.947 356.975 903.324 355.507 904.883 354.248C906.325 353.103 907.179 353.311 907.749 354.95C908.375 356.847 908.78 358.81 908.957 360.8C909.583 366.769 909.252 372.8 907.975 378.666C907.043 383.125 905.89 387.545 904.862 391.991C904.439 393.815 904.077 395.618 903.743 397.434C903.599 397.988 903.581 398.567 903.689 399.129C903.882 399.657 904.248 400.105 904.728 400.398C904.984 400.531 905.28 400.567 905.561 400.499C905.842 400.431 906.088 400.264 906.255 400.028C907.288 398.635 908.253 397.243 909.23 395.823C913.761 389.406 919.03 383.541 924.928 378.349C926.071 377.266 927.5 376.532 929.047 376.234C930.594 375.936 932.193 376.086 933.656 376.667C934.064 376.807 934.461 376.976 934.844 377.173C936.263 377.859 937.438 378.965 938.208 380.34C938.978 381.715 939.308 383.293 939.152 384.861C938.859 386.7 938.313 388.49 937.53 390.18C934.333 397.359 930.054 404.007 924.841 409.891C921.573 413.716 918.053 417.214 914.478 420.686C909.573 425.493 904.689 430.293 899.437 434.693C898.804 435.189 898.286 436.012 897.232 435.759ZM885.594 432.78C885.551 432.657 885.487 432.473 885.466 432.411C886.854 429.792 888.242 427.173 889.638 424.574C889.724 424.478 889.833 424.405 889.955 424.363C890.077 424.32 890.208 424.31 890.335 424.332C890.504 424.523 890.591 424.773 890.578 425.028C890.56 428.48 888.106 430.482 885.992 432.733C885.939 432.912 885.739 432.799 885.594 432.78ZM888.565 411.511C888.458 411.204 888.323 410.815 888.195 410.446C888.116 410.181 888.105 409.9 888.164 409.63C888.277 409.403 888.447 409.21 888.658 409.068C888.658 409.068 888.94 409.084 889.05 409.138C889.292 409.252 889.51 409.409 889.695 409.603C889.958 409.919 890.186 410.263 890.374 410.629C890.796 411.378 890.564 412.033 889.831 412.242C889.566 412.311 889.285 412.273 889.048 412.136C888.811 411.999 888.638 411.775 888.565 411.511Z" fill="#9D98A9"/>
<path d="M839.801 404.042C838.233 401.98 836.803 399.816 835.518 397.566C834.353 395.599 833.064 393.71 831.658 391.908C830.151 390.076 828.471 388.394 826.64 386.887C825.369 385.988 824.028 385.194 822.629 384.513C822.44 384.418 822.232 384.369 822.02 384.367C821.809 384.366 821.6 384.412 821.409 384.504C821.219 384.595 821.051 384.729 820.92 384.894C820.788 385.06 820.696 385.254 820.651 385.46C820.232 386.582 820.036 387.774 820.074 388.971C820.118 391.167 820.38 393.353 820.857 395.497C821.36 397.472 821.758 399.405 822.406 401.348C824.077 405.901 826.217 410.267 828.79 414.376C830.023 416.64 831.429 418.76 832.727 420.964C834.269 423.667 835.624 426.474 836.78 429.364C837.991 432.133 839.345 434.837 840.839 437.464C842.936 441.218 844.899 445.041 846.926 448.836C847.496 449.879 848.091 450.904 848.713 451.912C848.821 452.088 848.974 452.232 849.156 452.331C849.338 452.429 849.543 452.478 849.75 452.473C849.956 452.467 850.158 452.408 850.335 452.3C850.512 452.192 850.657 452.039 850.757 451.857C851.421 450.651 851.903 449.353 852.187 448.005C852.656 445.5 853.226 442.986 853.64 440.466C854.409 435.854 855.096 431.245 855.772 426.63C855.999 425.087 856.152 423.535 856.243 421.981C856.516 417.781 856.92 413.572 856.926 409.368C856.934 403.974 856.912 398.547 855.315 393.305L853.821 388.595C853.67 388.164 853.486 387.745 853.272 387.341C851.602 383.965 848.597 383.111 845.179 384.111C844.398 384.368 843.643 384.698 842.925 385.098C842.152 385.505 841.494 386.102 841.013 386.833C840.532 387.563 840.244 388.403 840.175 389.274C839.686 392.994 839.548 396.752 839.763 400.497C839.793 401.482 839.786 402.478 839.801 404.042ZM853.287 429.252C852.98 428.491 852.887 427.661 853.018 426.85C853.11 424.478 853.051 422.101 852.843 419.736C852.601 418.096 851.945 416.545 850.937 415.23C850.733 414.92 850.422 414.697 850.064 414.603C849.706 414.509 849.325 414.551 848.996 414.721C848.693 414.827 848.415 414.994 848.179 415.211C847.943 415.428 847.753 415.691 847.621 415.984C846.955 417.389 846.485 418.878 846.225 420.41C845.914 422.193 845.481 422.432 843.987 421.137C842.419 419.853 840.55 418.992 838.555 418.635C837.753 418.412 836.899 418.47 836.134 418.799C835.492 419.13 835.441 419.832 835.152 420.388C834.863 420.944 834.431 420.835 834.128 420.288C833.237 418.703 832.371 417.101 831.435 415.54C829.885 413.102 828.657 410.397 827.153 407.905C824.194 402.722 822.382 396.963 821.838 391.017C821.685 389.742 821.709 388.452 821.91 387.183C822.104 386.019 822.6 385.751 823.576 386.286C824.689 386.92 825.725 387.68 826.664 388.551C829.526 391.122 831.959 394.134 833.872 397.473C835.344 399.995 836.694 402.593 838.115 405.15C838.697 406.2 839.299 407.213 839.92 408.221C840.09 408.546 840.33 408.829 840.623 409.05C840.942 409.219 841.308 409.274 841.663 409.208C841.842 409.161 841.998 409.051 842.102 408.898C842.207 408.745 842.252 408.559 842.23 408.376C842.123 407.269 841.984 406.192 841.839 405.097C841.238 400.097 841.226 395.043 841.801 390.039C841.88 389.033 842.245 388.07 842.853 387.263C843.461 386.457 844.286 385.842 845.232 385.489C845.486 385.381 845.747 385.291 846.014 385.22C846.984 384.937 848.018 384.958 848.975 385.281C849.932 385.604 850.767 386.214 851.367 387.027C852.017 388.028 852.526 389.114 852.88 390.255C854.443 395.043 855.263 400.045 855.311 405.084C855.398 408.308 855.227 411.484 855.017 414.672C854.749 419.066 854.487 423.448 853.878 427.798C853.79 428.306 853.897 428.92 853.287 429.252ZM846.47 432.835C846.397 432.794 846.287 432.734 846.25 432.714C845.786 430.872 845.321 429.029 844.869 427.193C844.868 427.11 844.889 427.029 844.929 426.956C844.969 426.884 845.026 426.822 845.096 426.778C845.259 426.797 845.408 426.878 845.511 427.005C846.985 428.655 846.678 430.662 846.639 432.642C846.691 432.749 846.547 432.781 846.47 432.835ZM838.747 421.439C838.564 421.338 838.332 421.211 838.113 421.091C837.961 420.999 837.836 420.87 837.747 420.716C837.704 420.559 837.702 420.394 837.741 420.236C837.741 420.236 837.882 420.123 837.958 420.101C838.122 420.051 838.293 420.033 838.464 420.045C838.725 420.083 838.982 420.149 839.228 420.242C839.751 420.417 839.922 420.829 839.663 421.243C839.566 421.389 839.416 421.492 839.245 421.528C839.073 421.565 838.894 421.533 838.747 421.439Z" fill="#9D98A9"/>
<g clip-path="url(#clip0_68_55)">
<path d="M118.45 244.048C119.836 245.17 121.079 246.184 122.347 247.183C123.253 247.856 124.091 248.618 124.847 249.457C125.026 249.658 125.224 249.841 125.439 250.002C126.903 251.186 128.222 252.537 129.369 254.029C129.573 254.279 129.791 254.518 130.021 254.745C130.103 254.815 130.208 254.853 130.315 254.85C130.423 254.848 130.526 254.806 130.604 254.733C131.299 253.918 132.006 253.103 132.686 252.277C133.55 251.246 134.531 250.319 135.611 249.516C137.149 248.351 138.642 247.128 140.18 245.963C140.776 245.511 141.448 245.164 142.081 244.751C143.245 243.984 144.417 243.178 145.565 242.432C146.954 241.512 148.481 240.821 150.089 240.384C151.13 240.103 152.218 240.038 153.285 240.192C153.853 240.236 154.394 240.454 154.834 240.816C155.274 241.179 155.59 241.669 155.741 242.218C155.915 242.726 156.01 243.258 156.022 243.795C156.051 245.354 155.916 246.911 155.617 248.441C155.039 251.114 154.167 253.715 153.019 256.198C152.67 256.982 152.263 257.74 151.802 258.465C151.262 259.329 150.771 260.224 150.334 261.145C149.573 262.627 148.698 264.046 147.717 265.391C147.456 265.73 147.173 266.097 146.929 266.415C146.6 266.915 146.619 267.109 147.036 267.532C148.69 269.296 150.441 270.967 152.281 272.537C153.171 273.222 153.889 274.101 154.697 274.892C155.701 275.868 156.647 276.888 157.588 277.916C158.608 279.093 159.556 280.33 160.427 281.62C160.937 282.317 161.382 283.053 161.891 283.737C163.686 286.161 165.055 288.873 165.94 291.756C166.194 292.584 166.328 293.444 166.336 294.309C166.369 294.687 166.275 295.064 166.069 295.382C165.863 295.7 165.557 295.94 165.199 296.064C164.566 296.359 163.885 296.536 163.189 296.585C161.415 296.694 159.634 296.64 157.869 296.423C156.118 296.176 154.392 295.772 152.712 295.218C151.894 294.936 151.082 294.648 150.261 294.399C148.629 293.858 147.048 293.174 145.535 292.356C144.528 291.838 143.511 291.348 142.505 290.843L142.06 290.646C141.698 290.503 141.373 290.691 141.395 291.057C141.401 291.648 141.437 292.239 141.505 292.827C141.808 295.064 141.928 297.322 141.863 299.578C141.885 302.435 141.579 305.284 140.949 308.07C140.499 309.837 140.142 311.63 139.68 313.399C139.384 314.541 139.019 315.664 138.587 316.762C138.291 317.57 137.863 318.323 137.32 318.991C136.556 319.867 135.519 320.461 134.376 320.676C133.233 320.891 132.051 320.715 131.02 320.176C129.586 319.43 128.334 318.378 127.353 317.094C127.003 316.618 126.719 316.097 126.509 315.545C125.413 312.801 124.455 310.003 123.639 307.163C123.34 306.09 123.096 304.946 122.892 303.867C122.187 300.503 121.464 297.147 120.808 293.764C120.613 292.541 120.336 291.334 119.981 290.148C119.842 289.76 119.686 289.684 119.246 289.818C118.826 289.916 118.419 290.058 118.03 290.242C116.281 291.199 114.351 291.748 112.581 292.645C112.292 292.791 111.986 292.899 111.67 292.966C109.779 293.332 107.881 293.68 105.982 294.027C105.822 294.055 105.66 294.069 105.498 294.071C103.89 294.099 102.282 294.032 100.682 293.87C99.3494 293.698 98.0484 293.336 96.8188 292.795C94.8952 291.977 92.9369 291.234 90.9971 290.437C90.3533 290.177 89.7227 289.871 89.0958 289.546C88.8597 289.423 88.6589 289.241 88.5125 289.018C88.009 288.251 87.722 287.362 87.6819 286.445C87.6313 285.789 87.8247 285.137 88.225 284.615C88.3554 284.446 88.4858 284.276 88.6162 284.107C89.3174 283.291 89.8382 282.336 90.1445 281.304C90.4078 280.428 90.8182 279.604 91.3582 278.866C91.5026 278.708 91.6335 278.538 91.7495 278.358C92.4591 277.032 93.4488 275.876 94.6501 274.971C97.8652 272.278 101.441 270.048 105.274 268.346C106.552 267.786 107.823 267.217 109.086 266.639C110.468 266.045 111.768 265.278 112.957 264.358C114.446 263.155 114.334 262.979 113.089 261.762C112.809 261.512 112.512 261.283 112.199 261.076C110.009 259.419 108.082 257.439 106.485 255.204C105.891 254.381 105.358 253.516 104.89 252.616C104.115 251.198 103.346 249.785 102.662 248.337C102.019 247.036 101.602 245.636 101.43 244.196C101.355 243.444 101.393 242.685 101.544 241.945C101.677 241.227 101.989 240.556 102.453 239.992C102.916 239.429 103.515 238.992 104.193 238.724C104.933 238.423 105.724 238.269 106.523 238.269C109.181 238.203 111.777 239.079 113.852 240.743C115.455 241.876 117.031 242.999 118.45 244.048Z" fill="#5C5470" fill-opacity="0.6"/>
<path d="M102.631 208.471C105.762 211.006 108.594 213.333 111.462 215.597C113.525 217.119 115.43 218.843 117.151 220.742C117.545 221.193 117.984 221.602 118.46 221.964C121.788 224.643 124.786 227.707 127.393 231.091C127.855 231.66 128.356 232.192 128.863 232.717C129.051 232.874 129.291 232.956 129.536 232.948C129.781 232.94 130.014 232.842 130.191 232.672C131.774 230.822 133.37 228.982 134.91 227.099C136.876 224.766 139.106 222.67 141.555 220.85C145.04 218.194 148.434 215.423 151.933 212.777C153.281 211.758 154.805 210.976 156.227 210.036C158.879 208.3 161.508 206.537 164.137 204.773C167.289 202.685 170.754 201.115 174.402 200.12C176.765 199.477 179.236 199.332 181.659 199.693C182.948 199.786 184.176 200.277 185.174 201.098C186.172 201.919 186.89 203.029 187.23 204.276C187.615 205.429 187.825 206.633 187.854 207.848C187.919 211.381 187.61 214.911 186.932 218.379C185.648 224.468 183.697 230.396 181.115 236.057C180.317 237.832 179.391 239.546 178.346 241.187C177.128 243.153 176.018 245.185 175.021 247.272C173.289 250.631 171.305 253.853 169.084 256.91C168.527 257.707 167.894 258.456 167.38 259.285C166.633 260.43 166.67 260.863 167.651 261.854C171.398 265.858 175.367 269.647 179.541 273.203C181.519 274.827 183.206 276.755 185.021 278.546C187.287 280.775 189.421 283.058 191.589 285.413C193.902 288.088 196.054 290.898 198.034 293.828C199.178 295.394 200.197 297.067 201.354 298.632C205.424 304.127 208.53 310.275 210.538 316.811C211.118 318.676 211.428 320.615 211.459 322.568C211.535 323.424 211.323 324.281 210.858 325.003C210.394 325.726 209.702 326.274 208.891 326.56C207.451 327.227 205.901 327.626 204.318 327.737C200.289 327.98 196.246 327.851 192.241 327.353C188.259 326.786 184.334 325.87 180.512 324.617C178.663 323.98 176.827 323.341 174.961 322.77C171.257 321.534 167.668 319.977 164.234 318.119C161.953 316.947 159.648 315.836 157.353 314.697C157.027 314.536 156.701 314.375 156.359 314.236C156.2 314.143 156.019 314.096 155.835 314.099C155.651 314.101 155.472 314.153 155.315 314.25C155.159 314.346 155.032 314.484 154.948 314.647C154.863 314.81 154.824 314.993 154.836 315.176C154.855 316.521 154.947 317.865 155.112 319.2C155.788 324.278 156.052 329.402 155.9 334.522C155.932 340.984 155.217 347.427 153.769 353.723C152.755 357.743 151.938 361.813 150.89 365.817C150.222 368.412 149.387 370.961 148.39 373.447C147.733 375.285 146.765 376.996 145.529 378.506C144.153 380.157 142.337 381.382 140.291 382.04C138.245 382.698 136.054 382.761 133.973 382.222C133.015 382.015 132.088 381.68 131.22 381.225C127.957 379.535 125.107 377.145 122.875 374.227C122.085 373.146 121.443 371.964 120.969 370.713C118.481 364.488 116.31 358.141 114.465 351.697C113.757 349.241 113.288 346.71 112.765 344.205C111.161 336.574 109.538 328.939 108.027 321.289C107.594 318.519 106.969 315.784 106.154 313.102C105.841 312.208 105.481 312.033 104.486 312.346C103.55 312.577 102.639 312.899 101.765 313.308C97.8208 315.51 93.4233 316.721 89.4005 318.761C88.7505 319.102 88.0557 319.351 87.3365 319.499C83.0418 320.329 78.7351 321.116 74.4246 321.922C74.0621 321.977 73.696 322.003 73.3294 322.001C69.6876 322.079 66.0444 321.932 62.4206 321.56C59.3975 321.18 56.4451 320.365 53.6555 319.139C49.2908 317.284 44.8456 315.592 40.4499 313.793C38.9799 313.189 37.5556 312.497 36.1514 311.764C35.6126 311.489 35.1527 311.08 34.8152 310.578C33.6717 308.834 33.0241 306.812 32.9417 304.729C32.8329 303.252 33.2626 301.786 34.1514 300.601C34.4503 300.213 34.7492 299.825 35.0426 299.444C36.6287 297.599 37.8026 295.437 38.4861 293.102C39.0878 291.11 40.0254 289.235 41.2585 287.559C41.5671 287.18 41.8439 286.777 42.0862 286.353C43.5994 283.19 46.0669 280.818 48.687 278.642C55.9824 272.53 64.0974 267.469 72.7962 263.605C75.6885 262.333 78.5744 261.044 81.454 259.739C84.5868 258.382 87.5378 256.64 90.2388 254.553C93.6141 251.835 93.3572 251.423 90.5454 248.662C89.9093 248.088 89.2293 247.565 88.5117 247.096C83.3797 243.448 79.3464 238.724 75.5745 233.762C74.2178 231.892 73.0054 229.921 71.9479 227.867C70.1982 224.676 68.4523 221.465 66.8856 218.168C65.4244 215.216 64.4835 212.035 64.1045 208.764C63.9271 207.064 64.0164 205.346 64.3691 203.673C64.6622 202.044 65.3672 200.517 66.4172 199.238C67.4672 197.959 68.8272 196.97 70.3679 196.365C72.0585 195.659 73.8708 195.291 75.703 195.279C81.7341 195.133 87.624 197.123 92.3307 200.9C95.8038 203.518 99.3703 206.073 102.631 208.471ZM100.774 210.414L100.856 210.308C97.7629 207.927 94.7244 205.475 91.5773 203.164C87.0591 199.887 82.2011 197.563 76.4022 197.673C74.4502 197.673 72.5231 198.11 70.7617 198.95C69.8135 199.377 68.9788 200.021 68.325 200.83C67.6711 201.638 67.2162 202.589 66.997 203.606C66.4352 205.983 66.4015 208.455 66.8981 210.848C67.483 213.838 68.4502 216.74 69.7761 219.483C72.6916 225.658 76.3208 231.471 80.5893 236.803C82.6933 239.481 85.1597 241.853 87.9176 243.851C89.9517 245.205 91.8229 246.79 93.4942 248.572C94.0631 249.381 94.9205 249.941 95.8897 250.136C96.1363 250.14 96.3742 250.228 96.5636 250.386C96.753 250.544 96.8825 250.763 96.9304 251.005C97.131 251.829 97.5451 252.586 98.1311 253.2C98.2354 253.351 98.3057 253.523 98.3369 253.703C98.3682 253.884 98.3597 254.07 98.312 254.247C98.2644 254.424 98.1787 254.589 98.061 254.73C97.9433 254.871 97.7964 254.984 97.6304 255.062C96.7692 255.523 95.8939 255.973 95.0072 256.336C89.9256 258.394 85.0457 260.917 80.4296 263.874C79.0066 264.801 77.5553 265.707 76.0552 266.531C71.6146 269.07 67.4191 272.015 63.5222 275.328C59.2062 278.873 54.8881 282.45 50.8844 286.394C47.3372 289.89 43.8889 293.463 40.611 297.223C37.6821 300.588 37.8244 305.779 41.4466 309.445C42.8227 310.844 44.4926 311.918 46.3353 312.591C49.5163 313.818 52.901 314.429 56.3093 314.392C60.2062 314.313 64.094 313.967 67.9838 313.736C69.9314 313.617 71.8769 313.53 73.8403 313.434C76.881 313.269 79.9352 313.305 82.945 312.902C88.6077 312.136 94.2394 311.133 99.888 310.21C100.918 310.07 101.902 309.697 102.766 309.119C103.63 308.541 104.35 307.775 104.873 306.877C105.47 305.897 106.282 305.938 106.877 306.846C107.314 307.424 107.657 308.068 107.894 308.753C108.49 310.988 109.043 313.235 109.505 315.513C110.476 320.285 111.361 325.081 112.308 329.869C112.772 332.261 113.26 334.637 113.761 337.025C114.369 339.741 115.033 342.501 115.53 345.244C115.912 347.405 116.452 349.535 117.148 351.616C118.226 354.852 119.267 358.097 120.271 361.35C121.281 364.853 122.604 368.258 124.225 371.523C126.213 375.213 129.499 378.035 133.446 379.444C134.121 379.731 134.84 379.904 135.571 379.956C139.055 380.121 142.092 379.289 144.025 376.033C145.677 373.321 146.971 370.408 147.877 367.364C149.338 362.34 150.564 357.258 151.643 352.131C153.863 341.246 154.154 330.055 152.503 319.068C152.207 316.893 152.099 314.696 152.181 312.503C152.165 312.258 152.206 312.013 152.301 311.787C152.397 311.562 152.544 311.362 152.732 311.204C152.919 311.046 153.141 310.934 153.38 310.878C153.618 310.822 153.867 310.823 154.105 310.881C154.83 310.963 155.537 311.159 156.201 311.461C159.37 313.013 162.493 314.654 165.664 316.218C167.706 317.312 169.81 318.286 171.965 319.137C177.587 321.127 183.21 323.13 189.122 324.231C194.053 325.072 199.064 325.347 204.057 325.052C204.92 325.038 205.777 324.908 206.605 324.665C207.448 324.455 208.18 323.932 208.65 323.202C209.121 322.471 209.295 321.589 209.136 320.734C209.043 319.762 208.87 318.798 208.622 317.853C207.254 312.911 205.15 308.203 202.381 303.886C200.2 300.509 197.867 297.229 195.512 293.977C191.94 289.034 188.245 284.176 183.581 280.169C183.108 279.804 182.776 279.257 182.342 278.855C179.465 276.224 176.934 273.229 173.657 271.043C172.626 270.383 171.71 269.56 170.944 268.606C169.289 266.489 167.302 264.655 165.059 263.175C163.246 261.892 162.997 260.564 164.364 258.863C167.938 254.226 171.089 249.278 173.779 244.079C174.993 241.831 176.43 239.701 177.528 237.399C178.989 234.319 180.34 231.177 181.518 227.981C183.427 223.102 184.635 217.977 185.108 212.759C185.272 210.933 185.328 209.099 185.276 207.267C185.099 203.523 183.311 202.033 180.109 201.94C178.154 201.892 176.203 202.132 174.319 202.652C171.139 203.512 168.124 204.895 165.398 206.744C161.759 209.191 158.338 211.954 154.363 213.873C153.936 214.111 153.536 214.395 153.171 214.72C149.809 217.347 146.423 219.934 143.107 222.619C140.126 224.941 137.41 227.585 135.01 230.504C133.182 232.631 131.243 234.662 129.202 236.587C129.104 236.703 128.98 236.795 128.84 236.853C128.7 236.912 128.548 236.936 128.397 236.923C128.246 236.91 128.1 236.861 127.971 236.78C127.843 236.698 127.736 236.588 127.66 236.456C126.474 234.323 125.036 232.341 123.377 230.551C120.331 227.407 117.127 224.411 113.967 221.371C112.565 220.022 111.196 218.63 109.679 217.417C106.761 214.968 103.729 212.712 100.735 210.406L100.774 210.414ZM56.5443 318.002C57.206 318.551 58.0153 318.893 58.8704 318.983C64.6549 319.885 70.4319 320.534 76.236 319.146C80.787 318.918 84.9776 317.143 89.3169 316.021C89.4341 315.983 89.5341 315.905 89.5995 315.8C89.6584 315.712 89.6808 315.604 89.662 315.5C89.6311 315.409 89.5436 315.274 89.46 315.266C89.105 315.204 88.7441 315.182 88.3843 315.202C78.0924 316.18 67.8032 317.228 57.4669 317.622C57.1942 317.625 56.9584 317.815 56.521 318.018L56.5443 318.002ZM43.1933 289.341C43.8034 289.147 44.0903 289.155 44.231 289.016C50.029 282.947 56.8394 278.017 62.966 272.325C63.0258 272.247 63.0188 272.096 63.0552 271.888C62.7016 271.953 62.3098 271.921 62.0708 272.085C57.8027 275.072 53.1768 277.603 49.4611 281.318C46.9633 283.657 44.835 286.362 43.1488 289.34L43.1933 289.341ZM37.272 307.49C36.9701 306.976 36.6855 306.498 36.3901 306.035C36.3407 305.997 36.1608 305.982 36.0782 306.031C35.9956 306.08 35.9587 306.186 35.9788 306.292C35.9658 306.574 36.0438 306.853 36.2013 307.087C36.3588 307.322 36.5875 307.5 36.8537 307.595C36.8819 307.617 36.9879 307.552 37.2275 307.489L37.272 307.49Z" fill="#5C5470" fill-opacity="0.6"/>
</g>
<g clip-path="url(#clip1_68_55)">
<path d="M257.027 232.234C257.839 232.893 258.568 233.487 259.311 234.072C259.842 234.467 260.333 234.914 260.777 235.405C260.881 235.523 260.998 235.63 261.124 235.725C261.982 236.419 262.755 237.211 263.427 238.086C263.547 238.232 263.675 238.372 263.81 238.505C263.857 238.546 263.919 238.568 263.982 238.567C264.045 238.566 264.105 238.541 264.151 238.498C264.558 238.021 264.973 237.543 265.372 237.059C265.878 236.454 266.453 235.911 267.086 235.44C267.988 234.757 268.863 234.04 269.765 233.358C270.114 233.093 270.508 232.889 270.879 232.647C271.562 232.197 272.249 231.725 272.922 231.287C273.736 230.748 274.631 230.343 275.573 230.087C276.184 229.922 276.821 229.884 277.447 229.975C277.78 230 278.097 230.128 278.355 230.34C278.613 230.553 278.798 230.84 278.886 231.162C278.988 231.46 279.044 231.772 279.052 232.087C279.069 233 278.989 233.913 278.814 234.81C278.475 236.377 277.964 237.902 277.291 239.357C277.086 239.817 276.848 240.261 276.577 240.686C276.261 241.193 275.973 241.717 275.717 242.257C275.271 243.126 274.758 243.958 274.183 244.746C274.03 244.945 273.864 245.16 273.721 245.346C273.528 245.639 273.539 245.753 273.784 246.001C274.753 247.035 275.78 248.015 276.858 248.935C277.38 249.337 277.801 249.852 278.275 250.316C278.863 250.888 279.418 251.486 279.969 252.088C280.567 252.778 281.123 253.503 281.634 254.26C281.933 254.668 282.194 255.1 282.492 255.5C283.544 256.921 284.347 258.511 284.865 260.201C285.014 260.687 285.093 261.191 285.098 261.698C285.117 261.919 285.062 262.141 284.941 262.327C284.82 262.513 284.641 262.654 284.431 262.727C284.06 262.9 283.661 263.003 283.253 263.032C282.213 263.096 281.169 263.065 280.134 262.937C279.108 262.792 278.096 262.556 277.111 262.231C276.632 262.066 276.155 261.897 275.674 261.75C274.718 261.433 273.791 261.033 272.904 260.553C272.313 260.25 271.717 259.962 271.127 259.666L270.867 259.551C270.655 259.467 270.464 259.577 270.477 259.791C270.48 260.138 270.502 260.485 270.542 260.829C270.719 262.141 270.789 263.464 270.752 264.787C270.764 266.461 270.585 268.132 270.215 269.765C269.952 270.801 269.742 271.852 269.471 272.889C269.298 273.558 269.084 274.217 268.831 274.86C268.657 275.334 268.407 275.775 268.088 276.166C267.64 276.68 267.032 277.028 266.362 277.154C265.692 277.28 264.999 277.177 264.395 276.861C263.554 276.424 262.82 275.807 262.245 275.054C262.04 274.776 261.874 274.47 261.751 274.147C261.108 272.538 260.547 270.898 260.068 269.233C259.893 268.604 259.75 267.934 259.63 267.301C259.217 265.329 258.793 263.362 258.409 261.378C258.294 260.662 258.132 259.954 257.924 259.259C257.842 259.031 257.751 258.987 257.493 259.065C257.247 259.123 257.008 259.206 256.78 259.314C255.755 259.875 254.623 260.197 253.586 260.722C253.417 260.808 253.237 260.871 253.052 260.911C251.944 261.125 250.831 261.329 249.718 261.533C249.624 261.549 249.529 261.557 249.434 261.559C248.491 261.575 247.549 261.536 246.611 261.44C245.83 261.34 245.067 261.128 244.346 260.81C243.219 260.331 242.071 259.895 240.933 259.428C240.556 259.276 240.186 259.097 239.819 258.906C239.68 258.834 239.563 258.727 239.477 258.597C239.182 258.147 239.014 257.625 238.99 257.088C238.96 256.703 239.074 256.321 239.308 256.015C239.385 255.916 239.461 255.817 239.538 255.717C239.949 255.239 240.254 254.679 240.434 254.074C240.588 253.561 240.829 253.078 241.145 252.645C241.23 252.553 241.306 252.453 241.374 252.347C241.79 251.57 242.371 250.892 243.075 250.362C244.96 248.783 247.056 247.476 249.303 246.478C250.052 246.15 250.797 245.817 251.537 245.477C252.347 245.129 253.109 244.68 253.806 244.141C254.679 243.435 254.613 243.332 253.884 242.619C253.72 242.472 253.545 242.338 253.362 242.217C252.078 241.245 250.949 240.084 250.013 238.774C249.664 238.292 249.352 237.785 249.078 237.257C248.623 236.426 248.173 235.598 247.772 234.749C247.394 233.987 247.15 233.166 247.049 232.321C247.005 231.881 247.027 231.436 247.116 231.002C247.194 230.581 247.377 230.188 247.649 229.857C247.92 229.527 248.271 229.271 248.669 229.114C249.103 228.937 249.566 228.847 250.035 228.847C251.593 228.808 253.115 229.322 254.331 230.297C255.271 230.961 256.194 231.62 257.027 232.234Z" fill="#5C5470" fill-opacity="0.6"/>
<path d="M247.753 211.379C249.589 212.866 251.249 214.229 252.93 215.557C254.139 216.449 255.256 217.459 256.265 218.573C256.496 218.837 256.753 219.077 257.032 219.289C258.983 220.86 260.741 222.655 262.269 224.639C262.54 224.973 262.834 225.285 263.131 225.593C263.241 225.685 263.382 225.733 263.525 225.728C263.669 225.723 263.806 225.666 263.909 225.566C264.837 224.482 265.773 223.403 266.676 222.299C267.828 220.932 269.135 219.703 270.571 218.636C272.614 217.079 274.603 215.455 276.655 213.904C277.445 213.306 278.338 212.848 279.172 212.296C280.726 211.279 282.268 210.245 283.809 209.211C285.656 207.988 287.688 207.067 289.826 206.484C291.211 206.107 292.66 206.022 294.08 206.234C294.835 206.288 295.555 206.576 296.14 207.057C296.725 207.539 297.147 208.189 297.346 208.92C297.571 209.596 297.695 210.302 297.712 211.014C297.75 213.085 297.569 215.155 297.171 217.188C296.418 220.757 295.275 224.232 293.761 227.551C293.293 228.591 292.751 229.596 292.138 230.558C291.424 231.71 290.773 232.901 290.189 234.125C289.174 236.094 288.01 237.982 286.709 239.775C286.382 240.241 286.011 240.681 285.709 241.167C285.272 241.838 285.294 242.092 285.868 242.673C288.065 245.02 290.392 247.241 292.839 249.325C293.998 250.277 294.987 251.408 296.051 252.458C297.379 253.764 298.63 255.103 299.901 256.483C301.257 258.051 302.519 259.698 303.679 261.416C304.35 262.334 304.947 263.315 305.625 264.232C308.011 267.453 309.832 271.057 311.009 274.889C311.349 275.982 311.531 277.119 311.549 278.263C311.593 278.765 311.469 279.268 311.197 279.691C310.924 280.115 310.519 280.436 310.044 280.604C309.199 280.995 308.291 281.229 307.363 281.294C305.001 281.436 302.631 281.361 300.283 281.068C297.949 280.736 295.648 280.199 293.408 279.464C292.324 279.091 291.247 278.717 290.153 278.382C287.982 277.657 285.878 276.745 283.866 275.655C282.528 274.969 281.177 274.317 279.832 273.65C279.641 273.555 279.45 273.461 279.249 273.379C279.156 273.325 279.05 273.297 278.942 273.299C278.834 273.3 278.729 273.331 278.637 273.387C278.546 273.444 278.471 273.524 278.422 273.62C278.372 273.716 278.349 273.823 278.356 273.93C278.368 274.719 278.422 275.506 278.518 276.289C278.915 279.266 279.069 282.27 278.98 285.271C278.999 289.059 278.579 292.836 277.731 296.527C277.136 298.883 276.657 301.269 276.043 303.616C275.652 305.137 275.162 306.631 274.577 308.089C274.192 309.166 273.625 310.17 272.9 311.055C272.094 312.022 271.029 312.741 269.83 313.126C268.631 313.512 267.346 313.549 266.126 313.233C265.564 313.112 265.021 312.915 264.512 312.649C262.6 311.658 260.929 310.257 259.62 308.546C259.157 307.913 258.781 307.22 258.503 306.486C257.045 302.837 255.772 299.117 254.69 295.339C254.276 293.9 254.001 292.416 253.694 290.947C252.754 286.474 251.802 281.998 250.917 277.514C250.663 275.89 250.296 274.287 249.819 272.714C249.635 272.191 249.424 272.088 248.841 272.271C248.292 272.407 247.758 272.596 247.246 272.835C244.934 274.126 242.356 274.836 239.998 276.032C239.617 276.232 239.209 276.377 238.788 276.464C236.27 276.951 233.746 277.412 231.219 277.885C231.006 277.917 230.792 277.932 230.577 277.931C228.442 277.977 226.306 277.89 224.182 277.673C222.41 277.45 220.679 276.972 219.044 276.253C216.485 275.166 213.879 274.174 211.303 273.119C210.441 272.766 209.606 272.36 208.783 271.93C208.467 271.769 208.197 271.529 208 271.235C207.329 270.213 206.95 269.027 206.901 267.806C206.838 266.94 207.089 266.081 207.61 265.387C207.786 265.159 207.961 264.931 208.133 264.708C209.063 263.627 209.751 262.359 210.151 260.991C210.504 259.823 211.054 258.724 211.777 257.741C211.958 257.519 212.12 257.283 212.262 257.034C213.149 255.18 214.595 253.789 216.131 252.514C220.408 248.931 225.165 245.964 230.264 243.699C231.96 242.953 233.651 242.198 235.339 241.433C237.176 240.638 238.906 239.616 240.489 238.393C242.468 236.799 242.317 236.558 240.669 234.94C240.296 234.603 239.897 234.296 239.477 234.022C236.468 231.883 234.104 229.114 231.893 226.205C231.098 225.109 230.387 223.953 229.767 222.749C228.741 220.879 227.718 218.997 226.799 217.064C225.943 215.334 225.391 213.469 225.169 211.551C225.065 210.554 225.117 209.547 225.324 208.567C225.496 207.612 225.909 206.717 226.525 205.967C227.14 205.217 227.938 204.637 228.841 204.283C229.832 203.869 230.894 203.653 231.968 203.646C235.504 203.56 238.956 204.727 241.715 206.941C243.751 208.476 245.842 209.974 247.753 211.379ZM246.665 212.518L246.713 212.456C244.9 211.06 243.119 209.623 241.274 208.268C238.625 206.347 235.777 204.985 232.378 205.049C231.234 205.05 230.104 205.305 229.072 205.798C228.516 206.049 228.026 206.426 227.643 206.9C227.26 207.374 226.993 207.931 226.865 208.527C226.535 209.921 226.516 211.37 226.807 212.773C227.15 214.525 227.717 216.227 228.494 217.835C230.203 221.455 232.33 224.862 234.833 227.988C236.066 229.557 237.512 230.948 239.128 232.119C240.321 232.913 241.418 233.842 242.397 234.887C242.731 235.361 243.234 235.689 243.802 235.803C243.946 235.806 244.086 235.858 244.197 235.95C244.308 236.043 244.384 236.171 244.412 236.313C244.529 236.796 244.772 237.24 245.116 237.599C245.177 237.688 245.218 237.789 245.236 237.895C245.255 238.001 245.25 238.11 245.222 238.213C245.194 238.317 245.144 238.414 245.075 238.496C245.006 238.579 244.919 238.646 244.822 238.691C244.317 238.962 243.804 239.226 243.284 239.438C240.306 240.644 237.445 242.123 234.739 243.857C233.905 244.4 233.054 244.932 232.175 245.414C229.572 246.903 227.112 248.629 224.828 250.571C222.298 252.649 219.766 254.746 217.419 257.058C215.34 259.108 213.319 261.202 211.397 263.406C209.68 265.379 209.764 268.422 211.887 270.571C212.694 271.391 213.673 272.021 214.753 272.415C216.617 273.134 218.601 273.492 220.6 273.471C222.884 273.424 225.163 273.222 227.443 273.086C228.585 273.017 229.725 272.966 230.876 272.909C232.659 272.812 234.449 272.834 236.213 272.597C239.533 272.148 242.834 271.56 246.146 271.019C246.749 270.937 247.326 270.718 247.832 270.38C248.339 270.041 248.761 269.592 249.068 269.065C249.418 268.491 249.894 268.515 250.242 269.047C250.498 269.386 250.7 269.764 250.839 270.165C251.188 271.475 251.512 272.793 251.783 274.128C252.352 276.925 252.871 279.737 253.426 282.543C253.698 283.946 253.984 285.339 254.278 286.738C254.634 288.33 255.024 289.948 255.315 291.557C255.539 292.823 255.855 294.072 256.263 295.292C256.895 297.188 257.505 299.091 258.094 300.998C258.686 303.051 259.462 305.047 260.412 306.961C261.577 309.124 263.503 310.779 265.817 311.604C266.213 311.773 266.634 311.874 267.063 311.905C269.106 312.001 270.886 311.513 272.019 309.605C272.987 308.015 273.746 306.307 274.277 304.523C275.134 301.578 275.852 298.599 276.485 295.594C277.786 289.213 277.956 282.653 276.988 276.212C276.815 274.937 276.752 273.649 276.8 272.363C276.79 272.22 276.814 272.076 276.87 271.944C276.926 271.812 277.013 271.694 277.123 271.602C277.232 271.509 277.363 271.444 277.502 271.411C277.642 271.378 277.788 271.379 277.928 271.413C278.353 271.461 278.767 271.575 279.156 271.752C281.014 272.662 282.845 273.624 284.704 274.541C285.901 275.182 287.134 275.754 288.398 276.252C291.693 277.419 294.989 278.593 298.455 279.238C301.345 279.731 304.283 279.893 307.21 279.72C307.716 279.712 308.218 279.635 308.703 279.493C309.198 279.37 309.627 279.063 309.902 278.635C310.178 278.207 310.28 277.69 310.187 277.189C310.132 276.618 310.031 276.054 309.886 275.5C309.084 272.603 307.851 269.842 306.227 267.312C304.949 265.333 303.581 263.41 302.201 261.503C300.107 258.605 297.941 255.758 295.207 253.409C294.929 253.195 294.735 252.874 294.481 252.639C292.794 251.096 291.31 249.341 289.389 248.059C288.785 247.673 288.248 247.19 287.799 246.631C286.829 245.39 285.664 244.315 284.349 243.447C283.286 242.695 283.14 241.917 283.942 240.919C286.036 238.201 287.884 235.301 289.461 232.253C290.172 230.935 291.015 229.687 291.659 228.337C292.515 226.532 293.307 224.69 293.997 222.816C295.116 219.956 295.825 216.952 296.102 213.893C296.198 212.823 296.231 211.748 296.2 210.674C296.097 208.479 295.048 207.605 293.171 207.551C292.026 207.522 290.882 207.663 289.777 207.968C287.913 208.473 286.146 209.283 284.548 210.367C282.414 211.802 280.409 213.421 278.079 214.546C277.829 214.685 277.594 214.852 277.38 215.042C275.41 216.583 273.425 218.099 271.481 219.673C269.733 221.034 268.141 222.584 266.734 224.295C265.662 225.542 264.526 226.733 263.329 227.861C263.272 227.929 263.2 227.983 263.118 228.017C263.035 228.051 262.946 228.065 262.858 228.058C262.769 228.05 262.683 228.022 262.608 227.974C262.533 227.926 262.47 227.861 262.425 227.785C261.73 226.534 260.888 225.372 259.915 224.323C258.13 222.48 256.251 220.724 254.399 218.942C253.577 218.151 252.774 217.335 251.885 216.623C250.175 215.188 248.397 213.865 246.642 212.514L246.665 212.518ZM220.737 275.587C221.125 275.909 221.6 276.109 222.101 276.162C225.492 276.691 228.878 277.071 232.281 276.258C234.948 276.124 237.405 275.083 239.949 274.426C240.017 274.403 240.076 274.358 240.114 274.296C240.149 274.245 240.162 274.181 240.151 274.12C240.133 274.067 240.082 273.988 240.033 273.983C239.824 273.947 239.613 273.934 239.402 273.945C233.369 274.519 227.337 275.133 221.278 275.364C221.118 275.366 220.98 275.477 220.724 275.596L220.737 275.587ZM212.911 258.786C213.268 258.672 213.437 258.677 213.519 258.595C216.918 255.037 220.91 252.148 224.502 248.811C224.537 248.765 224.533 248.677 224.554 248.555C224.347 248.593 224.117 248.574 223.977 248.67C221.475 250.421 218.763 251.905 216.585 254.083C215.121 255.454 213.873 257.04 212.885 258.785L212.911 258.786ZM209.44 269.425C209.263 269.124 209.096 268.844 208.923 268.572C208.894 268.549 208.788 268.541 208.74 268.569C208.692 268.598 208.67 268.66 208.682 268.722C208.674 268.888 208.72 269.051 208.812 269.189C208.904 269.326 209.038 269.431 209.195 269.486C209.211 269.499 209.273 269.461 209.414 269.424L209.44 269.425Z" fill="#5C5470" fill-opacity="0.6"/>
</g>
<g clip-path="url(#clip2_68_55)">
<path d="M1854.85 73.4516C1855.08 74.3606 1855.54 75.197 1856.19 75.8831C1859.2 79.8931 1861.88 84.1342 1864.22 88.566C1865.21 90.5063 1866.02 92.5309 1866.65 94.6156C1867.18 96.4686 1867.3 98.4149 1866.99 100.317C1866.68 102.22 1865.96 104.032 1864.86 105.626C1864.11 106.825 1863.02 107.778 1861.72 108.368C1857.17 110.664 1853.28 110.664 1848.65 106.423C1847.16 105.023 1845.96 103.33 1844.59 101.794C1844.47 101.657 1844.11 101.677 1843.88 101.696C1843.64 101.716 1843.7 101.891 1843.7 102.007C1843.65 102.382 1843.65 102.761 1843.7 103.136C1844.21 106.696 1844.08 110.317 1843.33 113.834C1842.94 116.513 1841.82 119.036 1840.09 121.129C1839.22 122.246 1838.13 123.169 1836.88 123.839C1835.62 124.509 1834.25 124.912 1832.83 125.019C1831.8 125.142 1830.75 125.007 1829.79 124.627C1828.83 124.246 1827.97 123.632 1827.31 122.841C1826.05 121.38 1825.07 119.698 1824.43 117.88C1823.5 115.079 1822.6 112.278 1821.7 109.477C1821.57 109.113 1821.43 108.756 1821.27 108.407C1821.27 108.31 1821.07 108.271 1820.97 108.193C1820.92 108.152 1820.86 108.123 1820.8 108.109C1820.74 108.095 1820.67 108.097 1820.61 108.115C1820.55 108.132 1820.49 108.164 1820.44 108.208C1820.4 108.253 1820.36 108.308 1820.34 108.368C1819.46 110.216 1818.61 112.084 1817.71 113.912C1815.95 117.631 1813.24 120.834 1809.86 123.21C1808.61 124.014 1807.2 124.545 1805.73 124.766C1804.26 124.988 1802.75 124.895 1801.32 124.494C1800.38 124.209 1799.52 123.735 1798.77 123.102C1798.03 122.469 1797.43 121.692 1797 120.818C1795.2 117.986 1794.23 114.712 1794.19 111.364C1794.32 109.198 1794.61 107.045 1795.08 104.925C1795.24 104.05 1795.51 103.194 1795.75 102.319C1795.84 101.969 1796.06 101.541 1795.75 101.268C1795.59 101.163 1795.4 101.117 1795.21 101.138C1795.03 101.16 1794.85 101.247 1794.72 101.385C1793.39 102.408 1791.93 103.245 1790.37 103.875C1789.23 104.497 1787.94 104.793 1786.64 104.731C1785.33 104.74 1784.01 104.668 1782.71 104.517C1780.44 104.233 1778.36 103.125 1776.87 101.407C1775.38 99.6889 1774.59 97.4836 1774.64 95.2187C1774.65 94.5818 1774.85 93.9621 1775.23 93.4485C1775.78 92.6009 1776.44 91.8291 1777.19 91.1531C1779.77 89.0329 1782.38 86.932 1785.05 84.9284C1786.19 84.1553 1787.39 83.4537 1788.62 82.8276C1788.56 82.4315 1788.39 82.0593 1788.13 81.7532C1787.87 81.4472 1787.53 81.2196 1787.15 81.0963C1785.5 80.3433 1784 79.2873 1782.75 77.984C1780.47 75.9026 1778.22 73.8018 1776.08 71.5842C1772.15 67.5381 1768.22 63.3948 1764.3 59.3099C1762.99 57.8946 1761.92 56.2867 1761.12 54.544C1760.99 54.3185 1760.91 54.0702 1760.88 53.8133C1760.85 53.5565 1760.87 53.2964 1760.95 53.0483C1761.02 52.8002 1761.14 52.569 1761.31 52.3683C1761.47 52.1675 1761.67 52.0012 1761.9 51.8791C1762.57 51.4896 1763.27 51.1763 1764 50.9454C1767.33 49.8322 1770.93 49.7441 1774.31 50.6925C1775.06 50.9001 1775.82 51.0689 1776.59 51.1983C1776.74 51.1983 1776.98 50.9843 1777.14 50.8287C1777.17 50.7761 1777.19 50.7155 1777.19 50.6536C1777.19 50.5917 1777.17 50.531 1777.14 50.4785C1776.29 49.1947 1775.45 47.8914 1774.54 46.5881C1773.19 44.6429 1771.72 42.9311 1770.38 41.0637C1767.77 37.554 1765.6 33.7465 1763.91 29.723C1763.46 28.5244 1763.11 27.2958 1762.85 26.0465C1762.56 24.2551 1762.99 22.4229 1764.06 20.9501C1764.42 20.4239 1764.91 19.9958 1765.48 19.7051C1766.71 18.9893 1768.08 18.5381 1769.5 18.3806C1770.92 18.2231 1772.36 18.3629 1773.72 18.7909C1776.23 19.4415 1778.55 20.6377 1780.53 22.2923C1781.42 23.0315 1782.36 23.7123 1783.3 24.3737C1783.41 24.4259 1783.54 24.453 1783.66 24.453C1783.79 24.453 1783.91 24.4259 1784.03 24.3737C1784.12 24.3025 1784.21 24.2122 1784.27 24.1085C1784.33 24.0048 1784.37 23.8898 1784.38 23.7706C1784.46 23.392 1784.46 23.0016 1784.38 22.623C1783.52 19.4032 1783.26 16.0538 1783.61 12.7412C1783.73 10.796 1783.61 8.85079 1783.61 6.90557C1783.7 5.55738 1784.14 4.25623 1784.91 3.13987C1785.68 2.02352 1786.74 1.13354 1787.97 0.564153C1788.42 0.306352 1788.93 0.170632 1789.45 0.170632C1789.97 0.170632 1790.49 0.306352 1790.94 0.564153C1792 0.999948 1792.96 1.66416 1793.74 2.50937C1797.36 7.17791 1801.05 11.7881 1804.48 16.5928C1805.76 18.6686 1806.87 20.841 1807.8 23.0898C1807.91 23.3101 1808.06 23.5132 1808.23 23.6928C1808.34 23.7332 1808.46 23.7332 1808.56 23.6928C1808.68 23.6928 1808.84 23.6928 1808.86 23.5178C1808.99 23.0251 1809.1 22.525 1809.17 22.02C1809.78 16.6647 1811.16 11.4239 1813.28 6.45817C1814.07 4.54552 1815.31 2.85051 1816.91 1.51729C1817.94 0.622566 1819.21 0.0376681 1820.56 -0.169016C1821.92 -0.3757 1823.31 -0.19561 1824.56 0.350177C1825.38 0.727085 1826.11 1.26735 1826.7 1.93693C1827.3 2.60651 1827.74 3.39089 1828.02 4.24062C1829.74 8.53682 1830.69 13.0994 1830.82 17.721C1830.82 18.538 1830.39 19.6662 1831.57 19.9969C1832.36 20.172 1832.91 19.3355 1833.4 18.752C1835.05 16.6342 1836.94 14.7091 1839.03 13.0136C1840.62 11.702 1842.5 10.7702 1844.51 10.2903C1845.63 10.0179 1846.76 9.74558 1847.9 9.57051C1848.22 9.48875 1848.55 9.46975 1848.87 9.51459C1849.19 9.55943 1849.51 9.66725 1849.79 9.8318C1850.07 9.99635 1850.31 10.2144 1850.51 10.4734C1850.7 10.7323 1850.85 11.0271 1850.93 11.3407C1851.57 12.8919 1851.82 14.5744 1851.65 16.2426C1851.47 19.8406 1850.35 23.3312 1848.41 26.3772C1847.58 27.3482 1846.91 28.4533 1846.45 29.6452C1846.73 29.7619 1846.98 29.9759 1847.16 29.9176C1848.15 29.6674 1849.13 29.3489 1850.08 28.9644C1852.43 27.8968 1854.86 27.0186 1857.35 26.3383C1858.85 25.9552 1860.39 25.7528 1861.94 25.7353H1867.38C1868.93 25.7525 1870.47 26.1112 1871.87 26.7857C1872.46 27.0461 1872.99 27.4432 1873.39 27.9441C1873.8 28.4449 1874.08 29.0349 1874.21 29.6647C1874.47 30.6442 1874.52 31.6647 1874.38 32.6666C1874.23 33.6685 1873.89 34.6318 1873.36 35.5003C1871.89 37.9193 1870.03 40.0815 1867.85 41.9001C1865.57 43.7921 1863.09 45.4295 1860.45 46.7826C1859.64 47.1847 1858.85 47.6329 1858.09 48.1248C1857.82 48.2805 1857.9 48.9418 1858.21 49.0974C1858.66 49.3282 1859.12 49.5233 1859.6 49.681C1861.37 50.1089 1863.16 50.4397 1864.88 50.926C1871.15 52.7682 1876.44 56.9541 1879.65 62.5973C1879.98 63.1414 1880.25 63.7224 1880.45 64.3285C1880.8 65.1642 1880.91 66.076 1880.79 66.9712C1880.67 67.8664 1880.31 68.713 1879.74 69.425C1878.18 71.5618 1876.06 73.2455 1873.62 74.3021C1871.18 75.3587 1868.49 75.7501 1865.85 75.4358C1862.75 75.1783 1859.7 74.4636 1856.82 73.3154C1856.17 73.1011 1855.46 73.1501 1854.85 73.4516ZM1811.51 28.4781C1811.65 30.2482 1811.86 32.0378 1811.94 33.8274C1811.96 34.408 1811.75 34.9734 1811.37 35.4151C1810.99 35.8568 1810.46 36.1434 1809.88 36.2201C1808.82 36.3173 1807.33 35.4031 1807.31 34.2748C1806.96 31.4682 1806.31 28.7083 1805.34 26.0465C1804.94 23.7798 1804.22 21.5798 1803.21 19.5106C1800.03 14.5221 1796.58 9.71613 1792.86 5.11597C1792.12 4.0475 1791.07 3.2372 1789.84 2.80115C1789.48 2.65461 1789.08 2.61704 1788.7 2.69322C1788.32 2.76941 1787.97 2.95592 1787.7 3.2291C1787.04 3.8574 1786.53 4.61526 1786.19 5.45321C1785.85 6.29116 1785.7 7.19037 1785.73 8.09215C1785.73 10.0374 1785.73 11.9826 1785.73 13.9278C1785.85 20.6216 1787.66 27.1791 1791.01 32.991C1792.21 35.2475 1793.59 37.4261 1794.78 39.6826C1795.98 41.939 1796.84 43.8064 1797.77 45.9267C1797.8 46.1744 1797.79 46.4267 1797.72 46.6678C1797.65 46.9089 1797.53 47.1334 1797.37 47.3273C1797.19 47.5092 1796.97 47.6381 1796.72 47.6999C1796.47 47.7617 1796.21 47.7539 1795.96 47.6774C1795.71 47.635 1795.47 47.5264 1795.27 47.3624C1795.07 47.1984 1794.91 46.985 1794.82 46.7437C1793.33 43.9037 1791.76 41.122 1790.41 38.2237C1787.96 32.6818 1784.1 27.868 1779.2 24.2569C1777.33 22.887 1775.26 21.7988 1773.07 21.0279C1771.72 20.5599 1770.27 20.4657 1768.87 20.7555C1768.26 20.8499 1767.68 21.0694 1767.17 21.3997C1766.65 21.7301 1766.21 22.164 1765.87 22.6736C1765.54 23.1831 1765.31 23.7569 1765.21 24.358C1765.11 24.9591 1765.14 25.5741 1765.3 26.1633C1765.77 27.8888 1766.38 29.5737 1767.12 31.2014C1768.63 34.4713 1770.52 37.5532 1772.76 40.3828C1775.05 43.4563 1777.4 46.5038 1779.81 49.5254C1780.7 50.6257 1781.69 51.6416 1782.77 52.5599C1784.62 54.155 1786.56 55.6334 1788.46 57.1701C1788.87 57.4713 1789.24 57.8319 1789.54 58.24C1789.68 58.4581 1789.76 58.7111 1789.76 58.9694C1789.76 59.2277 1789.68 59.4807 1789.54 59.6989C1789.42 59.926 1789.24 60.1166 1789.02 60.2502C1788.8 60.3838 1788.55 60.4554 1788.29 60.4575C1787.64 60.4274 1787.01 60.2403 1786.46 59.9129C1785.42 59.1647 1784.43 58.3388 1783.52 57.4425C1782.02 56.0173 1780.23 54.9233 1778.27 54.2328C1777.31 53.8632 1776.31 53.6103 1775.37 53.2018C1772.69 52.1964 1769.79 51.9145 1766.97 52.3849C1766.2 52.4966 1765.46 52.7126 1764.75 53.0268C1764.55 53.0795 1764.37 53.1781 1764.22 53.3143C1764.06 53.4506 1763.95 53.6207 1763.87 53.8105C1763.8 54.0004 1763.78 54.2047 1763.8 54.4066C1763.82 54.6085 1763.89 54.8023 1764 54.972C1764.44 55.7548 1764.95 56.4914 1765.53 57.1701C1769.3 61.1967 1773.11 65.2039 1776.92 69.211C1778.16 70.5143 1779.43 71.7982 1780.85 72.9848C1781.71 73.724 1782.81 74.1908 1783.32 75.3385C1786.66 78.2174 1789.94 81.1742 1794.9 80.2988C1795.03 80.2794 1795.16 80.2794 1795.29 80.2988C1795.55 80.3231 1795.8 80.4258 1795.99 80.593C1796.19 80.7601 1796.33 80.9835 1796.39 81.2325C1796.47 81.4766 1796.47 81.7393 1796.38 81.9812C1796.3 82.2232 1796.14 82.4313 1795.92 82.5747C1795.52 82.881 1795.05 83.0877 1794.55 83.1777C1791.32 83.5366 1788.27 84.8212 1785.77 86.8736C1784.75 87.6712 1783.63 88.352 1782.65 89.169C1780.98 90.3735 1779.47 91.7856 1778.16 93.3707C1777.65 94.0382 1777.34 94.8296 1777.26 95.6593C1777.18 96.489 1777.32 97.3255 1777.69 98.0781C1778.18 99.2589 1778.98 100.283 1780.02 101.038C1781.06 101.793 1782.29 102.25 1783.57 102.358C1785.31 102.599 1787.08 102.44 1788.75 101.894C1790.41 101.347 1791.93 100.428 1793.17 99.2064C1795.18 97.3744 1796.84 95.2082 1798.08 92.8066C1798.77 91.5811 1799.49 90.3556 1800.26 89.1884C1800.55 88.7714 1800.92 88.4092 1801.34 88.1186C1801.63 87.9648 1801.95 87.9064 1802.28 87.9519C1802.6 87.9975 1802.9 88.1446 1803.13 88.3715C1803.28 88.5777 1803.36 88.8263 1803.36 89.0815C1803.36 89.3366 1803.28 89.5852 1803.13 89.7915C1802.34 91.2504 1801.42 92.651 1800.77 94.1877C1799.74 96.535 1798.85 98.938 1798.1 101.385C1797.09 104.296 1796.5 107.335 1796.35 110.411C1796.13 114.286 1797.4 118.101 1799.93 121.071C1800.43 121.657 1801.06 122.114 1801.78 122.403C1802.5 122.691 1803.28 122.801 1804.05 122.724C1805.15 122.676 1806.22 122.414 1807.21 121.953C1808.21 121.493 1809.1 120.842 1809.84 120.04C1814.11 115.753 1817.06 110.358 1818.36 104.478C1819.03 101.871 1819.48 99.2064 1820.05 96.5803C1820.14 96.0824 1820.31 95.6025 1820.56 95.1603C1820.71 94.9471 1820.91 94.7793 1821.15 94.6761C1821.39 94.573 1821.65 94.5385 1821.91 94.5768C1822.17 94.571 1822.43 94.6646 1822.62 94.8382C1822.81 95.0119 1822.93 95.2525 1822.95 95.5104C1823.06 96.2718 1823.06 97.0445 1822.95 97.8058C1822.46 100.584 1822.51 103.429 1823.09 106.19C1823.98 110.592 1825.41 114.871 1827.35 118.931C1827.74 119.746 1828.23 120.505 1828.82 121.187C1829.19 121.635 1829.65 122.002 1830.17 122.263C1830.69 122.524 1831.26 122.675 1831.85 122.705C1832.68 122.777 1833.53 122.678 1834.32 122.414C1835.12 122.149 1835.85 121.725 1836.48 121.168C1838.86 119.132 1840.38 116.286 1840.74 113.192C1841.62 108.246 1841.33 103.164 1839.87 98.3505C1839.24 95.8722 1838.42 93.4412 1837.44 91.0753C1836.77 89.7526 1837.05 88.8383 1837.91 88.3909C1838.78 87.9435 1839.64 88.3909 1840.25 89.7526C1840.74 90.6458 1841.15 91.5837 1841.46 92.5537C1841.93 94.0266 1842.64 95.4087 1843.58 96.6387C1845.25 99.0702 1847.12 101.366 1848.9 103.719C1849.9 104.902 1851.11 105.892 1852.48 106.637C1853.69 107.395 1855.1 107.793 1856.54 107.785C1858.02 107.649 1859.44 107.133 1860.65 106.286C1861.87 105.44 1862.84 104.294 1863.47 102.961C1864.65 100.219 1864.76 97.138 1863.76 94.3239C1863.41 93.5069 1863.18 92.6315 1862.84 91.8145C1860.15 85.8428 1856.61 80.2818 1852.34 75.2996C1850.33 72.7866 1848.04 70.5089 1845.51 68.5108C1845.11 68.1881 1844.73 67.8439 1844.37 67.4798C1844.06 67.1685 1843.98 66.3127 1844.37 66.0793C1844.65 65.827 1845.01 65.6821 1845.39 65.6707C1846.79 65.9434 1848.12 66.4782 1849.32 67.2463C1850.85 68.1606 1852.38 69.1916 1853.95 70.0086C1858.14 72.2998 1862.8 73.6293 1867.57 73.899C1868.34 73.9979 1869.12 73.9583 1869.87 73.7823C1872.53 73.1833 1874.94 71.7835 1876.76 69.7752C1878.51 67.5771 1878.72 66.4099 1877.49 63.9395C1876.15 61.5863 1874.36 59.5224 1872.21 57.8704C1867.67 53.9792 1861.87 51.8322 1855.87 51.8207C1853.16 51.7947 1850.46 51.9441 1847.77 52.2682C1847.11 52.3389 1846.46 52.3389 1845.8 52.2682C1845.41 52.2682 1844.98 51.5095 1845.02 51.101C1845.02 50.9091 1845.09 50.7241 1845.21 50.5735C1845.33 50.4229 1845.5 50.3146 1845.69 50.2646C1848.39 49.4281 1851.12 48.65 1853.85 47.8136C1855.08 47.4411 1856.28 46.9862 1857.44 46.4519C1860.35 45.0618 1863.1 43.3662 1865.65 41.3944C1868.01 39.5815 1869.95 37.2861 1871.34 34.6639C1871.7 34.1218 1871.93 33.5024 1872 32.8568C1872.08 32.2111 1871.99 31.5575 1871.76 30.9498C1871.53 30.3421 1871.15 29.7976 1870.67 29.3611C1870.18 28.9247 1869.6 28.6087 1868.97 28.4392C1868.37 28.2069 1867.74 28.0691 1867.1 28.0307C1865.3 28.0307 1863.47 27.914 1861.66 28.0307C1860.64 28.0557 1859.62 28.1994 1858.62 28.4586C1856.99 28.8477 1855.36 29.2756 1853.77 29.8008C1852.54 30.1723 1851.35 30.6676 1850.22 31.2792C1846 33.7302 1841.44 35.656 1837.83 39.0601C1837.73 39.1424 1837.62 39.2141 1837.5 39.2741C1837.28 39.4091 1837.02 39.4671 1836.76 39.4389C1836.5 39.4107 1836.25 39.298 1836.07 39.1184C1835.58 38.6905 1835.38 37.7762 1835.77 37.4066C1836.16 37.037 1836.91 36.3757 1837.5 35.8894C1841.89 32.287 1845.39 27.7353 1847.73 22.5841C1848.81 19.9629 1849.17 17.1022 1848.77 14.2974C1848.75 14.0402 1848.67 13.7902 1848.55 13.564C1848.42 13.3378 1848.25 13.1407 1848.04 12.986C1847.83 12.8312 1847.59 12.7224 1847.34 12.6668C1847.09 12.6112 1846.82 12.61 1846.57 12.6634C1843.31 12.9412 1840.28 14.4198 1838.07 16.8067C1834.62 20.2387 1831.72 24.1749 1829.47 28.4781C1828.88 29.6258 1828.23 30.7151 1827.51 31.8239C1827.23 32.2489 1826.9 32.6463 1826.55 33.0104C1826.28 33.2002 1825.97 33.3024 1825.64 33.3024C1825.32 33.3024 1825 33.2002 1824.74 33.0104C1824.53 32.8578 1824.38 32.6346 1824.31 32.3812C1824.25 32.1278 1824.29 31.861 1824.41 31.6293C1824.78 30.8318 1825.25 30.0537 1825.7 29.2951C1826.89 27.2925 1827.6 25.0527 1827.8 22.7397C1827.83 21.9778 1827.91 21.2182 1828.02 20.4638C1828.57 16.5344 1828.16 12.5317 1826.82 8.79244C1826.18 7.11548 1825.38 5.50061 1824.45 3.96829C1824.27 3.62319 1824.01 3.32372 1823.7 3.09399C1823.39 2.86425 1823.02 2.71064 1822.64 2.64553C1821.7 2.40131 1820.7 2.4114 1819.76 2.67473C1818.83 2.93806 1817.97 3.44507 1817.3 4.14335C1816.05 5.45615 1815.14 7.0426 1814.63 8.77296C1812.39 15.098 1811.33 21.7761 1811.51 28.4781Z" fill="#9D98A9"/>
<path d="M1834.26 64.951C1834.79 70.242 1831.89 73.7823 1827.08 76.1555C1826.39 76.5068 1825.67 76.7746 1824.92 76.953C1820.78 78.0639 1816.41 77.9421 1812.35 76.6028C1811.13 76.2013 1810.02 75.5369 1809.09 74.6576C1806.65 72.3558 1804.75 69.5366 1803.56 66.4099C1802.74 64.3881 1802.4 62.2054 1802.57 60.0324C1802.74 57.8593 1803.41 55.7546 1804.54 53.8826C1805.83 51.5169 1807.59 49.4351 1809.72 47.7634C1811.84 46.0916 1814.29 44.8646 1816.91 44.1565C1817.9 43.8906 1818.92 43.7212 1819.95 43.6508C1821.51 43.5624 1823.05 44.0785 1824.23 45.0903C1827.89 48.1488 1830.82 51.9674 1832.83 56.2753C1833.98 59.0159 1834.48 61.9877 1834.26 64.951ZM1819.09 75.319C1821.94 75.4324 1824.76 74.759 1827.25 73.3738C1828.4 72.7721 1829.4 71.9204 1830.16 70.8827C1830.93 69.845 1831.45 68.6483 1831.69 67.3825C1832.11 64.7203 1831.84 61.9948 1830.9 59.4654C1829.92 56.8199 1827.72 54.8553 1826.98 52.0931C1825.35 50.4785 1823.74 48.8251 1822.09 47.2106C1821.71 46.8641 1821.25 46.606 1820.76 46.4546C1820.26 46.3033 1819.74 46.2625 1819.22 46.3352C1817.02 46.4831 1814.89 47.2227 1813.08 48.4749C1810.46 50.1308 1808.32 52.4291 1806.86 55.147C1805.84 57.0053 1805.29 59.0818 1805.26 61.1969C1805.23 63.3119 1805.73 65.4017 1806.7 67.2853C1807.45 68.6326 1808.29 69.9319 1809.21 71.1757C1810.07 72.3831 1811.19 73.3818 1812.49 74.0963C1813.79 74.8107 1815.24 75.2222 1816.73 75.2996C1817.51 75.3461 1818.3 75.3526 1819.09 75.319Z" fill="#9D98A9"/>
</g>
<g clip-path="url(#clip3_68_55)">
<path d="M1832.75 215.492C1833.04 216.612 1833.6 217.643 1834.4 218.488C1838.11 223.428 1841.42 228.653 1844.3 234.113C1845.52 236.504 1846.53 238.998 1847.3 241.566C1847.96 243.849 1848.1 246.247 1847.72 248.591C1847.34 250.935 1846.45 253.167 1845.1 255.131C1844.17 256.608 1842.82 257.783 1841.22 258.51C1835.61 261.338 1830.81 261.338 1825.1 256.113C1823.26 254.388 1821.78 252.303 1820.09 250.41C1819.94 250.242 1819.51 250.266 1819.22 250.29C1818.93 250.314 1819 250.529 1819 250.673C1818.94 251.135 1818.94 251.602 1819 252.063C1819.62 256.45 1819.47 260.91 1818.54 265.244C1818.06 268.544 1816.68 271.652 1814.54 274.231C1813.47 275.607 1812.12 276.744 1810.58 277.57C1809.04 278.396 1807.34 278.891 1805.59 279.024C1804.32 279.175 1803.03 279.009 1801.84 278.54C1800.65 278.071 1799.6 277.315 1798.78 276.34C1797.22 274.541 1796.02 272.468 1795.22 270.229C1794.09 266.778 1792.97 263.327 1791.86 259.876C1791.71 259.427 1791.53 258.987 1791.33 258.558C1791.33 258.438 1791.08 258.39 1790.96 258.294C1790.9 258.243 1790.83 258.207 1790.75 258.19C1790.68 258.174 1790.59 258.176 1790.52 258.197C1790.44 258.219 1790.37 258.258 1790.31 258.313C1790.26 258.367 1790.21 258.435 1790.19 258.51C1789.1 260.787 1788.06 263.087 1786.94 265.34C1784.77 269.921 1781.43 273.867 1777.26 276.795C1775.72 277.786 1773.98 278.439 1772.17 278.712C1770.35 278.985 1768.5 278.871 1766.73 278.377C1765.57 278.025 1764.51 277.441 1763.59 276.662C1762.67 275.882 1761.93 274.924 1761.4 273.848C1759.18 270.358 1757.98 266.326 1757.94 262.2C1758.09 259.532 1758.45 256.879 1759.03 254.268C1759.22 253.19 1759.56 252.135 1759.85 251.057C1759.97 250.625 1760.24 250.098 1759.85 249.763C1759.66 249.633 1759.43 249.576 1759.2 249.602C1758.97 249.629 1758.75 249.737 1758.59 249.906C1756.95 251.166 1755.14 252.198 1753.22 252.974C1751.81 253.74 1750.22 254.105 1748.62 254.028C1747 254.039 1745.38 253.951 1743.78 253.765C1740.98 253.415 1738.41 252.05 1736.57 249.933C1734.74 247.817 1733.76 245.1 1733.83 242.309C1733.83 241.525 1734.08 240.761 1734.55 240.129C1735.23 239.084 1736.04 238.133 1736.97 237.301C1740.15 234.688 1743.37 232.1 1746.66 229.632C1748.07 228.679 1749.54 227.815 1751.06 227.044C1750.99 226.556 1750.79 226.097 1750.46 225.72C1750.14 225.343 1749.72 225.063 1749.25 224.911C1747.21 223.983 1745.37 222.682 1743.83 221.076C1741.02 218.512 1738.23 215.924 1735.59 213.192C1730.75 208.207 1725.91 203.102 1721.07 198.07C1719.46 196.326 1718.14 194.345 1717.15 192.198C1716.99 191.92 1716.89 191.614 1716.85 191.298C1716.82 190.982 1716.84 190.661 1716.93 190.356C1717.02 190.05 1717.17 189.765 1717.38 189.518C1717.58 189.27 1717.83 189.065 1718.11 188.915C1718.93 188.435 1719.8 188.049 1720.7 187.765C1724.81 186.393 1729.24 186.285 1733.41 187.453C1734.34 187.709 1735.28 187.917 1736.22 188.076C1736.42 188.076 1736.71 187.813 1736.9 187.621C1736.94 187.556 1736.96 187.481 1736.96 187.405C1736.96 187.329 1736.94 187.254 1736.9 187.19C1735.86 185.608 1734.82 184.002 1733.71 182.397C1732.03 180 1730.22 177.891 1728.57 175.59C1725.35 171.266 1722.67 166.576 1720.58 161.619C1720.04 160.142 1719.6 158.628 1719.28 157.089C1718.92 154.882 1719.46 152.625 1720.78 150.81C1721.22 150.162 1721.82 149.635 1722.52 149.277C1724.04 148.395 1725.73 147.839 1727.48 147.645C1729.24 147.451 1731.01 147.623 1732.69 148.15C1735.78 148.952 1738.65 150.426 1741.09 152.464C1742.18 153.375 1743.34 154.214 1744.5 155.028C1744.64 155.093 1744.8 155.126 1744.95 155.126C1745.11 155.126 1745.26 155.093 1745.4 155.028C1745.52 154.941 1745.62 154.829 1745.69 154.702C1745.77 154.574 1745.82 154.432 1745.83 154.285C1745.93 153.819 1745.93 153.338 1745.83 152.871C1744.77 148.905 1744.45 144.778 1744.89 140.697C1745.04 138.301 1744.89 135.904 1744.89 133.508C1744.99 131.847 1745.54 130.244 1746.49 128.868C1747.44 127.493 1748.74 126.397 1750.27 125.695C1750.82 125.377 1751.45 125.21 1752.09 125.21C1752.74 125.21 1753.37 125.377 1753.92 125.695C1755.24 126.232 1756.42 127.05 1757.38 128.092C1761.84 133.843 1766.39 139.523 1770.63 145.442C1772.2 148 1773.57 150.676 1774.72 153.447C1774.86 153.718 1775.04 153.968 1775.25 154.19C1775.38 154.239 1775.53 154.239 1775.66 154.19C1775.81 154.19 1776 154.19 1776.03 153.974C1776.19 153.367 1776.32 152.751 1776.41 152.129C1777.16 145.531 1778.87 139.074 1781.47 132.956C1782.45 130.6 1783.99 128.512 1785.95 126.869C1787.23 125.767 1788.79 125.046 1790.46 124.792C1792.13 124.537 1793.84 124.759 1795.39 125.431C1796.4 125.896 1797.3 126.561 1798.03 127.386C1798.77 128.211 1799.32 129.178 1799.66 130.224C1801.78 135.517 1802.95 141.138 1803.12 146.832C1803.12 147.839 1802.58 149.229 1804.04 149.636C1805.01 149.852 1805.68 148.821 1806.29 148.102C1808.33 145.493 1810.66 143.122 1813.24 141.033C1815.2 139.417 1817.51 138.269 1819.99 137.678C1821.37 137.342 1822.78 137.007 1824.18 136.791C1824.57 136.69 1824.98 136.667 1825.37 136.722C1825.77 136.777 1826.16 136.91 1826.5 137.113C1826.85 137.315 1827.15 137.584 1827.39 137.903C1827.64 138.222 1827.81 138.585 1827.91 138.972C1828.7 140.883 1829.01 142.956 1828.8 145.011C1828.58 149.444 1827.2 153.744 1824.81 157.497C1823.78 158.693 1822.96 160.055 1822.39 161.523C1822.73 161.667 1823.04 161.93 1823.26 161.858C1824.49 161.55 1825.69 161.158 1826.87 160.684C1829.76 159.369 1832.76 158.287 1835.83 157.449C1837.68 156.977 1839.58 156.727 1841.49 156.706H1848.2C1850.12 156.727 1852.01 157.169 1853.74 158C1854.47 158.321 1855.12 158.81 1855.62 159.427C1856.12 160.044 1856.46 160.771 1856.62 161.547C1856.94 162.754 1857.01 164.011 1856.83 165.245C1856.65 166.48 1856.23 167.666 1855.58 168.736C1853.77 171.717 1851.47 174.38 1848.78 176.621C1845.97 178.952 1842.91 180.969 1839.65 182.636C1838.65 183.132 1837.68 183.684 1836.75 184.29C1836.41 184.482 1836.5 185.296 1836.89 185.488C1837.44 185.772 1838.02 186.013 1838.61 186.207C1840.79 186.734 1842.99 187.142 1845.12 187.741C1852.85 190.01 1859.38 195.167 1863.33 202.12C1863.74 202.79 1864.08 203.506 1864.32 204.253C1864.75 205.282 1864.89 206.406 1864.74 207.509C1864.59 208.611 1864.14 209.654 1863.45 210.532C1861.52 213.164 1858.91 215.238 1855.9 216.54C1852.88 217.842 1849.57 218.324 1846.31 217.937C1842.49 217.62 1838.73 216.739 1835.17 215.325C1834.37 215.061 1833.5 215.121 1832.75 215.492ZM1779.29 160.085C1779.46 162.266 1779.73 164.471 1779.83 166.675C1779.84 167.391 1779.6 168.087 1779.13 168.631C1778.66 169.176 1778 169.529 1777.28 169.623C1775.98 169.743 1774.14 168.617 1774.11 167.227C1773.69 163.769 1772.88 160.369 1771.69 157.089C1771.2 154.297 1770.31 151.586 1769.05 149.037C1765.14 142.891 1760.88 136.97 1756.29 131.303C1755.39 129.987 1754.08 128.988 1752.57 128.451C1752.12 128.27 1751.63 128.224 1751.17 128.318C1750.7 128.412 1750.26 128.642 1749.93 128.978C1749.12 129.752 1748.49 130.686 1748.07 131.718C1747.65 132.751 1747.46 133.859 1747.51 134.97C1747.51 137.366 1747.51 139.763 1747.51 142.159C1747.64 150.406 1749.88 158.485 1754.02 165.645C1755.49 168.425 1757.19 171.109 1758.67 173.889C1760.14 176.669 1761.21 178.97 1762.35 181.582C1762.39 181.887 1762.37 182.198 1762.29 182.495C1762.2 182.792 1762.06 183.068 1761.86 183.307C1761.64 183.531 1761.36 183.69 1761.05 183.766C1760.74 183.842 1760.42 183.833 1760.12 183.739C1759.8 183.686 1759.51 183.552 1759.26 183.35C1759.01 183.148 1758.83 182.885 1758.71 182.588C1756.87 179.089 1754.94 175.662 1753.27 172.092C1750.25 165.264 1745.48 159.333 1739.44 154.885C1737.14 153.197 1734.59 151.856 1731.89 150.906C1730.23 150.33 1728.43 150.214 1726.71 150.571C1725.96 150.687 1725.24 150.957 1724.61 151.364C1723.97 151.771 1723.43 152.306 1723.01 152.934C1722.6 153.562 1722.32 154.269 1722.2 155.009C1722.07 155.75 1722.11 156.507 1722.3 157.233C1722.88 159.359 1723.63 161.435 1724.55 163.44C1726.41 167.469 1728.74 171.266 1731.5 174.752C1734.33 178.538 1737.22 182.293 1740.19 186.015C1741.29 187.371 1742.52 188.622 1743.85 189.754C1746.13 191.719 1748.52 193.54 1750.87 195.434C1751.38 195.805 1751.83 196.249 1752.2 196.752C1752.37 197.02 1752.47 197.332 1752.47 197.65C1752.47 197.969 1752.37 198.28 1752.2 198.549C1752.05 198.829 1751.83 199.064 1751.56 199.228C1751.29 199.393 1750.97 199.481 1750.65 199.484C1749.86 199.447 1749.08 199.216 1748.4 198.813C1747.11 197.891 1745.9 196.873 1744.77 195.769C1742.92 194.013 1740.72 192.666 1738.31 191.815C1737.12 191.359 1735.88 191.048 1734.72 190.545C1731.42 189.306 1727.84 188.959 1724.36 189.538C1723.42 189.676 1722.49 189.942 1721.62 190.329C1721.38 190.394 1721.15 190.515 1720.97 190.683C1720.78 190.851 1720.64 191.061 1720.55 191.295C1720.46 191.529 1720.42 191.78 1720.45 192.029C1720.48 192.278 1720.57 192.516 1720.7 192.725C1721.24 193.69 1721.87 194.597 1722.59 195.434C1727.24 200.394 1731.94 205.331 1736.63 210.268C1738.16 211.874 1739.73 213.455 1741.48 214.917C1742.54 215.828 1743.9 216.403 1744.53 217.817C1748.64 221.364 1752.69 225.007 1758.81 223.928C1758.97 223.904 1759.14 223.904 1759.3 223.928C1759.61 223.958 1759.92 224.085 1760.16 224.291C1760.4 224.496 1760.57 224.772 1760.65 225.078C1760.75 225.379 1760.74 225.703 1760.64 226.001C1760.53 226.299 1760.33 226.555 1760.07 226.732C1759.57 227.109 1758.99 227.364 1758.38 227.475C1754.4 227.917 1750.64 229.5 1747.55 232.028C1746.29 233.011 1744.91 233.85 1743.7 234.856C1741.64 236.34 1739.78 238.08 1738.16 240.033C1737.54 240.855 1737.16 241.83 1737.05 242.852C1736.95 243.875 1737.13 244.905 1737.58 245.832C1738.18 247.287 1739.18 248.549 1740.46 249.479C1741.74 250.409 1743.26 250.972 1744.84 251.105C1746.98 251.402 1749.17 251.207 1751.22 250.533C1753.27 249.86 1755.14 248.727 1756.68 247.222C1759.15 244.965 1761.2 242.296 1762.73 239.338C1763.58 237.828 1764.48 236.318 1765.42 234.88C1765.78 234.366 1766.23 233.92 1766.75 233.562C1767.11 233.373 1767.51 233.301 1767.91 233.357C1768.3 233.413 1768.67 233.594 1768.96 233.874C1769.14 234.128 1769.24 234.434 1769.24 234.748C1769.24 235.063 1769.14 235.369 1768.96 235.623C1767.99 237.42 1766.85 239.146 1766.05 241.039C1764.79 243.931 1763.69 246.892 1762.76 249.906C1761.51 253.493 1760.78 257.237 1760.6 261.026C1760.32 265.801 1761.9 270.501 1765.01 274.159C1765.63 274.882 1766.41 275.445 1767.3 275.8C1768.18 276.155 1769.14 276.291 1770.09 276.196C1771.45 276.137 1772.77 275.814 1774 275.247C1775.22 274.679 1776.32 273.878 1777.24 272.889C1782.5 267.608 1786.14 260.961 1787.74 253.717C1788.57 250.505 1789.12 247.222 1789.83 243.987C1789.94 243.373 1790.15 242.782 1790.46 242.237C1790.64 241.975 1790.89 241.768 1791.19 241.641C1791.48 241.514 1791.81 241.471 1792.13 241.519C1792.45 241.511 1792.76 241.627 1793 241.841C1793.24 242.055 1793.38 242.351 1793.41 242.669C1793.54 243.607 1793.54 244.559 1793.41 245.497C1792.8 248.919 1792.86 252.425 1793.58 255.826C1794.68 261.25 1796.44 266.521 1798.83 271.523C1799.31 272.527 1799.92 273.462 1800.65 274.303C1801.1 274.855 1801.67 275.306 1802.31 275.628C1802.95 275.95 1803.66 276.135 1804.38 276.172C1805.41 276.262 1806.45 276.14 1807.43 275.814C1808.42 275.488 1809.32 274.966 1810.09 274.279C1813.02 271.771 1814.9 268.264 1815.34 264.453C1816.43 258.359 1816.07 252.098 1814.28 246.168C1813.49 243.115 1812.49 240.12 1811.28 237.205C1810.45 235.575 1810.79 234.449 1811.86 233.898C1812.92 233.346 1813.99 233.898 1814.74 235.575C1815.35 236.676 1815.85 237.831 1816.24 239.026C1816.81 240.841 1817.7 242.544 1818.85 244.059C1820.91 247.055 1823.21 249.882 1825.42 252.782C1826.65 254.24 1828.14 255.459 1829.82 256.377C1831.32 257.31 1833.06 257.801 1834.83 257.791C1836.66 257.624 1838.41 256.987 1839.91 255.945C1841.4 254.902 1842.6 253.49 1843.38 251.848C1844.84 248.47 1844.97 244.674 1843.74 241.207C1843.31 240.2 1843.02 239.122 1842.61 238.115C1839.29 230.758 1834.93 223.907 1829.65 217.769C1827.17 214.673 1824.35 211.867 1821.23 209.405C1820.74 209.008 1820.27 208.584 1819.82 208.135C1819.44 207.752 1819.34 206.697 1819.82 206.41C1820.17 206.099 1820.61 205.92 1821.08 205.906C1822.81 206.242 1824.45 206.901 1825.92 207.847C1827.81 208.974 1829.7 210.244 1831.64 211.251C1836.81 214.073 1842.55 215.711 1848.44 216.044C1849.39 216.165 1850.34 216.117 1851.27 215.9C1854.55 215.162 1857.52 213.437 1859.77 210.963C1861.93 208.255 1862.19 206.817 1860.67 203.773C1859.02 200.874 1856.81 198.332 1854.15 196.296C1848.56 191.502 1841.41 188.857 1834.01 188.843C1830.67 188.811 1827.33 188.995 1824.01 189.394C1823.21 189.481 1822.39 189.481 1821.59 189.394C1821.11 189.394 1820.57 188.46 1820.62 187.956C1820.63 187.72 1820.71 187.492 1820.86 187.307C1821.01 187.121 1821.21 186.988 1821.44 186.926C1824.79 185.895 1828.15 184.937 1831.52 183.906C1833.03 183.447 1834.51 182.887 1835.95 182.229C1839.54 180.516 1842.93 178.427 1846.07 175.998C1848.98 173.764 1851.38 170.936 1853.09 167.706C1853.53 167.038 1853.81 166.275 1853.9 165.48C1853.99 164.684 1853.89 163.879 1853.6 163.13C1853.32 162.381 1852.86 161.711 1852.26 161.173C1851.66 160.635 1850.94 160.246 1850.16 160.037C1849.42 159.751 1848.65 159.581 1847.86 159.534C1845.63 159.534 1843.38 159.39 1841.15 159.534C1839.89 159.565 1838.63 159.742 1837.4 160.061C1835.39 160.54 1833.38 161.068 1831.42 161.715C1829.9 162.172 1828.43 162.783 1827.04 163.536C1821.83 166.556 1816.22 168.928 1811.76 173.122C1811.63 173.223 1811.49 173.312 1811.35 173.386C1811.07 173.552 1810.75 173.623 1810.43 173.589C1810.11 173.554 1809.81 173.415 1809.58 173.194C1808.98 172.667 1808.73 171.54 1809.22 171.085C1809.7 170.63 1810.62 169.815 1811.35 169.216C1816.76 164.778 1821.08 159.17 1823.96 152.824C1825.3 149.594 1825.74 146.07 1825.25 142.614C1825.22 142.298 1825.13 141.989 1824.98 141.711C1824.82 141.432 1824.61 141.189 1824.35 140.999C1824.09 140.808 1823.8 140.674 1823.49 140.605C1823.17 140.537 1822.85 140.536 1822.53 140.601C1818.52 140.944 1814.78 142.765 1812.05 145.706C1807.79 149.934 1804.22 154.784 1801.45 160.085C1800.72 161.499 1799.92 162.841 1799.03 164.207C1798.68 164.731 1798.28 165.22 1797.84 165.669C1797.52 165.903 1797.13 166.029 1796.73 166.029C1796.33 166.029 1795.94 165.903 1795.61 165.669C1795.35 165.481 1795.16 165.206 1795.09 164.894C1795.01 164.581 1795.05 164.253 1795.2 163.967C1795.66 162.985 1796.24 162.026 1796.8 161.092C1798.26 158.624 1799.14 155.865 1799.39 153.015C1799.43 152.077 1799.52 151.141 1799.66 150.211C1800.33 145.37 1799.83 140.439 1798.18 135.832C1797.39 133.766 1796.41 131.777 1795.25 129.889C1795.03 129.464 1794.72 129.095 1794.33 128.812C1793.94 128.529 1793.5 128.34 1793.02 128.259C1791.86 127.958 1790.63 127.971 1789.48 128.295C1788.32 128.62 1787.27 129.244 1786.44 130.105C1784.9 131.722 1783.77 133.676 1783.14 135.808C1780.38 143.601 1779.07 151.828 1779.29 160.085Z" fill="#9D98A9"/>
<path d="M1807.35 205.02C1808.01 211.538 1804.42 215.9 1798.49 218.824C1797.65 219.256 1796.75 219.586 1795.83 219.806C1790.73 221.175 1785.34 221.025 1780.34 219.375C1778.83 218.88 1777.46 218.061 1776.32 216.978C1773.3 214.142 1770.96 210.669 1769.49 206.817C1768.48 204.326 1768.06 201.637 1768.27 198.96C1768.48 196.283 1769.31 193.69 1770.7 191.383C1772.29 188.469 1774.46 185.904 1777.08 183.845C1779.71 181.785 1782.72 180.273 1785.95 179.401C1787.18 179.073 1788.44 178.865 1789.7 178.778C1791.63 178.669 1793.52 179.305 1794.98 180.551C1799.5 184.319 1803.12 189.024 1805.59 194.331C1807.01 197.708 1807.62 201.369 1807.35 205.02ZM1788.64 217.793C1792.16 217.933 1795.64 217.103 1798.71 215.397C1800.13 214.655 1801.36 213.606 1802.3 212.328C1803.25 211.049 1803.89 209.575 1804.18 208.015C1804.71 204.735 1804.37 201.378 1803.21 198.261C1802 195.002 1799.29 192.582 1798.37 189.179C1796.36 187.19 1794.38 185.153 1792.34 183.163C1791.87 182.737 1791.31 182.419 1790.7 182.232C1790.09 182.046 1789.44 181.995 1788.81 182.085C1786.09 182.267 1783.47 183.178 1781.23 184.721C1778 186.761 1775.36 189.593 1773.56 192.941C1772.3 195.231 1771.62 197.789 1771.59 200.395C1771.56 203 1772.16 205.575 1773.36 207.895C1774.29 209.555 1775.33 211.156 1776.46 212.689C1777.52 214.176 1778.9 215.406 1780.51 216.287C1782.11 217.167 1783.9 217.674 1785.73 217.769C1786.7 217.826 1787.67 217.834 1788.64 217.793Z" fill="#9D98A9"/>
</g>
<g clip-path="url(#clip4_68_55)">
<path d="M1418.08 714C1421.96 713.397 1425.88 712.923 1429.76 712.191C1432.68 711.575 1435.43 710.331 1437.82 708.546C1440.21 706.762 1442.18 704.479 1443.6 701.857C1444.12 701.01 1444.46 700.058 1444.58 699.069C1444.7 698.08 1444.6 697.077 1444.29 696.13C1443.24 692.59 1441.5 689.296 1439.16 686.441C1438.12 685.063 1437.05 683.771 1436.14 682.135C1435.91 681.774 1435.82 681.341 1435.89 680.919C1435.97 680.497 1436.19 680.117 1436.53 679.853C1440.84 676.838 1445.15 673.695 1449.94 670.939C1463.3 662.93 1476.94 655.379 1490.84 648.289C1504.23 641.504 1517.18 633.912 1529.64 625.552C1540.94 618.017 1552.62 610.998 1564.13 603.677C1569.86 600.017 1575.29 595.883 1581.37 592.482C1599.41 581.713 1616.17 568.944 1631.33 554.415C1632.17 553.651 1633.05 552.933 1633.96 552.262C1649.92 539.543 1664.85 525.591 1678.62 510.536C1681.5 507.399 1684.58 504.45 1687.85 501.709C1698.52 492.36 1708.46 482.211 1717.59 471.351C1720.22 468.422 1722.85 465.451 1725.35 462.394C1732.02 454.687 1738.21 446.576 1743.88 438.107C1745.63 435.516 1747.57 433.068 1749.7 430.787C1757.03 422.433 1761.43 412.141 1767.77 403.099C1769.66 399.942 1771.2 396.593 1772.38 393.108C1773.33 390.74 1774.1 388.286 1774.97 385.917C1776.77 381.439 1778 376.751 1778.63 371.965C1779.06 368.047 1779.92 364.171 1780.7 360.296C1781.52 354.951 1781.05 349.488 1779.32 344.363C1778.95 343.291 1778.38 342.298 1777.64 341.435C1776.46 340.199 1775.37 338.89 1774.36 337.517C1772.48 334.661 1769.92 332.314 1766.91 330.684C1763.91 329.054 1760.54 328.191 1757.12 328.172C1752.95 327.542 1748.69 327.688 1744.57 328.603C1743.06 328.843 1741.62 329.392 1740.33 330.214C1739.04 331.036 1737.93 332.115 1737.07 333.383C1735.54 335.762 1733.87 338.048 1732.07 340.229C1728.53 344.36 1726.5 349.566 1726.3 354.999C1726.21 357.543 1725.5 360.026 1724.23 362.234C1719.32 371.806 1713.89 381.106 1707.98 390.094C1702.5 398.362 1696.29 406.113 1690.47 414.165C1682.01 424.872 1672.78 434.947 1662.84 444.308C1661.08 446.117 1659.14 447.839 1657.41 449.691C1641.7 465.699 1624.36 480.029 1605.68 492.45C1598.96 497.101 1591.76 501.063 1584.78 505.369L1543.44 530.732C1523.82 542.703 1503.73 553.813 1483.09 563.76C1469.81 570.19 1456.4 576.305 1442.87 582.104C1433.62 586.346 1424.07 589.887 1414.29 592.697C1413.47 592.912 1412.61 593.041 1411.79 593.213C1411.51 593.239 1411.23 593.2 1410.98 593.1C1410.72 593 1410.49 592.84 1410.31 592.635C1410.12 592.43 1409.99 592.185 1409.92 591.919C1409.84 591.653 1409.83 591.374 1409.89 591.104C1411.48 585.979 1412.99 580.812 1414.76 575.731C1416 572.553 1416.7 569.191 1416.83 565.784C1416.83 560.702 1416.53 555.578 1416.4 550.497C1416.02 545.094 1413.9 539.958 1410.36 535.856C1409.19 534.025 1407.35 532.724 1405.23 532.233C1403.11 531.742 1400.88 532.1 1399.03 533.229C1390.3 537.481 1382.45 543.323 1375.88 550.454C1362.39 564.621 1349.32 579.219 1337.08 594.635C1329.6 603.883 1322.74 613.607 1316.52 623.744C1314.19 627.662 1311.65 631.409 1309.02 635.112C1305.12 641.035 1301.84 647.341 1299.23 653.93C1297.16 658.917 1296.03 664.247 1295.91 669.647C1295.72 674.374 1296.89 679.058 1299.28 683.142C1301.67 687.225 1305.19 690.537 1309.41 692.685C1315.21 696.271 1321.58 698.848 1328.24 700.307C1331.58 701.012 1334.85 701.976 1338.03 703.192C1345.25 705.813 1352.85 707.197 1360.53 707.283C1367.62 707.544 1374.66 708.481 1381.57 710.081C1382.43 710.081 1383.21 710.641 1384.03 710.727C1395.41 711.804 1406.7 712.88 1418.08 714ZM1413.77 707.325C1404.8 706.68 1396.53 706.163 1388.38 705.474C1386.11 705.406 1383.86 705.03 1381.7 704.354C1375.72 702.53 1369.5 701.616 1363.25 701.642C1355.01 701.658 1346.83 700.2 1339.11 697.335C1337.55 696.627 1335.92 696.107 1334.24 695.785C1327.26 694.468 1320.54 692.055 1314.32 688.637C1309.99 686.77 1306.45 683.438 1304.33 679.225C1302.21 675.012 1301.64 670.188 1302.72 665.599C1304.02 657.753 1306.77 650.217 1310.83 643.38C1317.08 632.615 1323.76 622.064 1331.09 611.945C1339.19 600.663 1347.99 589.941 1356.95 579.219C1366.48 567.981 1376.76 557.406 1387.73 547.569C1391.62 543.844 1396.21 540.917 1401.22 538.957C1402.42 538.468 1403.74 538.397 1404.98 538.757C1406.21 539.117 1407.29 539.886 1408.04 540.937C1410.67 544.331 1412.06 548.528 1411.96 552.822C1411.96 557.128 1411.7 561.434 1411.61 565.741C1411.58 569.145 1410.87 572.509 1409.54 575.645C1406.87 581.932 1404.46 588.261 1401.96 594.591C1401.53 595.633 1401.21 596.715 1401.01 597.821C1400.98 598.312 1401.05 598.803 1401.22 599.264C1401.4 599.724 1401.66 600.143 1402.01 600.493C1402.36 600.843 1402.77 601.115 1403.23 601.293C1403.69 601.471 1404.18 601.55 1404.67 601.524C1405.25 601.476 1405.81 601.36 1406.35 601.18C1414.42 598.51 1422.61 596.099 1430.54 593.041C1439.16 589.683 1447.78 585.592 1456.4 582.19C1467.22 577.884 1477.57 572.587 1487.96 567.463C1499.16 561.951 1510.11 556.009 1521.11 550.239C1527.36 546.88 1533.43 543.263 1539.51 539.602C1548.13 534.478 1556.37 529.139 1564.77 523.928L1595.94 504.766C1620.55 489.792 1643.13 471.732 1663.14 451.026C1668.83 445.083 1674.83 439.442 1680.69 433.801C1681.9 432.595 1683.15 431.433 1684.27 430.141C1698.77 413.789 1711.66 396.081 1722.76 377.262C1728.88 366.755 1734.4 355.731 1740.26 345.181C1741.18 343.433 1742.27 341.775 1743.5 340.229C1744.64 338.754 1746.13 337.587 1747.84 336.835C1749.55 336.083 1751.42 335.77 1753.28 335.923C1755.29 335.941 1757.22 336.657 1758.76 337.947C1759.4 338.705 1760.26 339.255 1761.22 339.531C1762.18 339.806 1763.19 339.795 1764.15 339.497C1765.08 339.168 1766.11 339.172 1767.04 339.51C1767.98 339.847 1768.76 340.497 1769.27 341.349C1771.68 344.039 1773.39 347.283 1774.24 350.792C1775.09 354.301 1775.06 357.965 1774.15 361.459C1773.49 364.486 1773 367.548 1772.68 370.63C1771.52 381.568 1766.47 391.171 1762.25 401.075C1761.96 401.554 1761.65 402.014 1761.3 402.453C1759.58 405.079 1757.85 407.663 1756.21 410.29C1753.41 414.854 1750.91 419.677 1747.59 424.026C1742.33 431.39 1736.9 438.667 1731.12 445.557C1723.62 454.729 1715.74 463.643 1708.02 472.685C1705.78 475.269 1703.71 477.939 1701.25 480.307C1694.27 486.939 1687.63 493.872 1680.47 500.331C1670.99 508.943 1661.94 517.857 1653.1 527.072C1647.03 533.413 1640.52 539.313 1633.62 544.727C1631.5 546.154 1629.54 547.815 1627.8 549.679C1624.16 553.651 1620.18 557.297 1615.9 560.573C1604.82 570.296 1592.92 579.041 1580.34 586.711C1575.51 589.596 1570.72 592.74 1566.02 595.84C1559.86 599.888 1553.82 604.151 1547.66 608.113C1538.82 613.797 1529.99 619.395 1521.06 624.95C1515.29 628.524 1509.55 632.227 1503.52 635.327C1491.15 641.657 1478.86 648.246 1466.75 654.92C1455.37 661.293 1444.12 667.838 1432.78 674.341C1431.07 675.326 1429.43 676.419 1427.87 677.613C1427.48 677.934 1427.17 678.329 1426.95 678.775C1426.73 679.221 1426.6 679.708 1426.58 680.205C1426.56 680.702 1426.63 681.199 1426.81 681.665C1426.99 682.13 1427.26 682.554 1427.61 682.91C1428.6 683.9 1429.81 684.675 1430.84 685.58C1432.45 686.711 1433.9 688.059 1435.15 689.584C1439.46 696.388 1438.56 701.168 1431.31 704.914C1429.24 705.849 1427.05 706.487 1424.8 706.809C1421.21 707.71 1417.47 707.885 1413.81 707.325H1413.77Z" fill="#5C5470" fill-opacity="0.6"/>
</g>
<g clip-path="url(#clip5_68_55)">
<path d="M122.448 65.6135C123.101 66.1426 123.687 66.6204 124.284 67.0908C124.711 67.4081 125.106 67.7671 125.462 68.1623C125.546 68.2571 125.64 68.3432 125.741 68.4195C126.431 68.977 127.052 69.6138 127.593 70.3168C127.689 70.4347 127.792 70.5473 127.9 70.6541C127.939 70.6872 127.988 70.7049 128.039 70.7038C128.089 70.7028 128.138 70.683 128.175 70.6484C128.502 70.2647 128.835 69.8803 129.156 69.4915C129.563 69.0053 130.025 68.5686 130.534 68.1903C131.259 67.6413 131.962 67.0652 132.687 66.5163C132.968 66.3033 133.285 66.1395 133.583 65.9452C134.131 65.5837 134.684 65.2038 135.224 64.8523C135.879 64.419 136.599 64.0933 137.356 63.8874C137.847 63.7549 138.359 63.7241 138.862 63.797C139.13 63.8174 139.385 63.9201 139.592 64.091C139.799 64.2618 139.948 64.4926 140.019 64.7515C140.101 64.991 140.146 65.2416 140.152 65.4947C140.166 66.2291 140.102 66.9628 139.961 67.6837C139.688 68.9433 139.278 70.1691 138.736 71.3387C138.572 71.7085 138.38 72.0655 138.163 72.4069C137.909 72.8143 137.678 73.236 137.471 73.6699C137.113 74.368 136.701 75.037 136.238 75.6708C136.115 75.8304 135.982 76.0033 135.867 76.1529C135.712 76.3886 135.721 76.4802 135.917 76.6792C136.697 77.5106 137.522 78.2981 138.389 79.0379C138.808 79.3608 139.147 79.7749 139.527 80.1476C140 80.6071 140.446 81.0881 140.889 81.5725C141.37 82.1268 141.817 82.7096 142.227 83.3178C142.468 83.6459 142.677 83.9929 142.917 84.315C143.763 85.4573 144.408 86.7352 144.825 88.0938C144.945 88.4838 145.008 88.8891 145.012 89.2969C145.027 89.4748 144.983 89.6527 144.886 89.8025C144.789 89.9523 144.644 90.0653 144.476 90.1238C144.178 90.2627 143.857 90.3459 143.529 90.3692C142.693 90.4207 141.854 90.3952 141.022 90.2931C140.197 90.1763 139.384 89.9862 138.592 89.725C138.207 89.5924 137.824 89.4565 137.437 89.3389C136.668 89.0841 135.923 88.762 135.21 88.3764C134.736 88.1326 134.256 87.9014 133.782 87.6635L133.573 87.5709C133.402 87.5032 133.249 87.5919 133.26 87.7642C133.262 88.043 133.279 88.3216 133.311 88.5986C133.454 89.6527 133.51 90.7165 133.48 91.7797C133.491 93.1256 133.346 94.4682 133.049 95.7809C132.837 96.6136 132.669 97.4586 132.451 98.292C132.312 98.8302 132.14 99.3593 131.936 99.8765C131.797 100.257 131.595 100.612 131.339 100.927C130.979 101.34 130.491 101.62 129.952 101.721C129.414 101.822 128.856 101.739 128.371 101.485C127.695 101.134 127.105 100.638 126.643 100.033C126.478 99.8087 126.344 99.5632 126.245 99.3031C125.729 98.01 125.277 96.6918 124.893 95.3535C124.752 94.8479 124.637 94.309 124.541 93.8006C124.209 92.2153 123.868 90.634 123.559 89.0397C123.467 88.4639 123.337 87.8947 123.169 87.3361C123.103 87.153 123.03 87.1176 122.823 87.1804C122.625 87.2266 122.433 87.2936 122.25 87.3804C121.426 87.8315 120.516 88.0901 119.682 88.5125C119.546 88.5815 119.402 88.6324 119.253 88.664C118.362 88.8363 117.467 89.0002 116.573 89.1641C116.497 89.1768 116.421 89.1837 116.345 89.1846C115.587 89.1979 114.829 89.1662 114.075 89.0897C113.448 89.0089 112.835 88.8383 112.255 88.5833C111.349 88.1979 110.426 87.8476 109.512 87.4722C109.209 87.3498 108.911 87.2058 108.616 87.0525C108.505 86.9943 108.41 86.9086 108.341 86.8037C108.104 86.4421 107.969 86.0232 107.95 85.5912C107.926 85.282 108.017 84.975 108.206 84.7289C108.267 84.6491 108.329 84.5693 108.39 84.4895C108.72 84.1049 108.966 83.6549 109.11 83.1688C109.234 82.7562 109.428 82.3677 109.682 82.02C109.75 81.9455 109.812 81.8655 109.866 81.7806C110.201 81.1557 110.667 80.6111 111.233 80.1845C112.748 78.9159 114.433 77.8652 116.239 77.063C116.842 76.7993 117.44 76.5311 118.035 76.2584C118.686 75.9786 119.299 75.6176 119.859 75.1838C120.561 74.6169 120.508 74.5339 119.922 73.9604C119.79 73.8429 119.65 73.7351 119.502 73.6376C118.47 72.8565 117.563 71.9235 116.81 70.8705C116.53 70.4829 116.279 70.0752 116.058 69.6508C115.693 68.9828 115.331 68.3173 115.009 67.6346C114.705 67.0219 114.509 66.362 114.428 65.6833C114.392 65.3291 114.41 64.9715 114.482 64.6227C114.544 64.2847 114.692 63.9682 114.91 63.7027C115.128 63.4373 115.41 63.2316 115.73 63.1049C116.078 62.9633 116.451 62.8906 116.828 62.8907C118.08 62.8595 119.304 63.2725 120.281 64.0565C121.036 64.5902 121.779 65.1196 122.448 65.6135Z" fill="#5C5470" fill-opacity="0.6"/>
<path d="M114.993 48.8499C116.469 50.0446 117.803 51.1408 119.155 52.2079C120.127 52.9249 121.025 53.7371 121.835 54.6323C122.021 54.8443 122.228 55.0372 122.452 55.2079C124.02 56.4702 125.433 57.9139 126.662 59.5085C126.879 59.7767 127.115 60.0274 127.354 60.2749C127.443 60.3488 127.556 60.3875 127.671 60.3836C127.787 60.3797 127.897 60.3334 127.98 60.2536C128.726 59.3816 129.478 58.5148 130.204 57.6275C131.13 56.5284 132.181 55.5403 133.335 54.6831C134.977 53.4315 136.576 52.1257 138.225 50.8792C138.86 50.3987 139.578 50.0302 140.248 49.5872C141.498 48.7696 142.737 47.9385 143.975 47.1073C145.461 46.1238 147.093 45.3836 148.812 44.9148C149.926 44.612 151.09 44.5437 152.232 44.7139C152.839 44.7578 153.417 44.9891 153.888 45.3759C154.358 45.7627 154.697 46.2858 154.857 46.8731C155.038 47.4164 155.137 47.9837 155.151 48.5562C155.182 50.2212 155.036 51.8846 154.716 53.5188C154.111 56.3877 153.192 59.1812 151.975 61.8486C151.599 62.6848 151.163 63.4926 150.67 64.2658C150.096 65.1923 149.574 66.1495 149.104 67.133C148.288 68.7156 147.353 70.2337 146.306 71.6745C146.044 72.0497 145.746 72.4027 145.503 72.7934C145.151 73.3329 145.169 73.5372 145.631 74.0041C147.396 75.8906 149.267 77.6759 151.234 79.3514C152.166 80.1167 152.961 81.0254 153.816 81.8694C154.884 82.9194 155.889 83.9954 156.911 85.1052C158.001 86.3656 159.015 87.6895 159.948 89.07C160.487 89.8083 160.967 90.5962 161.512 91.3338C163.43 93.9231 164.893 96.8198 165.839 99.8997C166.113 100.779 166.259 101.692 166.273 102.612C166.309 103.016 166.209 103.419 165.99 103.76C165.771 104.1 165.445 104.358 165.063 104.493C164.385 104.808 163.655 104.996 162.908 105.048C161.01 105.163 159.105 105.102 157.218 104.867C155.342 104.6 153.492 104.169 151.691 103.578C150.82 103.278 149.955 102.977 149.075 102.708C147.33 102.125 145.639 101.392 144.021 100.516C142.946 99.9638 141.86 99.4401 140.779 98.9038C140.625 98.8279 140.471 98.7521 140.31 98.6862C140.235 98.6427 140.15 98.6204 140.063 98.6216C139.977 98.6228 139.892 98.6475 139.819 98.6929C139.745 98.7384 139.685 98.803 139.645 98.8799C139.605 98.9568 139.587 99.043 139.593 99.1294C139.602 99.7632 139.645 100.396 139.723 101.025C140.041 103.418 140.166 105.833 140.094 108.245C140.109 111.29 139.772 114.326 139.09 117.293C138.612 119.187 138.227 121.104 137.733 122.991C137.418 124.214 137.025 125.415 136.555 126.587C136.246 127.453 135.79 128.259 135.207 128.971C134.559 129.748 133.703 130.326 132.739 130.636C131.775 130.946 130.743 130.975 129.762 130.721C129.31 130.624 128.874 130.466 128.465 130.252C126.927 129.455 125.585 128.329 124.533 126.954C124.16 126.445 123.858 125.888 123.634 125.298C122.462 122.365 121.439 119.375 120.57 116.338C120.236 115.181 120.015 113.988 119.769 112.808C119.013 109.212 118.248 105.614 117.536 102.01C117.332 100.705 117.037 99.4157 116.654 98.1518C116.506 97.7309 116.337 97.6481 115.868 97.7957C115.427 97.9045 114.997 98.0564 114.586 98.2493C112.727 99.2865 110.655 99.8574 108.759 100.819C108.453 100.979 108.126 101.096 107.787 101.166C105.763 101.557 103.734 101.928 101.703 102.308C101.532 102.334 101.359 102.346 101.187 102.345C99.4707 102.382 97.7541 102.313 96.0465 102.137C94.622 101.959 93.2309 101.574 91.9164 100.996C89.8597 100.123 87.7652 99.3255 85.6939 98.4775C85.0013 98.1931 84.3301 97.867 83.6685 97.5217C83.4146 97.3918 83.1979 97.1995 83.0389 96.9627C82.5 96.1409 82.1949 95.1882 82.1561 94.2065C82.1048 93.5106 82.3073 92.8197 82.7261 92.2617C82.8669 92.0788 83.0077 91.8959 83.146 91.7164C83.8934 90.8471 84.4465 89.8284 84.7686 88.7281C85.0521 87.7894 85.4939 86.906 86.075 86.1161C86.2203 85.9377 86.3508 85.7476 86.4649 85.5477C87.1779 84.0574 88.3406 82.9398 89.5752 81.9146C93.0128 79.0347 96.8366 76.6498 100.935 74.8292C102.298 74.2295 103.658 73.6222 105.015 73.0072C106.491 72.3681 107.882 71.5473 109.154 70.5638C110.745 69.283 110.624 69.0891 109.299 67.7881C108.999 67.5176 108.679 67.2709 108.341 67.0503C105.922 65.3312 104.022 63.105 102.245 60.7671C101.605 59.8858 101.034 58.9571 100.536 57.9892C99.7113 56.4856 98.8886 54.9728 98.1504 53.4191C97.4619 52.0284 97.0185 50.5294 96.84 48.9881C96.7564 48.1868 96.7984 47.3774 96.9647 46.5892C97.1027 45.8216 97.4349 45.1022 97.9297 44.4995C98.4245 43.8967 99.0653 43.4306 99.7913 43.1456C100.588 42.8131 101.442 42.6393 102.305 42.6341C105.147 42.5649 107.922 43.503 110.14 45.2823C111.777 46.516 113.457 47.72 114.993 48.8499ZM114.119 49.7655L114.157 49.7157C112.7 48.5935 111.268 47.438 109.785 46.3491C107.656 44.8051 105.367 43.7099 102.635 43.7618C101.715 43.762 100.807 43.9677 99.9768 44.3638C99.53 44.565 99.1367 44.8684 98.8286 45.2494C98.5205 45.6304 98.3062 46.0784 98.2029 46.5574C97.9382 47.6777 97.9223 48.8426 98.1563 49.97C98.4319 51.3787 98.8877 52.7462 99.5124 54.0388C100.886 56.9487 102.596 59.6877 104.608 62.1999C105.599 63.4617 106.761 64.5795 108.061 65.521C109.019 66.1592 109.901 66.9057 110.688 67.7457C110.956 68.1267 111.36 68.3904 111.817 68.4824C111.933 68.4843 112.045 68.526 112.135 68.6005C112.224 68.675 112.285 68.7778 112.308 68.8918C112.402 69.2802 112.597 69.6369 112.873 69.926C112.922 69.9972 112.956 70.0782 112.97 70.1635C112.985 70.2487 112.981 70.3361 112.959 70.4196C112.936 70.5031 112.896 70.5807 112.84 70.6471C112.785 70.7134 112.716 70.7669 112.637 70.8038C112.232 71.021 111.819 71.2331 111.401 71.404C109.007 72.3735 106.707 73.5624 104.532 74.9557C103.862 75.3928 103.178 75.8197 102.471 76.2077C100.379 77.4041 98.4018 78.7917 96.5656 80.3529C94.5319 82.0234 92.4972 83.709 90.6107 85.5671C88.9392 87.2146 87.3144 88.898 85.7698 90.6698C84.3897 92.2556 84.4568 94.7015 86.1636 96.429C86.812 97.0879 87.5989 97.5943 88.4671 97.9114C89.966 98.4893 91.5608 98.7772 93.1669 98.76C95.0031 98.7225 96.835 98.5598 98.6679 98.4509C99.5856 98.3948 100.502 98.3538 101.427 98.3087C102.86 98.2307 104.299 98.2477 105.718 98.0579C108.386 97.697 111.04 97.2243 113.701 96.7894C114.186 96.7232 114.65 96.5474 115.057 96.2752C115.464 96.0031 115.804 95.6417 116.05 95.2187C116.331 94.7572 116.714 94.7764 116.994 95.2041C117.2 95.4767 117.362 95.78 117.474 96.1028C117.754 97.156 118.015 98.2148 118.233 99.2882C118.69 101.537 119.107 103.797 119.554 106.053C119.772 107.18 120.002 108.3 120.238 109.424C120.525 110.704 120.838 112.005 121.072 113.298C121.251 114.316 121.506 115.319 121.834 116.3C122.342 117.825 122.832 119.353 123.305 120.887C123.781 122.537 124.405 124.141 125.169 125.68C126.106 127.419 127.654 128.748 129.514 129.412C129.832 129.548 130.17 129.629 130.515 129.654C132.157 129.731 133.588 129.339 134.498 127.805C135.277 126.527 135.887 125.154 136.314 123.72C137.002 121.353 137.579 118.958 138.088 116.543C139.134 111.414 139.271 106.141 138.493 100.963C138.354 99.9383 138.303 98.9032 138.342 97.8697C138.334 97.7544 138.353 97.639 138.398 97.5326C138.443 97.4263 138.513 97.3321 138.601 97.2576C138.689 97.1832 138.794 97.1306 138.906 97.1042C139.019 97.0778 139.136 97.0783 139.248 97.1056C139.59 97.1442 139.923 97.2364 140.236 97.3787C141.729 98.1101 143.201 98.8832 144.695 99.6204C145.657 100.136 146.649 100.595 147.664 100.996C150.313 101.933 152.962 102.877 155.748 103.396C158.072 103.792 160.433 103.922 162.786 103.783C163.192 103.776 163.596 103.715 163.986 103.6C164.384 103.502 164.728 103.255 164.95 102.911C165.171 102.567 165.253 102.151 165.179 101.748C165.135 101.29 165.054 100.836 164.936 100.391C164.292 98.0621 163.301 95.8434 161.996 93.8094C160.968 92.2184 159.869 90.6727 158.759 89.1402C157.076 86.811 155.335 84.5222 153.137 82.6339C152.914 82.4623 152.758 82.2041 152.554 82.0151C151.198 80.775 150.005 79.364 148.461 78.3339C147.975 78.023 147.544 77.6351 147.183 77.1855C146.403 76.188 145.466 75.3238 144.41 74.6264C143.556 74.0217 143.438 73.3963 144.082 72.5944C145.766 70.4095 147.251 68.0782 148.519 65.6283C149.09 64.5694 149.768 63.5656 150.285 62.4808C150.973 61.0295 151.61 59.5491 152.165 58.0433C153.064 55.7442 153.634 53.3292 153.857 50.8703C153.934 50.0101 153.961 49.1461 153.936 48.2827C153.853 46.5184 153.01 45.8164 151.501 45.7725C150.58 45.7497 149.661 45.8629 148.773 46.1082C147.274 46.5134 145.854 47.1649 144.569 48.0361C142.855 49.1894 141.243 50.4909 139.37 51.3953C139.169 51.5074 138.98 51.6412 138.808 51.7944C137.224 53.0325 135.628 54.2511 134.066 55.5163C132.661 56.6104 131.382 57.8565 130.251 59.2318C129.389 60.2344 128.475 61.1911 127.514 62.0981C127.468 62.153 127.409 62.1961 127.343 62.2237C127.277 62.2512 127.206 62.2624 127.135 62.2564C127.063 62.2504 126.994 62.2273 126.934 62.189C126.874 62.1507 126.823 62.0985 126.787 62.0367C126.229 61.0316 125.551 60.0973 124.769 59.2539C123.334 57.7727 121.824 56.361 120.335 54.9285C119.675 54.2927 119.03 53.637 118.314 53.0652C116.94 51.9113 115.511 50.8483 114.1 49.7619L114.119 49.7655ZM93.2776 100.461C93.5894 100.72 93.9707 100.881 94.3737 100.923C97.0993 101.348 99.8214 101.654 102.556 101C104.701 100.893 106.675 100.056 108.72 99.5276C108.775 99.5096 108.822 99.4727 108.853 99.4235C108.881 99.3819 108.892 99.3312 108.883 99.282C108.868 99.239 108.827 99.1754 108.787 99.1716C108.62 99.1424 108.45 99.1323 108.281 99.1415C103.431 99.6026 98.5828 100.096 93.7123 100.282C93.5838 100.283 93.4727 100.373 93.2666 100.468L93.2776 100.461ZM86.9866 86.9558C87.2741 86.8647 87.4093 86.8681 87.4756 86.8027C90.2076 83.943 93.4167 81.6202 96.3035 78.938C96.3317 78.9014 96.3284 78.83 96.3455 78.732C96.1789 78.7626 95.9943 78.7476 95.8817 78.8251C93.8706 80.2323 91.6908 81.4248 89.94 83.1754C88.763 84.2778 87.7602 85.5523 86.9656 86.9556L86.9866 86.9558ZM84.1965 95.5075C84.0542 95.2656 83.9201 95.0405 83.7809 94.822C83.7576 94.8041 83.6729 94.7971 83.634 94.8201C83.5951 94.8431 83.5777 94.8933 83.5871 94.943C83.581 95.0759 83.6178 95.2074 83.692 95.3179C83.7662 95.4285 83.874 95.5123 83.9994 95.557C84.0127 95.5673 84.0626 95.5369 84.1755 95.5073L84.1965 95.5075Z" fill="#5C5470" fill-opacity="0.6"/>
</g>
<defs>
<clipPath id="clip0_68_55">
<rect width="191.211" height="178.631" fill="white" transform="translate(109.682 143) rotate(37.5971)"/>
</clipPath>
<clipPath id="clip1_68_55">
<rect width="112.088" height="104.714" fill="white" transform="translate(251.887 173) rotate(37.5971)"/>
</clipPath>
<clipPath id="clip2_68_55">
<rect width="120" height="125" fill="white" transform="translate(1761)"/>
</clipPath>
<clipPath id="clip3_68_55">
<rect width="148" height="154" fill="white" transform="translate(1717 125)"/>
</clipPath>
<clipPath id="clip4_68_55">
<rect width="485" height="386" fill="white" transform="matrix(-1 0 0 1 1781 328)"/>
</clipPath>
<clipPath id="clip5_68_55">
<rect width="90.0983" height="84.1708" fill="white" transform="translate(118.316 18) rotate(37.5971)"/>
</clipPath>
</defs>
</svg>
