<svg width="1699" height="823" viewBox="0 0 1699 823" fill="none" xmlns="http://www.w3.org/2000/svg">
<g clip-path="url(#clip0_21_13)">
<path d="M94.2832 83.908C95.3922 84.807 96.3882 85.6189 97.4028 86.4182C98.1288 86.9575 98.7995 87.5675 99.4051 88.2391C99.5483 88.4001 99.7071 88.5464 99.8792 88.6761C101.051 89.6234 102.107 90.7055 103.026 91.9C103.189 92.1004 103.364 92.2918 103.548 92.4732C103.613 92.5294 103.697 92.5595 103.783 92.5577C103.869 92.556 103.952 92.5224 104.015 92.4636C104.571 91.8116 105.137 91.1584 105.682 90.4977C106.373 89.6715 107.159 88.9294 108.024 88.2866C109.255 87.3538 110.45 86.3748 111.682 85.442C112.159 85.08 112.697 84.8017 113.204 84.4715C114.136 83.8573 115.075 83.2117 115.994 82.6144C117.106 81.8782 118.329 81.3247 119.616 80.9749C120.449 80.7496 121.32 80.6973 122.175 80.8212C122.63 80.8559 123.063 81.0303 123.415 81.3207C123.767 81.6111 124.021 82.0032 124.141 82.4432C124.281 82.8502 124.357 83.2761 124.367 83.706C124.39 84.9539 124.281 86.2008 124.042 87.4257C123.579 89.5662 122.881 91.6491 121.962 93.6366C121.682 94.2649 121.357 94.8716 120.987 95.4516C120.555 96.1439 120.162 96.8606 119.812 97.598C119.203 98.7841 118.502 99.9209 117.716 100.998C117.507 101.269 117.281 101.563 117.085 101.817C116.822 102.218 116.837 102.373 117.171 102.712C118.496 104.124 119.898 105.462 121.371 106.72C122.084 107.268 122.658 107.972 123.306 108.605C124.109 109.386 124.867 110.203 125.62 111.026C126.437 111.968 127.196 112.959 127.894 113.992C128.302 114.55 128.658 115.139 129.065 115.687C130.503 117.628 131.599 119.799 132.308 122.108C132.511 122.771 132.618 123.459 132.625 124.152C132.651 124.455 132.576 124.757 132.411 125.011C132.246 125.266 132.001 125.458 131.714 125.557C131.208 125.793 130.662 125.935 130.105 125.974C128.684 126.062 127.259 126.019 125.846 125.845C124.443 125.647 123.061 125.324 121.716 124.88C121.061 124.654 120.411 124.423 119.754 124.224C118.447 123.791 117.181 123.243 115.97 122.588C115.163 122.174 114.349 121.781 113.543 121.377L113.187 121.219C112.897 121.104 112.637 121.255 112.655 121.548C112.659 122.022 112.689 122.495 112.743 122.966C112.985 124.757 113.081 126.565 113.03 128.371C113.047 130.658 112.802 132.94 112.298 135.17C111.937 136.585 111.651 138.021 111.281 139.437C111.045 140.352 110.752 141.251 110.406 142.13C110.169 142.777 109.827 143.38 109.392 143.914C108.78 144.616 107.95 145.092 107.035 145.264C106.12 145.436 105.173 145.295 104.347 144.863C103.199 144.267 102.197 143.424 101.411 142.396C101.131 142.015 100.904 141.597 100.736 141.155C99.8579 138.958 99.0908 136.718 98.4375 134.444C98.1985 133.585 98.003 132.669 97.8396 131.805C97.2751 129.111 96.6963 126.424 96.1706 123.715C96.0143 122.737 95.7932 121.77 95.5087 120.82C95.397 120.509 95.2721 120.449 94.9198 120.556C94.5842 120.634 94.258 120.748 93.9466 120.896C92.5458 121.662 91.0006 122.102 89.5833 122.819C89.3523 122.937 89.1071 123.023 88.8537 123.077C87.3403 123.37 85.82 123.648 84.2996 123.927C84.1717 123.948 84.0422 123.96 83.9125 123.962C82.6249 123.984 81.3371 123.93 80.0559 123.8C78.9891 123.663 77.9474 123.373 76.9628 122.94C75.4227 122.285 73.8547 121.69 72.3014 121.052C71.786 120.844 71.2811 120.599 70.7791 120.338C70.5901 120.239 70.4293 120.094 70.312 119.916C69.9089 119.301 69.6791 118.589 69.647 117.855C69.6065 117.33 69.7614 116.808 70.0819 116.39C70.1863 116.254 70.2907 116.119 70.3951 115.983C70.9565 115.33 71.3735 114.565 71.6188 113.739C71.8296 113.038 72.1583 112.378 72.5906 111.787C72.7062 111.66 72.811 111.524 72.9039 111.38C73.472 110.318 74.2646 109.393 75.2264 108.668C77.8007 106.512 80.664 104.727 83.733 103.364C84.7565 102.916 85.7739 102.46 86.7852 101.996C87.8913 101.521 88.9326 100.907 89.8845 100.17C91.0765 99.2071 90.987 99.0661 89.9902 98.0916C89.7661 97.8919 89.528 97.7086 89.2778 97.543C87.524 96.2156 85.9815 94.6303 84.7027 92.8409C84.2268 92.1823 83.7999 91.4896 83.4256 90.7684C82.8047 89.6332 82.1894 88.5023 81.6416 87.3424C81.1265 86.3012 80.7929 85.1798 80.6553 84.0266C80.5947 83.4247 80.6253 82.8171 80.7462 82.2244C80.8526 81.65 81.1029 81.1121 81.4739 80.661C81.8449 80.2099 82.3243 79.8604 82.8673 79.6451C83.4597 79.4045 84.0931 79.2809 84.7327 79.2812C86.8611 79.2282 88.9401 79.9299 90.6016 81.2621C91.8846 82.169 93.1463 83.0686 94.2832 83.908Z" fill="#5C5470" fill-opacity="0.6"/>
<path d="M81.6159 55.4222C84.1236 57.4522 86.3908 59.315 88.6872 61.1282C90.3387 62.3467 91.8646 63.7268 93.2424 65.2479C93.558 65.6083 93.9092 65.936 94.2905 66.226C96.9549 68.3711 99.3559 70.8242 101.443 73.534C101.813 73.9896 102.214 74.4157 102.62 74.8362C102.771 74.9618 102.963 75.0276 103.159 75.0209C103.355 75.0142 103.542 74.9356 103.684 74.8C104.951 73.3184 106.229 71.8454 107.462 70.3376C109.036 68.4699 110.822 66.791 112.783 65.3344C115.573 63.2076 118.291 60.9885 121.092 58.8704C122.171 58.054 123.392 57.4278 124.53 56.6749C126.654 55.2857 128.759 53.8734 130.864 52.4611C133.388 50.7897 136.162 49.532 139.083 48.7353C140.975 48.2209 142.954 48.1047 144.893 48.3941C145.925 48.4686 146.909 48.8616 147.708 49.5189C148.507 50.1761 149.082 51.0651 149.354 52.0631C149.662 52.9863 149.831 53.9503 149.854 54.9231C149.906 57.7523 149.659 60.579 149.116 63.3558C148.087 68.2309 146.525 72.9777 144.458 77.5103C143.819 78.9312 143.078 80.3039 142.24 81.6178C141.265 83.1923 140.377 84.8187 139.579 86.49C138.192 89.1791 136.603 91.7589 134.825 94.2071C134.379 94.8448 133.872 95.4446 133.46 96.1084C132.862 97.0252 132.892 97.3723 133.677 98.1658C136.677 101.371 139.856 104.405 143.198 107.252C144.781 108.553 146.132 110.097 147.586 111.531C149.4 113.315 151.108 115.144 152.844 117.03C154.696 119.171 156.42 121.421 158.005 123.767C158.921 125.021 159.736 126.36 160.663 127.613C163.922 132.013 166.409 136.936 168.016 142.169C168.481 143.663 168.729 145.215 168.754 146.779C168.815 147.464 168.645 148.15 168.273 148.729C167.901 149.307 167.347 149.746 166.698 149.975C165.545 150.509 164.304 150.829 163.036 150.918C159.81 151.112 156.573 151.009 153.366 150.61C150.178 150.156 147.036 149.423 143.975 148.419C142.495 147.909 141.024 147.398 139.53 146.94C136.565 145.951 133.691 144.705 130.942 143.216C129.115 142.278 127.27 141.388 125.432 140.477C125.171 140.348 124.91 140.219 124.636 140.107C124.508 140.033 124.364 139.995 124.216 139.997C124.069 139.999 123.925 140.041 123.8 140.119C123.675 140.196 123.573 140.306 123.506 140.436C123.438 140.567 123.407 140.713 123.416 140.86C123.432 141.937 123.506 143.013 123.637 144.082C124.179 148.148 124.39 152.251 124.269 156.35C124.294 161.524 123.721 166.683 122.562 171.725C121.75 174.943 121.096 178.202 120.257 181.408C119.722 183.486 119.053 185.526 118.255 187.517C117.729 188.989 116.954 190.359 115.964 191.568C114.863 192.89 113.408 193.871 111.77 194.398C110.132 194.924 108.378 194.975 106.712 194.543C105.944 194.378 105.203 194.109 104.507 193.745C101.895 192.392 99.613 190.478 97.8254 188.141C97.1926 187.276 96.6793 186.33 96.2992 185.328C94.3069 180.344 92.5688 175.262 91.0914 170.102C90.525 168.136 90.1492 166.109 89.7303 164.104C88.4462 157.993 87.1465 151.88 85.9369 145.755C85.5905 143.537 85.0894 141.347 84.4372 139.199C84.1863 138.484 83.8984 138.343 83.1018 138.594C82.3521 138.779 81.6224 139.037 80.9233 139.365C77.7648 141.127 74.2438 142.097 71.0228 143.731C70.5023 144.004 69.946 144.203 69.3701 144.321C65.9314 144.986 62.483 145.616 59.0317 146.262C58.7415 146.305 58.4483 146.326 58.1547 146.325C55.2388 146.387 52.3217 146.269 49.4202 145.972C46.9996 145.668 44.6356 145.015 42.402 144.033C38.9072 142.548 35.348 141.193 31.8284 139.752C30.6514 139.269 29.5109 138.715 28.3866 138.128C27.9552 137.908 27.587 137.581 27.3168 137.179C26.4012 135.782 25.8826 134.163 25.8166 132.495C25.7296 131.312 26.0736 130.138 26.7852 129.19C27.0245 128.879 27.2639 128.569 27.4988 128.264C28.7688 126.787 29.7088 125.055 30.256 123.186C30.7378 121.591 31.4885 120.09 32.4759 118.747C32.7229 118.444 32.9446 118.121 33.1386 117.781C34.3502 115.249 36.3259 113.35 38.4238 111.608C44.2651 106.714 50.7628 102.661 57.7278 99.5679C60.0437 98.5488 62.3544 97.5167 64.6601 96.4718C67.1685 95.3858 69.5313 93.991 71.6939 92.3198C74.3966 90.1433 74.1909 89.8139 71.9394 87.6032C71.4301 87.1435 70.8857 86.7243 70.3111 86.3493C66.202 83.4282 62.9726 79.6453 59.9524 75.6726C58.8661 74.175 57.8953 72.597 57.0486 70.9522C55.6476 68.3972 54.2497 65.8266 52.9953 63.1865C51.8253 60.8233 51.0719 58.2761 50.7685 55.6571C50.6264 54.2954 50.6979 52.92 50.9804 51.5807C51.215 50.2763 51.7795 49.0539 52.6202 48.0296C53.4609 47.0054 54.5499 46.2134 55.7835 45.729C57.1372 45.164 58.5882 44.8688 60.0553 44.8598C64.8844 44.7423 69.6003 46.3363 73.369 49.3599C76.1498 51.4562 79.0055 53.5021 81.6159 55.4222ZM80.1296 56.9781L80.1949 56.8933C77.7185 54.9864 75.2856 53.023 72.7657 51.1726C69.148 48.5489 65.2583 46.6879 60.6152 46.7761C59.0521 46.7765 57.5091 47.126 56.0989 47.799C55.3396 48.141 54.6713 48.6564 54.1477 49.3039C53.6242 49.9513 53.26 50.7126 53.0844 51.5266C52.6347 53.4303 52.6076 55.4097 53.0053 57.3254C53.4736 59.7193 54.248 62.0431 55.3096 64.2395C57.6441 69.1841 60.5499 73.8385 63.9677 78.1073C65.6523 80.2515 67.6272 82.1508 69.8354 83.7507C71.4641 84.8351 72.9623 86.1036 74.3006 87.5311C74.756 88.1786 75.4426 88.6267 76.2186 88.783C76.4161 88.7862 76.6065 88.857 76.7582 88.9836C76.9098 89.1102 77.0135 89.2849 77.0519 89.4786C77.2125 90.1386 77.5441 90.7448 78.0133 91.236C78.0968 91.357 78.1531 91.4947 78.1781 91.6395C78.2031 91.7843 78.1963 91.9329 78.1581 92.0748C78.12 92.2167 78.0514 92.3486 77.9572 92.4613C77.8629 92.574 77.7453 92.6649 77.6123 92.7275C76.9228 93.0967 76.2219 93.4571 75.512 93.7475C71.4432 95.3949 67.5359 97.4153 63.8398 99.7827C62.7004 100.526 61.5384 101.251 60.3373 101.91C56.7818 103.943 53.4224 106.301 50.3022 108.954C46.8465 111.793 43.389 114.657 40.1832 117.814C37.343 120.614 34.5819 123.474 31.9574 126.485C29.6122 129.18 29.7262 133.336 32.6265 136.271C33.7283 137.391 35.0654 138.252 36.5408 138.791C39.0878 139.773 41.7979 140.262 44.5269 140.232C47.6471 140.169 50.76 139.892 53.8746 139.707C55.434 139.612 56.9918 139.542 58.5638 139.466C60.9985 139.333 63.444 139.362 65.8539 139.039C70.388 138.426 74.8973 137.623 79.42 136.884C80.2446 136.772 81.0326 136.473 81.7242 136.01C82.4158 135.548 82.9929 134.934 83.4116 134.215C83.8894 133.431 84.5398 133.463 85.0159 134.19C85.3656 134.653 85.6405 135.169 85.8303 135.717C86.3075 137.507 86.7504 139.306 87.1202 141.13C87.8975 144.951 88.6062 148.791 89.3648 152.625C89.7363 154.54 90.1265 156.443 90.528 158.354C91.0147 160.529 91.5467 162.739 91.9446 164.936C92.2499 166.666 92.6828 168.371 93.2398 170.037C94.1028 172.628 94.9363 175.226 95.7402 177.832C96.549 180.636 97.6088 183.362 98.9068 185.977C100.498 188.931 103.129 191.191 106.29 192.319C106.83 192.549 107.405 192.688 107.991 192.729C110.781 192.861 113.212 192.195 114.76 189.588C116.083 187.417 117.119 185.084 117.844 182.647C119.015 178.624 119.996 174.555 120.86 170.45C122.637 161.735 122.87 152.774 121.548 143.976C121.311 142.235 121.225 140.476 121.291 138.72C121.277 138.524 121.31 138.328 121.387 138.147C121.463 137.966 121.581 137.806 121.731 137.68C121.881 137.553 122.059 137.464 122.25 137.419C122.441 137.374 122.64 137.375 122.831 137.421C123.411 137.487 123.978 137.644 124.509 137.885C127.047 139.128 129.548 140.442 132.086 141.695C133.722 142.57 135.406 143.35 137.132 144.032C141.633 145.625 146.135 147.229 150.869 148.11C154.817 148.783 158.829 149.004 162.827 148.768C163.518 148.757 164.205 148.653 164.868 148.458C165.543 148.29 166.128 147.871 166.505 147.286C166.882 146.701 167.021 145.995 166.894 145.311C166.819 144.532 166.681 143.76 166.482 143.004C165.387 139.047 163.703 135.276 161.485 131.82C159.739 129.117 157.871 126.49 155.986 123.886C153.125 119.928 150.167 116.039 146.432 112.83C146.053 112.538 145.788 112.1 145.441 111.779C143.137 109.671 141.11 107.274 138.486 105.523C137.661 104.995 136.927 104.336 136.314 103.572C134.989 101.877 133.398 100.408 131.602 99.2232C130.151 98.1957 129.951 97.133 131.046 95.7704C133.907 92.0576 136.43 88.0961 138.584 83.9331C139.556 82.1337 140.707 80.428 141.586 78.5846C142.755 76.1186 143.837 73.6029 144.781 71.0441C146.309 67.1373 147.276 63.0337 147.655 58.8553C147.786 57.3936 147.831 55.9254 147.789 54.4583C147.648 51.4602 146.216 50.2674 143.652 50.1928C142.087 50.1542 140.525 50.3464 139.016 50.7633C136.47 51.4519 134.056 52.559 131.873 54.0393C128.959 55.999 126.221 58.2107 123.038 59.7474C122.696 59.938 122.376 60.1654 122.083 60.4256C119.392 62.5294 116.68 64.6002 114.025 66.7502C111.638 68.6094 109.464 70.7267 107.542 73.0637C106.078 74.7674 104.526 76.3931 102.891 77.9344C102.813 78.0277 102.714 78.1009 102.602 78.1477C102.49 78.1945 102.368 78.2136 102.247 78.2033C102.126 78.1931 102.009 78.1538 101.906 78.0888C101.803 78.0238 101.718 77.935 101.657 77.8299C100.707 76.1221 99.5561 74.5345 98.2278 73.1013C95.7889 70.5843 93.223 68.1854 90.6932 65.7513C89.5707 64.671 88.4744 63.5567 87.2592 62.585C84.9233 60.6243 82.4956 58.8179 80.0983 56.972L80.1296 56.9781ZM44.7151 143.123C45.2448 143.563 45.8929 143.836 46.5776 143.909C51.2092 144.631 55.8348 145.15 60.482 144.039C64.126 143.857 67.4814 142.435 70.9558 141.537C71.0497 141.506 71.1298 141.444 71.1821 141.36C71.2293 141.289 71.2472 141.203 71.2321 141.12C71.2074 141.046 71.1374 140.938 71.0704 140.932C70.7861 140.882 70.4972 140.865 70.2091 140.881C61.9684 141.664 53.73 142.503 45.4538 142.818C45.2354 142.821 45.0466 142.973 44.6964 143.135L44.7151 143.123ZM34.025 120.174C34.5135 120.019 34.7432 120.025 34.8559 119.914C39.4983 115.055 44.9514 111.107 49.8569 106.55C49.9048 106.488 49.8991 106.366 49.9283 106.2C49.6451 106.252 49.3315 106.226 49.1401 106.358C45.7227 108.749 42.0187 110.776 39.0436 113.75C37.0436 115.623 35.3395 117.789 33.9893 120.174L34.025 120.174ZM29.2839 134.706C29.0421 134.295 28.8143 133.912 28.5777 133.541C28.5382 133.51 28.3942 133.499 28.328 133.538C28.2619 133.577 28.2323 133.662 28.2484 133.746C28.238 133.972 28.3005 134.196 28.4266 134.384C28.5527 134.571 28.7358 134.714 28.9489 134.79C28.9716 134.807 29.0564 134.756 29.2482 134.705L29.2839 134.706Z" fill="#5C5470" fill-opacity="0.6"/>
</g>
<g clip-path="url(#clip1_21_13)">
<path d="M731.283 696.908C732.392 697.807 733.388 698.619 734.403 699.418C735.129 699.957 735.799 700.567 736.405 701.239C736.548 701.4 736.707 701.546 736.879 701.676C738.051 702.623 739.107 703.705 740.026 704.9C740.189 705.1 740.363 705.292 740.548 705.473C740.613 705.529 740.697 705.559 740.783 705.558C740.869 705.556 740.952 705.522 741.015 705.464C741.571 704.812 742.137 704.158 742.681 703.498C743.373 702.671 744.159 701.929 745.024 701.287C746.255 700.354 747.45 699.375 748.682 698.442C749.159 698.08 749.697 697.802 750.204 697.471C751.136 696.857 752.075 696.212 752.994 695.614C754.106 694.878 755.329 694.325 756.616 693.975C757.449 693.75 758.32 693.697 759.175 693.821C759.63 693.856 760.063 694.03 760.415 694.321C760.767 694.611 761.021 695.003 761.141 695.443C761.28 695.85 761.356 696.276 761.367 696.706C761.39 697.954 761.281 699.201 761.042 700.426C760.579 702.566 759.881 704.649 758.962 706.637C758.682 707.265 758.357 707.872 757.987 708.452C757.555 709.144 757.162 709.861 756.812 710.598C756.203 711.784 755.502 712.921 754.716 713.998C754.507 714.269 754.281 714.563 754.085 714.817C753.822 715.218 753.837 715.373 754.171 715.711C755.496 717.124 756.898 718.462 758.371 719.72C759.083 720.268 759.658 720.972 760.306 721.605C761.109 722.386 761.867 723.203 762.62 724.026C763.437 724.968 764.196 725.959 764.893 726.992C765.302 727.55 765.658 728.139 766.065 728.687C767.503 730.628 768.599 732.799 769.308 735.108C769.511 735.771 769.618 736.459 769.625 737.152C769.651 737.455 769.576 737.757 769.411 738.011C769.246 738.266 769.001 738.458 768.714 738.557C768.208 738.793 767.662 738.935 767.105 738.974C765.684 739.062 764.258 739.019 762.846 738.845C761.443 738.647 760.061 738.324 758.716 737.88C758.061 737.654 757.411 737.423 756.754 737.224C755.447 736.791 754.181 736.243 752.97 735.588C752.163 735.174 751.349 734.781 750.543 734.377L750.187 734.219C749.897 734.104 749.637 734.255 749.655 734.548C749.659 735.022 749.689 735.495 749.743 735.966C749.985 737.757 750.081 739.565 750.03 741.371C750.047 743.658 749.802 745.94 749.297 748.17C748.937 749.585 748.651 751.021 748.281 752.437C748.044 753.352 747.752 754.251 747.406 755.13C747.169 755.777 746.827 756.38 746.392 756.914C745.78 757.616 744.95 758.092 744.035 758.264C743.119 758.436 742.173 758.295 741.347 757.863C740.199 757.267 739.196 756.424 738.411 755.395C738.131 755.014 737.904 754.597 737.736 754.155C736.858 751.958 736.091 749.718 735.437 747.444C735.198 746.585 735.003 745.669 734.84 744.805C734.275 742.111 733.696 739.424 733.17 736.715C733.014 735.737 732.793 734.77 732.509 733.82C732.397 733.509 732.272 733.449 731.92 733.556C731.584 733.634 731.258 733.748 730.947 733.896C729.546 734.662 728.001 735.102 726.583 735.819C726.352 735.937 726.107 736.023 725.854 736.077C724.34 736.37 722.82 736.648 721.3 736.927C721.172 736.948 721.042 736.96 720.912 736.961C719.625 736.984 718.337 736.93 717.056 736.8C715.989 736.663 714.947 736.373 713.963 735.94C712.423 735.285 710.855 734.689 709.301 734.052C708.786 733.844 708.281 733.599 707.779 733.338C707.59 733.239 707.429 733.094 707.312 732.916C706.909 732.301 706.679 731.589 706.647 730.855C706.606 730.33 706.761 729.808 707.082 729.39C707.186 729.254 707.291 729.119 707.395 728.983C707.956 728.33 708.373 727.565 708.619 726.739C708.83 726.038 709.158 725.378 709.591 724.787C709.706 724.66 709.811 724.524 709.904 724.38C710.472 723.318 711.264 722.393 712.226 721.668C714.801 719.512 717.664 717.727 720.733 716.364C721.756 715.916 722.774 715.46 723.785 714.996C724.891 714.521 725.933 713.907 726.884 713.17C728.076 712.207 727.987 712.066 726.99 711.091C726.766 710.892 726.528 710.709 726.278 710.543C724.524 709.216 722.981 707.63 721.703 705.841C721.227 705.182 720.8 704.49 720.426 703.768C719.805 702.633 719.189 701.502 718.642 700.342C718.126 699.301 717.793 698.18 717.655 697.027C717.595 696.425 717.625 695.817 717.746 695.224C717.852 694.65 718.103 694.112 718.474 693.661C718.845 693.21 719.324 692.86 719.867 692.645C720.46 692.404 721.093 692.281 721.733 692.281C723.861 692.228 725.94 692.93 727.602 694.262C728.885 695.169 730.146 696.069 731.283 696.908Z" fill="#5C5470" fill-opacity="0.6"/>
<path d="M718.616 668.422C721.124 670.452 723.391 672.315 725.687 674.128C727.339 675.347 728.865 676.727 730.242 678.248C730.558 678.608 730.909 678.936 731.29 679.226C733.955 681.371 736.356 683.824 738.443 686.534C738.813 686.99 739.214 687.416 739.62 687.836C739.771 687.962 739.963 688.028 740.159 688.021C740.355 688.014 740.542 687.936 740.684 687.8C741.951 686.318 743.229 684.845 744.462 683.338C746.036 681.47 747.822 679.791 749.783 678.334C752.573 676.207 755.291 673.988 758.092 671.87C759.171 671.054 760.392 670.428 761.53 669.675C763.654 668.286 765.759 666.873 767.864 665.461C770.388 663.79 773.162 662.532 776.083 661.735C777.975 661.221 779.954 661.105 781.893 661.394C782.925 661.469 783.909 661.862 784.708 662.519C785.507 663.176 786.082 664.065 786.354 665.063C786.662 665.986 786.831 666.95 786.854 667.923C786.906 670.752 786.659 673.579 786.116 676.356C785.087 681.231 783.525 685.978 781.458 690.51C780.819 691.931 780.078 693.304 779.24 694.618C778.265 696.192 777.377 697.819 776.579 699.49C775.192 702.179 773.603 704.759 771.825 707.207C771.379 707.845 770.872 708.445 770.46 709.108C769.862 710.025 769.892 710.372 770.677 711.166C773.677 714.371 776.856 717.405 780.198 720.252C781.781 721.553 783.132 723.097 784.586 724.531C786.4 726.315 788.108 728.144 789.844 730.029C791.696 732.171 793.42 734.421 795.005 736.767C795.921 738.021 796.736 739.36 797.663 740.613C800.922 745.013 803.409 749.936 805.016 755.169C805.481 756.663 805.729 758.215 805.754 759.779C805.815 760.464 805.645 761.15 805.273 761.729C804.901 762.307 804.347 762.746 803.698 762.975C802.545 763.509 801.304 763.829 800.036 763.918C796.81 764.112 793.573 764.009 790.366 763.61C787.178 763.156 784.036 762.423 780.975 761.419C779.495 760.909 778.024 760.398 776.53 759.94C773.565 758.951 770.691 757.705 767.942 756.216C766.115 755.278 764.27 754.388 762.432 753.477C762.171 753.348 761.91 753.219 761.636 753.107C761.508 753.033 761.364 752.995 761.216 752.997C761.069 752.999 760.925 753.041 760.8 753.119C760.675 753.196 760.573 753.306 760.506 753.436C760.438 753.567 760.407 753.713 760.416 753.86C760.432 754.937 760.506 756.013 760.637 757.082C761.179 761.148 761.39 765.251 761.269 769.35C761.294 774.524 760.721 779.683 759.562 784.725C758.75 787.943 758.096 791.202 757.257 794.408C756.722 796.486 756.053 798.526 755.255 800.517C754.729 801.989 753.954 803.359 752.964 804.568C751.863 805.89 750.408 806.871 748.77 807.398C747.132 807.924 745.378 807.975 743.712 807.543C742.944 807.378 742.203 807.109 741.507 806.745C738.895 805.392 736.613 803.478 734.825 801.141C734.193 800.276 733.679 799.33 733.299 798.328C731.307 793.344 729.569 788.262 728.091 783.102C727.525 781.136 727.149 779.109 726.73 777.104C725.446 770.993 724.147 764.88 722.937 758.755C722.591 756.537 722.089 754.347 721.437 752.199C721.186 751.484 720.898 751.343 720.102 751.594C719.352 751.779 718.622 752.037 717.923 752.365C714.765 754.127 711.244 755.097 708.023 756.731C707.502 757.004 706.946 757.203 706.37 757.321C702.931 757.986 699.483 758.616 696.032 759.262C695.741 759.305 695.448 759.326 695.155 759.325C692.239 759.387 689.322 759.269 686.42 758.972C684 758.668 681.636 758.015 679.402 757.033C675.907 755.548 672.348 754.193 668.828 752.752C667.651 752.269 666.511 751.715 665.387 751.128C664.955 750.908 664.587 750.581 664.317 750.178C663.401 748.782 662.883 747.163 662.817 745.495C662.73 744.312 663.074 743.138 663.785 742.19C664.025 741.879 664.264 741.569 664.499 741.263C665.769 739.786 666.709 738.055 667.256 736.186C667.738 734.59 668.489 733.089 669.476 731.747C669.723 731.444 669.945 731.121 670.139 730.781C671.35 728.249 673.326 726.35 675.424 724.608C681.265 719.714 687.763 715.661 694.728 712.568C697.044 711.549 699.354 710.517 701.66 709.472C704.168 708.386 706.531 706.991 708.694 705.32C711.397 703.143 711.191 702.814 708.939 700.603C708.43 700.143 707.886 699.724 707.311 699.349C703.202 696.428 699.973 692.645 696.952 688.673C695.866 687.175 694.895 685.597 694.049 683.952C692.648 681.397 691.25 678.827 689.995 676.186C688.825 673.823 688.072 671.276 687.768 668.657C687.626 667.295 687.698 665.92 687.98 664.581C688.215 663.276 688.779 662.054 689.62 661.03C690.461 660.005 691.55 659.213 692.784 658.729C694.137 658.164 695.588 657.869 697.055 657.86C701.884 657.742 706.6 659.336 710.369 662.36C713.15 664.456 716.006 666.502 718.616 668.422ZM717.13 669.978L717.195 669.893C714.719 667.986 712.286 666.023 709.766 664.173C706.148 661.549 702.258 659.688 697.615 659.776C696.052 659.776 694.509 660.126 693.099 660.799C692.34 661.141 691.671 661.656 691.148 662.304C690.624 662.951 690.26 663.713 690.084 664.527C689.635 666.43 689.608 668.41 690.005 670.325C690.474 672.719 691.248 675.043 692.31 677.239C694.644 682.184 697.55 686.838 700.968 691.107C702.652 693.251 704.627 695.151 706.835 696.751C708.464 697.835 709.962 699.104 711.301 700.531C711.756 701.178 712.443 701.627 713.219 701.783C713.416 701.786 713.607 701.857 713.758 701.984C713.91 702.11 714.014 702.285 714.052 702.479C714.212 703.139 714.544 703.745 715.013 704.236C715.097 704.357 715.153 704.495 715.178 704.639C715.203 704.784 715.196 704.933 715.158 705.075C715.12 705.217 715.051 705.349 714.957 705.461C714.863 705.574 714.745 705.665 714.612 705.727C713.923 706.097 713.222 706.457 712.512 706.747C708.443 708.395 704.536 710.415 700.84 712.783C699.7 713.525 698.538 714.251 697.337 714.91C693.782 716.943 690.422 719.301 687.302 721.954C683.846 724.793 680.389 727.657 677.183 730.814C674.343 733.614 671.582 736.474 668.957 739.485C666.612 742.18 666.726 746.336 669.626 749.271C670.728 750.391 672.065 751.252 673.541 751.791C676.088 752.772 678.798 753.262 681.527 753.232C684.647 753.169 687.76 752.892 690.875 752.707C692.434 752.612 693.992 752.542 695.564 752.466C697.999 752.333 700.444 752.362 702.854 752.039C707.388 751.426 711.897 750.623 716.42 749.884C717.245 749.772 718.033 749.473 718.724 749.01C719.416 748.548 719.993 747.934 720.412 747.215C720.889 746.431 721.54 746.463 722.016 747.19C722.366 747.653 722.64 748.169 722.83 748.717C723.308 750.507 723.75 752.306 724.12 754.13C724.898 757.951 725.606 761.791 726.365 765.625C726.736 767.54 727.127 769.443 727.528 771.354C728.015 773.529 728.547 775.739 728.945 777.936C729.25 779.666 729.683 781.371 730.24 783.037C731.103 785.628 731.936 788.226 732.74 790.831C733.549 793.636 734.609 796.362 735.907 798.977C737.498 801.931 740.129 804.191 743.29 805.319C743.83 805.549 744.405 805.688 744.991 805.729C747.781 805.861 750.212 805.195 751.76 802.588C753.083 800.417 754.119 798.084 754.844 795.647C756.015 791.624 756.996 787.555 757.86 783.45C759.637 774.734 759.87 765.774 758.548 756.976C758.311 755.235 758.225 753.476 758.291 751.72C758.277 751.524 758.31 751.328 758.387 751.147C758.463 750.966 758.581 750.806 758.731 750.68C758.881 750.553 759.059 750.464 759.25 750.419C759.441 750.374 759.64 750.375 759.831 750.421C760.411 750.487 760.978 750.643 761.509 750.885C764.047 752.128 766.548 753.442 769.086 754.695C770.722 755.57 772.406 756.35 774.132 757.031C778.633 758.625 783.135 760.229 787.869 761.11C791.817 761.783 795.829 762.004 799.827 761.768C800.518 761.757 801.205 761.652 801.868 761.457C802.543 761.29 803.128 760.871 803.505 760.286C803.882 759.701 804.021 758.995 803.894 758.311C803.819 757.532 803.681 756.76 803.482 756.004C802.387 752.047 800.703 748.276 798.485 744.82C796.739 742.117 794.871 739.49 792.986 736.886C790.125 732.928 787.167 729.039 783.432 725.83C783.053 725.538 782.788 725.1 782.441 724.778C780.137 722.671 778.11 720.274 775.486 718.523C774.661 717.995 773.927 717.336 773.314 716.572C771.989 714.877 770.398 713.408 768.602 712.223C767.151 711.196 766.951 710.133 768.046 708.77C770.907 705.058 773.43 701.096 775.584 696.933C776.556 695.134 777.707 693.428 778.586 691.584C779.755 689.118 780.837 686.603 781.781 684.044C783.309 680.137 784.276 676.034 784.655 671.855C784.786 670.394 784.831 668.925 784.789 667.458C784.648 664.46 783.216 663.267 780.652 663.193C779.087 663.154 777.525 663.346 776.016 663.763C773.47 664.452 771.056 665.559 768.873 667.039C765.959 668.999 763.221 671.211 760.038 672.747C759.696 672.938 759.376 673.165 759.083 673.426C756.392 675.529 753.68 677.6 751.025 679.75C748.638 681.609 746.464 683.727 744.542 686.064C743.078 687.767 741.526 689.393 739.891 690.934C739.813 691.028 739.714 691.101 739.602 691.148C739.49 691.194 739.368 691.214 739.247 691.203C739.126 691.193 739.009 691.154 738.906 691.089C738.803 691.024 738.718 690.935 738.657 690.83C737.707 689.122 736.556 687.534 735.228 686.101C732.789 683.584 730.223 681.185 727.693 678.751C726.571 677.671 725.474 676.557 724.259 675.585C721.923 673.624 719.496 671.818 717.098 669.972L717.13 669.978ZM681.715 756.123C682.245 756.563 682.893 756.836 683.578 756.909C688.209 757.631 692.835 758.15 697.482 757.039C701.126 756.857 704.481 755.435 707.956 754.537C708.05 754.506 708.13 754.444 708.182 754.36C708.229 754.289 708.247 754.203 708.232 754.119C708.207 754.046 708.137 753.938 708.07 753.932C707.786 753.882 707.497 753.865 707.209 753.881C698.968 754.664 690.73 755.503 682.454 755.818C682.235 755.821 682.047 755.973 681.696 756.135L681.715 756.123ZM671.025 733.174C671.514 733.019 671.743 733.025 671.856 732.914C676.498 728.054 681.951 724.107 686.857 719.55C686.905 719.488 686.899 719.366 686.928 719.2C686.645 719.252 686.331 719.226 686.14 719.358C682.723 721.749 679.019 723.775 676.044 726.75C674.044 728.623 672.339 730.789 670.989 733.174L671.025 733.174ZM666.284 747.706C666.042 747.295 665.814 746.912 665.578 746.541C665.538 746.51 665.394 746.499 665.328 746.538C665.262 746.577 665.232 746.662 665.248 746.746C665.238 746.972 665.3 747.196 665.427 747.384C665.553 747.571 665.736 747.714 665.949 747.79C665.972 747.807 666.056 747.756 666.248 747.705L666.284 747.706Z" fill="#5C5470" fill-opacity="0.6"/>
</g>
<g clip-path="url(#clip2_21_13)">
<path d="M1584.28 389.908C1585.39 390.807 1586.39 391.619 1587.4 392.418C1588.13 392.958 1588.8 393.567 1589.4 394.239C1589.55 394.4 1589.71 394.546 1589.88 394.676C1591.05 395.623 1592.11 396.706 1593.03 397.9C1593.19 398.1 1593.36 398.292 1593.55 398.473C1593.61 398.529 1593.7 398.56 1593.78 398.558C1593.87 398.556 1593.95 398.522 1594.01 398.464C1594.57 397.812 1595.14 397.158 1595.68 396.498C1596.37 395.672 1597.16 394.929 1598.02 394.287C1599.26 393.354 1600.45 392.375 1601.68 391.442C1602.16 391.08 1602.7 390.802 1603.2 390.472C1604.14 389.857 1605.07 389.212 1605.99 388.614C1607.11 387.878 1608.33 387.325 1609.62 386.975C1610.45 386.75 1611.32 386.697 1612.17 386.821C1612.63 386.856 1613.06 387.03 1613.41 387.321C1613.77 387.611 1614.02 388.003 1614.14 388.443C1614.28 388.85 1614.36 389.276 1614.37 389.706C1614.39 390.954 1614.28 392.201 1614.04 393.426C1613.58 395.566 1612.88 397.649 1611.96 399.637C1611.68 400.265 1611.36 400.872 1610.99 401.452C1610.55 402.144 1610.16 402.861 1609.81 403.598C1609.2 404.784 1608.5 405.921 1607.72 406.998C1607.51 407.269 1607.28 407.563 1607.09 407.817C1606.82 408.218 1606.84 408.373 1607.17 408.712C1608.5 410.124 1609.9 411.462 1611.37 412.72C1612.08 413.268 1612.66 413.972 1613.31 414.605C1614.11 415.386 1614.87 416.203 1615.62 417.026C1616.44 417.968 1617.2 418.959 1617.89 419.992C1618.3 420.55 1618.66 421.139 1619.07 421.687C1620.5 423.628 1621.6 425.799 1622.31 428.108C1622.51 428.771 1622.62 429.459 1622.62 430.152C1622.65 430.455 1622.58 430.757 1622.41 431.011C1622.25 431.266 1622 431.458 1621.71 431.557C1621.21 431.793 1620.66 431.935 1620.1 431.974C1618.68 432.062 1617.26 432.019 1615.85 431.845C1614.44 431.647 1613.06 431.324 1611.72 430.88C1611.06 430.654 1610.41 430.423 1609.75 430.224C1608.45 429.791 1607.18 429.243 1605.97 428.588C1605.16 428.174 1604.35 427.781 1603.54 427.377L1603.19 427.219C1602.9 427.104 1602.64 427.255 1602.65 427.548C1602.66 428.022 1602.69 428.495 1602.74 428.966C1602.99 430.757 1603.08 432.565 1603.03 434.371C1603.05 436.658 1602.8 438.94 1602.3 441.17C1601.94 442.585 1601.65 444.021 1601.28 445.437C1601.04 446.352 1600.75 447.251 1600.41 448.13C1600.17 448.777 1599.83 449.38 1599.39 449.914C1598.78 450.616 1597.95 451.092 1597.03 451.264C1596.12 451.436 1595.17 451.295 1594.35 450.863C1593.2 450.267 1592.2 449.424 1591.41 448.396C1591.13 448.015 1590.9 447.597 1590.74 447.155C1589.86 444.958 1589.09 442.718 1588.44 440.444C1588.2 439.585 1588 438.669 1587.84 437.805C1587.27 435.111 1586.7 432.424 1586.17 429.715C1586.01 428.737 1585.79 427.77 1585.51 426.82C1585.4 426.509 1585.27 426.449 1584.92 426.556C1584.58 426.634 1584.26 426.748 1583.95 426.896C1582.55 427.662 1581 428.102 1579.58 428.819C1579.35 428.937 1579.11 429.023 1578.85 429.077C1577.34 429.37 1575.82 429.648 1574.3 429.927C1574.17 429.948 1574.04 429.96 1573.91 429.962C1572.62 429.984 1571.34 429.93 1570.06 429.8C1568.99 429.663 1567.95 429.373 1566.96 428.94C1565.42 428.285 1563.85 427.69 1562.3 427.052C1561.79 426.844 1561.28 426.599 1560.78 426.338C1560.59 426.239 1560.43 426.094 1560.31 425.916C1559.91 425.301 1559.68 424.589 1559.65 423.855C1559.61 423.33 1559.76 422.808 1560.08 422.39C1560.19 422.254 1560.29 422.119 1560.39 421.983C1560.96 421.33 1561.37 420.565 1561.62 419.739C1561.83 419.038 1562.16 418.378 1562.59 417.787C1562.71 417.66 1562.81 417.524 1562.9 417.38C1563.47 416.318 1564.26 415.393 1565.23 414.668C1567.8 412.512 1570.66 410.727 1573.73 409.364C1574.76 408.916 1575.77 408.46 1576.79 407.996C1577.89 407.521 1578.93 406.907 1579.88 406.17C1581.08 405.207 1580.99 405.066 1579.99 404.092C1579.77 403.892 1579.53 403.709 1579.28 403.543C1577.52 402.216 1575.98 400.63 1574.7 398.841C1574.23 398.182 1573.8 397.49 1573.43 396.768C1572.8 395.633 1572.19 394.502 1571.64 393.342C1571.13 392.301 1570.79 391.18 1570.66 390.027C1570.59 389.425 1570.63 388.817 1570.75 388.224C1570.85 387.65 1571.1 387.112 1571.47 386.661C1571.84 386.21 1572.32 385.86 1572.87 385.645C1573.46 385.405 1574.09 385.281 1574.73 385.281C1576.86 385.228 1578.94 385.93 1580.6 387.262C1581.88 388.169 1583.15 389.069 1584.28 389.908Z" fill="#5C5470" fill-opacity="0.6"/>
<path d="M1571.62 361.422C1574.12 363.452 1576.39 365.315 1578.69 367.128C1580.34 368.347 1581.86 369.727 1583.24 371.248C1583.56 371.608 1583.91 371.936 1584.29 372.226C1586.95 374.371 1589.36 376.824 1591.44 379.534C1591.81 379.99 1592.21 380.416 1592.62 380.836C1592.77 380.962 1592.96 381.028 1593.16 381.021C1593.35 381.014 1593.54 380.936 1593.68 380.8C1594.95 379.318 1596.23 377.845 1597.46 376.338C1599.04 374.47 1600.82 372.791 1602.78 371.334C1605.57 369.208 1608.29 366.989 1611.09 364.87C1612.17 364.054 1613.39 363.428 1614.53 362.675C1616.65 361.286 1618.76 359.873 1620.86 358.461C1623.39 356.79 1626.16 355.532 1629.08 354.735C1630.97 354.221 1632.95 354.105 1634.89 354.394C1635.93 354.469 1636.91 354.862 1637.71 355.519C1638.51 356.176 1639.08 357.065 1639.35 358.063C1639.66 358.986 1639.83 359.95 1639.85 360.923C1639.91 363.752 1639.66 366.579 1639.12 369.356C1638.09 374.231 1636.53 378.978 1634.46 383.51C1633.82 384.931 1633.08 386.304 1632.24 387.618C1631.27 389.192 1630.38 390.819 1629.58 392.49C1628.19 395.179 1626.6 397.759 1624.82 400.207C1624.38 400.845 1623.87 401.445 1623.46 402.108C1622.86 403.025 1622.89 403.372 1623.68 404.166C1626.68 407.371 1629.86 410.405 1633.2 413.252C1634.78 414.553 1636.13 416.097 1637.59 417.531C1639.4 419.315 1641.11 421.144 1642.84 423.03C1644.7 425.171 1646.42 427.421 1648 429.767C1648.92 431.021 1649.74 432.36 1650.66 433.613C1653.92 438.013 1656.41 442.936 1658.02 448.169C1658.48 449.663 1658.73 451.215 1658.75 452.779C1658.81 453.464 1658.65 454.15 1658.27 454.729C1657.9 455.307 1657.35 455.746 1656.7 455.975C1655.54 456.509 1654.3 456.829 1653.04 456.918C1649.81 457.112 1646.57 457.009 1643.37 456.61C1640.18 456.156 1637.04 455.423 1633.98 454.419C1632.49 453.909 1631.02 453.398 1629.53 452.94C1626.56 451.951 1623.69 450.705 1620.94 449.216C1619.12 448.278 1617.27 447.388 1615.43 446.477C1615.17 446.348 1614.91 446.219 1614.64 446.107C1614.51 446.033 1614.36 445.995 1614.22 445.997C1614.07 445.999 1613.93 446.041 1613.8 446.119C1613.68 446.196 1613.57 446.306 1613.51 446.436C1613.44 446.567 1613.41 446.713 1613.42 446.86C1613.43 447.937 1613.51 449.013 1613.64 450.082C1614.18 454.148 1614.39 458.251 1614.27 462.35C1614.29 467.524 1613.72 472.683 1612.56 477.725C1611.75 480.943 1611.1 484.202 1610.26 487.408C1609.72 489.486 1609.05 491.526 1608.25 493.517C1607.73 494.989 1606.95 496.359 1605.96 497.568C1604.86 498.89 1603.41 499.871 1601.77 500.398C1600.13 500.924 1598.38 500.975 1596.71 500.543C1595.94 500.378 1595.2 500.109 1594.51 499.745C1591.89 498.392 1589.61 496.478 1587.83 494.141C1587.19 493.276 1586.68 492.33 1586.3 491.328C1584.31 486.344 1582.57 481.262 1581.09 476.102C1580.52 474.136 1580.15 472.109 1579.73 470.104C1578.45 463.993 1577.15 457.88 1575.94 451.755C1575.59 449.537 1575.09 447.347 1574.44 445.199C1574.19 444.484 1573.9 444.343 1573.1 444.594C1572.35 444.779 1571.62 445.037 1570.92 445.365C1567.76 447.127 1564.24 448.097 1561.02 449.731C1560.5 450.004 1559.95 450.203 1559.37 450.321C1555.93 450.986 1552.48 451.616 1549.03 452.262C1548.74 452.305 1548.45 452.326 1548.15 452.325C1545.24 452.387 1542.32 452.269 1539.42 451.972C1537 451.668 1534.64 451.015 1532.4 450.033C1528.91 448.548 1525.35 447.193 1521.83 445.752C1520.65 445.269 1519.51 444.715 1518.39 444.128C1517.96 443.908 1517.59 443.581 1517.32 443.179C1516.4 441.782 1515.88 440.163 1515.82 438.495C1515.73 437.312 1516.07 436.138 1516.79 435.19C1517.02 434.879 1517.26 434.569 1517.5 434.264C1518.77 432.787 1519.71 431.055 1520.26 429.186C1520.74 427.591 1521.49 426.09 1522.48 424.747C1522.72 424.444 1522.94 424.121 1523.14 423.781C1524.35 421.249 1526.33 419.35 1528.42 417.608C1534.27 412.714 1540.76 408.661 1547.73 405.568C1550.04 404.549 1552.35 403.517 1554.66 402.472C1557.17 401.386 1559.53 399.991 1561.69 398.32C1564.4 396.143 1564.19 395.814 1561.94 393.603C1561.43 393.143 1560.89 392.724 1560.31 392.349C1556.2 389.428 1552.97 385.645 1549.95 381.673C1548.87 380.175 1547.9 378.597 1547.05 376.952C1545.65 374.397 1544.25 371.827 1543 369.186C1541.83 366.823 1541.07 364.276 1540.77 361.657C1540.63 360.295 1540.7 358.92 1540.98 357.581C1541.21 356.276 1541.78 355.054 1542.62 354.03C1543.46 353.005 1544.55 352.213 1545.78 351.729C1547.14 351.164 1548.59 350.869 1550.06 350.86C1554.88 350.742 1559.6 352.336 1563.37 355.36C1566.15 357.456 1569.01 359.502 1571.62 361.422ZM1570.13 362.978L1570.19 362.893C1567.72 360.986 1565.29 359.023 1562.77 357.173C1559.15 354.549 1555.26 352.688 1550.62 352.776C1549.05 352.776 1547.51 353.126 1546.1 353.799C1545.34 354.141 1544.67 354.656 1544.15 355.304C1543.62 355.951 1543.26 356.713 1543.08 357.527C1542.63 359.43 1542.61 361.41 1543.01 363.325C1543.47 365.719 1544.25 368.043 1545.31 370.24C1547.64 375.184 1550.55 379.839 1553.97 384.107C1555.65 386.251 1557.63 388.151 1559.84 389.751C1561.46 390.835 1562.96 392.104 1564.3 393.531C1564.76 394.179 1565.44 394.627 1566.22 394.783C1566.42 394.786 1566.61 394.857 1566.76 394.984C1566.91 395.11 1567.01 395.285 1567.05 395.479C1567.21 396.139 1567.54 396.745 1568.01 397.236C1568.1 397.357 1568.15 397.495 1568.18 397.64C1568.2 397.784 1568.2 397.933 1568.16 398.075C1568.12 398.217 1568.05 398.349 1567.96 398.461C1567.86 398.574 1567.75 398.665 1567.61 398.728C1566.92 399.097 1566.22 399.457 1565.51 399.748C1561.44 401.395 1557.54 403.415 1553.84 405.783C1552.7 406.526 1551.54 407.251 1550.34 407.91C1546.78 409.943 1543.42 412.301 1540.3 414.954C1536.85 417.793 1533.39 420.657 1530.18 423.814C1527.34 426.614 1524.58 429.474 1521.96 432.485C1519.61 435.18 1519.73 439.336 1522.63 442.271C1523.73 443.391 1525.07 444.252 1526.54 444.791C1529.09 445.773 1531.8 446.262 1534.53 446.232C1537.65 446.169 1540.76 445.892 1543.87 445.707C1545.43 445.612 1546.99 445.542 1548.56 445.466C1551 445.333 1553.44 445.362 1555.85 445.039C1560.39 444.426 1564.9 443.623 1569.42 442.884C1570.24 442.772 1571.03 442.473 1571.72 442.01C1572.42 441.548 1572.99 440.934 1573.41 440.215C1573.89 439.431 1574.54 439.463 1575.02 440.19C1575.37 440.653 1575.64 441.169 1575.83 441.717C1576.31 443.507 1576.75 445.306 1577.12 447.13C1577.9 450.951 1578.61 454.791 1579.36 458.625C1579.74 460.54 1580.13 462.443 1580.53 464.354C1581.01 466.529 1581.55 468.739 1581.94 470.936C1582.25 472.666 1582.68 474.371 1583.24 476.037C1584.1 478.628 1584.94 481.226 1585.74 483.832C1586.55 486.636 1587.61 489.362 1588.91 491.977C1590.5 494.931 1593.13 497.191 1596.29 498.319C1596.83 498.549 1597.41 498.688 1597.99 498.729C1600.78 498.861 1603.21 498.195 1604.76 495.588C1606.08 493.417 1607.12 491.084 1607.84 488.647C1609.01 484.624 1610 480.555 1610.86 476.45C1612.64 467.735 1612.87 458.774 1611.55 449.976C1611.31 448.235 1611.22 446.476 1611.29 444.72C1611.28 444.524 1611.31 444.328 1611.39 444.147C1611.46 443.966 1611.58 443.806 1611.73 443.68C1611.88 443.553 1612.06 443.464 1612.25 443.419C1612.44 443.374 1612.64 443.375 1612.83 443.421C1613.41 443.487 1613.98 443.644 1614.51 443.885C1617.05 445.128 1619.55 446.442 1622.09 447.695C1623.72 448.57 1625.41 449.35 1627.13 450.032C1631.63 451.625 1636.13 453.229 1640.87 454.11C1644.82 454.783 1648.83 455.004 1652.83 454.768C1653.52 454.757 1654.2 454.653 1654.87 454.458C1655.54 454.29 1656.13 453.871 1656.5 453.286C1656.88 452.701 1657.02 451.995 1656.89 451.311C1656.82 450.532 1656.68 449.76 1656.48 449.004C1655.39 445.047 1653.7 441.276 1651.49 437.82C1649.74 435.117 1647.87 432.49 1645.99 429.886C1643.12 425.928 1640.17 422.039 1636.43 418.83C1636.05 418.538 1635.79 418.1 1635.44 417.779C1633.14 415.671 1631.11 413.274 1628.49 411.523C1627.66 410.995 1626.93 410.336 1626.31 409.572C1624.99 407.877 1623.4 406.408 1621.6 405.223C1620.15 404.196 1619.95 403.133 1621.05 401.77C1623.91 398.058 1626.43 394.096 1628.58 389.933C1629.56 388.134 1630.71 386.428 1631.59 384.585C1632.76 382.119 1633.84 379.603 1634.78 377.044C1636.31 373.137 1637.28 369.034 1637.65 364.855C1637.79 363.394 1637.83 361.925 1637.79 360.458C1637.65 357.46 1636.22 356.267 1633.65 356.193C1632.09 356.154 1630.52 356.346 1629.02 356.763C1626.47 357.452 1624.06 358.559 1621.87 360.039C1618.96 361.999 1616.22 364.211 1613.04 365.747C1612.7 365.938 1612.38 366.165 1612.08 366.426C1609.39 368.529 1606.68 370.6 1604.02 372.75C1601.64 374.609 1599.46 376.727 1597.54 379.064C1596.08 380.767 1594.53 382.393 1592.89 383.934C1592.81 384.028 1592.71 384.101 1592.6 384.148C1592.49 384.195 1592.37 384.214 1592.25 384.203C1592.13 384.193 1592.01 384.154 1591.91 384.089C1591.8 384.024 1591.72 383.935 1591.66 383.83C1590.71 382.122 1589.56 380.535 1588.23 379.101C1585.79 376.584 1583.22 374.185 1580.69 371.751C1579.57 370.671 1578.47 369.557 1577.26 368.585C1574.92 366.624 1572.5 364.818 1570.1 362.972L1570.13 362.978ZM1534.71 449.123C1535.24 449.563 1535.89 449.836 1536.58 449.909C1541.21 450.631 1545.83 451.15 1550.48 450.039C1554.13 449.857 1557.48 448.435 1560.96 447.537C1561.05 447.506 1561.13 447.444 1561.18 447.36C1561.23 447.289 1561.25 447.203 1561.23 447.12C1561.21 447.046 1561.14 446.938 1561.07 446.932C1560.79 446.882 1560.5 446.865 1560.21 446.881C1551.97 447.664 1543.73 448.503 1535.45 448.818C1535.24 448.821 1535.05 448.973 1534.7 449.135L1534.71 449.123ZM1524.02 426.174C1524.51 426.019 1524.74 426.025 1524.86 425.914C1529.5 421.055 1534.95 417.107 1539.86 412.55C1539.9 412.488 1539.9 412.366 1539.93 412.2C1539.65 412.252 1539.33 412.226 1539.14 412.358C1535.72 414.749 1532.02 416.776 1529.04 419.75C1527.04 421.623 1525.34 423.789 1523.99 426.174L1524.02 426.174ZM1519.28 440.706C1519.04 440.295 1518.81 439.912 1518.58 439.541C1518.54 439.51 1518.39 439.499 1518.33 439.538C1518.26 439.577 1518.23 439.662 1518.25 439.746C1518.24 439.972 1518.3 440.196 1518.43 440.384C1518.55 440.571 1518.74 440.714 1518.95 440.79C1518.97 440.807 1519.06 440.756 1519.25 440.705L1519.28 440.706Z" fill="#5C5470" fill-opacity="0.6"/>
</g>
<g clip-path="url(#clip3_21_13)">
<path d="M1028.76 161.247C1027.98 160.572 1027.44 159.647 1027.25 158.627C1026.4 155.778 1025.63 152.919 1024.88 150.075C1022.64 142.012 1019.72 134.153 1016.15 126.583C1014.57 123.121 1012.99 119.622 1011.58 116.059C1007.2 105.391 1001.66 95.2373 995.058 85.7827C987.886 75.0615 979.685 65.0658 970.572 55.9377C965.85 51.2833 961.461 46.3158 956.395 42.0327C950.957 37.4059 945.599 32.6731 940.231 27.9985C939.712 27.5295 939.151 27.11 938.554 26.7456C933.135 23.5545 928.202 19.6685 922.799 16.4561C916.802 12.9321 910.546 9.84296 904.643 6.19167C904.042 5.83212 903.415 5.51794 902.767 5.25171C902.288 5.03946 901.755 4.98507 901.243 5.09637C900.732 5.20767 900.27 5.47886 899.923 5.87072C899.247 6.66476 898.622 7.50091 898.051 8.37417C896.586 10.9557 894.668 13.2522 892.388 15.1536C891.855 15.6037 891.357 16.0933 890.897 16.6181C889.077 18.5652 889.413 19.9739 891.91 20.8811C903.339 25.1589 914.062 31.1239 923.724 38.5776C927.203 41.1785 930.704 43.7952 934.104 46.5022C936.937 48.8181 939.558 51.3727 942.163 53.9485C946.737 58.4919 951.258 63.0619 955.699 67.738C958.708 70.88 961.484 74.2449 964.339 77.5037C966.16 79.4927 967.884 81.3441 969.641 83.2855C978.309 93.0708 986.137 103.569 993.043 114.669C994.923 117.595 997.009 120.379 998.752 123.401C1002.43 129.455 1005.54 135.951 1008.66 142.35C1011.32 147.644 1013.39 153.192 1015.69 158.614C1016.37 160.218 1016.88 161.886 1017.47 163.522C1017.53 163.638 1017.56 163.764 1017.57 163.893C1017.58 164.022 1017.56 164.151 1017.52 164.273C1017.48 164.396 1017.41 164.508 1017.33 164.605C1017.24 164.701 1017.14 164.78 1017.02 164.836C1016.72 164.974 1016.38 165.003 1016.07 164.917C1015.59 164.709 1015.13 164.466 1014.69 164.188C1009.98 161.197 1005.37 158.042 1000.53 155.258C993.586 151.267 986.315 147.867 978.798 145.094C978.144 144.872 977.463 144.741 976.774 144.706C976.337 144.701 975.91 144.827 975.546 145.069C975.183 145.31 974.901 145.656 974.736 146.06C974.631 146.395 974.619 146.753 974.702 147.094C974.784 147.436 974.959 147.748 975.206 147.998C976.93 149.717 978.702 151.372 980.442 153.07C981.546 154.16 982.671 155.265 983.69 156.424C990.844 164.549 998.014 172.654 1005.49 180.355C1006.71 181.598 1008.07 182.688 1009.38 183.994C1016.51 191.14 1023.32 198.615 1029.73 206.413C1033.53 210.963 1036.62 216.061 1038.89 221.534C1039.01 221.862 1039.15 222.183 1039.3 222.497C1039.6 223.027 1040.11 223.415 1040.7 223.578C1041.29 223.741 1041.92 223.665 1042.45 223.367C1043.07 223.044 1043.6 222.572 1043.99 221.993C1044.39 221.415 1044.63 220.747 1044.7 220.052C1045.37 215.394 1046.21 210.768 1046.73 206.095C1047.5 199 1048.1 191.874 1048.72 184.763C1049.47 176.424 1050.04 168.089 1050.8 159.861C1051.25 154.469 1052.21 149.133 1053.68 143.926C1055.26 138.759 1056.36 133.456 1056.96 128.087C1057.14 126.301 1056.56 124.909 1055.43 124.561C1054.84 124.398 1054.21 124.428 1053.63 124.647C1053.06 124.866 1052.57 125.263 1052.23 125.779C1051.08 127.118 1050.02 128.536 1049.06 130.022C1046.25 134.222 1043.72 138.603 1041.48 143.135C1040.83 144.567 1040.05 145.93 1039.13 147.202C1035.92 151.326 1032.98 155.658 1030.33 160.169C1030.17 160.453 1029.94 160.697 1029.67 160.884C1029.4 161.07 1029.09 161.194 1028.76 161.247ZM937.554 30.5614C943.526 34.7736 949.137 39.4766 954.327 44.6213C960.153 50.1003 965.788 55.834 971.376 61.6313C975.188 65.4779 978.777 69.5405 982.123 73.7988C986.768 79.8837 991.291 86.043 995.63 92.3615C999.094 97.3741 1002.14 102.662 1004.75 108.171C1009.68 118.737 1014.54 129.314 1018.44 140.332C1021.11 147.856 1023.25 155.571 1025.48 163.255C1025.66 163.919 1025.77 164.601 1025.81 165.288C1025.7 165.706 1025.48 166.087 1025.18 166.394C1024.87 166.7 1024.49 166.921 1024.07 167.034C1023.81 167.03 1023.56 166.943 1023.35 166.787C1023.14 166.63 1022.99 166.411 1022.91 166.162C1022.53 165.384 1022.24 164.574 1021.9 163.753C1019 156.659 1016.46 149.437 1013.01 142.593C1009.56 135.748 1006.42 128.766 1002.41 122.229C996.269 112.291 989.601 102.692 982.43 93.4738C976.201 85.0918 969.425 77.1317 962.144 69.6455C960.245 67.7625 958.583 65.8262 956.811 63.906C949.925 56.2357 942.478 49.0884 934.532 42.5231C931.535 40.1174 928.401 37.9398 925.346 35.6561C918.31 30.2392 910.77 25.511 902.83 21.5366C900.969 20.5754 899.081 19.6936 897.236 18.7111C896.999 18.6039 896.791 18.4419 896.629 18.2384C896.467 18.035 896.355 17.7959 896.304 17.541C896.252 17.286 896.262 17.0224 896.332 16.772C896.402 16.5215 896.531 16.2913 896.707 16.1003C897.704 15.1268 898.635 14.0882 899.494 12.9914C901.604 10.1697 903.527 10.2514 906.358 11.5078C909.189 12.7641 912.217 14.5976 915.138 16.0869C923.013 20.257 930.513 25.0998 937.554 30.5614ZM986.158 152.68C987.561 152.546 988.963 152.945 990.085 153.796C998.186 157.831 1005.88 162.631 1013.07 168.132C1015.39 169.653 1017.61 171.316 1019.73 173.112C1020.04 173.504 1020.45 173.801 1020.92 173.97C1021.38 174.139 1021.89 174.173 1022.38 174.067C1022.86 173.961 1023.31 173.72 1023.67 173.372C1024.02 173.024 1024.27 172.582 1024.39 172.098C1024.91 169.941 1025.95 169.262 1028.04 169.698C1028.53 169.837 1029.07 169.788 1029.53 169.558C1030.37 169.058 1031.57 168.77 1031.43 167.409C1031.4 166.186 1031.83 164.996 1032.64 164.075C1033.8 162.536 1034.86 160.917 1035.8 159.228C1036.88 157.038 1038.16 154.952 1039.63 152.997C1041.64 150.369 1043.36 147.538 1044.78 144.55C1046.02 142.055 1047.42 139.645 1048.98 137.338C1049.68 135.977 1050.66 134.783 1051.87 133.837C1052.1 134.012 1052.31 134.17 1052.25 134.292C1052.03 136.02 1051.71 137.734 1051.29 139.427C1049.01 147.819 1047.54 156.409 1046.9 165.08C1046.19 174.474 1045.16 183.821 1044.37 193.188C1043.9 199.254 1043.12 205.292 1042.03 211.278C1041.78 212.279 1041.44 213.257 1041.03 214.204C1040.78 214.543 1040 214.788 1039.69 214.492C1039.26 214.194 1038.87 213.828 1038.55 213.408C1035.9 209.121 1032.86 205.081 1029.49 201.338C1025.23 195.968 1020.61 190.9 1015.66 186.172C1005.71 176.426 996.338 166.109 987.592 155.273C986.848 154.585 986.345 153.676 986.158 152.68Z" fill="#5C5470" fill-opacity="0.6"/>
</g>
<defs>
<clipPath id="clip0_21_13">
<rect width="153.101" height="143.028" fill="white" transform="translate(87.2623 3.00006) rotate(37.5971)"/>
</clipPath>
<clipPath id="clip1_21_13">
<rect width="153.101" height="143.028" fill="white" transform="translate(724.262 616) rotate(37.5971)"/>
</clipPath>
<clipPath id="clip2_21_13">
<rect width="153.101" height="143.028" fill="white" transform="translate(1577.26 309) rotate(37.5971)"/>
</clipPath>
<clipPath id="clip3_21_13">
<rect width="96.7083" height="245.572" fill="white" transform="matrix(0.598728 -0.800953 -0.800953 -0.598728 1041.93 224.729)"/>
</clipPath>
</defs>
</svg>
