<svg width="61" height="60" viewBox="0 0 61 60" fill="none" xmlns="http://www.w3.org/2000/svg">
<g clip-path="url(#clip0_5_39)">
<path d="M27.3531 23.4728C27.6749 23.7336 27.9638 23.9691 28.2582 24.201C28.4688 24.3575 28.6634 24.5344 28.8391 24.7293C28.8806 24.776 28.9267 24.8184 28.9766 24.856C29.3166 25.1309 29.623 25.4448 29.8894 25.7914C29.9369 25.8495 29.9875 25.905 30.041 25.9577C30.0599 25.974 30.0842 25.9827 30.1092 25.9822C30.1342 25.9817 30.1581 25.9719 30.1764 25.9549C30.3377 25.7657 30.5019 25.5762 30.66 25.3845C30.8606 25.1448 31.0886 24.9295 31.3394 24.7431C31.6968 24.4724 32.0435 24.1884 32.4008 23.9178C32.5392 23.8128 32.6954 23.732 32.8423 23.6362C33.1128 23.458 33.3851 23.2707 33.6518 23.0974C33.9744 22.8839 34.3291 22.7233 34.7026 22.6218C34.9444 22.5564 35.1971 22.5413 35.445 22.5772C35.577 22.5873 35.7027 22.6379 35.8048 22.7221C35.9069 22.8064 35.9805 22.9201 36.0155 23.0478C36.0558 23.1659 36.0779 23.2894 36.0809 23.4141C36.0876 23.7762 36.0561 24.1379 35.9867 24.4933C35.8523 25.1143 35.6499 25.7186 35.3831 26.2952C35.3021 26.4775 35.2076 26.6535 35.1004 26.8217C34.9749 27.0226 34.8611 27.2305 34.7594 27.4444C34.5828 27.7886 34.3795 28.1184 34.1515 28.4308C34.0909 28.5095 34.0252 28.5947 33.9684 28.6685C33.892 28.7847 33.8964 28.8299 33.9933 28.928C34.3776 29.3378 34.7844 29.726 35.2118 30.0908C35.4185 30.2499 35.5853 30.4541 35.773 30.6378C36.0062 30.8644 36.2259 31.1015 36.4445 31.3403C36.6815 31.6135 36.9017 31.9009 37.104 32.2007C37.2225 32.3624 37.326 32.5335 37.444 32.6923C37.8611 33.2554 38.1792 33.8854 38.3847 34.5552C38.4437 34.7475 38.4747 34.9472 38.4767 35.1483C38.4843 35.236 38.4625 35.3237 38.4146 35.3975C38.3668 35.4714 38.2956 35.5271 38.2125 35.5559C38.0656 35.6244 37.9073 35.6654 37.7456 35.6769C37.3335 35.7023 36.9198 35.6897 36.5099 35.6394C36.1031 35.5818 35.7022 35.4881 35.312 35.3594C35.1219 35.294 34.9332 35.227 34.7426 35.169C34.3634 35.0434 33.9961 34.8846 33.6448 34.6945C33.4107 34.5743 33.1745 34.4603 32.9408 34.343L32.8375 34.2974C32.7534 34.264 32.6779 34.3077 32.6831 34.3927C32.6843 34.5301 32.6928 34.6675 32.7086 34.804C32.7789 35.3237 32.8067 35.8482 32.7918 36.3723C32.7969 37.0358 32.7256 37.6976 32.5794 38.3448C32.4749 38.7553 32.3919 39.1719 32.2846 39.5828C32.2159 39.8481 32.1311 40.1089 32.0306 40.3639C31.962 40.5516 31.8626 40.7266 31.7364 40.8816C31.559 41.0853 31.3181 41.2232 31.0526 41.2731C30.787 41.3231 30.5124 41.2821 30.2729 41.1569C29.9398 40.9838 29.6489 40.7393 29.4211 40.441C29.3398 40.3304 29.2739 40.2094 29.2251 40.0812C28.9704 39.4437 28.7479 38.7939 28.5584 38.1341C28.489 37.8849 28.4323 37.6192 28.3849 37.3686C28.2211 36.587 28.0532 35.8075 27.9007 35.0215C27.8553 34.7376 27.7912 34.457 27.7087 34.1816C27.6762 34.0914 27.64 34.0739 27.5378 34.1049C27.4405 34.1276 27.3458 34.1607 27.2555 34.2035C26.8491 34.4259 26.4008 34.5534 25.9896 34.7616C25.9226 34.7956 25.8514 34.8207 25.7779 34.8363C25.3389 34.9212 24.8978 35.002 24.4567 35.0828C24.4196 35.0891 24.382 35.0925 24.3444 35.0929C23.9709 35.0995 23.5973 35.0838 23.2255 35.0462C22.916 35.0063 22.6138 34.9222 22.3282 34.7965C21.8814 34.6065 21.4265 34.4338 20.9758 34.2487C20.8263 34.1884 20.6798 34.1174 20.5342 34.0418C20.4794 34.0131 20.4327 33.9709 20.3987 33.9192C20.2817 33.7409 20.2151 33.5344 20.2057 33.3215C20.194 33.169 20.2389 33.0176 20.3319 32.8963C20.3622 32.857 20.3925 32.8176 20.4228 32.7783C20.5857 32.5887 20.7066 32.3669 20.7778 32.1272C20.839 31.9238 20.9343 31.7323 21.0597 31.5609C21.0933 31.5242 21.1237 31.4847 21.1506 31.4429C21.3155 31.1348 21.5454 30.8663 21.8244 30.656C22.5713 30.0306 23.402 29.5126 24.2923 29.1172C24.5893 28.9872 24.8844 28.855 25.1778 28.7205C25.4987 28.5826 25.8008 28.4046 26.077 28.1907C26.4228 27.9113 26.3968 27.8704 26.1076 27.5876C26.0426 27.5297 25.9736 27.4765 25.901 27.4285C25.3922 27.0434 24.9447 26.5835 24.5737 26.0643C24.4356 25.8733 24.3117 25.6723 24.2032 25.4631C24.023 25.1337 23.8445 24.8056 23.6856 24.4691C23.5361 24.1671 23.4394 23.8417 23.3995 23.5072C23.3819 23.3325 23.3907 23.1562 23.4258 22.9843C23.4567 22.8177 23.5293 22.6616 23.6369 22.5307C23.7446 22.3999 23.8837 22.2985 24.0412 22.236C24.213 22.1662 24.3968 22.1304 24.5823 22.1304C25.1998 22.1151 25.803 22.3186 26.285 22.7051C26.6572 22.9682 27.0233 23.2292 27.3531 23.4728Z" fill="#5C5470" fill-opacity="0.6"/>
<path d="M23.6782 15.2085C24.4057 15.7975 25.0635 16.3379 25.7297 16.8639C26.2088 17.2174 26.6515 17.6178 27.0512 18.0591C27.1428 18.1637 27.2447 18.2587 27.3553 18.3429C28.1283 18.9652 28.8249 19.6769 29.4304 20.463C29.5377 20.5952 29.6541 20.7189 29.7718 20.8408C29.8156 20.8773 29.8712 20.8964 29.9282 20.8944C29.9851 20.8925 30.0393 20.8697 30.0804 20.8304C30.448 20.4005 30.8188 19.9732 31.1766 19.5357C31.6333 18.9939 32.1513 18.5068 32.7202 18.0842C33.5298 17.4672 34.3181 16.8234 35.131 16.2089C35.444 15.9721 35.7982 15.7904 36.1283 15.572C36.7444 15.1689 37.3552 14.7592 37.9659 14.3494C38.6981 13.8646 39.503 13.4997 40.3503 13.2685C40.8993 13.1193 41.4733 13.0856 42.0361 13.1695C42.3354 13.1912 42.6207 13.3052 42.8525 13.4959C43.0844 13.6865 43.2513 13.9445 43.3303 14.234C43.4196 14.5018 43.4685 14.7815 43.4752 15.0637C43.4903 15.8845 43.4186 16.7046 43.261 17.5102C42.9627 18.9245 42.5095 20.3017 41.9097 21.6167C41.7243 22.0289 41.5093 22.4271 41.2664 22.8083C40.9835 23.2651 40.7257 23.7369 40.4942 24.2218C40.0919 25.002 39.6308 25.7504 39.1151 26.4607C38.9857 26.6457 38.8386 26.8197 38.7191 27.0123C38.5456 27.2783 38.5543 27.379 38.782 27.6092C39.6524 28.5391 40.5746 29.4193 41.5442 30.2453C42.0036 30.6225 42.3955 31.0705 42.8171 31.4866C43.3435 32.0042 43.8391 32.5347 44.3428 33.0818C44.8801 33.7032 45.38 34.3558 45.8399 35.0364C46.1058 35.4004 46.3423 35.7888 46.611 36.1524C47.5566 37.4289 48.2781 38.8569 48.7445 40.3753C48.8792 40.8086 48.9512 41.2589 48.9585 41.7126C48.976 41.9114 48.9269 42.1105 48.8189 42.2783C48.7109 42.4462 48.5502 42.5734 48.362 42.6399C48.0275 42.7949 47.6674 42.8876 47.2996 42.9134C46.3637 42.9698 45.4247 42.9399 44.4942 42.824C43.5692 42.6924 42.6576 42.4798 41.7697 42.1885C41.3402 42.0405 40.9135 41.8922 40.4801 41.7595C39.6198 41.4723 38.7861 41.1108 37.9884 40.6791C37.4586 40.4069 36.9232 40.1487 36.3899 39.8843C36.3142 39.8469 36.2385 39.8095 36.159 39.777C36.1221 39.7556 36.08 39.7446 36.0373 39.7452C35.9946 39.7458 35.9529 39.7579 35.9166 39.7804C35.8803 39.8028 35.8508 39.8346 35.8312 39.8725C35.8115 39.9104 35.8026 39.9529 35.8052 39.9955C35.8097 40.308 35.8311 40.62 35.8694 40.9302C36.0265 42.1098 36.0877 43.3001 36.0525 44.4895C36.0598 45.9905 35.8937 47.4872 35.5574 48.9498C35.3218 49.8835 35.1321 50.8289 34.8887 51.7592C34.7334 52.3619 34.5394 52.9539 34.3078 53.5316C34.1552 53.9585 33.9304 54.356 33.6432 54.7068C33.3237 55.0902 32.9017 55.3749 32.4265 55.5277C31.9513 55.6804 31.4423 55.6951 30.9589 55.5698C30.7363 55.5218 30.5211 55.444 30.3193 55.3384C29.5614 54.9457 28.8995 54.3905 28.3809 53.7126C28.1973 53.4616 28.0483 53.1871 27.9381 52.8964C27.3601 51.4504 26.8558 49.9761 26.4272 48.4792C26.2629 47.9087 26.1539 47.3207 26.0323 46.7388C25.6598 44.9661 25.2827 43.1925 24.9318 41.4155C24.8313 40.7722 24.6859 40.1367 24.4967 39.5136C24.4239 39.3061 24.3404 39.2653 24.1093 39.338C23.8918 39.3917 23.6801 39.4666 23.4773 39.5616C22.5609 40.073 21.5394 40.3544 20.605 40.8283C20.454 40.9076 20.2926 40.9652 20.1255 40.9996C19.1279 41.1924 18.1274 41.3752 17.1261 41.5626C17.0419 41.5753 16.9569 41.5814 16.8717 41.5808C16.0258 41.599 15.1795 41.5648 14.3377 41.4784C13.6354 41.3903 12.9496 41.2008 12.3016 40.916C11.2877 40.4852 10.2551 40.0922 9.23401 39.6741C8.89255 39.5339 8.56169 39.3732 8.2355 39.203C8.11034 39.1389 8.00352 39.0441 7.92512 38.9274C7.65948 38.5223 7.50904 38.0526 7.48991 37.5686C7.46464 37.2255 7.56446 36.885 7.77091 36.6099C7.84034 36.5197 7.90977 36.4295 7.97793 36.341C8.34637 35.9125 8.61908 35.4103 8.77785 34.8679C8.91762 34.4051 9.13542 33.9696 9.42186 33.5802C9.49353 33.4922 9.55783 33.3985 9.61412 33.3C9.96562 32.5653 10.5388 32.0143 11.1474 31.5089C12.8421 30.0891 14.7272 28.9134 16.7479 28.0159C17.4197 27.7203 18.0901 27.4208 18.759 27.1177C19.4868 26.8026 20.1723 26.398 20.7997 25.9131C21.5838 25.2817 21.5241 25.1861 20.8709 24.5448C20.7231 24.4114 20.5652 24.2898 20.3985 24.181C19.2064 23.3335 18.2695 22.2361 17.3933 21.0835C17.0781 20.649 16.7965 20.1912 16.5508 19.714C16.1444 18.9728 15.7388 18.227 15.3749 17.4611C15.0354 16.7755 14.8169 16.0365 14.7289 15.2767C14.6876 14.8816 14.7084 14.4826 14.7903 14.094C14.8584 13.7156 15.0222 13.361 15.2661 13.0638C15.51 12.7667 15.8259 12.5369 16.1838 12.3963C16.5765 12.2324 16.9975 12.1468 17.4231 12.1442C18.8241 12.1101 20.1923 12.5726 21.2856 13.4497C22.0924 14.0579 22.9209 14.6515 23.6782 15.2085ZM23.247 15.6599L23.266 15.6353C22.5475 15.0821 21.8417 14.5125 21.1106 13.9756C20.0611 13.2145 18.9326 12.6746 17.5855 12.7001C17.1321 12.7003 16.6844 12.8016 16.2753 12.9969C16.055 13.0961 15.8611 13.2457 15.7092 13.4335C15.5573 13.6213 15.4517 13.8422 15.4008 14.0783C15.2703 14.6306 15.2624 15.2049 15.3778 15.7607C15.5136 16.4552 15.7383 17.1293 16.0463 17.7666C16.7236 19.2011 17.5666 20.5514 18.5582 21.7899C19.0469 22.4119 19.6198 22.9629 20.2605 23.4271C20.733 23.7417 21.1677 24.1097 21.5559 24.5238C21.6881 24.7117 21.8872 24.8417 22.1124 24.887C22.1697 24.888 22.2249 24.9085 22.2689 24.9452C22.3129 24.982 22.343 25.0327 22.3541 25.0889C22.4007 25.2803 22.4969 25.4562 22.633 25.5987C22.6573 25.6338 22.6736 25.6738 22.6808 25.7158C22.6881 25.7578 22.6861 25.8009 22.6751 25.8421C22.664 25.8832 22.6441 25.9215 22.6167 25.9542C22.5894 25.9869 22.5553 26.0132 22.5167 26.0314C22.3167 26.1385 22.1133 26.2431 21.9074 26.3273C20.7269 26.8053 19.5934 27.3914 18.5211 28.0782C18.1905 28.2938 17.8534 28.5042 17.5049 28.6955C16.4734 29.2853 15.4988 29.9694 14.5936 30.739C13.591 31.5625 12.5879 32.3935 11.6579 33.3095C10.8339 34.1217 10.0329 34.9516 9.27145 35.8251C8.59107 36.6069 8.62412 37.8127 9.46555 38.6643C9.7852 38.9891 10.1731 39.2387 10.6012 39.3951C11.3401 39.68 12.1263 39.8219 12.9181 39.8134C13.8233 39.7949 14.7264 39.7147 15.63 39.6611C16.0824 39.6334 16.5343 39.6132 16.9904 39.5909C17.6968 39.5525 18.4062 39.5609 19.1054 39.4673C20.4208 39.2894 21.729 39.0563 23.0411 38.842C23.2804 38.8093 23.509 38.7226 23.7096 38.5885C23.9103 38.4543 24.0777 38.2762 24.1992 38.0676C24.3378 37.8401 24.5265 37.8496 24.6646 38.0604C24.7661 38.1948 24.8458 38.3443 24.9009 38.5035C25.0393 39.0227 25.1678 39.5447 25.2751 40.0738C25.5006 41.1824 25.7062 42.2964 25.9263 43.4086C26.0341 43.9643 26.1473 44.5163 26.2638 45.0708C26.405 45.7018 26.5593 46.3429 26.6747 46.9802C26.7633 47.4822 26.8889 47.9769 27.0505 48.4603C27.3009 49.212 27.5427 49.9657 27.7759 50.7215C28.0105 51.5352 28.318 52.326 28.6946 53.0846C29.1564 53.9417 29.9196 54.5973 30.8365 54.9245C30.9934 54.9913 31.1602 55.0315 31.3302 55.0435C32.1395 55.0818 32.8449 54.8885 33.2939 54.1323C33.6776 53.5023 33.9783 52.8255 34.1887 52.1185C34.5282 50.9515 34.8128 49.7709 35.0636 48.58C35.5793 46.0515 35.6468 43.4519 35.2632 40.8996C35.1945 40.3943 35.1695 39.884 35.1886 39.3745C35.1847 39.3177 35.1942 39.2608 35.2164 39.2084C35.2386 39.1559 35.2729 39.1095 35.3164 39.0728C35.3599 39.0361 35.4115 39.0102 35.4669 38.9972C35.5224 38.9841 35.5801 38.9844 35.6354 38.9978C35.8038 39.0169 35.9681 39.0623 36.1223 39.1325C36.8584 39.493 37.584 39.8741 38.3205 40.2376C38.795 40.4916 39.2837 40.718 39.7843 40.9156C41.0901 41.3779 42.3963 41.8431 43.7696 42.0989C44.9151 42.2942 46.0791 42.3581 47.239 42.2896C47.4395 42.2865 47.6386 42.2562 47.8309 42.1996C48.0268 42.151 48.1967 42.0294 48.306 41.8598C48.4152 41.6901 48.4556 41.4852 48.4189 41.2867C48.3972 41.0607 48.3571 40.8369 48.2993 40.6174C47.9817 39.4694 47.493 38.3756 46.8496 37.3729C46.3431 36.5885 45.8011 35.8265 45.2541 35.071C44.4242 33.9228 43.566 32.7944 42.4825 31.8635C42.3726 31.7789 42.2955 31.6516 42.1948 31.5584C41.5264 30.9471 40.9384 30.2515 40.1772 29.7437C39.9378 29.5904 39.725 29.3992 39.5471 29.1775C39.1627 28.6858 38.701 28.2597 38.18 27.9159C37.759 27.6178 37.7011 27.3095 38.0186 26.9142C38.8487 25.8371 39.5806 24.6878 40.2057 23.48C40.4875 22.958 40.8215 22.4631 41.0766 21.9283C41.4158 21.2129 41.7296 20.483 42.0033 19.7407C42.4467 18.6073 42.7274 17.4168 42.8371 16.2045C42.8754 15.7805 42.8884 15.3545 42.8762 14.9289C42.8352 14.0591 42.4197 13.713 41.676 13.6914C41.222 13.6802 40.7687 13.7359 40.331 13.8569C39.5923 14.0567 38.892 14.3778 38.2587 14.8073C37.4133 15.3759 36.6188 16.0175 35.6954 16.4633C35.5962 16.5186 35.5033 16.5846 35.4185 16.6601C34.6376 17.2704 33.851 17.8712 33.0806 18.495C32.3881 19.0343 31.7574 19.6486 31.1999 20.3266C30.7751 20.8209 30.3247 21.2925 29.8505 21.7397C29.8279 21.7668 29.7992 21.788 29.7666 21.8016C29.7341 21.8151 29.6988 21.8207 29.6636 21.8177C29.6285 21.8147 29.5946 21.8033 29.5647 21.7845C29.5349 21.7656 29.5101 21.7399 29.4924 21.7094C29.217 21.2139 28.883 20.7533 28.4976 20.3375C27.79 19.6073 27.0456 18.9113 26.3117 18.2052C25.986 17.8917 25.668 17.5685 25.3154 17.2866C24.6378 16.7177 23.9334 16.1937 23.2379 15.6581L23.247 15.6599ZM12.9727 40.6519C13.1264 40.7796 13.3144 40.8589 13.513 40.88C14.8567 41.0894 16.1987 41.2401 17.5469 40.9178C18.6041 40.8648 19.5775 40.4524 20.5855 40.1918C20.6128 40.1829 20.636 40.1648 20.6512 40.1405C20.6649 40.12 20.6701 40.095 20.6657 40.0707C20.6585 40.0495 20.6382 40.0182 20.6188 40.0163C20.5363 40.0019 20.4525 39.997 20.3689 40.0015C17.9782 40.2288 15.588 40.4722 13.187 40.5636C13.1236 40.5645 13.0688 40.6084 12.9672 40.6556L12.9727 40.6519ZM9.87129 33.9942C10.013 33.9492 10.0797 33.9509 10.1124 33.9186C11.4592 32.5089 13.0412 31.3638 14.4644 30.0415C14.4783 30.0235 14.4766 29.9882 14.4851 29.9399C14.403 29.955 14.312 29.9476 14.2564 29.9858C13.265 30.6795 12.1904 31.2674 11.3273 32.1305C10.747 32.6739 10.2526 33.3022 9.86095 33.994L9.87129 33.9942ZM8.49582 38.21C8.42568 38.0907 8.35957 37.9798 8.29095 37.8721C8.27946 37.8632 8.23769 37.8598 8.21851 37.8711C8.19932 37.8825 8.19074 37.9072 8.1954 37.9317C8.19238 37.9972 8.2105 38.062 8.24709 38.1165C8.28369 38.1711 8.33681 38.2124 8.39864 38.2344C8.4052 38.2395 8.42981 38.2245 8.48547 38.2099L8.49582 38.21Z" fill="#5C5470" fill-opacity="0.6"/>
</g>
<defs>
<clipPath id="clip0_5_39">
<rect width="44.4171" height="41.4949" fill="white" transform="translate(25.3163) rotate(37.5971)"/>
</clipPath>
</defs>
</svg>
