<svg id="Layer_1" data-name="Layer 1" xmlns="http://www.w3.org/2000/svg" xmlns:xlink="http://www.w3.org/1999/xlink" viewBox="0 0 913.08 679.17"><defs><style>.cls-1{fill:none;}.cls-2{fill:#eba6ca;}.cls-3{isolation:isolate;}.cls-4{fill:#fff;}.cls-5{fill:#de7bb1;}.cls-6{fill:#918ec5;}.cls-7{fill:#edafcf;}.cls-8{fill:#e993be;}.cls-9{fill:#e2e991;}.cls-10{fill:#676ab1;}.cls-11{fill:#f7f3e3;}.cls-12{fill:#010101;}.cls-13{fill:#4d59a7;}.cls-14{fill:#2c2e3a;}.cls-15{fill:#41489e;}.cls-16{clip-path:url(#clip-path);}</style><clipPath id="clip-path" transform="translate(35.65 97.69)"><path class="cls-1" d="M184.2,374.6l22.5-23.8s8.6-16.7,17.2-8l-6.2-10.5-89.9-2.5-6.5,48.8Z"/></clipPath></defs><path class="cls-2" d="M222.5,200.7a85.1,85.1,0,1,1,85.1-85.1A85.23,85.23,0,0,1,222.5,200.7Zm0-149.6A64.5,64.5,0,1,0,287,115.6,64.59,64.59,0,0,0,222.5,51.1Z" transform="translate(35.65 97.69)"/><image class="cls-3" width="637" height="421" transform="scale(0.71)" xlink:href="5369B3AA.png"/><path class="cls-4" d="M807.18,581.48H530.72V305H807.18Zm-275.9-.56H806.62V305.58H531.28Z" transform="translate(35.65 97.69)"/><rect class="cls-4" x="566.65" y="653.5" width="275.9" height="0.57"/><rect class="cls-4" x="566.65" y="628.4" width="275.9" height="0.57"/><rect class="cls-4" x="566.65" y="603.3" width="275.9" height="0.57"/><rect class="cls-4" x="566.65" y="578.2" width="275.9" height="0.57"/><rect class="cls-4" x="566.65" y="553.2" width="275.9" height="0.57"/><rect class="cls-4" x="566.65" y="528.1" width="275.9" height="0.57"/><rect class="cls-4" x="566.65" y="503" width="275.9" height="0.57"/><rect class="cls-4" x="566.65" y="477.9" width="275.9" height="0.57"/><rect class="cls-4" x="566.65" y="452.8" width="275.9" height="0.57"/><rect class="cls-4" x="566.65" y="427.8" width="275.9" height="0.57"/><rect class="cls-4" x="817.16" y="402.99" width="0.57" height="275.9"/><rect class="cls-4" x="792.16" y="402.99" width="0.57" height="275.9"/><rect class="cls-4" x="767.06" y="402.99" width="0.57" height="275.9"/><rect class="cls-4" x="741.96" y="402.99" width="0.57" height="275.9"/><rect class="cls-4" x="716.86" y="402.99" width="0.57" height="275.9"/><rect class="cls-4" x="691.76" y="402.99" width="0.57" height="275.9"/><rect class="cls-4" x="666.76" y="402.99" width="0.57" height="275.9"/><rect class="cls-4" x="641.66" y="402.99" width="0.57" height="275.9"/><rect class="cls-4" x="616.56" y="402.99" width="0.57" height="275.9"/><rect class="cls-4" x="591.46" y="402.99" width="0.57" height="275.9"/><path class="cls-5" d="M239.9,501.6h-4.1a15.21,15.21,0,0,0-1.6-4.2l.9-.9h0l-4.6-4.6-2.9,2.9a12.47,12.47,0,0,0-4.6-1.9v-4h-6.6v2.3a9,9,0,0,0-2.4,1.2l-2.9-2.9-4.6,4.6h0l2.9,2.9a15.05,15.05,0,0,0-1.1,2.2h-3v6.6h4.3a13.64,13.64,0,0,0,1.7,4.1l-.9.9h0l4.6,4.6,3-3a12.81,12.81,0,0,0,4.2,1.7v4.4h6.6v-2.6a25.57,25.57,0,0,0,2.4-1.1l3,3,4.6-4.6h0l-2.9-2.9a10.34,10.34,0,0,0,1.1-2.1h3v-6.6Zm-18.3,7.8a4.74,4.74,0,0,1-4.4-6.4,5.2,5.2,0,0,1,2.5-.7,4.74,4.74,0,0,1,4.4,6.4A5.2,5.2,0,0,1,221.6,509.4Z" transform="translate(35.65 97.69)"/><path class="cls-2" d="M221.6,509.3a4.7,4.7,0,1,1,4.7-4.7A4.63,4.63,0,0,1,221.6,509.3Zm18.3-1.2v-6.6h-4.1a11.39,11.39,0,0,0-1.8-4.4l3-3-4.6-4.6-2.9,2.9a12.47,12.47,0,0,0-4.6-1.9v-4h-6.6v4a17,17,0,0,0-4.4,1.8l-2.9-2.9-4.6,4.6,2.9,2.9a14.64,14.64,0,0,0-1.8,4.5h-4.3V508h4.3a17,17,0,0,0,1.8,4.4l-3,3,4.6,4.6,3-3a12.81,12.81,0,0,0,4.2,1.7v4.4h6.6v-4.3a13.33,13.33,0,0,0,4.3-1.7l3,3,4.6-4.6-2.9-2.9a13.35,13.35,0,0,0,1.9-4.4h4.3Z" transform="translate(35.65 97.69)"/><path class="cls-6" d="M766.8,170h0l.1.1h5a22.11,22.11,0,0,0,1.8,3.4l-4.7,4.7h0l7.6,7.6,4.9-4.9a23.51,23.51,0,0,0,3.9,1.9v4.3h10.8v-7.2a27.07,27.07,0,0,0,6.8-2.8l5,5,7.6-7.6h0l-1.5-1.5a23.82,23.82,0,0,0,2.8-6.8H824V155.4h-5a30.21,30.21,0,0,0-1.8-3.6l4.7-4.7h0l-7.6-7.6-4.7,4.7a29.86,29.86,0,0,0-4-2v-3.8H794.8V145a21.83,21.83,0,0,0-7.5,3.2l-4.7-4.7-7.6,7.6h0l1.5,1.5a26.82,26.82,0,0,0-2.7,6.8h-6.7V170Zm25.9.9a7.17,7.17,0,0,1-.6-2.9,7.81,7.81,0,0,1,7.8-7.8,8.11,8.11,0,0,1,4.1,1.1,7.17,7.17,0,0,1,.6,2.9,7.81,7.81,0,0,1-7.8,7.8A8.11,8.11,0,0,1,792.7,170.9Z" transform="translate(35.65 97.69)"/><path class="cls-4" d="M788.9,164.2a7.8,7.8,0,1,1,7.8,7.8A7.81,7.81,0,0,1,788.9,164.2ZM773.6,170a21.61,21.61,0,0,0,3.1,7.1l-4.7,4.7,7.6,7.6,4.9-4.9a22,22,0,0,0,7.1,2.8v7.1h10.8v-7.2a27.07,27.07,0,0,0,6.8-2.8l5,5,7.6-7.6-4.9-4.9a22.89,22.89,0,0,0,3-7.2H827V159h-7a23.44,23.44,0,0,0-3-7.3l4.7-4.7-7.6-7.6-4.7,4.7a22.89,22.89,0,0,0-7.2-3v-6.6H791.4v6.6a21.83,21.83,0,0,0-7.5,3.2l-4.7-4.7-7.6,7.6,4.9,4.9a25.29,25.29,0,0,0-2.9,7.2h-6.7V170Z" transform="translate(35.65 97.69)"/><polygon class="cls-7" points="539.85 584.69 531.45 630.79 593.05 623.79 539.85 584.69"/><polygon class="cls-5" points="539.85 584.69 555.35 612.09 531.45 630.79 539.85 584.69"/><polygon class="cls-8" points="531.45 630.79 555.35 612.09 593.05 623.79 531.45 630.79"/><rect class="cls-9" x="100.93" y="286.6" width="36.63" height="4" transform="translate(-145.23 472.52) rotate(-83.58)"/><rect class="cls-9" x="89.84" y="281.15" width="36.71" height="4" transform="translate(-129.7 250.24) rotate(-43.57)"/><rect class="cls-9" x="84.96" y="269.85" width="36.67" height="4" transform="matrix(1, -0.06, 0.06, 1, 18.79, 104.7)"/><rect class="cls-9" x="104.75" y="241.74" width="4" height="36.62" transform="translate(-130.34 289.64) rotate(-53.66)"/><rect class="cls-9" x="114.95" y="234.88" width="4" height="36.74" transform="translate(-20.99 132.58) rotate(-13.7)"/><rect class="cls-9" x="110.84" y="252.6" width="36.63" height="4" transform="translate(-120.68 354.63) rotate(-63.57)"/><rect class="cls-9" x="119.36" y="261.55" width="36.67" height="4" transform="translate(-58.45 174.98) rotate(-23.63)"/><rect class="cls-9" x="136.45" y="257.46" width="4" height="36.58" transform="translate(-129.48 428.64) rotate(-73.65)"/><rect class="cls-9" x="129.15" y="267.33" width="4" height="36.64" transform="translate(-100.65 218.2) rotate(-33.65)"/><path class="cls-4" d="M412.7,555.5H311.8a7.12,7.12,0,0,1-7.2-7.2V494.5a7.12,7.12,0,0,1,7.2-7.2h39.27l11.12-11.12,11.23,11.12H412.7a7.12,7.12,0,0,1,7.2,7.2v53.8A7.12,7.12,0,0,1,412.7,555.5ZM311.8,491.3a3.17,3.17,0,0,0-3.2,3.2v53.8a3.17,3.17,0,0,0,3.2,3.2H412.7a3.17,3.17,0,0,0,3.2-3.2V494.5a3.17,3.17,0,0,0-3.2-3.2H371.78l-9.57-9.48-9.48,9.48Z" transform="translate(35.65 97.69)"/><path class="cls-4" d="M366.8,46.1c-.4.8-.7,1.5-1,2.2-1,2.2-2.1,4.5-3.1,6.7-.1.2-.1.3-.2.5a.64.64,0,0,1-1.2-.1,5.78,5.78,0,0,1-.5-1.4C356.9,43.5,353,32.9,349,22.4c-.1-.4-.3-.8,0-1.1s.7-.2,1.1-.1c10.1,4.3,20.2,8.7,30.3,13,.1.1.3.1.4.2a.8.8,0,0,1,.1,1.3c-.2.1-.3.2-.5.3l-7.8,4.2c-.1.1-.3.1-.4.2.1.1.2.3.3.4,2.1,2.2,4.1,4.4,6.2,6.7a1.38,1.38,0,0,1,.3.4.91.91,0,0,1,0,1h0c-1.4,1.5-2.7,3-4.1,4.4a.67.67,0,0,1-1,0l-.3-.3c-.8-.9-1.6-1.7-2.4-2.6l-3.8-4.1A1.07,1.07,0,0,1,366.8,46.1Z" transform="translate(35.65 97.69)"/><path class="cls-4" d="M345,518.4a10.55,10.55,0,0,0-.4-3.1,4.73,4.73,0,0,0-1.6-2.5,4.79,4.79,0,0,0-3.1-1,4.54,4.54,0,0,0-4.3,2.6,17.33,17.33,0,0,0-1.4,7.7c0,3.1.5,5.5,1.6,7.2a5.32,5.32,0,0,0,4.6,2.5,8.19,8.19,0,0,0,3.8-.9,23.94,23.94,0,0,0,3.4-2.1,6.07,6.07,0,0,1,1.6,1.6,6.25,6.25,0,0,1,1,2,12.07,12.07,0,0,1-2.8,2.1,15.11,15.11,0,0,1-3.7,1.5,14.21,14.21,0,0,1-4.2.6,10.26,10.26,0,0,1-5.2-1.2,9.75,9.75,0,0,1-3.4-3.3,13.94,13.94,0,0,1-1.8-4.7,23.06,23.06,0,0,1-.6-5.2,18.79,18.79,0,0,1,1.6-8.4,11.12,11.12,0,0,1,4.2-4.8,11.66,11.66,0,0,1,5.8-1.5,12.67,12.67,0,0,1,5.4,1.1,9.45,9.45,0,0,1,3.5,3,7.3,7.3,0,0,1,1.2,4.1,2.8,2.8,0,0,1-3.1,3.1,3.75,3.75,0,0,1-1.1-.1Z" transform="translate(35.65 97.69)"/><path class="cls-4" d="M352.7,533.5a6.15,6.15,0,0,1,.7-2.3,5.37,5.37,0,0,1,1.4-1.8,23.51,23.51,0,0,0,3.9,1.9,13.55,13.55,0,0,0,4.3.8,4.4,4.4,0,0,0,3.2-1,3,3,0,0,0,1.1-2.3,3.06,3.06,0,0,0-.7-2,5.7,5.7,0,0,0-2.4-1.7l-4.9-2a12.86,12.86,0,0,1-4.2-2.8,6.37,6.37,0,0,1-1.6-4.5,8,8,0,0,1,1.2-4.3,8.79,8.79,0,0,1,3.4-2.9,11.36,11.36,0,0,1,4.9-1.1,18.13,18.13,0,0,1,5.2.7,34.45,34.45,0,0,1,4,1.5,4.65,4.65,0,0,1-.6,2.3,5.33,5.33,0,0,1-1.3,1.9,24.61,24.61,0,0,0-3.6-1.4,12.31,12.31,0,0,0-3.6-.6,4.48,4.48,0,0,0-3,.9,2.7,2.7,0,0,0-1,2.2,2.41,2.41,0,0,0,.7,1.8,6.38,6.38,0,0,0,2.2,1.3l5,2a17.74,17.74,0,0,1,3.3,1.9,10.86,10.86,0,0,1,2.2,2.6,7.31,7.31,0,0,1,.8,3.3,8.31,8.31,0,0,1-1.2,4.4,8.21,8.21,0,0,1-3.5,3.1,13.94,13.94,0,0,1-5.8,1.1,19.34,19.34,0,0,1-5.2-.8A15.62,15.62,0,0,1,352.7,533.5Z" transform="translate(35.65 97.69)"/><path class="cls-4" d="M375.5,533.5a6.15,6.15,0,0,1,.7-2.3,5.37,5.37,0,0,1,1.4-1.8,23.51,23.51,0,0,0,3.9,1.9,13.55,13.55,0,0,0,4.3.8,4.4,4.4,0,0,0,3.2-1,3,3,0,0,0,1.1-2.3,3.06,3.06,0,0,0-.7-2,5.7,5.7,0,0,0-2.4-1.7l-4.9-2a12.86,12.86,0,0,1-4.2-2.8,6.37,6.37,0,0,1-1.6-4.5,8,8,0,0,1,1.2-4.3,8.79,8.79,0,0,1,3.4-2.9,11.36,11.36,0,0,1,4.9-1.1,18.13,18.13,0,0,1,5.2.7,34.45,34.45,0,0,1,4,1.5,4.65,4.65,0,0,1-.6,2.3,5.33,5.33,0,0,1-1.3,1.9,24.61,24.61,0,0,0-3.6-1.4,12.31,12.31,0,0,0-3.6-.6,4.48,4.48,0,0,0-3,.9,2.7,2.7,0,0,0-1,2.2,2.41,2.41,0,0,0,.7,1.8,6.38,6.38,0,0,0,2.2,1.3l5,2a17.74,17.74,0,0,1,3.3,1.9,10.86,10.86,0,0,1,2.2,2.6,7.31,7.31,0,0,1,.8,3.3,8.31,8.31,0,0,1-1.2,4.4,8.21,8.21,0,0,1-3.5,3.1,13.94,13.94,0,0,1-5.8,1.1,19.34,19.34,0,0,1-5.2-.8A15.62,15.62,0,0,1,375.5,533.5Z" transform="translate(35.65 97.69)"/><path class="cls-10" d="M693.3,451.4h-446A16.47,16.47,0,0,1,230.9,435V146.1a16.47,16.47,0,0,1,16.4-16.4h446a16.47,16.47,0,0,1,16.4,16.4V435A16.47,16.47,0,0,1,693.3,451.4Z" transform="translate(35.65 97.69)"/><path class="cls-4" d="M722.6,427.4H220.1a19.53,19.53,0,0,1-19.5-19.5V100.8a19.53,19.53,0,0,1,19.5-19.5H722.6a19.53,19.53,0,0,1,19.5,19.5V408A19.47,19.47,0,0,1,722.6,427.4ZM220.1,85.3a15.51,15.51,0,0,0-15.5,15.5V407.9a15.51,15.51,0,0,0,15.5,15.5H722.6A15.47,15.47,0,0,0,738.1,408V100.8a15.51,15.51,0,0,0-15.5-15.5Z" transform="translate(35.65 97.69)"/><rect class="cls-4" x="714.45" y="200.69" width="12.2" height="2"/><path class="cls-4" d="M222.5,110.1a6.1,6.1,0,1,1,6.1-6.1A6.11,6.11,0,0,1,222.5,110.1Zm0-10.2a4.1,4.1,0,1,0,4.1,4.1A4.11,4.11,0,0,0,222.5,99.9Z" transform="translate(35.65 97.69)"/><path class="cls-4" d="M236,110.1a6.1,6.1,0,1,1,6.1-6.1A6.11,6.11,0,0,1,236,110.1Zm0-10.2a4.1,4.1,0,1,0,4.1,4.1A4.11,4.11,0,0,0,236,99.9Z" transform="translate(35.65 97.69)"/><path class="cls-4" d="M249.5,110.1a6.1,6.1,0,1,1,6.1-6.1A6.11,6.11,0,0,1,249.5,110.1Zm0-10.2a4.1,4.1,0,1,0,4.1,4.1A4.11,4.11,0,0,0,249.5,99.9Z" transform="translate(35.65 97.69)"/><path class="cls-4" d="M660.67,112.87A8.92,8.92,0,0,1,652,106a8.9,8.9,0,1,1,10.7,6.62A8.94,8.94,0,0,1,660.67,112.87Zm0-15.81a7.36,7.36,0,0,0-1.6.19,6.82,6.82,0,1,0,1.6-.19Z" transform="translate(35.65 97.69)"/><polygon class="cls-4" points="696.48 206.04 695.64 205.19 691.81 201.07 693.28 199.71 696.43 203.11 699.51 199.72 700.99 201.06 696.48 206.04"/><rect class="cls-4" x="719.55" y="195.59" width="2" height="12.2"/><path class="cls-4" d="M708.2,103.5h-6.5V97h6.5Zm-4.5-2h2.5V99h-2.5Z" transform="translate(35.65 97.69)"/><path class="cls-4" d="M716.4,103.5h-6.5V97h6.5Zm-4.5-2h2.5V99h-2.5Z" transform="translate(35.65 97.69)"/><path class="cls-4" d="M708.2,111.1h-6.5v-6.5h6.5Zm-4.5-2h2.5v-2.5h-2.5Z" transform="translate(35.65 97.69)"/><path class="cls-4" d="M716.4,111.1h-6.5v-6.5h6.5Zm-4.5-2h2.5v-2.5h-2.5Z" transform="translate(35.65 97.69)"/><polygon class="cls-4" points="502.72 208.07 495.9 201.82 496.79 200.93 502.82 195.4 504.27 196.97 499.02 201.78 504.17 206.5 502.72 208.07"/><polygon class="cls-4" points="520.87 208.07 519.42 206.5 524.67 201.69 519.52 196.97 520.97 195.4 527.79 201.65 526.9 202.54 520.87 208.07"/><path class="cls-4" d="M430.28,406.48H253V204.92H430.28Zm-174.7-2.56H427.72V207.48H255.58Z" transform="translate(35.65 97.69)"/><rect class="cls-4" x="340.37" y="173.31" width="2.55" height="264.88" transform="translate(-81.16 398.95) rotate(-41.27)"/><rect class="cls-4" x="209.21" y="304.47" width="264.88" height="2.55" transform="translate(-77.87 458.5) rotate(-48.72)"/><rect class="cls-11" x="485.85" y="336.39" width="129.4" height="15"/><rect class="cls-4" x="485.85" y="369.39" width="130.1" height="4"/><rect class="cls-4" x="485.85" y="385.59" width="200.4" height="4"/><rect class="cls-4" x="485.85" y="400.99" width="200.4" height="4"/><rect class="cls-9" x="488.45" y="421.49" width="70.9" height="70.9"/><rect class="cls-12" x="483.05" y="415.79" width="12.9" height="12.9"/><rect class="cls-12" x="551.75" y="415.79" width="12.9" height="12.9"/><rect class="cls-12" x="483.05" y="485.19" width="12.9" height="12.9"/><rect class="cls-12" x="551.75" y="485.19" width="12.9" height="12.9"/><path class="cls-13" d="M488.2,359.5a18.56,18.56,0,0,0-18.6,18.6h37.2A18.56,18.56,0,0,0,488.2,359.5Z" transform="translate(35.65 97.69)"/><circle class="cls-13" cx="523.86" cy="446.19" r="8.1"/><path class="cls-11" d="M592,223.3H457.9a9.24,9.24,0,0,1-9.2-9.2h0a9.24,9.24,0,0,1,9.2-9.2H592a9.24,9.24,0,0,1,9.2,9.2h0A9.24,9.24,0,0,1,592,223.3Z" transform="translate(35.65 97.69)"/><path class="cls-14" d="M594.4,218.6l-2-2a4.9,4.9,0,0,0-.4-6.5,4.9,4.9,0,0,0-8.4,3.5,5.18,5.18,0,0,0,1.4,3.5,4.75,4.75,0,0,0,3.5,1.4,4.62,4.62,0,0,0,3-1.1l2,2Zm-8.5-2.4a3.8,3.8,0,0,1,2.7-6.5,4,4,0,0,1,2.7,1.1,3.82,3.82,0,0,1-5.4,5.4Z" transform="translate(35.65 97.69)"/><path class="cls-15" d="M540.2,394.7Z" transform="translate(35.65 97.69)"/><polygon class="cls-15" points="631.85 456.69 684.65 491.09 684.65 421.89 684.05 422.29 683.85 422.39 631.85 456.69"/><polygon class="cls-15" points="679.05 421.49 580.05 421.49 629.85 453.99 679.05 421.49"/><polygon class="cls-15" points="629.95 459.59 580.15 492.39 680.35 492.39 629.95 459.59"/><polygon class="cls-15" points="575.85 422.79 575.85 491.09 627.95 456.69 575.85 422.79"/><polygon class="cls-10" points="682.75 420.59 681.35 421.49 683.35 421.49 682.75 420.59"/><image width="900" height="1600" transform="translate(291.56 196.07) scale(0.19)" xlink:href="../../../../Users/Abi/Documents/Imagen-de-WhatsApp-2023-11-06-a-las-19.png"/><path class="cls-2" d="M674.6,171.3l-32.5-40.9s-9.4,0-2.9,15.2l8.7,21.4Z" transform="translate(35.65 97.69)"/><path class="cls-2" d="M636.6,185.8a7.42,7.42,0,0,0-6.4-1.9l-23.5,4.4A15.45,15.45,0,0,1,597,187c-3.8-1.9-7.7-5.1-5.6-10l44.5-17.6a8.85,8.85,0,0,1,7.9.8l30.8,11.1L687.5,187Z" transform="translate(35.65 97.69)"/><path class="cls-2" d="M743.5,212.9l7.3,63.6s-13.6-.3-30.7-2.4c-29.7-3.6-74.2-12.5-95.4-34.1a13.17,13.17,0,0,0-5.7-3.3c-7.3-2.1-24-7.7-20.3-14.6,5.4-10.1,36-3.1,36-3.1s22.9,7.3,24.3-2c1.1-7.1-13.5-16.5-20.3-20.4a7,7,0,0,0-6.6-.3l-21.7,10a15.46,15.46,0,0,1-9.7,1.1c-4.1-.9-8.7-3-7.9-8.3l38.8-28a8.4,8.4,0,0,1,7.8-1.1l48.1,16.8L709.6,212Z" transform="translate(35.65 97.69)"/><path class="cls-12" d="M609.11,188.71l-1-1.42,23-16.6a9.3,9.3,0,0,1,8.62-1.2l28.88,10.09-.58,1.64-28.9-10.1a7.54,7.54,0,0,0-7,1Z" transform="translate(35.65 97.69)"/><rect class="cls-12" x="655.48" y="153.04" width="1.74" height="23.03" transform="translate(317.44 825.78) rotate(-70.46)"/><path class="cls-12" d="M621,235.83c0-.22-.19-5.44,2.17-8.64l1.4,1c-2,2.72-1.83,7.5-1.83,7.55Z" transform="translate(35.65 97.69)"/><image class="cls-3" width="404" height="341" transform="translate(626.14 227.39) scale(0.71)" xlink:href="5369B3AE.png"/><polygon class="cls-9" points="656.55 503.99 694.05 535.29 706.35 487.99 714.95 536.19 754.85 507.79 730.45 550.19 779.25 554.09 733.35 570.99 768.15 605.29 722.15 588.69 726.85 637.39 702.25 595.09 674.45 635.39 682.85 587.19 635.75 600.19 673.05 568.59 628.65 548.29 677.55 548.19 656.55 503.99"/><image class="cls-3" width="244" height="245" transform="translate(615.24 476.48) scale(0.71)" xlink:href="5369B3A9.png"/><path class="cls-9" d="M168.9,363.9l70.2,6.8s5.2,11.8-16.1,13.6l-14.8.7" transform="translate(35.65 97.69)"/><path class="cls-9" d="M163.8,374.5l70.2,6.8s5.2,11.8-16.1,13.6l-14.8.7" transform="translate(35.65 97.69)"/><path class="cls-9" d="M152.3,384.4l70.2,6.8s5.2,11.8-16.1,13.6l-30.6.5" transform="translate(35.65 97.69)"/><path class="cls-12" d="M212,395c-9.57,0-19-.79-19.16-.8l.12-1.38c.19,0,18.76,1.58,30.06.31l.16,1.36A102.64,102.64,0,0,1,212,395Z" transform="translate(35.65 97.69)"/><path class="cls-12" d="M229.64,381.83c-12.64,0-35-1.23-35.28-1.24l.08-1.38c.27,0,27.3,1.49,38.64,1.2l0,1.38C232.08,381.81,230.91,381.83,229.64,381.83Z" transform="translate(35.65 97.69)"/><path class="cls-13" d="M129.3,356.2a30.74,30.74,0,0,0,2.7,12.9l55.1.5,64.2.6,24-12.6-23.8-13.1-64.2-.6-55.1-.5A30.06,30.06,0,0,0,129.3,356.2Z" transform="translate(35.65 97.69)"/><rect class="cls-4" x="125.85" y="355.67" width="25.8" height="1.26" transform="translate(-183.39 588.86) rotate(-89.38)"/><path class="cls-9" d="M177.7,380.5s33.1-32.5,35.6-36.3c1.3-1.9,2.7-2,3.8-1.7a3.89,3.89,0,0,1,2.4,2.3c8,17.6-17.2,40.8-17.2,40.8s6,21.8-12.8,43.1l-50.2,64.6-38.9-39,30.5-31.1,10.8-57.3a14.23,14.23,0,0,1,5.1-8.6l33.9-27.5,70.6-1s6.5,11.2-14.5,15.3l-2,.3-15.3-.2" transform="translate(35.65 97.69)"/><g class="cls-16"><path class="cls-13" d="M129.3,356.2a30.74,30.74,0,0,0,2.7,12.9l55.1.5,64.2.6,24-12.6-23.8-13.1-64.2-.6-55.1-.5A30.06,30.06,0,0,0,129.3,356.2Z" transform="translate(35.65 97.69)"/><rect class="cls-4" x="132.85" y="355.67" width="25.8" height="1.26" transform="translate(-176.47 595.86) rotate(-89.38)"/></g><image class="cls-3" width="536" height="325" transform="translate(6.83 426.17) scale(0.71)" xlink:href="5369B3AB.png"/><path class="cls-12" d="M183.1,376.17l-1-.94,25.75-27.35c.42-.67,3.71-5.71,7.7-5.71h.19c2.26.09,4.24,1.78,5.87,5l-1.22.62c-1.4-2.76-3-4.2-4.71-4.27-3.44-.12-6.66,5.06-6.69,5.12l-.09.11Z" transform="translate(35.65 97.69)"/><path class="cls-12" d="M202,407.81l-1.36-.22,1.3-7.7a31.24,31.24,0,0,0,.39-6.16c-.2-5.74-.5-7.42-.66-7.91l-.13-.39.27-.29c.09-.1,9.08-10,10.73-12.52l1.16.76c-1.57,2.4-9.1,10.74-10.62,12.4a53.6,53.6,0,0,1,.63,7.9,33.3,33.3,0,0,1-.41,6.42Z" transform="translate(35.65 97.69)"/><path class="cls-9" d="M550.6,158.3h-111a10.24,10.24,0,0,1-10.2-10.2V61.4a10.24,10.24,0,0,1,10.2-10.2h111a10.24,10.24,0,0,1,10.2,10.2v86.7A10.12,10.12,0,0,1,550.6,158.3Z" transform="translate(35.65 97.69)"/><polygon class="cls-9" points="514.45 255.69 530.75 271.99 547.15 255.69 514.45 255.69"/><path class="cls-12" d="M477,88.9a5.8,5.8,0,0,1,2.2,2.2,6.33,6.33,0,0,1,1,3.2l-15.9,8.4c-.6.3-1.5.7-2.5,1.2s-1.9.9-2.4,1.1v.4c.5.2,1.3.6,2.4,1.1s1.9.9,2.5,1.2l15.9,8.4a7.65,7.65,0,0,1-1.1,3.2,6.74,6.74,0,0,1-2.1,2.3L452.3,108a11.08,11.08,0,0,1-.4-2.8,8.63,8.63,0,0,1,.4-2.8Z" transform="translate(35.65 97.69)"/><path class="cls-12" d="M502.8,78.5a11.56,11.56,0,0,1,3.1.7,10.24,10.24,0,0,1,2.9,1.6L487.7,137a12.47,12.47,0,0,1-3.1-.7,10.24,10.24,0,0,1-2.9-1.6Z" transform="translate(35.65 97.69)"/><path class="cls-12" d="M513.4,121.5a6.37,6.37,0,0,1-2.1-2.2,7.65,7.65,0,0,1-1.1-3.2l16-8.4c.6-.3,1.5-.7,2.5-1.2s1.9-.8,2.4-1.1V105a21.5,21.5,0,0,1-2.4-1.1c-1.1-.5-1.9-.9-2.5-1.2l-16-8.4a8.06,8.06,0,0,1,1.1-3.3,5.59,5.59,0,0,1,2.1-2.2l24.8,13.6a19.34,19.34,0,0,1,.4,2.7,8.25,8.25,0,0,1-.4,2.8Z" transform="translate(35.65 97.69)"/></svg>