<svg width="18" height="32" viewBox="0 0 18 32" fill="none" xmlns="http://www.w3.org/2000/svg">
<g clip-path="url(#clip0_5_28)">
<path d="M3.18943 7.12319C3.18943 6.76753 3.18943 6.40692 3.18943 6.05125C3.18943 5.69559 3.34621 5.42884 3.74305 5.37945C4.32607 5.31029 4.86988 5.09788 5.4382 4.99414C5.61347 4.96645 5.77834 4.89242 5.91603 4.77962C6.05373 4.66683 6.15932 4.51927 6.22209 4.35196C6.58476 3.51829 7.01919 2.71828 7.5204 1.9611C7.86825 1.41278 8.22591 0.874356 8.58846 0.335918C8.66431 0.232293 8.75514 0.140704 8.85791 0.0642202C8.95616 0.00750776 9.07085 -0.0131524 9.18249 0.00575908C9.29414 0.0246705 9.39585 0.0819821 9.47032 0.167952C9.79918 0.688091 10.1001 1.22566 10.3718 1.77833C11.0038 3.16641 11.5868 4.57425 12.1992 5.97221C13.3016 8.49645 14.3108 11.0602 15.3446 13.6141C15.6241 14.4107 16.0009 15.169 16.4665 15.8716C16.5416 15.9581 16.594 16.0622 16.6188 16.1744C16.6436 16.2866 16.6401 16.4033 16.6086 16.5138C16.5373 16.8288 16.5474 17.1571 16.638 17.4671C16.7507 18.2723 16.8193 19.0824 16.8927 19.8876C17.025 21.3103 17.1279 22.7379 17.2798 24.1556C17.3581 24.8984 17.4808 25.6358 17.6472 26.3637C17.7903 27.0632 17.8901 27.7709 17.9461 28.4829C17.9926 29.0315 18.0073 29.5824 17.9902 30.1328C17.9751 30.2933 17.9213 30.4476 17.8334 30.5823C17.7942 30.673 17.7289 30.7498 17.6459 30.8026C17.5629 30.8555 17.4661 30.882 17.368 30.8787H16.1138C15.8228 30.8638 15.531 30.8737 15.2417 30.9083C14.3255 31.0713 13.4143 31.2739 12.4932 31.4023C12.1208 31.4616 11.8563 31.7333 11.5133 31.7975C11.1704 31.8617 10.8813 31.506 10.509 31.5307C9.3833 31.5167 8.2601 31.4209 7.14806 31.2442C6.43924 31.2138 5.72926 31.2253 5.02177 31.2788C3.86481 31.3329 2.7117 31.4517 1.56776 31.6345C1.192 31.7206 0.822144 31.8312 0.460519 31.9654C0.403829 31.9833 0.34376 31.9875 0.285183 31.9775C0.226606 31.9676 0.171188 31.9438 0.123438 31.9082C0.0756881 31.8726 0.0369487 31.8261 0.0103903 31.7725C-0.0161681 31.7189 -0.0298084 31.6598 -0.0294105 31.5999C-0.00491402 31.1504 0.0391898 30.6959 0.0881827 30.2464C0.289054 28.473 0.543819 26.7045 0.641805 24.9163C0.6761 24.2742 0.754486 23.6221 0.837774 22.9849C0.955306 21.8853 0.965151 20.7767 0.867168 19.6752C0.867168 19.2553 0.823068 18.8355 0.798571 18.4106C0.773491 18.2834 0.773491 18.1525 0.798571 18.0253C0.886758 17.7882 1.09743 17.5807 1.12193 17.3436C1.09852 17.0925 1.11339 16.8393 1.16602 16.5928C1.65595 15.3578 2.10179 14.1229 2.56232 12.8583C2.6652 12.5866 2.77789 12.3149 2.86607 12.0383C2.92783 11.8898 2.95789 11.7299 2.95427 11.569C2.88135 10.6643 2.91423 9.75405 3.05225 8.85707C3.10124 8.27417 3.13554 7.69127 3.17963 7.10837L3.18943 7.12319ZM6.30048 17.9907C7.9417 18.0491 9.58435 17.9281 11.1998 17.6301C12.1796 17.4918 13.1595 17.1658 14.1393 16.9336C14.6002 16.7911 15.0452 16.6007 15.4671 16.3655C15.5202 16.3476 15.5686 16.3175 15.6085 16.2778C15.6484 16.238 15.6787 16.1896 15.6971 16.1362C15.7156 16.0828 15.7216 16.0258 15.7149 15.9697C15.7081 15.9135 15.6887 15.8597 15.6581 15.8123C15.4083 15.2146 15.1388 14.6218 14.8987 14.0191C14.1883 12.2458 13.5122 10.4526 12.7822 8.6891C11.9396 6.64896 11.0528 4.6286 10.019 2.68232C9.79746 2.17775 9.53013 1.69488 9.22046 1.23989C9.06368 1.05218 8.8775 1.02254 8.73053 1.19544C8.53455 1.45231 8.34839 1.71411 8.15732 1.97592C7.50835 2.98289 6.91781 4.02695 6.38866 5.10282C5.76698 6.24172 5.23777 7.42951 4.8062 8.65453C4.4326 9.89638 3.96751 11.1084 3.41481 12.2803C3.29734 12.5456 3.20068 12.8198 3.12573 13.1003C2.91017 13.7475 2.69951 14.3946 2.47904 15.0417C2.25857 15.6888 1.98911 16.3754 1.75884 17.0472C1.64616 17.3733 1.71964 17.5412 2.0136 17.6548C2.12634 17.7171 2.24905 17.7589 2.37614 17.7783C3.2035 17.9051 4.03813 17.9777 4.87479 17.9957C5.33532 17.9562 5.81545 17.971 6.30048 17.971V17.9907ZM5.92324 27.0503C5.99323 26.3627 6.00469 25.6702 5.95752 24.9806C5.95826 24.8818 5.9952 24.7868 6.06123 24.7138C6.12725 24.6409 6.2177 24.5951 6.31518 24.5854C6.57136 24.5706 6.82818 24.5706 7.08437 24.5854C8.01744 24.6728 8.95842 24.572 9.85247 24.289C10.3821 24.1496 10.9185 24.0375 11.4594 23.9531C11.5561 23.9403 11.6538 23.9663 11.7317 24.0254C11.8095 24.0845 11.8613 24.1721 11.8759 24.2692C11.909 24.5363 11.9237 24.8053 11.92 25.0744C11.8416 26.9268 12.1502 28.7595 12.0963 30.6119C12.1001 30.6766 12.129 30.7371 12.1766 30.7805C12.2243 30.824 12.2869 30.8468 12.3511 30.8441L12.841 30.7898C14.1198 30.6366 15.3642 30.2414 16.6674 30.2513C17.0152 30.2513 17.1573 30.0784 17.2161 29.6931C17.2528 29.3652 17.2691 29.0352 17.2651 28.7052C17.2651 27.4999 16.9613 26.3242 16.834 25.1287C16.7409 24.2248 16.4861 23.3455 16.4763 22.4267C16.4648 22.2331 16.4435 22.0402 16.4126 21.8487C16.3293 21.1374 16.2068 20.431 16.1872 19.7197C16.1088 18.9445 15.9444 18.1807 15.6973 17.4424C15.6871 17.4029 15.6692 17.3659 15.6446 17.3335C15.62 17.3011 15.5892 17.2739 15.5541 17.2537C15.5189 17.2334 15.4801 17.2205 15.4399 17.2156C15.3998 17.2107 15.359 17.2139 15.3201 17.2251C15.2236 17.2399 15.1285 17.2631 15.0359 17.2942C14.2772 17.5665 13.5014 17.7877 12.7137 17.9562C11.4194 18.2308 10.1108 18.432 8.79422 18.5588C7.80327 18.7046 6.79659 18.7046 5.80565 18.5588C5.47908 18.518 5.14808 18.5313 4.82579 18.5983C4.31659 18.6848 3.79662 18.6848 3.28742 18.5983C2.87138 18.5463 2.45242 18.5215 2.0332 18.5242C1.73435 18.5242 1.60696 18.6379 1.59716 18.9145C1.58736 19.1911 1.59716 19.5023 1.59716 19.7938C1.62909 20.6711 1.5947 21.5497 1.49428 22.4217C1.45433 23.3647 1.36273 24.3047 1.21992 25.2374C1.20263 25.3652 1.19281 25.4938 1.19052 25.6227L0.896563 28.8287C0.842671 29.4461 0.783876 30.0587 0.739782 30.6761C0.715285 31.0318 0.774087 31.0911 1.10234 31.0614C2.22428 30.9725 3.3511 30.8935 4.47304 30.7898C5.72236 30.6761 5.66847 30.7898 5.90364 29.4412C5.99257 28.9926 6.01567 28.5332 5.97222 28.0778C5.99503 27.7345 5.9786 27.3898 5.92324 27.0503ZM11.3125 27.4603H11.2586C11.2586 26.8774 11.2586 26.2896 11.2586 25.7067C11.2243 24.7533 10.9842 24.5755 10.0337 24.8225C9.0783 25.1033 8.0893 25.2512 7.09416 25.2621C6.79531 25.2621 6.64343 25.4153 6.60424 25.7561C6.55368 26.2731 6.53241 26.7927 6.54054 27.3121C6.56101 28.0902 6.53483 28.8688 6.46215 29.6437C6.46215 29.8413 6.42787 30.034 6.41317 30.2316C6.41317 30.5724 6.43766 30.6416 6.75611 30.686C7.58899 30.7947 8.41697 30.9133 9.24985 30.9873C9.73939 31.0151 10.2301 31.0151 10.7196 30.9873C10.8176 30.9928 10.9138 30.959 10.9872 30.8933C11.0606 30.8276 11.1053 30.7354 11.1116 30.6366C11.3114 29.8819 11.3875 29.0993 11.337 28.3199C11.3115 28.0407 11.3017 27.7603 11.3076 27.4801L11.3125 27.4603ZM4.05661 9.0102C4.27708 8.51622 4.44365 8.1062 4.60043 7.71596C4.8062 7.22198 5.00706 6.69837 5.20793 6.18463C5.24223 6.10066 5.27654 5.98704 5.17365 5.9327C5.08942 5.89352 4.99481 5.88312 4.90418 5.90306C4.71801 5.94258 4.53673 6.01174 4.35056 6.06114C4.25569 6.08508 4.17204 6.14153 4.11394 6.22085C4.05583 6.30016 4.02691 6.39738 4.03211 6.49584C3.99291 7.23681 3.96841 7.97778 3.93902 8.71875C3.96456 8.82652 4.00238 8.93094 4.05171 9.02995L4.05661 9.0102Z" fill="white"/>
<path d="M11.288 21.414C11.3391 21.0625 11.3588 20.707 11.3468 20.352C11.3199 20.1912 11.3511 20.026 11.4347 19.8864C11.5183 19.7469 11.6488 19.6421 11.8024 19.5912C12.5574 19.307 13.358 19.1663 14.1639 19.1763C14.2453 19.1761 14.326 19.1928 14.4008 19.2252C14.4757 19.2577 14.5431 19.3052 14.5991 19.3648C14.6551 19.4245 14.6984 19.4951 14.7263 19.5723C14.7543 19.6494 14.7662 19.7315 14.7616 19.8135C14.8204 20.3964 14.8596 20.9842 14.9037 21.5671C14.9155 22.0553 14.8426 22.5418 14.6881 23.0046C14.6603 23.1358 14.5916 23.2546 14.4919 23.3435C14.3923 23.4324 14.267 23.4868 14.1345 23.4986C14.0108 23.53 13.8845 23.5498 13.7572 23.5579C13.0517 23.5085 12.3462 23.4541 11.6456 23.385C11.5473 23.3787 11.455 23.3348 11.3876 23.2623C11.3203 23.1898 11.2829 23.0941 11.2831 22.9947C11.237 22.4688 11.2386 21.9397 11.288 21.414ZM14.1394 21.5326C14.1002 21.1522 14.061 20.7323 14.0022 20.3124C13.9955 20.214 13.9568 20.1205 13.8922 20.0464C13.8275 19.9723 13.7405 19.9217 13.6445 19.9024C13.2604 19.8415 12.8674 19.8737 12.4981 19.9963C12.4544 20.0145 12.4152 20.0421 12.3831 20.077C12.3509 20.112 12.3267 20.1535 12.3119 20.1988C12.2286 20.5446 12.1503 20.8904 12.1013 21.2411C12.0622 21.4976 12.0474 21.7573 12.0572 22.0167C12.0572 22.5897 12.165 22.6835 12.7333 22.7428C12.8949 22.7428 13.0517 22.7675 13.2232 22.7725C13.9336 22.7971 14.1394 22.5946 14.1492 21.8635L14.1394 21.5326Z" fill="white"/>
<path d="M3.4491 19.937C3.88914 19.9852 4.33357 19.9028 4.72782 19.6999C5.18345 19.5517 5.37941 19.6653 5.4823 20.1445C5.64881 20.7057 5.67408 21.2999 5.5558 21.8734C5.51059 22.1281 5.48276 22.3855 5.47251 22.644C5.47251 22.8021 5.42842 22.9602 5.39902 23.138C5.34188 23.3922 5.21367 23.6245 5.02959 23.8075C4.8455 23.9905 4.61326 24.1164 4.36037 24.1704C3.98688 24.268 3.60428 24.3259 3.21883 24.3433C3.13847 24.3522 3.05717 24.3443 2.97998 24.32C2.90279 24.2958 2.83139 24.2558 2.77024 24.2025C2.70909 24.1491 2.6595 24.0837 2.62457 24.0102C2.58964 23.9367 2.57012 23.8567 2.56723 23.7752C2.52314 23.1331 2.50354 22.486 2.49374 21.8388C2.49374 21.4832 2.52313 21.1275 2.54763 20.7718C2.56108 20.6047 2.59062 20.4393 2.63581 20.2779C2.66168 20.1673 2.72452 20.0692 2.81375 19.9999C2.90298 19.9306 3.01316 19.8945 3.12574 19.8975C3.22863 19.9074 3.32661 19.9222 3.4491 19.937ZM4.91888 21.6561C4.91888 21.33 4.91888 21.1621 4.91888 21.0089C4.91302 20.9109 4.89992 20.8135 4.8797 20.7175C4.87613 20.6522 4.85675 20.5889 4.82327 20.5329C4.78979 20.4769 4.74322 20.4301 4.68763 20.3964C4.63204 20.3628 4.56912 20.3434 4.50439 20.34C4.43965 20.3365 4.37507 20.3491 4.31628 20.3766C4.05172 20.4754 3.78715 20.5841 3.52749 20.7076C3.44029 20.7483 3.36508 20.8111 3.30924 20.8899C3.25341 20.9687 3.21888 21.0608 3.20904 21.1571C3.15022 21.7688 3.16008 22.3853 3.23843 22.9948C3.26783 23.4887 3.50789 23.632 3.94393 23.4887C4.14981 23.4459 4.33806 23.3415 4.48405 23.189C4.63004 23.0365 4.72697 22.8431 4.76212 22.6341C4.81601 22.2637 4.8748 21.8783 4.914 21.6561H4.91888Z" fill="white"/>
</g>
<defs>
<clipPath id="clip0_5_28">
<rect width="18" height="32" fill="white"/>
</clipPath>
</defs>
</svg>
