<?xml version="1.0" encoding="utf-8"?>
<!-- Generator: Adobe Illustrator 25.2.0, SVG Export Plug-In . SVG Version: 6.00 Build 0)  -->
<svg version="1.1" id="Layer_1" xmlns="http://www.w3.org/2000/svg" xmlns:xlink="http://www.w3.org/1999/xlink" x="0px" y="0px"
	 viewBox="0 0 1848.4 991.7" style="enable-background:new 0 0 1848.4 991.7;" xml:space="preserve">
<style type="text/css">
	.st0{opacity:0.71;}
	.st1{fill:#1F2020;}
</style>
<g class="st0">
	<g>
		<path class="st1" d="M35.3,335c70.2-77.8,141.7-157.6,232.2-212.2c43-25.9,89.5-45.8,138.8-55.6c47.4-9.4,101.8-10.8,145.9,11.9
			c77.7,40,100.6,138.3,80.8,217.6c-11.9,47.7-36.3,91.2-65.5,130.4c-27.9,37.4-61.4,71.6-98.8,99.6
			c-71.7,53.7-163.1,90.2-253.7,72.9c-18.9-3.6-40-9.2-53.4-24.1c-16.1-17.9-8.4-44.6-1.5-64.8c15.1-44.3,45.3-81.9,78.1-114.4
			c68.7-68.2,152.3-122.7,241.8-159.5c44.9-18.5,91.6-32.8,139.2-42.6c51.6-10.6,104.8-16.7,157.5-12.4
			c91.2,7.5,185.2,57.2,208.2,152c11.7,47.9,4.5,98.7-9.4,145.3c-13.4,45.2-33.6,88.3-57.3,129c-46.6,80-109.8,150.8-184.8,205.2
			c-38.5,27.9-80.3,54.2-125.2,70.2c-22,7.9-45,13.5-68.6,13.3c-8.4-0.1-18.4-0.4-22.3-9.3c-0.9-2.1-1.2-4.3-1.2-7.3
			c0-4.1,0.7-7.6,1.8-11.6c4.8-17.4,15.2-32.8,24.7-47.9c11.6-18.5,24.1-36.1,38.7-52.4c30.7-34.6,67.1-63.5,106-88.4
			c38.9-25,80.2-46.1,122.1-65.6c48.6-22.6,98.2-43.2,149.4-59.6c94.7-30.2,196.4-45.3,294.4-22.4c81.8,19.1,166,64.7,209,139.7
			c34.5,60.2,28.4,134.8-7.2,193c-17.7,28.8-42.5,53-72.2,69.2c-26.4,14.5-68.4,30.4-95,11.7c-4.4-3.1-8.6-8.3-10.8-13.8
			c-3.5-8.7-3.2-18.1-2.3-27.3c2.1-21.1,9.7-41.8,19.7-60.3c21.2-39,53.1-70.8,86.1-99.9C1456.8,677,1539.8,616,1633,574.3
			c48.4-21.6,99-38.3,150.6-50.3c20.6-4.8,11.9-36.4-8.7-31.6c-112.3,26.1-217.3,75-310.5,142.7c-42.9,31.2-84.8,64.9-123.6,101.2
			c-35.5,33.3-67.9,71.2-86.3,116.8c-16.2,40-23.7,96.7,19.4,122.6c36.8,22.1,84.6,7.6,120-10.2c70.8-35.8,117.2-110.3,123.6-188.6
			c3.2-39.5-4.8-79.6-23.1-114.7c-21.2-40.7-56-74.6-93.2-100.8c-81-56.9-183.8-78.4-281.5-72c-116.4,7.7-226.9,49.8-331.6,98.8
			c-89.5,41.9-179.4,93.5-242.2,171.5c-14.4,17.8-26.9,36.8-38.8,56.3c-11.3,18.5-22.1,38.9-23.4,60.9
			c-1.5,24.7,14.8,46.9,39.6,51.2c25.7,4.4,53.7-0.7,78.4-8c50.2-14.8,96.7-42.2,139.4-72.1c41.6-29.1,80.1-62.6,114.5-100
			c68.5-74.5,124.3-165.5,152.6-263.1c15.1-51.9,21.5-108.2,8.2-161.3c-12.5-50.1-43.7-91.8-85.1-121.8
			c-91.6-66.4-213.5-61.2-319.2-39.6c-102.6,21-201.4,62.9-288,121.8c-43.4,29.5-84.8,63.2-120.9,101.4
			c-35.6,37.7-66.7,82.1-79.4,133.1c-6.9,27.9-5.8,56.9,14,79.3c15.6,17.7,39.5,27.1,62,32c49,10.8,100.4,7.9,148.6-5.6
			c98.6-27.7,182.8-95.4,244.1-175.8c61.5-80.7,103.1-187,67.5-287.4c-15.5-43.6-43.9-83.2-84.5-106.7c-49-28.4-108.4-29.9-163-21.4
			c-110.5,17.2-206.5,83.4-286,158.8c-40.1,38-77.2,79.1-114.2,120.1C-2,327.5,21.1,350.7,35.3,335L35.3,335z"/>
	</g>
</g>
</svg>
