<?xml version="1.0" encoding="utf-8"?>
<!-- Generator: Adobe Illustrator 26.5.0, SVG Export Plug-In . SVG Version: 6.00 Build 0)  -->
<svg version="1.1" id="Layer_1" xmlns="http://www.w3.org/2000/svg" xmlns:xlink="http://www.w3.org/1999/xlink" x="0px" y="0px"
	 viewBox="0 0 61.2 50.6" style="enable-background:new 0 0 61.2 50.6;" xml:space="preserve">
<style type="text/css">
	.st0{fill:#231F20;}
	.st1{fill:#E2E991;}
</style>
<circle class="st0" cx="30.3" cy="25" r="24.6"/>
<g>
	<circle class="st1" cx="42.3" cy="25" r="5.8"/>
	<g>
		<g>
			<path class="st1" d="M42.8,34.8H18.4c-5.4,0-9.8-4.4-9.8-9.8s4.4-9.8,9.8-9.8h24.4c5.4,0,9.8,4.4,9.8,9.8S48.2,34.8,42.8,34.8z
				 M18.4,17.2c-4.3,0-7.8,3.5-7.8,7.8s3.5,7.8,7.8,7.8h24.4c4.3,0,7.8-3.5,7.8-7.8s-3.5-7.8-7.8-7.8C42.8,17.2,18.4,17.2,18.4,17.2
				z"/>
		</g>
	</g>
</g>
</svg>
