<svg width="1920" height="1001" viewBox="0 0 1920 1001" fill="none" xmlns="http://www.w3.org/2000/svg">
<rect width="1920" height="685" fill="#FFDB58"/>
<path d="M1977 420.5C1977 463.302 1942.3 498 1899.5 498C1856.7 498 1822 463.302 1822 420.5C1822 377.698 1856.7 343 1899.5 343C1942.3 343 1977 377.698 1977 420.5Z" fill="#5C5470"/>
<path d="M359.563 859.043C292.369 817.007 81.8568 863.422 -15 891.884V662H1935V992.595C1911.54 863.422 1850.1 655.87 1791.98 859.043C1733.87 1062.22 1539.25 1003.54 1449.2 948.808C1336.46 842.258 1076.46 669.882 938.434 832.771C800.413 995.66 614.569 977.999 538.9 948.808C507.119 936.401 426.758 901.079 359.563 859.043Z" fill="#FFDB58"/>
</svg>
